<svg xmlns="http://www.w3.org/2000/svg" xmlns:xlink="http://www.w3.org/1999/xlink" width="36" height="36" viewBox="0 0 36 36">
    <defs>
        <rect id="a" width="36" height="36" rx="18"/>
    </defs>
    <g fill="none" fill-rule="evenodd">
        <mask id="b" fill="#fff">
            <use xlink:href="#a"/>
        </mask>
        <rect width="35.5" height="35.5" x=".25" y=".25" stroke="#CCC" stroke-width=".5" rx="17.75"/>
        <g fill-rule="nonzero" mask="url(#b)">
            <path fill="#1C1C1C" d="M7.351 16.817s1.33 2.673 1.002 4.937c-.328 2.265-2.175 3.331-2.963 1.913 0 0-3.874 5.356 12.804 5.356v-14.65L7.351 16.816z"/>
            <path fill="#1C1C1C" d="M28.09 16.155s-1.578 3.335-1.267 5.6c.311 2.264 2.061 3.33 2.808 1.912 0 0 3.67 5.356-12.131 5.356v-14.65l10.59 1.782z"/>
            <g transform="translate(7.083 10.186)">
                <path fill="#FFE1E7" d="M8.303 18.119h4.253v4.797H8.303z"/>
                <path fill="#FFCFD8" d="M8.303 18.685s1.788 1.147 4.252.881V18.12H8.303v.566z"/>
                <ellipse cx="2.17" cy="10.681" fill="#916A50" rx="2.075" ry="2.385"/>
                <ellipse cx="18.688" cy="10.681" fill="#916A50" rx="2.075" ry="2.385"/>
                <path fill="#FFE1E7" d="M18.68 6.126c0-3.512-2.552-6.082-8.25-6.082-5.7 0-8.251 2.57-8.251 6.082 0 3.513-.596 12.765 8.25 12.765s8.25-9.252 8.25-12.765z"/>
                <g transform="translate(6.192 9.034)">
                    <ellipse cx=".913" cy="1.075" fill="#260B00" rx="1" ry="1"/>
                    <ellipse cx="1.656" cy=".967" fill="#FFF" rx="1" ry="1"/>
                </g>
                <path fill="#1C1C1C" d="M5.676 7.986c.423.162 1.1-.554 2.653.07.283.113.452-.972-1.212-.972-1.44 0-1.696.803-1.44.902z"/>
                <g transform="translate(12.905 9.034)">
                    <ellipse cx=".958" cy="1.075" fill="#260B00" rx="1" ry="1"/>
                    <ellipse cx="1.656" cy=".967" fill="#FFF" rx="1" ry="1"/>
                </g>
                <path fill="#1C1C1C" d="M15.182 7.986c-.423.162-1.1-.554-2.653.07-.283.113-.452-.972 1.212-.972 1.44 0 1.696.803 1.44.902z"/>
                <path fill="#FFB2B2" d="M10.423 13.47c-.437 0-.7-.33-.7-.17 0 .159.126.461.7.461s.7-.302.7-.462c0-.159-.263.17-.7.17z"/>
                <path fill="#FA5575" d="M10.764 15.713c-1.083 0-1.736-.444-1.736-.332 0 .113.313.556 1.736.556s1.736-.443 1.736-.556c0-.112-.653.332-1.736.332z"/>
            </g>
            <path fill="#FA5575" d="M16.098 30.621c3.321.847 4.061 2.64 2.218 5.379H8.472c0-2.26 2.643-6.65 7.626-5.379z"/>
            <path fill="#FA5575" d="M19.57 30.582c-1.642.878-2.1 2.684-1.376 5.418h9.028c0-2.26-5.188-6.735-7.652-5.418z"/>
            <path fill="#FFE1E7" d="M15.387 30.502c.58 2.1 1.283 3.234 2.113 3.405 1.244.256 2.165-2.466 2.134-3.34-.031-.873-3.91-.592-4.247-.065z"/>
            <path fill="#F38191" d="M18.194 36l.544-2.794L18.194 36z"/>
            <path fill="#1C1C1C" d="M24.023 8.413S18.805 4.63 12.431 6.537c-6.062 1.814-6.19 9.505-5.994 13.841.195 4.336 1.759 4.857 3.322 4.252 2.068-.8 0-3.293 0-3.293 2.269-.232 2.672-5.17 2.672-5.17 2.978 1.102 8.823-2.189 8.823-2.189s1.374 2.744 3.12 2.44l.63 3c-.777 2.252-.657 3.722.362 4.41 1.528 1.031 4.003.005 3.938-5.215-.065-5.221-1.042-10.7-5.28-10.2z"/>
        </g>
    </g>
</svg>
