<svg xmlns="http://www.w3.org/2000/svg" width="24" height="23" viewBox="0 0 24 23">
    <g fill="none" fill-rule="evenodd">
        <path stroke="#FA5575" stroke-width="1.009" d="M6.47 17.825a.538.538 0 0 1-.238-.056.552.552 0 0 1-.3-.554l.365-3.268c-1.551-.395-2.947-1.181-3.976-2.244C1.148 10.485.5 8.947.5 7.37c0-1.855.861-3.594 2.424-4.894C4.457 1.202 6.486.5 8.64.5c2.154 0 4.185.702 5.717 1.976 1.562 1.3 2.422 3.04 2.422 4.894 0 1.596-.66 3.151-1.861 4.377-1.126 1.147-2.68 1.964-4.39 2.307L6.846 17.67a.538.538 0 0 1-.376.154z"/>
        <path fill="#FFF" d="M22.635 10.422c0-4.118-3.78-7.455-8.44-7.455-4.662 0-8.438 3.337-8.438 7.455 0 3.568 2.84 6.547 6.63 7.277l4.218 4.401-.465-4.431c3.722-.777 6.495-3.723 6.495-7.247"/>
        <path stroke="#FA5575" stroke-width="1.009" d="M16.923 19.433a.524.524 0 0 1-.346-.13l-3.53-3.172c-1.637-.298-3.124-1.012-4.203-2.017-1.153-1.077-1.789-2.444-1.789-3.849 0-1.635.826-3.163 2.327-4.305 1.464-1.114 3.404-1.727 5.462-1.727 2.057 0 3.998.613 5.462 1.727 1.502 1.142 2.329 2.67 2.329 4.305 0 1.387-.623 2.741-1.752 3.81-.983.932-2.32 1.618-3.802 1.963l.347 2.845a.489.489 0 0 1-.274.497.521.521 0 0 1-.231.053z"/>
        <path stroke="#FA5575" stroke-width=".7" d="M10.95 10.5h1.298M14.125 10.5h1.298M17.3 10.5h1.298"/>
    </g>
</svg>
