<svg xmlns="http://www.w3.org/2000/svg" width="20" height="20" viewBox="0 0 20 20">
    <g fill="none" fill-rule="evenodd">
        <path d="M10-4.142L24.142 10 10 24.142-4.142 10z"/>
        <g stroke="#7C7B7C">
            <path stroke-width="1.009" d="M2.965 13.565a2.505 2.505 0 0 1 3.47 3.47l1.8 1.8c.584.585 1.531.585 2.115 0l8.486-8.485a1.496 1.496 0 0 0 0-2.115l-1.8-1.8a2.505 2.505 0 0 1-3.47-3.47l-1.801-1.8a1.496 1.496 0 0 0-2.115 0L1.164 9.65a1.496 1.496 0 0 0 0 2.115l1.8 1.8z"/>
            <path stroke-linecap="round" stroke-linejoin="round" stroke-width=".7" d="M7.092 10.08L10 7.172M9.92 12.908L12.828 10"/>
        </g>
    </g>
</svg>
