<svg xmlns="http://www.w3.org/2000/svg" xmlns:xlink="http://www.w3.org/1999/xlink" width="14" height="14" viewBox="0 0 14 14">
    <defs>
        <path id="a" d="M0 0h14v14H0z"/>
    </defs>
    <g fill="none" fill-rule="evenodd">
        <mask id="b" fill="#fff">
            <use xlink:href="#a"/>
        </mask>
        <path fill="#FFD33F" d="M13.955 5.28a.88.88 0 0 0-.704-.62l-3.779-.574L7.783.51A.871.871 0 0 0 7 0a.87.87 0 0 0-.783.509l-1.69 3.577-3.779.574a.886.886 0 0 0-.705.62.943.943 0 0 0 .222.937L2.997 9l-.644 3.933a.93.93 0 0 0 .348.892c.265.203.626.23.92.07L7 12.036l3.38 1.856a.847.847 0 0 0 .92-.07.93.93 0 0 0 .347-.891l-.645-3.932 2.735-2.783a.939.939 0 0 0 .22-.935" mask="url(#b)"/>
    </g>
</svg>
