<svg xmlns="http://www.w3.org/2000/svg" xmlns:xlink="http://www.w3.org/1999/xlink" width="24" height="24" viewBox="0 0 24 24">
    <defs>
        <path id="a" d="M0 0h23.998v22.657H0z"/>
    </defs>
    <g fill="none" fill-rule="evenodd" transform="translate(0 1)">
        <mask id="b" fill="#fff">
            <use xlink:href="#a"/>
        </mask>
        <path fill="#FF0062" d="M21.26 10.381c-.564 1.596-1.993 4.304-6.09 4.957-5.053.806-11.937-.005-12.306-5.621-.436-6.652 9.08-8.145 12.774-6.44 5.594 2.583 1.63 6.504-1.334 6.504-2.895 0-3.54-1.69-3.827-2.164-.288-.475-1.193-1.602-2.648-.742-1.189.703-.917 2.236-.365 3.105.697 1.097 3.165 2.856 6.863 2.856 3.565 0 6.434-2.598 7.037-5.742.438-2.285-1.453-5.002-4.455-6.103C14.586.139 12.366-.302 8.777.234 3.6 1.008 0 5.445 0 9.721c0 5.142 4.027 10.322 8.75 11.532l.056.014v.934c1.03.297 2.116.456 3.239.456 1.099 0 2.163-.153 3.174-.438v-.971a12.217 12.217 0 0 0 8.77-10.807l.01-.06H21.26z" mask="url(#b)"/>
    </g>
</svg>
