<svg xmlns="http://www.w3.org/2000/svg" xmlns:xlink="http://www.w3.org/1999/xlink" width="15" height="15" viewBox="0 0 15 15">
    <defs>
        <path id="a" d="M.001.005h14v14h-14z"/>
    </defs>
    <g fill="none" fill-rule="evenodd">
        <mask id="b" fill="#fff">
            <use xlink:href="#a"/>
        </mask>
        <path fill="#000" d="M7.498 3.145c-1.139 0-2.062.938-2.062 2.096 0 1.158.923 2.096 2.062 2.096 1.139 0 2.062-.938 2.062-2.096 0-1.158-.923-2.096-2.062-2.096zm0 3.494A1.386 1.386 0 0 1 6.123 5.24c0-.771.616-1.398 1.375-1.398.76 0 1.374.627 1.374 1.398 0 .772-.615 1.398-1.374 1.398zm0-6.639C4.462 0 2 2.477 2 5.532c0 3.056 5.498 8.444 5.498 8.444s5.498-5.388 5.498-8.444C12.996 2.477 10.534 0 7.498 0zm0 12.933S2.687 8.219 2.687 5.544 4.84.7 7.498.7s4.811 2.17 4.811 4.844c0 2.675-4.811 7.389-4.811 7.389z" mask="url(#b)"/>
    </g>
</svg>
