<svg xmlns="http://www.w3.org/2000/svg" xmlns:xlink="http://www.w3.org/1999/xlink" width="36" height="36" viewBox="0 0 36 36">
    <defs>
        <path id="a" d="M0 0h36v36H0z"/>
    </defs>
    <g fill="none" fill-rule="evenodd">
        <g>
            <mask id="b" fill="#fff">
                <use xlink:href="#a"/>
            </mask>
            <path fill="#FF5477" d="M36 18c0 9.941-8.059 18-18 18S0 27.941 0 18 8.059 0 18 0s18 8.059 18 18" mask="url(#b)"/>
        </g>
        <path fill="#FFF" d="M26.418 17.547c-.491 1.37-1.735 3.693-5.3 4.253-4.396.692-10.385-.004-10.706-4.823-.38-5.707 7.9-6.988 11.114-5.525 4.867 2.216 1.418 5.58-1.16 5.58-2.52 0-3.08-1.45-3.33-1.857-.251-.407-1.038-1.374-2.305-.636-1.034.603-.797 1.919-.317 2.664.607.942 2.754 2.45 5.971 2.45 3.102 0 5.598-2.229 6.123-4.926.381-1.96-1.264-4.292-3.876-5.237-2.022-.731-3.953-1.11-7.075-.65-4.505.665-7.637 4.472-7.637 8.141 0 4.412 3.504 8.856 7.613 9.895l.048.011v.802c.897.254 1.842.391 2.819.391.956 0 1.882-.131 2.762-.375v-.834c.396-.099 6.829-1.807 7.63-9.272l.008-.052h-2.382z"/>
    </g>
</svg>
