<svg xmlns="http://www.w3.org/2000/svg" width="24" height="24" viewBox="0 0 24 24">
    <g fill="none" fill-rule="evenodd">
        <path d="M0 0h24v24H0z"/>
        <g stroke="#FFF">
            <path stroke-width="1.009" d="M14.845 5.221a8.614 8.614 0 0 0-.645-.024c-4.153 0-7.517 2.973-7.517 6.642 0 1.966.968 3.732 2.507 4.947l-1.537 1.51a.48.48 0 0 1-.547.087.492.492 0 0 1-.267-.493l.325-2.91c-1.382-.353-2.626-1.053-3.541-2C2.577 11.894 2 10.524 2 9.12c0-1.652.767-3.202 2.16-4.36C5.525 3.626 7.332 3 9.25 3c1.92 0 3.728.626 5.093 1.76.177.148.344.302.5.461z"/>
            <path stroke-width="1.009" d="M16.63 19.866a.466.466 0 0 1-.309-.116l-3.144-2.826c-1.458-.266-2.783-.901-3.744-1.797-1.027-.959-1.594-2.177-1.594-3.428 0-1.456.736-2.818 2.074-3.835 1.303-.992 3.032-1.538 4.865-1.538 1.832 0 3.561.546 4.865 1.538 1.338 1.017 2.075 2.379 2.075 3.835 0 1.236-.555 2.442-1.56 3.394-.876.83-2.067 1.44-3.387 1.749l.309 2.534a.435.435 0 0 1-.245.442.464.464 0 0 1-.205.048z"/>
            <path stroke-width=".7" d="M11.309 11.908h1.156M14.137 11.908h1.157M16.966 11.908h1.156"/>
        </g>
    </g>
</svg>
