<?xml version="1.0" encoding="UTF-8"?>
<svg width="30px" height="30px" viewBox="0 0 30 30" version="1.1" xmlns="http://www.w3.org/2000/svg" xmlns:xlink="http://www.w3.org/1999/xlink">
    <!-- Generator: Sketch 50.2 (55047) - http://www.bohemiancoding.com/sketch -->
    <title>ico_back01 1</title>
    <desc>Created with Sketch.</desc>
    <defs></defs>
    <g id="首頁+搜索" stroke="none" stroke-width="1" fill="none" fill-rule="evenodd">
        <g id="1.1_首頁_有定位权限未在服务范围内" transform="translate(-16.000000, -27.000000)">
            <g id="ico_back01" transform="translate(16.000000, 27.000000)">
                <g>
                    <path d="M15.0001348,29.8314607 C6.80878652,29.8314607 0.168674157,23.1913483 0.168674157,15 C0.168674157,6.80865169 6.80878652,0.168539326 15.0001348,0.168539326 C23.1911461,0.168539326 29.8315955,6.80865169 29.8315955,15 C29.8315955,23.1913483 23.1911461,29.8314607 15.0001348,29.8314607 Z" id="Stroke-10" fill="#0033EE"></path>
                    <path d="M20.8496292,16.830573 L20.8496292,24.9642809 C20.8496292,25.6593371 21.4135618,26.2232697 22.108618,26.2232697 C22.8043483,26.2232697 23.3682809,25.6593371 23.3682809,24.9642809 L23.3682809,13.8292247 L20.8496292,16.830573 Z" id="Fill-1" fill="#FFFFFF"></path>
                    <path d="M10.8287865,25.8714607 L12.6335056,23.7208989 C10.1977753,23.5216854 8.40957303,21.0353933 9.42485393,18.4125843 C9.78788764,17.4751685 10.543618,16.7342697 11.4850787,16.3813483 C13.8486742,15.4955056 16.0915955,16.8788764 16.6356404,18.9508989 L18.4383371,16.8026966 C18.4383371,16.8023596 18.4386742,16.8020225 18.4383371,16.8016854 C17.0232809,14.3167416 13.9727191,12.8841573 10.749573,13.9773034 C9.00283146,14.5695506 7.61811236,15.9417978 7.01608989,17.6855056 C5.75710112,21.3333708 7.73777528,24.7702247 10.8271011,25.8717978 C10.8277753,25.8717978 10.8284494,25.8717978 10.8287865,25.8714607" id="Fill-3" fill="#FFFFFF"></path>
                    <path d="M12.8407416,26.2365169 C12.8404045,26.2365169 12.8407416,26.2368539 12.8407416,26.2368539 C16.3780449,26.2955056 19.2637753,23.4455056 19.2637753,19.9220225 C19.2637753,19.5104494 19.2233258,19.1086517 19.1481573,18.7193258 L12.8407416,26.2365169 Z" id="Fill-5" fill="#FFFFFF"></path>
                    <path d="M8.08382022,11.1296629 L12.6849438,11.1296629 L12.6849438,10.4288764 L8.08382022,10.4288764 L8.08382022,11.1296629 Z M8.08382022,9.70988764 L12.6849438,9.70988764 L12.6849438,9.01853933 L8.08382022,9.01853933 L8.08382022,9.70988764 Z M11.0069663,6.16921348 L11.0069663,8.08719101 L9.76179775,8.08719101 L9.76179775,6.16921348 L6.36842697,6.16921348 L6.36842697,5.44988764 L9.76179775,5.44988764 L9.76179775,4.86876404 L6.58078652,4.86876404 L6.58078652,4.14977528 L12.9616854,4.14977528 L13.0904494,3.76247191 L14.3908989,3.76247191 L14.0126966,4.86876404 L11.0069663,4.86876404 L11.0069663,5.44988764 L14.3908989,5.44988764 L14.3908989,6.16921348 L11.0069663,6.16921348 Z M13.9297753,8.53853933 L13.9297753,11.8489888 L6.83898876,11.8489888 L6.83898876,8.53853933 L6.19314607,8.53853933 L7.58561798,6.48235955 L9.01516854,6.48235955 L7.78853933,8.2988764 L12.998427,8.2988764 L11.7535955,6.48235955 L13.1831461,6.48235955 L14.5934831,8.53853933 L13.9297753,8.53853933 Z" id="Fill-7" fill="#FFFFFF"></path>
                    <path d="M19.9058427,6.30741573 L21.2430337,6.30741573 L21.2430337,5.26516854 L19.9058427,5.26516854 L19.9058427,6.30741573 Z M21.1877528,7.04494382 L20.1091011,7.04494382 L19.6108989,7.87483146 L21.685618,7.87483146 L21.1877528,7.04494382 Z M19.4359551,9.60842697 L21.805618,9.60842697 L21.805618,8.61269663 L19.4359551,8.61269663 L19.4359551,9.60842697 Z M23.0504494,9.14730337 L23.0504494,10.3462921 L19.4359551,10.3462921 L19.4359551,11.1114607 L23.7417978,11.1114607 L23.3824719,11.8489888 L18.1907865,11.8489888 L18.1907865,9.14730337 L17.4903371,9.14730337 L18.7351685,7.04494382 L17.4994382,7.04494382 L17.4994382,6.30741573 L18.6613483,6.30741573 L18.6613483,5.26516854 L17.6932584,5.26516854 L17.6932584,4.52764045 L18.6613483,4.52764045 L18.6613483,3.77157303 L19.9058427,3.77157303 L19.9058427,4.52764045 L21.2430337,4.52764045 L21.2430337,3.77157303 L22.4878652,3.77157303 L22.4878652,4.52764045 L23.4653933,4.52764045 L23.4653933,5.26516854 L22.4878652,5.26516854 L22.4878652,6.30741573 L23.6683146,6.30741573 L23.6683146,7.04494382 L22.5616854,7.04494382 L23.8065169,9.14730337 L23.0504494,9.14730337 Z M16.3651685,8.22539326 L15.4894382,6.06775281 L16.8080899,6.06775281 L17.6838202,8.22539326 L16.3651685,8.22539326 Z M16.6880899,11.8489888 L15.4065169,11.8489888 L16.2637079,8.57561798 L17.5452809,8.57561798 L16.6880899,11.8489888 Z M16.3469663,5.76337079 L15.3879775,3.76247191 L16.7066292,3.76247191 L17.665618,5.76337079 L16.3469663,5.76337079 Z" id="Fill-9" fill="#FFFFFF"></path>
                </g>
            </g>
        </g>
    </g>
</svg>