<svg xmlns="http://www.w3.org/2000/svg" xmlns:xlink="http://www.w3.org/1999/xlink" width="160" height="160" viewBox="0 0 160 160">
    <defs>
        <path id="a" d="M.2.266h81.777v10.3H.2z"/>
    </defs>
    <g fill="none" fill-rule="evenodd">
        <path fill="#FF5D7F" d="M87.298 58.837c-3.221 1.865-8.538 4.834-9.749 8.613-.674 2.103-.184 4.81-.168 6.983a186.88 186.88 0 0 1-.201 9.668c-.019.392.405.54.709.407 3.338-1.464 4.171-6.36 5.408-9.409.81-1.993 1.397-4.093 3.298-5.419 1.172-.817 2.831-1.188 4.16-1.63 1.7-.565 5.91-2.772 7.564-2.226.579.19.827-.72.251-.91-1.27-.418-2.76.477-3.942.867-2.45.807-5.154 1.41-7.475 2.547-3.04 1.49-3.853 4.226-5.04 7.21-.398 1.004-2.658 8.019-3.928 7.182-.644-.423.147-7.181.14-8.287-.028-3.84-.523-6.537 2.46-9.708 1.942-2.067 4.558-3.666 6.99-5.073.525-.305.05-1.12-.477-.815"/>
        <path fill="#FF5D7F" d="M84.216 58.217c-3.429 1.35-8.73 4.13-10.034 7.854-1.381 3.942.4 9.89 2.852 13.058.372.48 1.035-.193.668-.667-2.525-3.26-3.834-8.7-1.94-12.43 1.75-3.439 5.172-5.514 8.705-6.905.558-.22.315-1.132-.251-.91"/>
        <path fill="#060100" d="M80.292 81.84c1.053.807 2.175 1.211 3.492 1.32.273.023.447-.235.472-.47a24.223 24.223 0 0 0-.56-8.384c-.143-.59-1.053-.34-.91.25.652 2.69.822 5.384.526 8.133l.472-.472c-1.15-.095-2.11-.497-3.016-1.192-.481-.37-.952.45-.476.815"/>
        <path fill="#FF5D7F" d="M113.285 40.036c-5.973 2.398-11.159 6.06-16.513 9.564-5.598 3.665-11.515 6.01-17.555 8.81-4.557 2.113-7.022 5.68-7.735 10.661-.613 4.282-.009 8.517 4.742 9.21.594.088.85-.822.251-.91-7.254-1.059-3.961-12.745-.336-16.021 3.284-2.967 8.472-4.015 12.424-5.916 8.709-4.192 15.96-10.87 24.972-14.489.556-.223.314-1.136-.25-.91"/>
        <path fill="#060100" d="M84.735 78.799c.748-.153 3.291-.253 2.894-1.613-.192-.662-1.127-1.212-1.605-1.65l-2.289-2.095c-.447-.41-1.116.257-.667.667l2.797 2.56c.193.176.509.362.636.582.16.276.205.086-.113.25-.502.258-1.352.276-1.904.389-.595.122-.343 1.031.25.91"/>
        <path fill="#FF5D7F" d="M75.17 72.936c-4.74 1.17-8.628 4.959-10.4 9.508-1.773 4.548-1.544 9.742.13 14.327 1.927 5.275 5.602 9.696 9.21 14l6.656 7.943a74.74 74.74 0 0 0 1.524 1.703s.947-1.144 1.246-1.482c2.505-2.834 5.246-6.747 7.414-9.848 2.029-2.9 3.698-4.62 5.247-7.294 3.736-6.447 6.16-14.16 2.379-20.582-3.782-6.42-13.25-10.456-20.529-8.86"/>
        <path fill="#FFF" d="M77.75 91.92c-3.688-.824-4.97-4.84-2.962-7.983 1.547-2.42 4.494-3.536 7.24-3.626 1.394-.045 2.869.139 4.197.577 4.615 1.52 6.519 6.98 1.93 10.046-1.389.929-4.315 1.07-5.32 2.542-1.048 1.538.17 5.197.35 6.884.063.598 1.007.604.943 0-.145-1.367-1.015-4.179-.58-5.455.509-1.492 2.769-1.97 4.04-2.603 2.043-1.018 3.984-2.548 4.524-4.88 1.038-4.483-4.006-7.402-7.77-7.936-4.131-.587-9.08.877-10.898 4.956-1.598 3.588.218 7.53 4.055 8.388.592.132.845-.777.252-.91"/>
        <path fill="#FFF" d="M78.743 92.007c-1.294-1.077-3.676-2.921-4.136-4.577-.94-3.37 2.813-4.542 5.081-5.175 2.962-.827 8.018-.34 6.824 4.35-.35 1.374-1.93 2.69-2.966 3.617-1.36 1.217-2.597 1.972-3.009 3.839-.674 3.062.327 7.097.547 10.206.043.615.878.599.943 0l1.116-1.175c.43.143.686-.348.533-.693l-.413-.498c-.053.605.892.601.943 0 .066-.77.09-.674-.346-1.312-.211-.308-.603-.297-.815 0-.604.842-.6 1.354-.183 2.286l.533-.693c-1.621-.536-2.152.62-2.311 2.085h.943c-.24-3.401-1.347-7.674.179-10.762 1.238-2.505 3.865-3.85 5.12-6.423 1.15-2.36-.06-4.59-2.411-5.635-3.13-1.39-8.496.08-10.835 2.471-2.888 2.954 1.862 6.98 3.995 8.756.464.386 1.135-.278.668-.667M82.984 108.669c.06-1.074 1.346-1.118 1.729-.217l-.048-.364c-.135.613-.622 1.142-1.27 1.22-.585.069-1.015-.285-1.028-.874-.009-.425.216-.978.712-.957.613.026.95.938.588 1.395-.343.431-1.122.38-1.505.04-.487-.434-.353-1.234.038-1.68.235-.267.539-.413.895-.344.26.05.544.288.27.504-.37.289-1.17.023-1.543-.121l.33.58c.149-.437.652-.47.974-.22.48.37.95-.45.476-.816-.839-.647-2.035-.17-2.36.785-.088.259.103.493.329.581.814.315 2.232.497 2.73-.44.561-1.06-.582-1.89-1.553-1.804-1.163.102-1.938 1.332-1.83 2.435.113 1.132 1.156 1.86 2.258 1.73 1.098-.13 1.82-1.135 1.513-2.215-.274-.97-1.351-1.702-2.324-1.196-.835.433-1.119 1.555-.829 2.403.361 1.058 1.564 1.39 2.54 1a2.507 2.507 0 0 0 1.358-1.307c.274-.633.041-1.185-.51-1.587-1.24-.903-2.803.018-2.884 1.469-.034.606.91.605.944 0"/>
        <path fill="#FFF" d="M73.206 89.16a31.382 31.382 0 0 1 2.838 2.847c.294.334.773.04.805-.334.108-1.232-1.292-1.549-1.57-2.576l-.79.46 1.872 1.726.459-.789a.736.736 0 0 1-.475-.183c-.464-.385-1.135.28-.668.668.277.23.53.373.892.425.422.06.843-.434.46-.789l-1.872-1.725c-.34-.313-.916-.009-.79.459.13.477.426.836.772 1.178.326.322.81.637.767 1.146.269-.11.537-.223.805-.333a31.382 31.382 0 0 0-2.838-2.847c-.454-.4-1.123.264-.667.667M76.933 82.788a35.29 35.29 0 0 1 6.772-1.61l-.25-.91c-1.9.577-3.7.79-5.669.68v.944c1.9-.183.702-.103 2.586-.425l2.055-.337c-.693.249-1.36.174-2.001-.225v.91c4.296-1.478 8.328.923 9.103 5.393l.79-.46c-1.64-1.402-2.591-2.844-3.207-4.907l-.789.459c1.359 1.818 1.615 3.583.77 5.29l.862-.112c-.917-1.535-1.202-3.203-.856-5.003l-.862.114c.869 1.89.703 3.359.495 5.226-.057.524.837.65.927.125.298-1.71.904-2.98 2.116-4.271l-.805-.334c.196 1.986-.195 3.768-.736 5.66l.91.25c.567-1.582.122-1.564-1.333.052.152.263.306.526.459.788 2.646-2.517 3.248-6.487-.354-8.396-.406-.215-.894.226-.645.646.572.875 1.03 1.808 1.374 2.8-1.01 1.617-1.402 1.552-1.18-.195-.234-.737-.19-1.345-.521-2.015-.689-1.39-1.607-1.92-3.092-2.018-.443-.029-.576.52-.334.805 2.205 2.607 3.067 4.158.53 7.851-.325.472-.614.559-.988 1.139-.244.376.263.937.645.645l4.121-3.15-.571-.74L83.92 90.9c-.356.368.13 1.074.572.74l3.7-2.79-.573-.741a29.506 29.506 0 0 0-3.194 3.122c-.336.38.1 1.053.572.74l3.618-2.393c.504-.333.056-1.12-.476-.815-5.213 2.986-9.662 5.587-7.121 12.1.197.505.868.413.927-.126l.595-5.432h-.943c-.013 2.005.19 3.792.647 5.741l.91-.25a17.825 17.825 0 0 1-.567-5.482l-.927.125c.368 1.926.402 3.327.198 5.204-.066.603.878.599.943 0 .205-1.89.122-3.605-.23-5.454-.104-.544-.903-.384-.928.125-.098 2.04.086 3.76.601 5.732.153.589 1.048.34.91-.25a23.103 23.103 0 0 1-.614-5.491c.005-.62-.878-.59-.943 0L81 100.737l.927-.125c-1.08-2.765-1.183-5.249 1.126-7.331 1.638-1.476 3.659-2.614 5.561-3.703l-.476-.815c-1.206.799-2.413 1.596-3.619 2.394l.572.741a29.506 29.506 0 0 1 3.194-3.122c.406-.341-.142-1.065-.57-.741l-3.7 2.79.572.741 3.334-3.441c.356-.369-.132-1.077-.572-.742l-4.12 3.15.644.645c1.123-1.738 2.884-2.007 3.09-4.315.205-2.281-1.401-4.189-2.78-5.818l-.332.806c6.118.404 1.13 5.122 3.292 6.834.638.505.798.57 1.516.254 2.589-1.14.207-5.767-.575-7.08l-.645.645c2.695 2.533 2.748 4.839.163 6.915-.345.327.011.912.459.788 2.41-.67 3.585-2.646 3.096-5.085-.07-.35-.555-.452-.789-.208-1.205 1.257-1.79 2.33-2.135 4.08-.116.59.741.841.91.251.578-2.02.976-3.805.77-5.91-.037-.38-.503-.656-.806-.333-1.326 1.41-2.025 2.774-2.358 4.688l.927.125c.237-2.14.268-3.76-.625-5.703-.16-.348-.807-.283-.862.113-.293 2.112-.024 3.817.95 5.729.2.392.733.238.863-.112.87-2.34.504-4.27-1.012-6.21-.3-.382-.916.035-.79.46.652 2.178 1.723 3.846 3.45 5.324.37.316.87.01.789-.459-.877-5.044-5.434-7.714-10.265-6.052a.476.476 0 0 0 0 .91c1.716.565 3.07.651 4.84.373.354-.056.447-.564.207-.788-2.213-2.07-4.745-.71-7.436-.451-.598.057-.615.91 0 .943 2.088.116 3.92-.106 5.92-.714.598-.182.333-.99-.251-.91-2.34.32-4.543.844-6.773 1.61-.57.197-.325 1.108.251.91M83.02 107.552c-.403.01-.708.396-.54.793.177.42.75.41 1.07.673.163.134.463.776.02.758-.207-.007-.41-.302-.467-.473-.028-.085-.017-.155-.033-.241-.01-.053-.097-.215.003-.137l.074.572c.14-.235.31-.411.545-.557.515-.32.042-1.136-.476-.814-.37.228-.66.521-.884.895-.096.16-.087.446.074.571.382.297.908.343 1.272-.029.354-.36.28-.942-.1-1.25-.39-.317-.953-.266-1.253.145-.286.394-.237.951-.023 1.366.465.897 1.822 1.32 2.32.211a1.412 1.412 0 0 0-.16-1.41 1.963 1.963 0 0 0-.54-.494c-.179-.113-.563-.193-.678-.302l.138.334-.02.1-.408.234c.022 0 .044 0 .066-.002.606-.013.608-.957 0-.943"/>
        <path fill="#FF5D7F" d="M119.434 135.564s2.726-1.336 2.634 0c-.092 1.335-.47 4.688-.47 4.688s.517 2.285-1.757 1.808c-2.274-.475-3.753-.632-5.285.066-1.533.697-3.201 2.022-7.629 1.76-4.428-.26-9.182-2.04-12.57-.284-3.39 1.757-11.468 2.483-17.55 1.717-6.08-.768-9.713-.24-11.705.664-1.992.904-10.529 1.19-14.662.508-4.135-.683-7.85 1.55-7.85 1.55s-4.036 1.001-4.698-.616c-.662-1.617-.27-7.641-.27-7.641s3.18 2.047 5.172 2.448c1.993.402 3.05.636 8.717-1.622 5.668-2.26 6.424.393 8.956.706 2.533.313 5.459-.187 8.59-1.532 3.129-1.344 7.408.44 8.706.736 1.298.296 4.9.782 8.827-2.312 0 0 3.404-.943 9.23.477 6.424-.574 5.3.284 9.12-1.419 3.82-1.702 4.125 1.344 8.96 0 4.835-1.342 2.9-1.702 5.534-1.702M58.395 123.104c-6.793 2.705-13.826 4.777-20.62 7.482-.467.186-.443.926.126.927a552.486 552.486 0 0 0 74.23-4.8c.593-.08.601-1.023 0-.944a552.485 552.485 0 0 1-74.23 4.8l.125.927c6.794-2.705 13.826-4.778 20.62-7.482.557-.222.314-1.135-.251-.91M122.17 123.83l-8.627 1.223c-.599.084-.344.994.25.91l8.628-1.223c.598-.085.344-.994-.25-.91"/>
        <path fill="#FF5D7F" d="M37.313 132.714c-.566 4.373-.245 8.488.035 12.86.269 4.196-.1 8.475-.224 12.674-.018.607.926.607.944 0 .124-4.2.492-8.478.223-12.675-.28-4.373-.601-8.481-.034-12.859.077-.6-.867-.595-.944 0M122.006 126.407a229.508 229.508 0 0 1-1.76 22.903c-.077.6.867.595.943 0a229.508 229.508 0 0 0 1.76-22.903c.016-.608-.927-.607-.943 0"/>
        <g transform="translate(39.264 149.217)">
            <mask id="b" fill="#fff">
                <use xlink:href="#a"/>
            </mask>
            <path fill="#FF5D7F" d="M.765 9.571c.072-.084 5.786.053 6.444.013l5.777-.348c3.9-.237 7.798-.47 11.696-.71 7.646-.468 15.29-.962 22.925-1.586 7.63-.624 15.25-1.375 22.843-2.359 2.992-.388 7.16-.21 9.859-1.527 1.209-.59 1.735-1.03 1.66-2.334-.034-.603-.977-.607-.943 0 .218 3.821-39.88 5.786-44.507 6.103-6.879.471-13.761.878-20.644 1.294l-10.11.61c-1.5.091-4.294-.44-5.428.813-.16.176-.203.496 0 .667l.266.223c.182.154.49.207.666 0 .055-.064.11-.127.163-.191.39-.461-.274-1.13-.667-.668" mask="url(#b)"/>
        </g>
        <path fill="#FF5D7F" d="M90.495 112.598c1.113-.494 2.759-.652 3.427.63.458.878-.104 1.818.564 2.66.378.475 1.04-.196.667-.667-.374-.472-.038-1.427-.224-2.02a2.67 2.67 0 0 0-.946-1.31c-1.192-.9-2.685-.676-3.964-.107-.554.246-.074 1.059.476.814"/>
        <path fill="#FF5D7F" d="M94.851 113.52c.647-.052 1.342-.11 1.974.07 1.063.3 1.178 1.164 1.406 2.084.257 1.032.803 1.936 1.954 1.991.607.03.606-.914 0-.943-1.107-.053-1.06-1.761-1.344-2.487-.177-.45-.43-.83-.822-1.12-.892-.662-2.118-.623-3.168-.539-.6.049-.606.993 0 .944"/>
        <path fill="#FF5D7F" d="M98.979 114.947c.79-.252 2.048-.672 2.74.011.436.429.5 1.387.866 1.912.653.937 1.672 1.405 2.79 1.462.605.03.604-.913 0-.944-1.263-.064-1.992-.792-2.397-1.926-.201-.564-.355-1.042-.878-1.404-.977-.674-2.336-.351-3.372-.02-.576.183-.33 1.094.25.909"/>
        <path fill="#FF5D7F" d="M103.309 115.921c.737-.072 1.49-.147 2.23-.075 1.435.141 2.148.903 2.857 2.074.65 1.07 1.453 1.95 2.79 1.818.598-.06.604-1.004 0-.944-1.774.177-2.455-2.764-3.956-3.473-1.216-.574-2.62-.47-3.921-.343-.6.059-.605 1.003 0 .943"/>
        <path fill="#FF5D7F" d="M109.18 117.72c.896-.3 1.993-.641 2.937-.33 1.37.452 1.43 1.784 2.135 2.78.713 1.005 1.747 1.481 2.936 1.64.6.08.594-.864 0-.943-2.615-.35-2.234-2.971-4.113-4.079-1.266-.748-2.838-.417-4.146.022-.573.192-.327 1.104.251.91"/>
        <path fill="#FF5D7F" d="M114.999 119.37c1.458-.5 2.93-.293 4.198.584.5.346.972-.471.475-.815a5.465 5.465 0 0 0-4.924-.679c-.571.196-.326 1.107.25.91M90.347 114.541c-.373 1.241.247 2.453 1.318 3.127 1.455.914 3.267.474 4.81.065.586-.155.337-1.066-.251-.91-1.066.283-2.236.628-3.337.344-1.055-.274-1.974-1.231-1.63-2.375.174-.583-.736-.832-.91-.25"/>
        <path fill="#FF5D7F" d="M95.93 118.594c1.905 2.359 5.01 1.487 7.412.533.558-.221.314-1.134-.252-.91-2.083.828-4.806 1.8-6.492-.29-.381-.472-1.046.2-.668.667"/>
        <path fill="#FF5D7F" d="M101.204 119.964c1.269 3.096 4.913.27 7.018.542.6.077.595-.867 0-.943-1.07-.139-1.961.2-2.955.564-.916.335-2.637.844-3.154-.414-.227-.554-1.14-.312-.91.25"/>
        <path fill="#FF5D7F" d="M105.786 121c.993.675 2.026 1.315 3.27 1.265 1.473-.06 2.883-1.227 4.354-.65.565.223.81-.688.251-.909-1.038-.407-1.937-.147-2.966.195-1.758.585-2.92.313-4.433-.716-.503-.342-.976.475-.476.815"/>
        <path fill="#FF5D7F" d="M111.105 122.183a5.791 5.791 0 0 0 4.216 1.84c.608.005.608-.938 0-.944-1.38-.012-2.605-.558-3.549-1.563-.416-.443-1.083.225-.667.667M118.519 123.89c.268-.683.61-1.473 1.244-1.902.313-.21.702-.333 1.08-.325.3.005.582.079.845.222.464.202.512.556.145 1.06-.599.096-.344 1.005.25.909a1.29 1.29 0 0 0 1.068-1.425c-.089-.83-.866-1.416-1.623-1.617-2.03-.542-3.272 1.175-3.919 2.827-.221.566.691.81.91.25"/>
        <path fill="#FF5D7F" d="M119.28 120.139c.341.333.7.645 1.169.777.37.105 1.235.006 1.391.446.201.569 1.113.324.91-.25-.17-.48-.529-.783-1.015-.928-.28-.084-.575-.08-.859-.139-.395-.08-.646-.298-.928-.573-.435-.424-1.103.243-.668.667M40 141.16c2.549 1.925 5.366 2.416 8.402 1.348 1.769-.623 3.41-1.828 5.23-2.245 3.608-.825 4.753 1.236 7.68 1.768 2.89.527 5.53-1.126 8.2-1.904 2.57-.75 4.432-.453 6.874.4 1.46.509 2.73.938 4.302.738 1.288-.165 2.477-.79 3.616-1.37 2.745-1.398 5.007-2.217 8.138-1.657 3.72.664 6.398 1.652 10.056.273.77-.29 1.472-.7 2.265-.936 1.93-.576 3.54-.208 5.41.147 1.24.235 2.073.432 3.332.153 1.64-.362 3.04-1.414 4.628-1.917 1.05-.331 2.516-.05 3.411-.67.265-.182.302-.496.096-.74l-.138-.163c-.17-.2-.491-.16-.667 0l-.109.1c-.45.41.22 1.076.668.667.75-.685-3.56-.128-3.573-.124-1.274.435-2.403 1.256-3.705 1.62-3.415.954-6.257-1.165-9.775.042-2.996 1.028-4.958 2.027-8.164 1.452-1.773-.317-3.48-.966-5.287-1.108-2.95-.229-4.985 1.077-7.543 2.299-2.576 1.23-4.575 1.044-7.21.09-1.211-.438-2.4-.838-3.703-.817-3.217.053-5.944 2.179-9.098 2.458-3.517.312-5.838-2.706-9.435-1.877-4.898 1.128-8.403 4.95-13.424 1.158-.485-.365-.955.454-.477.816M38.853 148.5c2.867 1.095 5.156-.845 7.96-1.402 3.53-.7 7.191.342 10.762.299 3.42-.043 6.643-.69 9.928-1.585 4.318-1.174 8.04-.441 12.38-.063 3.207.28 6.449.275 9.624-.3 1.716-.311 3.32-.862 4.975-1.388 2.604-.827 4.785-.521 7.416-.07 2.685.463 5.444.944 8.156.385 1.628-.335 2.95-1.179 4.496-1.705 2.026-.689 3.916-.176 5.91.13.223.034.404-.027.533-.217l.21-.31c.125-.183.055-.417-.074-.571l-.194-.233c-.39-.465-1.055.206-.667.668-1.362-1.625-3.588-1.288-5.503-.593-1.464.532-2.81 1.361-4.325 1.752-2.521.653-5.102.322-7.63-.097-2.83-.468-5.198-1.041-8.016-.239-4.104 1.17-7.847 2.133-12.18 2.008-3.532-.102-7.048-1.073-10.57-.977-3.798.103-7.39 1.846-11.176 2.266-3.524.39-6.88-.09-10.385-.3-1.51-.09-3.007-.078-4.474.299-2.303.59-4.363 2.304-6.905 1.333-.568-.218-.813.694-.25.91"/>
        <path fill="#FFF" d="M51.643 141.74l-1.561 1.472c-.13.123-.27.271-.253.448.02.23.277.345.49.433a4.019 4.019 0 0 1 2.051 1.947c.07.146.16.316.32.328.118.008.218-.077.304-.156l3.547-3.274a53.716 53.716 0 0 0-4.696-1.533"/>
        <path fill="#FF5D7F" d="M51.31 141.407c-.546.514-2.125 1.453-1.936 2.378.082.404.403.534.706.716.872.519 1.267.996 1.883 1.777.348.443.61.692 1.177.415.582-.285 1.091-.981 1.567-1.421l2.168-2c.281-.26.106-.672-.208-.79a60.045 60.045 0 0 0-4.697-1.533c-.586-.164-.835.745-.251.91 1.588.447 3.151.958 4.697 1.534l-.208-.789-2.365 2.183c-.071.065-1.116 1.115-1.182 1.091.314.112-.364-.84-.317-.776-.398-.535-.868-.876-1.415-1.236-.423-.28-.46-.083-.318-.504.135-.405 1.05-.99 1.366-1.288.443-.418-.226-1.085-.667-.667"/>
        <path fill="#FFF" d="M67.054 141.18l-1.646 1.328c-.122.098-.25.205-.292.356-.083.303.223.57.516.681.293.11.636.166.827.415.148.191.181.471.379.61.206.144.487.066.725-.017.939-.33 1.879-.658 2.818-.987a7.132 7.132 0 0 0-2.715-2.957"/>
        <path fill="#FF5D7F" d="M66.72 140.847c-1.02.821-3.208 2.106-1.213 3.153.234.123.47.204.664.41.166.174.131.33.333.493.2.16.437.208.686.205 1.041-.01 2.34-.745 3.317-1.087.295-.104.429-.41.281-.693a8.032 8.032 0 0 0-2.884-3.126c-.514-.327-.988.49-.476.814a7.087 7.087 0 0 1 2.546 2.788l.282-.693-2.114.74c-.32.113-.595.297-.93.165-.276-.11-.302-.275-.504-.467-.216-.207-.96-.366-.967-.708-.005-.222 1.429-1.152 1.646-1.327.473-.381-.198-1.046-.667-.667"/>
        <path fill="#FFF" d="M80.142 144.056c.725-.99 1.49-1.954 2.29-2.885.242-.28.514-.573.877-.638.592-.105 1.085.427 1.45.905l1.315 1.725c.104.138.215.296.191.468-.038.27-.365.378-.634.428l-2.928.544c-.752.139-1.815.071-1.919-.686"/>
        <path fill="#FF5D7F" d="M80.55 144.294a43.24 43.24 0 0 1 1.918-2.439c.175-.216.36-.424.552-.626.39.086.781.17 1.171.255.38.226.8 1.03 1.08 1.4.347.453.513.483.026.76-.317.177-.894.164-1.256.232-.563.104-2.533.748-2.801-.084-.186-.576-1.098-.33-.91.251.469 1.456 2.174 1.075 3.335.859.832-.155 3.452-.163 3.008-1.644-.219-.728-1.104-1.567-1.58-2.154-.374-.458-.817-.955-1.44-1.034-.844-.108-1.358.541-1.853 1.118a47.226 47.226 0 0 0-2.065 2.63c-.361.49.457.96.815.476"/>
        <path fill="#FFF" d="M74.443 140.345c-.576.346-1.218.797-1.26 1.466-.06.971 1.113 1.48 2.06 1.703.15.036.317.07.452-.006a.577.577 0 0 0 .194-.212c.395-.63.621-1.423.36-2.117-.262-.695-1.142-1.163-1.79-.802"/>
        <path fill="#FF5D7F" d="M74.204 139.937c-.902.555-1.93 1.51-1.315 2.666.425.8 1.757 1.483 2.662 1.42 1.129-.078 1.438-2.04 1.182-2.875-.328-1.067-1.494-1.643-2.513-1.178-.55.252-.072 1.066.477.815.625-.286 1.171.42 1.191.978.013.356-.098.824-.303 1.119-.178.256-.3.167-.599.073-.426-.133-1.026-.342-1.248-.768-.339-.654.478-1.15.943-1.435.516-.318.043-1.133-.477-.815"/>
        <path fill="#FFF" d="M59.236 143.9c-.282.402-.57.814-.684 1.29-.115.477-.02 1.037.359 1.346.564.461 1.409.176 2.124.318.308-.83.363-1.81-.1-2.566-.464-.755-1.549-1.146-2.29-.66"/>
        <path fill="#FF5D7F" d="M58.828 143.663c-.566.813-1.126 1.868-.557 2.838.583.993 1.698.666 2.639.809.264.04.489-.065.58-.33.367-1.073.404-2.408-.423-3.29-.684-.732-1.78-.97-2.66-.47-.529.3-.053 1.116.476.816.574-.326 1.299-.047 1.644.49.425.66.292 1.506.053 2.202l.58-.329c-.547-.082-1.384.118-1.864-.17-.793-.475.007-1.602.348-2.09.347-.499-.47-.971-.816-.476"/>
        <path fill="#FFF" d="M40.587 144.844l1.643-1.955a6.052 6.052 0 0 1 1.493 2.437c.041.128.076.271.017.391-.056.113-.179.172-.293.222-.781.348-1.64.704-2.466.484-.825-.22-1.428-1.321-.86-1.96"/>
        <path fill="#FF5D7F" d="M40.92 145.178l1.643-1.955h-.667c.395.408.73.845.997 1.346.091.171.448.713.375.882-.088.206-.472.263-.667.333-.519.185-1.18.39-1.697.1-.423-.237-.685-.762-.376-1.183.361-.489-.457-.96-.814-.477-.475.646-.298 1.498.217 2.069.628.693 1.56.764 2.425.556.733-.177 1.963-.506 1.868-1.45-.105-1.03-.973-2.133-1.66-2.844-.167-.17-.506-.193-.668 0-.547.653-1.095 1.304-1.642 1.955-.388.463.275 1.133.667.668"/>
        <path fill="#FFF" d="M91.066 138.014a.447.447 0 0 0-.286-.375l-.907 1.687c-.125.233-.253.475-.268.738-.03.484.326.908.713 1.2.62.469 1.409.75 2.177.642.77-.11 1.491-.663 1.678-1.417.152-.614-.045-1.298.212-1.877"/>
        <path fill="#FF5D7F" d="M91.522 137.889c-.133-.337-.216-.442-.505-.657-.2-.148-.534-.037-.645.17-.453.843-1.401 1.987-1.204 3.008.18.933 1.21 1.59 2.057 1.846.872.264 1.826.158 2.558-.405 1.11-.853.687-1.95 1.057-3.114.185-.58-.725-.828-.91-.25-.197.62-.044 1.264-.212 1.877-.231.84-1.16 1.202-1.96 1.055-.85-.155-1.968-.867-1.478-1.855.284-.57.605-1.125.907-1.687l-.646.17.07.092c.22.559 1.133.316.91-.25"/>
        <path fill="#FFF" d="M99.41 141.644c.424-.626.983-1.2 1.701-1.44.717-.24 1.61-.062 2.037.563.426.625.143 1.663-.594 1.837-.32.076-.654-.008-.984-.012-.503-.005-1.072.164-1.469-.146a.753.753 0 0 1-.225-.857"/>
        <path fill="#FF5D7F" d="M99.817 141.882c.527-.746 2.195-2.145 2.946-.808.355.628-.098 1.051-.698 1.082-.303.016-1.88.127-1.733-.442.152-.588-.758-.84-.91-.25-.124.475-.042.977.347 1.314.453.395 1.03.312 1.582.292.593-.02 1.216.151 1.748-.196.408-.265.65-.738.703-1.212.125-1.1-.762-1.913-1.807-2.016-1.3-.128-2.292.77-2.993 1.76-.35.496.467.968.815.476"/>
        <path fill="#FFF" d="M108.856 137.266c-.348.391-.862.583-1.287.89-.425.306-.781.844-.588 1.33.099.248.318.422.485.628.626.771.645 2.092 1.575 2.438.494.184 1.07-.028 1.437-.407.366-.379.556-.893.679-1.405.245-1.023.08-2.38-.915-2.718"/>
        <path fill="#FF5D7F" d="M108.523 136.933c-.867.812-2.811 1.547-1.78 3.066.419.62.715 1.172 1.041 1.846.245.508.578.97 1.133 1.163 2.683.929 3.904-4.333 1.563-5.394-.55-.248-1.03.565-.476.816.846.382.874 1.386.698 2.184-.133.603-.694 2.083-1.723 1.357-.278-.194-.409-.674-.53-.963-.202-.482-.513-.877-.739-1.326-.575-1.148.824-1.467 1.48-2.082.444-.416-.224-1.083-.667-.667"/>
        <path fill="#FFF" d="M116.35 137.327c-.751.382-1.4.964-1.861 1.67-.073.112-.144.243-.114.373.025.114.121.196.212.268l1.954 1.59 2.656-1.563c.126-.074.267-.169.285-.314.018-.144-.09-.269-.193-.369a5.585 5.585 0 0 0-2.95-1.466"/>
        <path fill="#FF5D7F" d="M116.113 136.919c-.771.425-2.066 1.294-2.191 2.257-.046.354.098.547.33.797.554.59 1.328 1.079 1.956 1.587.164.135.377.188.57.075.869-.512 1.848-.963 2.656-1.562.34-.252.579-.501.477-.948-.27-1.186-2.438-1.87-3.446-2.064-.592-.114-.847.795-.25.91.51.098 1.003.232 1.472.463.221.11 1.308.743 1.27.853-.044.124-.955.533-1.16.655-.499.292-.996.585-1.494.878l.572.074-1.117-.908c-.168-.136-.817-.512-.838-.68-.073-.572 1.26-1.346 1.669-1.572.531-.294.056-1.109-.476-.815M61.51 116.393c-2.042 1.224-1.277 3.602-.121 5.251 1.87 2.666 5.147 3.85 8.307 3.86.827.004 2.171.085 2.827-.585.881-.9.672-3.504.545-4.532-.332-2.692-1.947-5.397-4.584-6.387-3.3-1.238-4.303 1.855-7.238 2.196-2.567.3-3.39 2.232-3.604 4.862-.59 7.257 10.677 6.014 14.758 4.084.547-.26.069-1.073-.477-.815-3.103 1.468-9.556 2.468-12.25-.245-2.54-2.555-.752-5.698 1.89-6.734.805-.315 1.41-.44 2.21-.941.725-.454 1.043-.75 1.879-1.192 1.655-.879 3.053-.372 4.375.885 1.443 1.373 2.705 4.218 2.142 6.212-.917 3.244-4.262 2.421-6.578 1.44-1.388-.587-6.889-4.576-3.605-6.543.52-.312.046-1.128-.476-.816"/>
        <path fill="#FF5D7F" d="M60.933 116.057c-.845-.24-2.178-.377-2.824-1.008l-.46.789a6.008 6.008 0 0 0 4.233.124c.573-.193.327-1.105-.25-.91-1.258.423-2.505.377-3.731-.124-.452-.185-.774.481-.459.788.812.794 2.19.952 3.24 1.25.585.166.835-.743.25-.91"/>
        <path fill="#FF5D7F" d="M62.33 115.618a7.615 7.615 0 0 0-.511-3c-.215-.554-1.071-.349-.91.25.262.979.867 2.944 2.206 2.783 1.274-.154 1.134-2.345 1.195-3.263h-.943c.05.654.104 2.044.948 2.184.946.158 1.759-1.408 2.071-2.074l-.862-.363c-.605 1.627-1.83 2.859-3.414 3.546l.571.74a2.806 2.806 0 0 1 1.113-.678l-.363-.863-1.32.68c-.54.277-.063 1.091.477.814l1.318-.679c.472-.243.147-1.033-.363-.863-.591.199-1.08.49-1.529.923-.414.399.111.94.572.74 1.82-.788 3.16-2.258 3.848-4.11.185-.496-.636-.847-.863-.363-.165.354-.462 1.098-.81 1.27-.247.123-.131.203-.306-.002-.12-.14-.138-.807-.145-.902-.048-.604-.903-.61-.943 0-.021.313-.045.625-.079.937-.004.033-.077 1.045-.164 1.115l-.646-.194a6.51 6.51 0 0 1-.292-.556 6.773 6.773 0 0 1-.367-1.072c-.304.085-.607.168-.91.25.346.897.504 1.79.478 2.75-.016.608.928.608.943 0M65.547 118.31c1.175 1.085 1.255 3.087 2.944 3.635.189.062.302-.182.184-.315-.313-.348-1.512-1.378-1.314-1.897l-.316.083c.366.412.769.74 1.246 1.014.21.121.401-.205.19-.326a4.613 4.613 0 0 1-1.169-.954c-.102-.116-.268-.04-.315.083-.318.83.946 1.748 1.411 2.264l.184-.315c-1.543-.502-1.683-2.526-2.778-3.54-.178-.164-.446.102-.267.268M63.303 120.206l.74.06c.241.02.24-.358 0-.377l-.74-.06c-.241-.02-.24.357 0 .377M65.492 121.873c.243 0 .243-.377 0-.377s-.243.377 0 .377M68.902 123.25l.022-.276c.02-.242-.357-.242-.377 0l-.023.277c-.02.241.358.24.378 0M68.706 116.517c-.048.213-.096.426-.146.64-.053.236.31.337.365.1l.145-.64c.053-.236-.31-.337-.364-.1M69.941 118.948a.56.56 0 0 1-.305.202c-.229.08-.13.444.1.364.188-.066.334-.154.473-.299.167-.176-.1-.443-.268-.267M70.68 120.618l-.092-.007c-.242-.02-.24.357 0 .377l.092.007c.242.02.241-.357 0-.377M59.603 120.177l.05.25c.047.238.41.137.364-.101l-.05-.249c-.048-.238-.411-.137-.364.1"/>
        <path fill="#060100" d="M59.148 120.895l-.011.14c-.02.242.357.24.377 0l.012-.14c.02-.241-.358-.24-.378 0M59.303 122.369l.151.292c.111.216.436.025.325-.19l-.15-.293c-.11-.216-.437-.025-.326.19M59.885 122.134l.157.223c.14.198.466.009.326-.19l-.157-.223c-.138-.198-.466-.01-.326.19M60.415 121.652l.189.261c.14.195.468.006.326-.19a77.828 77.828 0 0 1-.19-.261c-.14-.195-.468-.007-.325.19M60.08 123.586l.292.269c.179.164.446-.102.267-.267l-.293-.27c-.179-.163-.446.103-.267.268M61.006 123.356c.243 0 .243-.377 0-.377-.242 0-.243.377 0 .377M62.097 123.812c.133.081.266.163.4.243.208.126.398-.2.19-.326-.134-.08-.266-.161-.4-.243-.208-.126-.398.2-.19.326M61.28 124.375l.265.197c.194.145.382-.181.19-.326l-.264-.197c-.195-.144-.383.184-.19.326M62.79 125.077l.244.02c.242.02.24-.357 0-.378-.081-.006-.162-.012-.244-.02-.241-.019-.24.36 0 .378M63.613 124.865c.243 0 .243-.378 0-.378s-.243.378 0 .378M64.81 125.628c.093.007.186.016.28.022.24.02.24-.357 0-.377l-.28-.023c-.24-.02-.24.358 0 .378"/>
        <path fill="#FF5D7F" d="M73.442 118.347a33.603 33.603 0 0 0 6.449-2.447c.543-.273.065-1.086-.477-.815a32.43 32.43 0 0 1-6.224 2.352c-.585.156-.337 1.066.252.91M86.257 115.126c.904 1.123 3.121.874 4.317.502.578-.18.331-1.09-.25-.91-.876.272-2.721.583-3.4-.259-.381-.473-1.044.199-.667.667M89.83 111.749c.005-.003-.04.361-.065.431-.06.174-.147.337-.206.51-.118.346-.149.705-.009 1.047.227.555 1.14.313.91-.25-.154-.378.094-.704.215-1.056.113-.328.162-.69.02-1.018-.225-.522-.842-.77-1.34-.48-.524.307-.05 1.123.476.816M104.105 81.192c.889 3.407.458 6.815-1.25 9.892-.297.53.518 1.007.814.476 1.831-3.296 2.298-6.97 1.345-10.619-.153-.587-1.063-.338-.91.25M109.047 87.107l-1.696 3.394c-.271.541.542 1.02.814.476l1.697-3.394c.27-.54-.543-1.02-.815-.476M55.302 94.817c.545 2.785 2.223 5.138 4.66 6.585.524.31.999-.505.476-.815-2.241-1.331-3.726-3.465-4.227-6.02-.116-.596-1.025-.344-.91.25M51.893 100.042c1.597 2.428 3.827 4.218 6.536 5.268.567.22.811-.693.25-.91a12.511 12.511 0 0 1-5.97-4.834c-.334-.505-1.151-.033-.816.476"/>
        <path fill="#FFF" d="M98.445 65.369c.15.146.18.374.196.582a10.164 10.164 0 0 1-2.07 6.903 14.789 14.789 0 0 1-3.825 4.85c-1.696 1.406-3.851 2.63-4.391 4.767l6.059-1.277c.849-.179 1.7-.359 2.52-.644 7.913-2.752 9.901-11.07 13.852-17.269 2.07-3.249 5.56-5.267 8.914-7.16"/>
        <path fill="#FF5D7F" d="M97.99 65.494c1.459 4.332-3.25 9.938-6.289 12.433-1.62 1.33-3.047 2.411-3.801 4.418-.136.361.26.648.58.58 6.938-1.462 12.584-2.453 16.741-8.657 1.837-2.741 3.145-5.784 4.745-8.66 2.375-4.268 5.809-6.715 9.972-9.08.529-.3.053-1.114-.476-.814-4.561 2.59-8.017 5.2-10.546 9.846-2.445 4.489-4.386 9.589-8.661 12.695-2.356 1.712-6.596 3.363-9.603 3.25-1.234.586-1.526.457-.877-.388.19-.547.535-.975 1.034-1.285.967-.97 2.213-1.66 3.194-2.628 2.721-2.689 6.246-7.952 4.897-11.96-.193-.573-1.104-.327-.91.25M85.918 69.376c.179 1.431.552 2.787 1.134 4.107.244.555 1.057.076.815-.476a12.976 12.976 0 0 1-1.006-3.63c-.074-.595-1.019-.603-.943 0"/>
        <path fill="#FF5D7F" d="M103.378 46.653a38.624 38.624 0 0 1 10.125 12.983c.263.546 1.077.069.814-.476a39.2 39.2 0 0 0-10.272-13.174c-.463-.386-1.134.278-.667.667"/>
    </g>
</svg>
