<svg xmlns="http://www.w3.org/2000/svg" xmlns:xlink="http://www.w3.org/1999/xlink" width="160" height="160" viewBox="0 0 160 160">
    <defs>
        <path id="a" d="M.211.733H86.89V28.61H.21z"/>
        <path id="c" d="M.769.678h88.857v48.545H.77z"/>
    </defs>
    <g fill="none" fill-rule="evenodd">
        <path fill="#FF5D7F" d="M51.275 114.137a102.203 102.203 0 0 0-11.19 7.404 104.08 104.08 0 0 0-3.792 3.017c-.673.563-3.393 2.264-3.478 3.127-.253 2.561 7.574 4.477 9.456 5.168 12.04 4.42 24.53 7.815 37.04 10.603 4.424.985 8.91 1.991 13.429 2.434 5.172.507 8.95-2.744 12.995-5.711 3.466-2.543 6.8-5.262 10.267-7.805 1.024-.752 4.75-2.154 4.233-4.046-.484-1.767-5.012-2.226-6.41-2.61-3.596-.986-7.248-1.734-10.91-2.434-8.717-1.666-17.48-3.38-26.14-5.28-8.469-1.858-16.141-6.874-24.97-3.917-.399.133-.228.768.175.633 7.292-2.441 14.491.664 21.405 3.042 5.976 2.056 12.757 2.68 18.936 4.068 5.954 1.338 11.999 2.243 17.936 3.656 1.533.365 3.059.762 4.574 1.198.283.082 2.132.428 2.452.74 2.898 2.816.49 2.355-.424 3.518-1.047 1.332-3.267 2.417-4.635 3.464-1.696 1.3-3.377 2.619-5.083 3.906-3.916 2.957-8.49 7.362-13.708 6.984-3.685-.266-7.368-1.075-10.976-1.832-10.288-2.157-20.485-4.876-30.51-8.033-5.367-1.689-10.77-3.462-15.91-5.763-2.015-.902-2.105-1.576-.785-3.363 1.262-1.71 4.103-3.4 5.717-4.61a101.677 101.677 0 0 1 10.638-6.99c.368-.21.036-.778-.332-.568"/>
        <path fill="#FF5D7F" d="M55.988 110.197c-5.712-.29-10.795 3.854-15.23 6.984-2.512 1.772-4.895 3.722-7.272 5.667-1.715 1.403-5.02 3.19-5.924 5.28-1.81 4.188 5.812 5.931 8.368 6.955a193.634 193.634 0 0 0 11.668 4.247c1.157.38 4.565.821 5.235 1.837.454.69.035 1.587-.05 2.532-.026.279.248.481.496.496 2.563.16 5.077.605 7.49 1.498 1.606.595 3.9 2.574 5.622 2.776.67.077.927-.063 1.615-.25 1.355-.366 2.723-1.623 4.288-1.804 1.13-.131 2.756.254 3.87.382 5.021.583 9.35 1.935 14.066 3.638 3.192 1.152 6.04 1.354 9.157-.132 7.733-3.686 14.185-10.97 20.802-16.289 1.392-1.118 5.885-3.46 5.697-5.985-.154-2.062-3.258-2.71-4.777-3.182-.612-.19-.874.767-.264.957.634.198 2.46.512 2.775 1.016 1.205 1.926-.482 3.616-1.776 4.632a224.477 224.477 0 0 0-3.445 2.742c-2.796 2.28-5.522 4.647-8.291 6.96-3.069 2.562-6.155 5.346-9.595 7.402-4.648 2.777-8.247 1.55-12.863-.23-3.24-1.248-6.609-1.906-10.043-2.349-2.315-.299-5.397-1.125-7.688-.298-1.232.445-1.597 1.197-2.979 1.316-1.723.148-3.06-1.066-4.642-1.75a24.966 24.966 0 0 0-4.382-1.429c-1.602-.363-4.661.013-3.477-2.77.125-.292.041-.629-.297-.729a203.066 203.066 0 0 1-14.544-4.866c-2.69-1.02-5.377-2.074-8.005-3.241-1.391-.619-3.123-2.748-2.507-4.47.196-.548 2.224-1.837 2.665-2.195 3.597-2.918 7.112-5.975 10.989-8.522 4.005-2.632 8.211-6.088 13.248-5.832.638.032.637-.961 0-.994"/>
        <path fill="#FF5D7F" d="M57.915 140.85c-.186.344-.33.806-.065 1.093.1.11.245.17.383.225a45.449 45.449 0 0 0 8.537 2.483c.09.017.188.033.274 0 .085-.033.144-.106.2-.176l.605-.763c-.282-.29-.684-.422-1.07-.542-2.9-.909-5.826-1.733-8.773-2.473"/>
        <g transform="translate(35.1 131.157)">
            <mask id="b" fill="#fff">
                <use xlink:href="#a"/>
            </mask>
            <path fill="#FF5D7F" d="M.272 3.893c1.94 3.759 4.924 7.928 7.975 10.88.998.965 1.81 1.17 3.187 1.584 7.111 2.134 14.314 3.984 21.487 5.893 7.285 1.94 14.573 3.882 21.886 5.714 2.346.588 4.132 1.156 6.364-.141 3.483-2.024 6.684-4.815 9.87-7.26 2.683-2.058 5.844-4.018 7.921-6.718 2.972-3.862 5.098-8.363 7.84-12.387.362-.53-.498-1.027-.857-.501-2.22 3.257-4.14 6.72-6.273 10.035-1.74 2.703-3.606 4.397-6.12 6.376-3.492 2.75-7.032 5.451-10.644 8.04-2.492 1.788-4.647 2.396-7.637 1.649a1363.986 1363.986 0 0 1-40.348-10.73c-1.598-.45-4.05-.71-5.455-1.652-1.23-.824-2.276-2.684-3.192-3.837-1.87-2.353-3.762-4.766-5.146-7.446-.294-.568-1.152-.066-.858.501" mask="url(#b)"/>
        </g>
        <g transform="translate(50.199 77.117)">
            <mask id="d" fill="#fff">
                <use xlink:href="#c"/>
            </mask>
            <path fill="#FF5D7F" d="M6.04 33.148c-2.64-1.43-4.182-3.06-3.773-6.368.26-2.102 1.87-4.46 2.847-6.374 1.748-3.425 3.777-6.707 5.97-9.864 3.166-4.558 5.714-9.239 11.947-8.727 3.768.308 7.632.968 11.364 1.524 2.229.332 5.032 1.46 7.264.713.965-.323 1.728-1.134 2.682-1.504 2.592-1.007 5.234.005 7.784.567 2.105.463 3.578 1.063 4.789 2.883.29.437.43 1.125.796 1.493.454.456 1.16.63 1.747.85 7.36 2.754 15.388 4.136 22.998 6.041 2.87.719 6.822 1.026 5.998 4.822-.69 3.18-2.168 6.354-3.282 9.399-1.61 4.397-3.255 8.784-4.998 13.131-.563 1.404-1 3.248-1.9 4.471-1.264 1.72-5.3 2.616-7.244 1.575-.564-.302-1.066.555-.502.858 2.37 1.269 7 .384 8.538-1.795 2.16-3.057 3.193-7.666 4.506-11.122 1.792-4.713 3.566-9.44 5.177-14.218.852-2.527 1.876-5.348-1.163-6.73-3.582-1.63-8.037-2.131-11.829-3.072-5.054-1.254-10.19-2.398-15.143-4.022-2.217-.727-2.111-1.412-3.497-3.244-1.851-2.446-5.304-2.43-8.155-3.033-3.15-.665-3.65-.018-6.49 1.038-4.139 1.539-10.994-.459-15.466-1.045C23.055.88 19.223-.41 15.967 2.622c-3.23 3.009-5.805 7.33-8.133 11.027-2.596 4.123-5.845 9.137-6.91 13.983-.798 3.635 1.597 4.74 4.614 6.374.563.304 1.064-.552.501-.858" mask="url(#d)"/>
        </g>
        <path fill="#FF5D7F" d="M59.182 105.596c-4.001-1.757 8.523-18.943 10.149-20.577 3.046-3.059 8.088-1.584 11.83-.905a606.579 606.579 0 0 1 41.503 9.076c1.987.512 12.914 2.143 10.89 5.8-.205.37.362.702.567.332 1.12-2.022-.035-3.343-1.966-4.216-4.06-1.833-9.138-2.524-13.46-3.597a606.465 606.465 0 0 0-33.592-7.33c-3.909-.737-8.779-2.298-12.8-1.526-2.969.57-4.47 3.095-6.139 5.402a93.365 93.365 0 0 0-7.782 12.85c-.938 1.87-1.97 4.188.468 5.258.383.168.719-.397.332-.567"/>
        <path fill="#FFDADD" d="M55.577 115.465c.153 4.331.646 8.608 1.23 12.898.058.417.69.24.635-.175-.578-4.235-1.056-8.448-1.207-12.723-.016-.422-.674-.424-.658 0"/>
        <path fill="#FFDADD" d="M53.833 130.75c3.806-3.987 9.725-1.623 14.381-.782 2.841.513 5.63 1.318 8.446 1.954 3.354.758 6.772.993 10.12 1.794 5.117 1.225 10.203 2.6 15.301 3.905.411.105.585-.53.176-.634-5.802-1.485-11.603-3.23-17.477-4.401-3.857-.77-7.682-1.226-11.522-2.148-3.59-.862-7.22-1.632-10.85-2.291-3.344-.608-6.585-.433-9.04 2.139-.293.306.171.772.465.465"/>
        <path fill="#FA5575" d="M20.123 105.924a28.138 28.138 0 0 0 5.609 1.91c.3.067.427-.393.127-.461a27.492 27.492 0 0 1-5.494-1.862c-.277-.128-.52.284-.242.413M26.878 98.162l3.697 3.411c.225.208.564-.129.337-.338l-3.696-3.41c-.225-.209-.564.128-.338.337M36.696 88.8a97.041 97.041 0 0 0 3.67 9.97c.122.28.533.039.413-.241a96.181 96.181 0 0 1-3.622-9.856c-.09-.293-.551-.169-.46.127"/>
    </g>
</svg>
