<svg xmlns="http://www.w3.org/2000/svg" xmlns:xlink="http://www.w3.org/1999/xlink" width="184" height="166" viewBox="0 0 184 166">
    <defs>
        <path id="a" d="M0 .205h139.675v62.687H0z"/>
        <path id="c" d="M.11.33h2.38v9.436H.11z"/>
        <path id="e" d="M.349.172h93.566v34.192H.349z"/>
    </defs>
    <g fill="none" fill-rule="evenodd">
        <circle cx="164" cy="124" r="20" fill="#FFF"/>
        <path d="M174 131h-14v-14h14z"/>
        <path fill="#8C8C8C" fill-rule="nonzero" d="M164.057 118.87c.127 0 .256.043.363.129l5.619 4.557a.587.587 0 0 1 0 .91L164.444 129a.576.576 0 0 1-.814-.09.587.587 0 0 1 .089-.82l5.032-4.078-5.057-4.103a.587.587 0 0 1-.09-.82.58.58 0 0 1 .453-.218z"/>
        <g>
            <g transform="translate(0 15)">
                <mask id="b" fill="#fff">
                    <use xlink:href="#a"/>
                </mask>
                <path fill="#FFF" d="M102.482 61.593c-11.834-.027-23.568-1.474-35.415-1.145-4.96.139-9.865.742-14.808 1.1-6.5.473-13.046.408-19.556.221-4.669-.134-9.33-.44-14-.542-3.474-.075-7.983.682-11.128-.983-3.713-1.967-4.63-5.94-4.666-9.813-.099-10.505-1.244-20.915-1.525-31.405-.1-3.73-.842-8.301.928-11.718 2.23-4.305 6.262-5.885 10.849-5.88 5.204.004 10.407.052 15.611.099 6.535.058 13.081-.08 19.611.178 4.715.186 9.404.731 14.116.945 11.423.516 22.944.263 34.381.28 5.935.01 11.824-.102 17.732-.69 2.214-.22 4.427-.446 6.649-.582 3.278-.2 7.18-.767 10.396-.074 9.051 1.949 6.755 14.98 6.79 21.75.027 5.073.084 10.146.114 15.22.02 3.565.03 7.13.032 10.694.004 4.324-.54 8.941-4.737 11.273-3.108 1.727-7.46.969-10.918 1.088-3.232.112-6.458.203-9.692.21-.688 0-.689 1.075 0 1.073a263.65 263.65 0 0 0 9.047-.185c3.114-.113 6.61.325 9.653-.333 5.606-1.21 7.688-6.773 7.717-11.943.067-12.213-.164-24.429-.173-36.643-.005-5.454-1.335-11.857-7.55-13.24-2.993-.666-6.436-.183-9.474-.03-2.626.132-5.239.388-7.854.648-12.127 1.209-24.377.632-36.547.586C64.516 1.7 51.056.524 37.515.5 31.921.489 26.33.416 20.735.379 14.511.34 7.58-.83 3.016 4.39-1.264 9.286.18 16.946.456 22.934c.235 5.09.766 10.158 1.054 15.244.187 3.309.28 6.622.315 9.935.032 3.025-.17 6.047 1.216 8.833 3.123 6.275 9.758 5.226 15.661 5.356 13.449.295 26.692.965 40.128-.28 14.62-1.356 29.049.612 43.652.645.687.001.688-1.073 0-1.074" mask="url(#b)"/>
            </g>
            <path fill="#FFF" d="M34.216 161.58c-5.375-.529-3.907-8.552-4.194-12.431-.234-3.182-.581-6.342-.667-9.535-.084-3.13-.186-6.528 3.407-7.697 1.843-.599 4.182-.236 6.09-.093 3.573.267 7.093.634 10.687.461 2.95-.142 5.83-.828 8.779-.97 3.554-.171 7.131-.007 10.687.035 7.19.086 14.507-.283 21.68.248 6.449.477 12.824.716 19.297.75 2.283.012 5.188-.417 6.901 1.522 1.571 1.778.915 5.405.809 7.603-.148 3.071-.548 6.12-.726 9.187-.118 2.03-.007 4.085-.155 6.106-.28 3.794-2.922 3.852-5.92 3.964-3.282.123-6.514.709-9.802.778-7.086.148-14.304.645-21.33-.407-7.715-1.157-15.41.564-23.156.419-7.463-.14-14.922.061-22.387.06-.78 0-.782 1.237 0 1.237 8.039.002 16.068-.113 24.106-.035 4.017.038 7.848-.504 11.829-.797 4.227-.31 8.2.304 12.369.767 4.004.445 8.08.177 12.097.069 4.192-.114 8.332-.073 12.504-.554 2.898-.335 7.327.605 9.57-1.752 2.328-2.447 1.318-7.182 1.511-10.244.236-3.734.698-7.434.782-11.18.074-3.287.025-6.173-3.401-7.51-3.216-1.255-7.59-.492-11.018-.522-4.194-.038-8.296-.135-12.467-.57-8.133-.847-16.548-.278-24.718-.4-4.082-.06-8.218-.27-12.274.29-4.152.574-8.187.875-12.385.561-3.713-.277-8.613-1.638-11.922.592-3.68 2.48-2.759 7.288-2.525 11.162.26 4.291.7 8.534.78 12.839.066 3.575 1.23 6.898 5.162 7.284.775.077.77-1.161 0-1.237M49.893 31.764c.038.153.057.308.057.461 0 .769-.096 1.614-.246 2.555-.039.23-.077.423-.114.614.037.039.075.078.095.078.151.192.283.518.435.979.227.749.493 1.383.758 1.902.266.557.55 1.114.871 1.67.114.173.303.52.588 1.019.19.346.36.69.511 1.094.095.27.152.5.152.712a.53.53 0 0 1-.38.48c-.188 0-.358-.116-.53-.308-.265-.422-.51-.826-.757-1.23a75.752 75.752 0 0 1-1.004-1.67 15.413 15.413 0 0 1-1.213-2.709c-.114.423-.228.807-.341 1.172-.265.788-.569 1.69-.929 2.708a61.273 61.273 0 0 1-.587 1.575c-.227.5-.397.827-.55 1a.78.78 0 0 1-.435.134c-.246-.038-.379-.173-.398-.423 0-.21.038-.365.152-.48.094-.307.208-.633.36-.999.265-.653.51-1.44.777-2.343.227-.71.436-1.498.644-2.344.246-1.037.436-2.036.568-2.996.076-.769.133-1.48.151-2.151h-.075c-.872 0-1.288-.539-1.288-1.613 0-.385.113-.961.378-1.71.152-.577.341-1.115.588-1.595.132-.23.303-.346.493-.346.075 0 .15.02.226.02a.871.871 0 0 1 .38.23c.038.077.057.192.057.384-.077.365-.21.865-.399 1.499-.303.864-.435 1.382-.435 1.574.019.116.114.155.265.155.17 0 .569-.155 1.194-.481.322-.154.7-.365 1.156-.634.34-.153.625-.25.815-.288h.189c.379.077.587.346.606.807 0 .307-.038.615-.094.922a8.65 8.65 0 0 1-.474 1.498 5.616 5.616 0 0 1-1.137 1.767c-.133.154-.247.25-.341.269-.36 0-.55-.153-.55-.48 0-.115.038-.23.152-.346.038-.077.095-.211.208-.364.417-.711.739-1.595.966-2.651-.568.384-1.06.672-1.515.883m-4.907.346c.075.134.132.269.132.384a.42.42 0 0 1-.246.384c-.304.154-.645.327-1.004.5 0 .038.02.057.037.096.058.403.095.845.133 1.326.625-.27 1.004-.424 1.156-.424.19 0 .322.077.398.211.075.135.133.27.133.385 0 .134-.095.25-.247.346-.417.25-.89.518-1.383.787 0 .442.019.903.019 1.402 0 .558-.019 1.192-.057 1.921-.038.327-.057.634-.094.903.094-.077.17-.192.246-.307.265-.48.473-1.076.625-1.806.02-.173.038-.345.038-.5 0-.153 0-.287.019-.422v-.211c0-.192.076-.327.227-.442.057-.077.152-.115.304-.115.227 0 .435.173.606.5-.02.191-.02.403-.02.633 0 .768-.227 1.575-.644 2.42.228-.153.436-.307.644-.46.077 0 .152-.02.228-.02.19 0 .36.096.493.288.037.116.057.212.094.307 0 .231-.114.423-.303.577-.681.576-1.857 1.172-3.524 1.825-.606.172-1.156.288-1.667.326a.643.643 0 0 1-.474-.21c-.152-.155-.246-.328-.246-.5 0-.27.113-.442.38-.5a8.934 8.934 0 0 0 1.742-.403.638.638 0 0 0 .227-.077.51.51 0 0 1-.095-.115 41.783 41.783 0 0 1-2.254-2.286.414.414 0 0 1-.057-.231c0-.057.02-.134.076-.211a.587.587 0 0 1 .568-.346c.152.02.266.078.379.154.17.135.34.27.512.403.34.404.625.769.871 1.095-.019-.23-.019-.46-.019-.691v-1.23c0-.365-.02-.71-.02-1.056-.378.211-.737.404-1.117.595-.34-.019-.55-.191-.606-.537v-.192c0-.135.095-.27.266-.384.284-.25.757-.538 1.401-.865-.037-.308-.057-.557-.076-.787a7.35 7.35 0 0 0-.113-.577c-.227.096-.455.192-.682.307-.341-.02-.55-.192-.625-.537v-.211c.019-.155.113-.29.265-.405.303-.23.833-.479 1.573-.786.758-.27 1.193-.424 1.344-.424.21 0 .36.078.437.193m-1.023-4.706a.69.69 0 0 1 .246.538c0 .172-.057.383-.152.614.076.058.152.116.228.193.246.25.644.634 1.212 1.133.303.249.53.46.682.633.057.078.114.136.151.173a.878.878 0 0 1 .228.461c0 .385-.19.557-.53.557a.494.494 0 0 1-.209-.057c-.113-.038-.265-.173-.493-.384l-.89-.692c-.265-.23-.549-.499-.853-.788-.037-.018-.075-.038-.075-.076-.038.058-.057.115-.076.154a24.193 24.193 0 0 1-1.914 3.035c-.227.268-.397.5-.55.672-.189.173-.36.25-.51.25-.247 0-.38-.154-.418-.423 0-.192.076-.365.266-.557.7-.96 1.459-2.363 2.273-4.207.133-.288.247-.557.34-.807.153-.384.361-.595.608-.595.132 0 .283.058.436.173m-7.239 14.002c.304.481.55.788.74.923.037-.5.057-1.056.057-1.729-.02-.634-.02-1.364-.02-2.17-.397.518-.814 1.075-1.269 1.651.19.654.36 1.095.492 1.325m1.971-10.755c.018 1.21.038 2.689.076 4.417.246-.268.492-.538.757-.788a.548.548 0 0 1 .304-.115c.17 0 .284.096.36.27 0 .076.019.152.019.21a.457.457 0 0 1-.095.192c-.19.308-.53.788-1.023 1.441-.076.135-.17.27-.284.404v.057c0 1.806.018 3.246.018 4.322 0 1.114-.132 1.901-.397 2.363-.152.269-.36.403-.606.403-.266 0-.55-.23-.834-.692a10.917 10.917 0 0 1-.777-1.517c-.19-.307-.492-.69-.872-1.153a.658.658 0 0 1-.208-.48c-.095-.115-.133-.288-.133-.48 0-.077.076-.211.247-.422.474-.634 1.213-1.499 2.197-2.612v-.04c-.037-1.824-.057-3.572-.094-5.262-.171.076-.341.115-.493.154a2.481 2.481 0 0 1-.606.096h-.208c-.38-.058-.55-.27-.55-.654v-.307c.076-.23.265-.442.606-.615.133.02.285.02.455.02.246 0 .493-.02.758-.096-.038-.769-.057-1.384-.095-1.844.057-.347.247-.539.569-.615h.246c.265 0 .473.25.606.73 0 .403.02.826.038 1.287.19-.077.36-.154.55-.23.075-.02.133-.059.19-.097.132 0 .283.038.473.115.208.135.322.25.322.365 0 .116-.057.25-.152.385-.114.134-.265.249-.454.326a4.08 4.08 0 0 1-.91.462M70.68 43.48c-.756.297-1.755.483-3 .52a6.76 6.76 0 0 1-1.114-.093c-1.453-.204-2.434-.911-2.944-2.138-.207-.614-.3-1.283-.3-2.027 0-.855.017-1.692.093-2.51.114-1.376.227-2.343.377-2.901.095-.26.303-.39.641-.39.416 0 .623.204.623.613-.037.483-.075.93-.112 1.32.207-.074.396-.148.546-.223.642-.26 1.435-.632 2.378-1.116.358-.186.64-.298.83-.352a1.04 1.04 0 0 1 .302-.057c.15 0 .245.057.32.168.02.074.039.148.039.241 0 .112-.096.28-.284.502-.453.447-1.037.837-1.735 1.172-.943.52-1.774.893-2.529 1.097h-.038c-.018.26-.037.502-.056.688-.019.781-.019 1.395-.019 1.878 0 .986.32 1.71.943 2.176.529.334 1.208.502 2.038.502 1.246-.037 2.15-.186 2.717-.447.265-.185.415-.427.415-.687 0-.54-.114-1.19-.302-2.009a1.876 1.876 0 0 1-.094-.614c.075-.297.264-.446.603-.446a.543.543 0 0 1 .303.168c.113.204.244.483.358.818.208.67.321 1.376.321 2.138 0 .893-.453 1.563-1.32 2.009M68.471 29.7a.887.887 0 0 1-.284.633c-.34.223-.848.446-1.509.65a46.206 46.206 0 0 1-3.755 1.154c-.094.037-.169.074-.245.074-.075 1.767-.32 3.329-.735 4.686a32.42 32.42 0 0 1-1.227 3.236c-.358.743-.717 1.394-1.094 1.933-.151.298-.377.447-.66.447-.264-.037-.397-.187-.397-.484 0-.111.038-.297.15-.54a9.515 9.515 0 0 0 .964-1.84c.34-.706.679-1.6 1-2.659.414-1.6.622-3.422.622-5.448 0-.689-.113-1.47-.32-2.325 0-.464.226-.744.679-.837.433 0 .717.242.849.726.094.613.15 1.19.188 1.71 1.547-.409 2.887-.818 3.981-1.264.868-.819 1.302-1.45 1.302-1.86-.056-.279-.528-.427-1.415-.427a5.24 5.24 0 0 0-1.226.167c-.453.038-.907.13-1.359.279-.736.205-1.15.316-1.264.334a.619.619 0 0 1-.453-.166c-.132-.112-.208-.28-.227-.503 0-.26.133-.446.434-.558a6.319 6.319 0 0 1 1.039-.409c.886-.26 1.867-.409 2.962-.409.81 0 1.414.093 1.81.26.604.28.906.726.906 1.34-.075.669-.34 1.3-.811 1.896.057.074.095.13.095.205m-12.245 6.62a16.16 16.16 0 0 0 1.264-.484.48.48 0 0 1 .207-.297c.227-.224.472-.577.717-1.023.189-.428.302-.688.302-.781-.226-.26-.623-.391-1.15-.391-.567 0-1.208.019-1.925.056.056.298.113.614.188.986.151.892.246 1.543.283 1.971.038 0 .076-.019.114-.038m3.754-2.38a5.496 5.496 0 0 1-.51 1.06.523.523 0 0 1 .265.186c.038.056.057.13.057.204a.948.948 0 0 1-.208.447c-.453.39-1.037.78-1.754 1.153-.83.446-1.642.78-2.397 1.004a.637.637 0 0 1-.283.074c-.15 0-.282-.074-.396-.26-.113-.13-.15-.335-.15-.594 0-.205.112-.354.339-.447.019 0 .038-.019.075-.019-.056-.446-.15-.967-.283-1.562-.301-1.079-.547-1.953-.736-2.659.019-.15.095-.279.208-.409.113-.149.245-.242.415-.242.15 0 .264.02.359.056.188.074.301.168.377.316.453-.111 1.169-.167 2.151-.186.679.02 1.264.13 1.716.316.567.242.85.54.85.874 0 .187-.039.409-.095.689M84.135 33.347c.173-.42.308-.86.404-1.356.02-.153.039-.287.058-.42a12.01 12.01 0 0 1-.981.382c-.539.19-1.058.382-1.539.534 0 .23.02.402.02.554 0 .383-.02.746-.058 1.07.346-.095.731-.191 1.154-.306.307-.057.596-.114.846-.19.02-.077.057-.153.096-.268m-3.25-7.583c0-.096.058-.23.211-.382.231-.23.52-.345.866-.382 0 .134.154.21.5.229.308.038.846.096 1.634.172.174.038.27.172.27.382 0 .267-.115.477-.346.65-.25.151-.5.21-.731.21-.596 0-1.25-.02-1.942-.096-.308-.096-.462-.363-.462-.783M85.75 39.04a17.34 17.34 0 0 1-1.23 1.987c-.154.19-.288.381-.404.554l.693.4c.788.401 1.653.783 2.596 1.147 1 .343 2.096.649 3.326.898.173.038.269.171.269.381 0 .191-.077.325-.192.44-.077.095-.211.153-.403.153-.366 0-.751-.039-1.174-.077a14.398 14.398 0 0 1-1.48-.286c-.847-.23-1.75-.535-2.75-.955a24.065 24.065 0 0 1-1.943-.898c-.211.19-.423.382-.615.573-.404.42-.808.764-1.192.993-.25.172-.462.268-.654.268-.173 0-.289-.057-.347-.153-.096-.077-.134-.192-.134-.344 0-.115.077-.267.269-.459.404-.305.827-.649 1.27-1.05a2.01 2.01 0 0 1 .403-.401c-.057-.02-.096-.039-.096-.058-.5-.305-.98-.61-1.443-.898a.877.877 0 0 1-.365-.725c0-.191.096-.364.25-.555a.684.684 0 0 1 .481-.267c.097 0 .173.02.25.02.077.019.212.095.404.247.077.057.173.135.307.23L83 40.95l.058.038c.115-.172.25-.344.404-.516.789-1.184 1.308-2.216 1.539-3.075-1.25.401-2.616.879-4.078 1.413-.192.115-.326.153-.404.153a.508.508 0 0 1-.422-.21.76.76 0 0 1-.174-.515c0-.192.078-.364.231-.536.346-.19 1.115-.496 2.328-.916 1.46-.497 2.346-.746 2.653-.746h.288c.212 0 .424.135.635.363.173.191.27.478.27.86 0 .458-.193 1.05-.578 1.777m-2.73-10.373c-1.27.382-2.596.669-3.981.86-.27.057-.5.095-.693.095.193.822.308 1.586.347 2.293 0 0 .019-.02.058-.02.211-.076.48-.172.826-.267.289-.076.577-.153.886-.23-.04-.114-.078-.248-.116-.362-.097-.287-.135-.497-.135-.611 0-.21.096-.401.327-.574a.97.97 0 0 1 .52-.152c.307 0 .519.191.634.573.077.229.134.477.192.707.5-.134.98-.287 1.442-.44a9.818 9.818 0 0 0 1.27-.402c-.039-.19-.058-.343-.097-.476a.917.917 0 0 1-.096-.364c0-.267.077-.496.231-.649.116-.076.25-.115.442-.153.193 0 .346.057.462.153.115.134.211.306.308.497a4.5 4.5 0 0 1 .077.535 15.977 15.977 0 0 0 1.519-.593c.173 0 .308.077.385.21.019.039.037.096.037.154 0 .19-.095.362-.268.553-.308.306-.847.65-1.635.994-.038.42-.096.879-.212 1.337-.076.4-.192.764-.346 1.108a.462.462 0 0 1 .27.191.717.717 0 0 1 .134.4c0 .173-.095.307-.25.421-1.096.363-2.538.821-4.326 1.356-.385-.018-.616-.23-.693-.63v-.21c0-.153.096-.305.269-.44 0 0 .02 0 .039-.019.019-.344.038-.63.038-.859 0-.23-.019-.478-.058-.745-.192.057-.384.115-.557.153a5.908 5.908 0 0 1-.693.172 6.382 6.382 0 0 1-.75.057c-.038 0-.096 0-.134-.02-.058 2.026-.365 3.916-.942 5.674a13.104 13.104 0 0 1-1.578 3.286 10.645 10.645 0 0 1-1.269 1.604c-.173.115-.346.192-.52.192-.268-.02-.384-.172-.384-.478 0-.096.078-.23.231-.402.423-.572.808-1.184 1.135-1.833.404-.726.788-1.643 1.154-2.732.5-1.623.77-3.476.77-5.558 0-.975-.155-2.083-.443-3.324-.385-.057-.577-.268-.577-.65v-.344c.076-.23.288-.458.634-.65.154.02.327.02.52.02 1.135 0 2.365-.134 3.692-.4 1.423-.23 2.961-.613 4.634-1.109.231-.077.442-.153.616-.21.116 0 .288.057.48.133.193.115.308.23.308.344a.709.709 0 0 1-.134.363c-.116.154-.27.287-.462.364-1.02.4-2.192.763-3.538 1.107M98.788 29.527c-.5 1.978-.807 4.502-.922 7.574-.039.678-.29.998-.77.998a.677.677 0 0 1-.538-.226.689.689 0 0 1-.211-.527c0-.113 0-.395.038-.848.02-.527.077-1.47.173-2.789.134-1.658.308-2.902.538-3.711a.947.947 0 0 1-.057-.321c0-.132.038-.396.154-.773.057-.226.211-.452.442-.64.211-.17.423-.264.653-.264.193 0 .366.094.5.264a.89.89 0 0 1 .212.547 9.388 9.388 0 0 0-.212.716M97.116 42c-.27 0-.5-.15-.711-.414-.27-.17-.405-.472-.405-.886 0-.264.097-.471.327-.66a.955.955 0 0 1 .692-.283c.116 0 .25.057.442.17.327.189.5.584.5 1.169 0 .602-.288.904-.845.904M26.142 54.314c-.148-.441-.353-.672-.65-.672-1.673 0-3.68.422-5.983 1.248-.075 1.036-.13 1.824-.168 2.38v.346c1.208-.327 3.14-.71 5.817-1.172.482-.076.89-.114 1.244-.153-.074-.96-.149-1.632-.26-1.977m.39 6.871c-.724.23-1.56.422-2.527.595-1.672.384-3.215.652-4.608.767-.037.02-.074.02-.074.02 0 .921.018 1.823.018 2.725.67-.038 1.393-.077 2.137-.153 1.933-.135 3.623-.346 5.054-.614h.02c0-1.076-.02-2.189-.02-3.34m-.074-3.877c-1.319.288-3.085.671-5.314 1.152-.892.191-1.505.326-1.821.365-.019.402-.019.844-.019 1.323v1.21c.762-.096 1.356-.173 1.784-.23a114.32 114.32 0 0 0 4.274-.673c.483-.076.873-.134 1.17-.172a107.41 107.41 0 0 0-.074-2.975m-1.263-5.01h.929c.408.04.743.346 1.003.922.186.46.334 1.19.446 2.207.056.767.111 1.728.167 2.86.074 2.265.148 4.817.26 7.677 0 .23-.092.46-.26.672-.186.21-.41.326-.669.364-.353 0-.52-.173-.52-.518v-.672c-1.078.25-2.676.538-4.794.845-.892.077-1.728.134-2.49.172-.055 0-.093-.019-.13-.019-.149.096-.297.154-.427.154a.604.604 0 0 1-.41-.154c-.11-.134-.185-.346-.203-.633-.038-1.44-.038-3.454-.038-6.065 0-1.152 0-2.187.038-3.11 0-.958.036-1.976.092-3.07 0-.537.019-1.113.019-1.766l-.056-.345a1.55 1.55 0 0 1-.502.096.558.558 0 0 1-.483-.269c-.112-.153-.167-.365-.167-.633 0-.269.186-.46.558-.595.743-.23 1.3-.422 1.71-.576.89-.307 1.969-.748 3.25-1.343.502-.23.893-.384 1.171-.46.112-.02.223-.039.316-.039.185 0 .297.076.372.21.019.097.037.193.037.27 0 .114-.112.307-.335.576-.632.537-1.411.997-2.378 1.42-.743.364-1.449.652-2.118.883.074.249.13.498.13.748 0 .307-.038.71-.074 1.209 1.634-.633 3.474-.979 5.556-1.017M45.792 60.494c.095.036.19.073.265.11.509.22 1.264.804 2.283 1.737.245.22.396.42.453.623 0 .329-.151.493-.416.493-.132 0-.282-.091-.471-.256-.208-.146-.49-.33-.868-.548a47.047 47.047 0 0 0-1.925-1.171c-.075-.074-.093-.165-.093-.275v-.147a.82.82 0 0 1 .225-.438c.076-.073.19-.11.34-.146.076 0 .132.018.207.018m1.039-8.89c-.416.164-.83.31-1.246.42a.62.62 0 0 0 .17.311c.15.166.396.238.717.238.566 0 1.283-.072 2.132-.256.151-.036.283-.073.396-.073.17.037.284.128.32.31.02.093.039.184.039.294 0 .164-.095.33-.265.475-.339.147-.83.275-1.49.348-.415.055-.887.073-1.377.073-.85 0-1.416-.293-1.717-.914-.133-.293-.208-.805-.208-1.519 0-.383.02-.677.075-.878.038-.182.133-.292.245-.311.114 0 .208.019.321.019.302.073.472.31.529.712.018.093.037.166.037.238.397-.128.755-.255 1.095-.383.188-.184.32-.385.434-.622.075-.147.132-.256.132-.33 0-.42-.245-.64-.736-.64-.415 0-.905.129-1.434.348-.414 0-.623-.202-.623-.623 0-.219.095-.42.321-.566a5.78 5.78 0 0 1 .698-.202 7.91 7.91 0 0 1 .962-.073c.529 0 .982.073 1.321.22.284.165.491.366.641.603.096.165.152.385.152.64 0 .184-.095.42-.264.678a5.89 5.89 0 0 1-.585.787.661.661 0 0 1-.246.42c-.132.11-.32.183-.546.256m-2.699 7.243c.34-.512.623-1.06.85-1.627a.338.338 0 0 0 .038-.147c-.303.11-.605.22-.907.311-.377.11-.736.22-1.075.33.038.475.056.86.075 1.17 0 .183.02.348.02.475.207-.073.414-.127.64-.2a.306.306 0 0 0 .17-.055c.057-.091.113-.183.19-.257m-2.567-6.621l-1.188.439c.037.293.094.53.207.676.189.238.453.348.83.348.434 0 .981-.165 1.641-.494.132-.036.265-.073.378-.073.17.037.283.147.34.33.019.072.037.182.037.292 0 .146-.094.31-.283.476-.263.2-.66.365-1.207.512a6.98 6.98 0 0 1-1.113.073c-.982 0-1.623-.384-1.962-1.19-.189-.365-.284-1.023-.284-1.975 0-.402.038-.731.114-.95.037-.202.131-.311.282-.33.114 0 .227.019.32.019.34.073.548.329.605.768 0 .182.019.347.019.493.472-.109.887-.238 1.226-.366a.271.271 0 0 0 .114-.036c.15-.183.302-.402.415-.64.113-.22.17-.384.17-.476 0-.475-.076-.713-.208-.713-.718 0-1.547.183-2.453.549-.434 0-.642-.202-.642-.622 0-.22.114-.403.36-.55.206-.108.584-.237 1.13-.383a10.63 10.63 0 0 1 1.548-.128c.397 0 .717.092.981.256.208.182.359.385.472.604.075.219.113.457.113.713 0 .201-.113.475-.301.805-.302.438-.605.805-.906 1.06a1.34 1.34 0 0 0-.17.202c-.113.11-.32.201-.585.31m7.132 6.074c-.603.586-2.15 1.28-4.642 2.085-.037.018-.056.018-.075.018a.645.645 0 0 1-.17.44c-.132.2-.339.475-.641.841-.528.713-1 1.354-1.415 1.938-.132.11-.245.184-.34.238a1.693 1.693 0 0 1-.34.037c-.226-.037-.339-.182-.339-.439 0-.091.038-.201.131-.348.077-.145.246-.438.51-.914.208-.31.434-.677.68-1.116.037-.054.056-.091.076-.127-.68.218-1.34.402-1.982.566-.378.11-.641.165-.793.183-.263.036-.471.036-.641.036-.34 0-.528-.219-.566-.64 0-.182.151-.365.49-.53.17-.055.416-.128.717-.201.925-.22 1.812-.458 2.68-.695-.019-.11-.019-.202-.019-.293-.038-.44-.094-.878-.17-1.335-.15.055-.302.091-.452.128-.246.055-.435.091-.548.11a5.185 5.185 0 0 1-.68.054c-.357-.018-.546-.256-.584-.694 0-.22.17-.404.51-.568.207-.055.452-.128.754-.22.264-.054.51-.11.774-.182a5.717 5.717 0 0 1-.151-.695.511.511 0 0 1-.038-.22c0-.403.151-.64.49-.75h.227c.34 0 .566.238.66.714.038.256.076.475.114.658.32-.073.641-.164.981-.256.453-.11.887-.238 1.302-.366a4.457 4.457 0 0 0-.132-.676c-.076-.11-.095-.184-.095-.257 0-.22.057-.42.208-.567.075-.073.207-.11.396-.146.17 0 .302.055.415.146.114.129.227.275.32.458.057.182.095.42.114.695a12.3 12.3 0 0 0 .774-.275c.17 0 .301.073.377.183.019.055.038.11.038.183 0 .146-.094.311-.264.494-.189.183-.528.384-1.019.586-.076.365-.17.731-.302 1.097-.132.329-.283.64-.453.933a34.42 34.42 0 0 0 2.98-1.08c.152 0 .265.073.341.183a.36.36 0 0 1 .038.165c0 .128-.094.274-.246.42M37.132 53.91c-.207 0-.415-.11-.623-.366-.415-.365-.961-.659-1.66-.878a.548.548 0 0 1-.264-.128 1.27 1.27 0 0 1-.057-.42c0-.074 0-.147.02-.257.075-.274.339-.42.754-.439.32 0 .68.11 1.057.33.358.219.717.53 1.075.969.076.164.132.348.132.53-.038.44-.17.66-.434.66m.226 9.31c1.434.511 3.02.914 4.793 1.243.642.11 1.359.202 2.15.257.642.054 1.208.09 1.718.09.415 0 .887-.018 1.378-.054.395-.036.83-.091 1.301-.146.378-.055.623-.074.774-.074.32 0 .49.074.528.256 0 .11-.056.22-.132.348a.963.963 0 0 1-.358.292c-1.246.366-2.774.568-4.586.568-2.716 0-5.83-.64-9.34-1.884-.603-.22-1.15-.458-1.659-.731-.32-.184-.586-.348-.812-.495a.7.7 0 0 1-.113-.42c0-.22.094-.403.283-.586a.576.576 0 0 1 .433-.165c.114 0 .246.037.397.11.302.128.642.293 1.057.476.283-.439.453-1.042.49-1.83 0-.219-.112-.493-.3-.786-.19-.256-.285-.512-.285-.732 0-.347.189-.768.566-1.28.151-.202.246-.347.246-.44-.038-.2-.132-.438-.303-.731-.15-.183-.32-.42-.547-.713.02-.366.265-.568.718-.568.188.02.377.11.528.257.566.402.849.915.849 1.536 0 .457-.264 1.098-.755 1.903.36.548.548 1.134.548 1.774 0 .841-.227 1.537-.661 2.085.359.165.717.311 1.094.44M65.203 49.857c0 .675-.04 1.294-.077 1.857-.02.057-.039.093-.039.113l1.094-.113c.077 0 .154 0 .23-.037 0-.019.02-.038.04-.076.594-.881 1.073-1.744 1.42-2.569-.519 0-1.42.15-2.707.432.02.13.039.262.039.393zm-.174 9.528c.385-.038.788-.131 1.248-.244a2.68 2.68 0 0 0 .46-.15c-.038-.656-.076-1.294-.134-1.913-.096.038-.191.057-.268.075-.5.15-.96.225-1.382.244.039.375.058.769.076 1.2v.788zm1.767 1.144c0-.187-.02-.394-.02-.58a2.106 2.106 0 0 0-.288.112 6.573 6.573 0 0 1-1.228.262.532.532 0 0 1-.249-.056c-.039.75-.058 1.481-.077 2.176.422-.188 1.036-.376 1.843-.582 0-.431.019-.882.019-1.332zm-.058 2.289c-.537.169-1.113.356-1.746.562-.039 0-.077-.018-.115-.056-.04.375-.058.731-.077 1.069-.039.319-.058.619-.078.9.155-.037.346-.075.577-.112.326-.075.748-.15 1.266-.225.077-.638.134-1.35.173-2.138zm1.228-4.333c.288-.113.556-.263.806-.45.057-.019.115-.037.154-.037.133 0 .249.074.326.187.019.075.038.15.057.206 0 .15-.057.282-.172.357-.289.244-.672.469-1.152.693v.694c0 .545-.02 1.032-.02 1.483.462-.076.768-.132.96-.132.116 0 .23.037.346.112.115.094.172.207.172.32 0 .168-.076.28-.191.337-.384.075-.825.15-1.325.262a20.41 20.41 0 0 1-.268 2.251c.365-.075.768-.15 1.228-.244.268-.074.442-.112.556-.112.116 0 .23 0 .327.038.154.074.23.168.23.318 0 .262-.096.45-.25.544-.307.188-.863.375-1.707.581-.653.094-1.344.226-2.112.376-.402.074-.786.168-1.17.244-.115.018-.173.037-.21.037-.116.3-.308.45-.557.45-.345 0-.5-.206-.5-.58 0-.602.058-1.67.192-3.246a45.1 45.1 0 0 0 .135-3.32v-1.181c0-.657-.058-1.276-.172-1.876-.097.15-.192.281-.27.394-.153.206-.326.3-.48.3-.306 0-.479-.131-.517-.394 0-.169.058-.337.192-.488.057-.13.153-.3.268-.488.135-.262.307-.6.518-.993.154-.338.346-.676.557-1.032.038-.131.096-.262.153-.394.077-.112.154-.263.23-.45.173-.075.385-.112.634-.112.308.093.46.262.46.524 0 .188-.076.394-.191.657a1.34 1.34 0 0 1-.211.394 6.229 6.229 0 0 1-.48.788c0 .018.019.037.039.037.095.225.171.488.23.77.403-.057.824-.133 1.266-.245.192-.056.403-.112.614-.187.326-.375.499-.657.499-.806 0-.263-.211-.432-.614-.526-.096 0-.23-.018-.384-.018-.268 0-.403-.15-.403-.45 0-.113.02-.207.096-.301a.563.563 0 0 1 .307-.13c.115 0 .23.017.365.017.5.057.844.132 1.074.244.404.226.614.582.614 1.033 0 .112-.038.224-.076.337a7.24 7.24 0 0 0 .748-.431c.077 0 .154-.02.23-.02.192 0 .346.094.461.263l.115.281a.6.6 0 0 1-.288.526c-.383.262-.902.524-1.554.75.038.675.076 1.275.115 1.838zm-5.45-7.634c.077.62.135 1.032.135 1.238.134-.018.287-.038.441-.056.422-.038.825-.094 1.247-.15-.019 0-.019-.019-.019-.038 0-.45.02-.9.02-1.369 0-.225-.04-.488-.097-.788-.575.132-1.19.282-1.861.45.038.226.095.451.134.713zm.576 13.204c-.077.076-.134.113-.173.15a.416.416 0 0 1-.23.057c-.154 0-.365-.17-.633-.469a2.598 2.598 0 0 1-.596-.844.37.37 0 0 1-.134-.3c0-.075.039-.17.134-.281a.487.487 0 0 1 .25-.17c.039 0 .096-.018.173-.018.077 0 .153.037.25.075.037.075.114.188.191.338.23.525.48.881.71 1.068a.238.238 0 0 1 .134.226c-.019.056-.038.112-.076.168zm-1.535-11.797c.153-.02.307-.056.46-.094a6.44 6.44 0 0 0-.153-.881 10.05 10.05 0 0 1-.25-.938c-.575.15-1.171.319-1.784.487.095.376.191.75.268 1.088.039.244.077.431.116.581.363-.074.805-.168 1.343-.243zM60.06 62.705c.191 0 .345.075.498.206.077.094.174.282.308.544.23.413.46.863.729 1.37a.676.676 0 0 1 .115.393c-.038.169-.115.282-.268.32a.905.905 0 0 1-.403-.095c-.231-.187-.634-.712-1.21-1.613a.824.824 0 0 1-.21-.337.554.554 0 0 1-.096-.319c.019-.244.191-.394.537-.469zm-1.612-12.003c-.192-.45-.269-.751-.269-.901 0-.113.058-.206.173-.319a.893.893 0 0 1 .441-.225c.346 0 .556.131.672.375a.87.87 0 0 0 .077.263c3.991-1.126 6.735-1.744 8.194-1.895h.25c.268 0 .479.075.633.207.21.188.326.412.326.712 0 .394-.192.92-.538 1.557a5.982 5.982 0 0 1-.94 1.295.376.376 0 0 1 .115.28c0 .244-.134.395-.364.47l-.806.056c-.46.037-.921.094-1.42.15-.71.094-1.593.225-2.668.375-.633.113-1.285.244-1.957.394a.438.438 0 0 1-.173.056.405.405 0 0 1-.21.15l-.097.038c-.288 0-.46-.15-.538-.45l-.901-2.588zm1.439 6.45c.634-.261 1.152-.412 1.536-.412.152.038.23.17.268.357 0 .713-.69 1.895-2.073 3.583.576-.32 1.267-.732 2.054-1.239.268-.168.48-.262.595-.262.326 0 .499.168.518.469 0 .431-.211.88-.615 1.331-.306.338-.613.6-.92.788a.308.308 0 0 1-.231.094c-.077 0-.134-.037-.134-.15 0-.037.02-.093.077-.17a18.1 18.1 0 0 0 .633-1.256c-1.42 1.333-2.476 2.045-3.166 2.158-.308-.02-.48-.17-.48-.47 0-.15.076-.375.268-.637a74.596 74.596 0 0 1 2.169-3.432c-.69.506-1.382.787-2.034.844-.307-.038-.461-.244-.461-.62 1.037-1.388 1.65-2.57 1.842-3.563.135-.3.384-.47.768-.47.269.057.422.226.441.507-.076.638-.441 1.482-1.055 2.55zm-1.592 6.303c.191 0 .363.075.498.206.077.113.23.338.423.676.288.525.614 1.088.978 1.725.077.15.115.281.115.432-.038.206-.134.337-.326.413a.786.786 0 0 1-.46-.151c-.307-.225-.787-.9-1.44-2.063a2.236 2.236 0 0 1-.21-.45.703.703 0 0 1-.116-.319c.02-.263.192-.394.538-.469zm-4.952-1.031c.192.45.345.787.48.975.365.45.672.732.902.863.02-.413.038-.9.038-1.482a48.622 48.622 0 0 1-.038-1.763c-.422.431-.882.9-1.382 1.407zm2.63-9.528a.279.279 0 0 1-.116.037c.038 1.35.096 3.076.154 5.158.326-.263.652-.544.978-.807.154-.093.289-.15.404-.15.192 0 .306.114.383.301 0 .112.02.187.02.243a.442.442 0 0 1-.116.207c-.192.262-.557.675-1.113 1.256-.153.15-.326.338-.518.544.02 1.463.039 2.645.039 3.526 0 1.013-.135 1.745-.403 2.176a.727.727 0 0 1-.634.338c-.268 0-.594-.225-.94-.657a11.744 11.744 0 0 1-.863-1.463c-.212-.3-.538-.675-.998-1.144a.693.693 0 0 1-.25-.544c0-.206.076-.356.192-.43.039-.039.077-.095.115-.133.5-.562 1.305-1.293 2.38-2.194v-.393a398.812 398.812 0 0 0-.192-5.403 6.14 6.14 0 0 1-.48.132 4.89 4.89 0 0 1-.863.094h-.25c-.365-.038-.537-.244-.537-.62v-.318c.038-.225.25-.431.595-.62.134.02.288.02.46.02.326 0 .672-.02 1.017-.075-.038-.582-.096-1.051-.134-1.407.057-.319.25-.525.575-.6h.25c.269 0 .48.244.615.694l.057.975c.46-.112.96-.281 1.458-.488.096-.037.191-.074.27-.112.133 0 .306.038.497.112.192.113.289.244.289.356a.707.707 0 0 1-.115.357c-.116.15-.288.244-.48.319-.5.281-1.094.525-1.747.713zM85.11 64.308c.908.34 1.653.626 2.218.854.163.055.309.113.454.189.127.152.2.303.218.474 0 .378-.182.568-.51.568l-.217-.057a55.473 55.473 0 0 1-1.546-.474l-2.672-.928c-.837-.322-1.71-.664-2.655-1.024a7.18 7.18 0 0 1-.745-.303c-.11-.114-.182-.208-.2-.285v-.17c0-.114.036-.228.108-.342.092-.208.237-.322.437-.322.073 0 .164.019.273.057.291.076.636.17 1 .322.072.038.163.076.255.114a9.707 9.707 0 0 0 1.563-1.687c.073-.152.163-.284.254-.417.073-.095.183-.152.346-.19.146 0 .29.038.436.114a.59.59 0 0 1 .255.512.729.729 0 0 1-.091.323 5.014 5.014 0 0 1-.255.378 8.23 8.23 0 0 1-1.4 1.385c.692.245 1.51.549 2.473.909m-6.854-5.27c.363-.17.89-.38 1.545-.606.764-.228 1.255-.36 1.51-.4.108-.416.235-.814.344-1.193-1.38.379-2.49.682-3.345.947 0 .02.018.039.018.077-.036.416-.054.815-.072 1.175m2.855-.341a74 74 0 0 1-2.929 1.213c-.035.55-.072 1.023-.108 1.44a14.854 14.854 0 0 0 2.108-.89c.183-.095.31-.152.401-.17.182-.55.345-1.081.528-1.593M77 57.18c.491-.228 1.236-.493 2.254-.777a2.052 2.052 0 0 1-.8-.474 6.826 6.826 0 0 1-.345-.341c-.364.53-.745 1.061-1.11 1.592m-.962-3.658c.527-.815.927-1.763 1.18-2.825-.98.777-1.78 1.346-2.38 1.706.29.265.69.626 1.2 1.119m-.292-2.939c.018 0 .037-.019.055-.038 0-.322.018-.663.018-1.004 0-.531-.109-1.214-.309-2.048.018-.303.218-.455.6-.493.145 0 .273.095.381.247.147.208.237.455.291.758.146-.02.255-.038.346-.076.455-.132.873-.284 1.273-.436.2-.076.327-.132.382-.151.072-.038.127-.076.2-.076.145.019.236.095.31.208a.71.71 0 0 1 .035.209.762.762 0 0 1-.163.397c-.273.21-.619.4-1.018.57a5.02 5.02 0 0 1-1.292.455c-.018.34-.036.644-.055.928.365-.132.71-.208 1.001-.208.327.057.49.265.49.625-.181 2.294-1.235 4.076-3.145 5.347-.364.283-.69.454-.982.511H74c-.218-.038-.327-.17-.327-.398 0-.076.072-.17.236-.322a7.28 7.28 0 0 0 1.636-1.441c-.327-.076-.618-.284-.89-.588-.292-.322-.455-.569-.528-.758-.254.114-.436.19-.581.19-.291 0-.437-.171-.437-.512.545-.626.836-1.27.873-1.953l.018-.625c.091-.341.328-.512.727-.512.2.038.31.152.346.36 0 .55-.091 1.08-.273 1.574.273-.209.582-.455.945-.74m.837 7.166a170.83 170.83 0 0 1-1.728 2.483c-.581.74-1.145 1.46-1.727 2.162-.218.246-.418.359-.6.359-.345 0-.527-.19-.527-.568 0-.152.091-.304.273-.474 2.163-2.54 4.327-5.611 6.49-9.25a.61.61 0 0 1 .583-.361c.327.038.508.227.545.568 0 .076-.019.114-.019.152.146.076.274.17.419.247.418-.493.8-1.024 1.164-1.555-.4-.228-.782-.474-1.128-.72-.218-.152-.364-.247-.4-.323a.428.428 0 0 1-.073-.246c0-.095.037-.209.128-.322a.69.69 0 0 1 .236-.17.673.673 0 0 1 .237-.039c.109.02.2.057.29.114.182.076.4.208.655.36.218.133.437.266.636.38.4-.72.746-1.441 1-2.18a7.594 7.594 0 0 0-2.2.663c-.272-.038-.4-.209-.4-.493 0-.209.091-.379.29-.493.601-.455 1.402-.72 2.402-.758.272 0 .49.057.654.132.218.152.345.36.345.626 0 .36-.127.891-.363 1.574-.218.53-.455 1.042-.691 1.497.218.152.437.266.672.38.473.226.928.492 1.328.758.146.17.218.34.218.53 0 .228-.072.379-.218.417h-.091a.86.86 0 0 1-.364-.113 10.5 10.5 0 0 1-1.218-.55 45.214 45.214 0 0 1-.945-.455c-.4.568-.837 1.062-1.273 1.478.836.436 1.91 1.005 3.254 1.726.964.493 1.746.89 2.327 1.231.182.095.346.19.492.304.108.152.182.285.2.417 0 .34-.164.512-.473.512a.295.295 0 0 1-.182-.057c-.346-.114-.891-.36-1.636-.74l-2.8-1.364a87.096 87.096 0 0 1-2.819-1.536 1.37 1.37 0 0 1-.29-.17c-.2.303-.382.569-.546.814.291.19.691.494 1.237.948a.562.562 0 0 1 .218.475c0 .038-.018.056-.018.056.309-.075.636-.151.981-.227.291-.038.527-.076.728-.076.181 0 .345.057.527.133.218.19.327.379.327.588 0 .227-.073.606-.182 1.099-.254.89-.545 1.763-.873 2.597-.163.342-.29.607-.381.758a.58.58 0 0 1-.491.247c-.109 0-.164-.019-.2-.057-.145.095-.291.189-.473.265-.655.303-1.345.569-2.036.815-.036.02-.055.02-.073.02-.018.037-.018.094-.018.132a49.787 49.787 0 0 0-.09 2.56c0 .302 0 .511.035.625.51-.19 1.09-.437 1.71-.759a.328.328 0 0 1 .29-.151c.128.019.2.132.2.34 0 .172-.109.38-.29.608a5.56 5.56 0 0 1-1.237 1.005c-.382.19-.746.303-1.09.303-.455 0-.692-.36-.71-1.061 0-1.024.036-2.143.109-3.337.09-1.555.146-2.882.164-4 0-.114-.018-.246-.018-.398-.274 0-.437-.152-.473-.455M102.167 51.293v.036c0 .549-.073 1.189-.201 1.885a8.054 8.054 0 0 1-.275 1.097 9.749 9.749 0 0 0 1.592-.86c.11-.074.22-.146.311-.202.166 0 .367.056.587.166.256.128.384.255.384.402 0 .146-.073.292-.183.457a1.78 1.78 0 0 1-.55.403 9.312 9.312 0 0 1-1.811.932c-.641.293-1.318.55-2.015.732-.292.073-.585.11-.86.11h-.274c-.348-.037-.513-.238-.513-.604v-.329c.074-.22.257-.42.586-.603.128.018.275.018.44.018.33 0 .695-.037 1.061-.147 0-.146.037-.292.092-.475.11-.476.22-.97.292-1.518.037-.366.056-.714.056-1.043a8.49 8.49 0 0 1-1.3.311 4.377 4.377 0 0 1-1.062.146h-.311c-.348-.055-.512-.256-.512-.622v-.31c.054-.22.255-.421.585-.604.128.017.275.017.439.017.641 0 1.337-.11 2.069-.347a7.467 7.467 0 0 0-.238-.915c-.147-.292-.201-.53-.201-.676 0-.256.073-.457.22-.604a.81.81 0 0 1 .42-.146.75.75 0 0 1 .44.146c.11.128.201.293.293.476.146.383.256.823.347 1.298.513-.219 1.044-.457 1.594-.732.145-.09.255-.164.365-.218.165 0 .367.054.605.145.22.147.347.293.347.421 0 .147-.055.293-.164.458-.128.183-.311.31-.55.384-.603.329-1.3.64-2.105.915m2.453 5.487a4.659 4.659 0 0 0-.055.696c.769-.33 1.446-.66 1.996-.97.183 0 .31.073.384.22a.31.31 0 0 1 .055.182c0 .183-.092.384-.275.568-.365.438-1.116.932-2.214 1.444 0 .44.036.915.09 1.39.074.989.11 1.83.11 2.525 0 .823-.036 1.427-.091 1.83-.073.365-.183.676-.348.914-.164.22-.384.366-.659.421h-.183c-.42 0-.952-.293-1.592-.842-.238-.256-.348-.438-.348-.548 0-.147.2-.202.604-.202.476 0 .897.092 1.263.238.054-.146.092-.402.092-.769 0-.219-.019-.493-.019-.823l-.22-2.926a3.706 3.706 0 0 1-.054-.604c-.22.11-.458.22-.696.311-.88.33-1.684.64-2.454.915.02.585.11 1.115.258 1.591a.917.917 0 0 1 .035.22c0 .274-.127.457-.347.548-.055.02-.11.02-.165.02-.256 0-.44-.148-.53-.404a1.95 1.95 0 0 1-.24-.512 4.796 4.796 0 0 1-.237-1.043c-.274.092-.475.147-.604.184-.256.036-.494.036-.677.036-.366 0-.55-.256-.586-.732 0-.2.165-.384.512-.549.202-.072.459-.146.75-.238a2.38 2.38 0 0 0 .514-.164c-.018-.146-.018-.31-.018-.457.054-.275.256-.458.622-.53h.146c.33.036.495.219.513.548.768-.256 1.52-.53 2.252-.823.329-.11.622-.238.915-.366 0-.165.018-.33.018-.476.019-.475.11-.859.256-1.152a.737.737 0 0 1 .623-.347c.403.072.604.292.604.676m-9.74-1.28c.184-.036.294-.055.367-.073-.146-.824-.366-1.464-.622-1.94a.783.783 0 0 0-.622-.292c-.074 0-.257.054-.531.146a.544.544 0 0 1-.257.092c.019.31.037.621.037.951-.037.53-.074 1.043-.11 1.518.658-.11 1.245-.256 1.739-.403m-2.325 4.336c.824-.11 1.557-.274 2.197-.457h.22c.073 0 .164.018.238.055.109-.567.164-1.427.164-2.58-.018-.146-.018-.274-.018-.402a3.39 3.39 0 0 1-.457.2c-.586.184-1.19.367-1.813.55-.037.018-.073.018-.11.018-.018.129-.036.238-.036.311-.184.951-.385 1.72-.586 2.323.073 0 .128 0 .201-.018m2.087.842c-.457.146-1.044.274-1.739.402-.403.073-.787.11-1.117.11a.704.704 0 0 1-.53-.22.75.75 0 0 1-.238-.53v-.055C91 60.347 91 60.31 91 60.255c0-.108.036-.218.11-.346.366-.842.604-2.013.714-3.495.018-.677.037-1.372.037-2.085 0-.622-.037-1.262-.074-1.94.019-.402.22-.603.623-.621h.128c.256 0 .42.11.53.329.184-.018.367-.055.568-.11.293-.073.513-.128.66-.128.823 0 1.427.623 1.812 1.83.238.786.384 1.738.42 2.853 0 1.025-.036 1.811-.072 2.36-.037.439-.11.787-.184 1.025-.091.438-.256.804-.494 1.06-.183.293-.384.44-.586.44-.238 0-.402-.073-.494-.22-.073-.091-.11-.238-.11-.457a.258.258 0 0 1 .055-.073M121.228 54.97c1.179-.305 2.229-.724 3.114-1.24 0-.38 0-.763.018-1.144-.94.19-2.174.534-3.723 1.05 0 .342-.017.781-.036 1.316-.019.076-.037.114-.037.152.221-.038.442-.076.664-.133zm1.492-3.109c.774-.152 1.327-.229 1.658-.248 0-.343.019-.705.037-1.05 0-.152-.24-.247-.682-.247h-.441c-1.051.02-1.991.21-2.82.553l.11.859c0 .267.02.515.038.744.497-.191 1.197-.382 2.1-.61zm-.13 14.994a1.26 1.26 0 0 1-.128-.534c.018-.267.148-.42.369-.42.442.038 1.031.267 1.732.686-.037-.571-.092-1.353-.13-2.364-.073-1.298-.11-3.148-.147-5.552 0-1.24 0-2.441.038-3.625-.72.402-1.66.802-2.82 1.221a7.035 7.035 0 0 1-1.659.326.599.599 0 0 1-.515-.249.79.79 0 0 1-.24-.534c0-.191.055-.343.184-.439 0-.228 0-.534.018-.878.038-.534.074-.877.074-1.048 0-.687-.019-1.26-.036-1.698a7.145 7.145 0 0 0-.387-1.831c0-.229.11-.42.35-.573a.972.972 0 0 1 .405-.095c.166 0 .295.076.405.21 0 .038.019.057.019.057.276-.115.59-.21.94-.286a12.311 12.311 0 0 1 2.266-.229c.405 0 .737.019.958.019.222.019.46.057.72.115.533.171.81.553.847 1.163 0 .267-.019.572-.037.954a407.07 407.07 0 0 0-.166 3.758c-.037 1.03-.037 2.251-.037 3.624 0 1.221.019 2.575.092 4.064.11 1.945.203 3.28.295 4.005 0 .84-.35 1.26-1.032 1.298-.977 0-1.77-.382-2.377-1.145zm-4.348-2.747c.737-.19 1.419-.4 2.046-.61.184-.61.313-1.202.405-1.774-.664.228-1.566.515-2.709.896-.331.095-.59.172-.755.21.073.61.129 1.106.165 1.488.333-.076.608-.134.848-.21zm2.543-3.358c0-.724-.294-1.106-.866-1.106-.92 0-1.935.268-3.077.763.074.401.147.897.24 1.47.626-.249 1.602-.535 2.893-.878a4.94 4.94 0 0 1 .81-.095v-.154zm.848 2.671c.018.077.037.172.037.268-.019.19-.111.361-.258.553-.443.229-.977.495-1.64.763-.774.266-1.51.495-2.23.648-.092.057-.166.096-.203.096a.621.621 0 0 1-.497.286c-.35 0-.534-.19-.553-.554-.037-.648-.148-1.43-.332-2.384a111.564 111.564 0 0 0-.792-3.415c.037-.152.11-.286.22-.438a.51.51 0 0 1 .425-.229c.166 0 .295.02.405.037.111.058.203.115.295.192a5.557 5.557 0 0 1 1.161-.44 7.73 7.73 0 0 1 2.083-.304c.515 0 .976.133 1.381.4.332.191.59.515.756.954.074.287.129.63.129 1.05a5.964 5.964 0 0 1-.24 1.506 5.624 5.624 0 0 1-.331.84.84.84 0 0 1 .184.171zm-5.897-11.197c.259-.096.461-.172.645-.21.018-.19.037-.382.037-.553-.037-.382-.313-.592-.866-.592-.277 0-.59.058-.922.134-.35.038-.7.134-1.05.248a1.866 1.866 0 0 1-.46.133 25.352 25.352 0 0 0-.075 1.793l-.018.516c.626-.42 1.53-.916 2.709-1.469zm-.165 2.804c.294-.763.497-1.45.644-2.06-.627.381-1.437.877-2.414 1.488-.368.21-.645.363-.792.439l-.055 2.098c.995-.63 1.879-1.279 2.617-1.965zm-4.129 11.083c-.295 0-.442-.248-.442-.725.221-1.24.387-2.613.48-4.158l.146-7.059c0-1.087.02-2.25.093-3.51 0-.533.258-.82.773-.82.26.019.424.115.535.267a.85.85 0 0 0 .166-.057c.682-.228 1.437-.343 2.285-.343.627 0 1.087.095 1.419.266.46.268.7.744.7 1.412a8.14 8.14 0 0 1-.736 2.995c-.038.038-.056.077-.075.114h.019c.147.115.24.248.258.363 0 .23-.092.458-.277.648a6.03 6.03 0 0 1-1.087 1.089 34.241 34.241 0 0 1-2.745 1.907c-.019.019-.038.019-.038.019a50.69 50.69 0 0 1-.073 2.06c-.092 2.136-.313 3.72-.664 4.788-.129.496-.368.744-.737.744z"/>
            <path fill="#FFF" d="M76.218 141.363c-.455.298-.946.56-1.491.784.037.055.055.092.091.13.145.522.237 1.305.237 2.312 0 1.585-.528 3.189-1.546 4.83-.036.036-.055.074-.055.111a28.451 28.451 0 0 0 2.309 1.77c.255.225.782.617 1.619 1.213.545.41 1.018.858 1.454 1.343.11.224.164.448.164.653-.018.26-.145.41-.382.484-.182 0-.345-.093-.51-.28-.69-.503-1.4-1.007-2.09-1.491a66.37 66.37 0 0 1-2.654-1.939 16.034 16.034 0 0 1-.746-.597c-.818 1.119-1.618 1.996-2.4 2.666-.146.242-.327.373-.545.41H69.4c-.236-.074-.346-.204-.346-.428 0-.112.037-.243.11-.373a50.6 50.6 0 0 0 2.472-2.685c.073-.093.127-.186.182-.28-.91-.802-1.636-1.604-2.2-2.424-.51-.652-.763-1.119-.763-1.38 0-.26.145-.447.436-.522.236 0 .4.075.51.187.399.224.799.615 1.235 1.174a23.99 23.99 0 0 0 1.546 1.734c.6-1.1.981-2.255 1.146-3.486v-.597a8.75 8.75 0 0 0-.11-1.342l-.127-.71a9.472 9.472 0 0 1-.964.28c-.654.187-1.29.28-1.927.28-.11 0-.219 0-.346-.019-.581-.112-.872-.503-.872-1.174 0-.112.054-.26.164-.448.127-.26.272-.54.417-.839.146-.335.255-.634.364-.913.11-.26.182-.503.237-.69.108-.298.31-.448.636-.448.436.056.69.262.727.615v.206c0 .075-.109.335-.291.746-.164.373-.327.708-.509 1.044-.09.187-.163.354-.236.466 2-.26 3.636-.82 4.909-1.64a.879.879 0 0 1 .364-.28c.036 0 .109-.02.181-.02.346.076.528.3.564.672a.726.726 0 0 1-.109.41c-.127.15-.327.317-.582.485M66.164 156c-.291 0-.418-.223-.418-.652.145-1.473.254-3.114.29-4.941l.091-3.897v-.374a2.754 2.754 0 0 1-.218.243c-.545.56-1.072 1.007-1.582 1.342-.545.448-1.09.653-1.6.653-.49-.018-.727-.578-.727-1.697 0-.26.036-.745.127-1.435.073-.895.11-1.455.11-1.697 0-.262.018-.522.018-.802s-.018-.616-.055-.989c-.055-.41-.109-.746-.164-1.044a.592.592 0 0 1 .31-.484.93.93 0 0 1 .472-.112c.091 0 .182.074.291.186.127.28.219.596.291.97.073.448.11.913.11 1.38 0 .633-.037 1.305-.092 1.976-.09.932-.127 1.548-.127 1.846 0 .28.037.41.109.41.073 0 .691-.522 1.89-1.603.365-.336.637-.578.837-.728l.018-2.46c0-1.343.037-2.779.11-4.327 0-.503.236-.764.745-.764.437.019.673.298.673.857a43.487 43.487 0 0 0-.146 3.245l-.072 4.773a620.666 620.666 0 0 1-.055 3.823c-.073 2.498-.254 4.363-.528 5.612-.108.447-.344.69-.708.69M95.578 154.799a7.019 7.019 0 0 1-2.162-1.357 7.318 7.318 0 0 1-.351-.422c0-.148.203-.202.647-.202.387 0 .998.184 1.81.513.038-.128.056-.348.056-.678 0-1.064-.056-2.403-.148-4.072a89.674 89.674 0 0 1-.148-5.557c0-1.173.019-2.458.092-3.851v-1.688c0-.22-.055-.532-.128-.917.092-.275.276-.458.572-.568h.296c.37.11.554.44.554 1.026v1.945c-.019 1.357-.019 2.66-.019 3.87 0 1.008 0 1.925.037 2.769 0 .862.037 1.926.13 3.192.11 2.384.184 4.163.184 5.373-.036.532-.221.807-.59.825a1.85 1.85 0 0 1-.832-.201m-3.603-13.187c.11.458.184 1.027.24 1.724.037.55.055.99.055 1.284 0 .384-.018.733-.036 1.063a9.72 9.72 0 0 1-.111.826c-.093.44-.314.66-.647.66-.37 0-.536-.165-.536-.532 0-.11.018-.293.037-.513 0-.349.018-.642.018-.88 0-.514-.055-1.175-.165-2.018-.038-.33-.093-.624-.13-.918-.074-.274-.11-.457-.11-.568 0-.22.091-.403.313-.55a.827.827 0 0 1 .481-.147c.296 0 .48.202.59.569m-4.618 4.603c.184 0 .314.092.406.257a3.5 3.5 0 0 0 .111.257c0 .183-.092.348-.259.477-.443.403-1.108.788-1.977 1.192 0 .568-.036 1.082-.092 1.56a8.014 8.014 0 0 1-.13.97c.481-.219.924-.42 1.368-.64.48-.295.795-.46.906-.515.092-.036.184-.073.276-.073a.562.562 0 0 1 .407.238c.018.073.037.165.037.239a.977.977 0 0 1-.222.514c-.61.513-1.386 1.008-2.347 1.522-1.108.586-2.161 1.027-3.177 1.32-.13.055-.222.092-.278.092-.184 0-.332-.092-.46-.256-.112-.184-.15-.422-.15-.716 0-.202.13-.348.389-.459.665-.238 1.219-.44 1.7-.586a1.09 1.09 0 0 1 .258-.092c-.018-.055-.018-.092-.018-.129.037-.22.11-.513.185-.917.037-.605.073-1.118.073-1.522a6.613 6.613 0 0 1-1.533.33c-.26 0-.462-.073-.61-.256-.185-.184-.295-.386-.295-.606 0-.33.147-.532.461-.605.481-.056 1.035-.165 1.627-.312a.37.37 0 0 0 .203-.055c-.037-.184-.056-.348-.074-.495-.111-.257-.148-.459-.148-.569 0-.238.11-.422.351-.568a.927.927 0 0 1 .499-.147c.314 0 .536.201.647.569.036.238.055.495.091.752.555-.22 1.073-.46 1.553-.752.074 0 .148-.019.222-.019m-.702-8.436c.185 0 .35.091.461.274.019.11.038.202.074.276a.721.721 0 0 1-.258.568c-.517.294-1.312.587-2.365.9a.63.63 0 0 1 .055.238v.164c-.018.147-.148.532-.406 1.155-.259.588-.499 1.156-.74 1.689a7.487 7.487 0 0 0-.332.806c.11 0 .295-.073.573-.201.332-.184.702-.422 1.127-.734a10.087 10.087 0 0 0 1.46-1.357c.036-.019.055-.037.073-.055.111-.165.278-.275.536-.33.222 0 .425.091.592.257.11.146.277.384.499.714.35.55.739 1.138 1.144 1.798.093.166.149.33.149.477a.532.532 0 0 1-.388.458.815.815 0 0 1-.5-.165c-.332-.22-.904-.88-1.699-2.017l-.092.092a8.13 8.13 0 0 1-1.256 1.118c-.426.312-.888.606-1.405.88-.554.258-1.016.404-1.368.404h-.221c-.554-.055-.832-.348-.832-.862 0-.184.056-.44.204-.734.203-.366.425-.825.665-1.338.222-.495.444-.973.628-1.45.092-.238.166-.458.24-.66-.517.092-.979.147-1.404.165a.81.81 0 0 1-.59-.238.768.768 0 0 1-.278-.587c0-.33.13-.513.425-.587.517-.036 1.109-.11 1.737-.22 1.22-.22 2.31-.514 3.233-.88.074 0 .166-.018.26-.018M107.788 140.527c-.5 1.978-.807 4.502-.922 7.574-.039.678-.29.998-.77.998a.677.677 0 0 1-.538-.226.689.689 0 0 1-.211-.527c0-.113 0-.395.038-.848.02-.527.077-1.47.173-2.789.134-1.658.308-2.902.538-3.711a.947.947 0 0 1-.057-.321c0-.132.038-.396.154-.773.057-.226.211-.452.442-.64.211-.17.423-.264.653-.264.193 0 .366.094.5.264a.89.89 0 0 1 .212.547 9.388 9.388 0 0 0-.212.716M106.116 153c-.27 0-.5-.15-.711-.414-.27-.17-.405-.472-.405-.886 0-.264.097-.471.327-.66a.955.955 0 0 1 .692-.283c.116 0 .25.057.442.17.327.189.5.584.5 1.169 0 .602-.288.904-.845.904M107 70.52c.105 4.477.301 8.447 1.997 12.631 1.721 4.244 4.238 8.134 7.122 11.657 5.695 6.954 14.268 14.273 23.217 16.179.667.142.951-.895.282-1.038-8.47-1.803-16.592-8.635-22.097-15.123-2.71-3.192-5.11-6.718-6.877-10.538-2.094-4.528-2.467-8.83-2.582-13.768-.016-.692-1.078-.694-1.062 0"/>
            <path fill="#FFF" d="M138.07 112.32c-.167-.596.667-1.868.903-2.41.305-.696.61-1.394.91-2.096l-.827.111c.559.531 1.072 1.104 1.564 1.7.41.498 1.188 1.18 1.348 1.81l.135-.533c-.278.264-1.742.48-2.32.613-.703.16-1.497.422-2.223.39l.507.691a33.118 33.118 0 0 1 1.779-3.72l-.98-.275c-.03.983-.203 1.91-.576 2.818-.262.635.521 1.149.908.551.509-.787.804-1.661 1.088-2.556l-1.034-.145c-.036.522-.07 1.044-.105 1.567-.036.527.76.762.98.275.212-.469.426-.937.638-1.407l-.98-.275c.037.5.078 1 .114 1.502.034.467.553.727.898.386.284-.28.376-.555.4-.961-.221.176-.444.35-.666.527l.61.231c.636.243.91-.812.279-1.053l-.609-.232c-.342-.13-.646.201-.666.527l-.092.189.898.386c-.036-.501-.077-1.001-.113-1.502-.036-.489-.74-.81-.981-.276l-.638 1.407.98.276.105-1.567c.044-.64-.856-.706-1.033-.146-.257.812-.52 1.583-.981 2.296l.908.551a9.417 9.417 0 0 0 .72-3.369c.016-.545-.726-.738-.98-.276a35.381 35.381 0 0 0-1.885 3.98c-.138.347.204.68.507.692.854.038 1.793-.265 2.618-.456.775-.18 2.06-.289 2.668-.866a.56.56 0 0 0 .136-.532c-.18-.708-.852-1.335-1.292-1.886-.591-.739-1.207-1.454-1.89-2.103-.224-.214-.681-.23-.826.11-.448 1.05-.911 2.093-1.366 3.14-.302.696-.77 1.426-.552 2.205.19.674 1.205.387 1.015-.29"/>
            <g transform="translate(137)">
                <mask id="d" fill="#fff">
                    <use xlink:href="#c"/>
                </mask>
                <path fill="#FFF" d="M1.086 9.389c.488-2.798.908-5.606 1.395-8.403.114-.658-.852-.94-.967-.278C1.028 3.505.606 6.314.12 9.11c-.115.657.851.94.966.278" mask="url(#d)"/>
            </g>
            <path fill="#FFF" d="M1.111 95.639c1.303-3.324 2.548-6.67 3.85-9.994.253-.644-.823-.922-1.073-.283-1.303 3.324-2.547 6.669-3.85 9.993-.252.643.824.922 1.073.284"/>
            <g transform="translate(29 131)">
                <mask id="f" fill="#fff">
                    <use xlink:href="#e"/>
                </mask>
                <path fill="#FFF" d="M91.468 5.771c-.896-.886-3.79-5.599-5.159-5.599 1.565.824 3.563 2.328 3.563 4.204 0 10.05-.094 10.05-.094 20.099 0 2.706-2.53 4.405-5.267 4.405-6.63 0-6.63.945-13.261.945-6.63 0-6.63-.857-13.262-.857-6.63 0-6.63-.056-13.261-.056-6.631 0-6.631.034-13.262.034-6.632 0-6.632-.006-13.264-.006s-6.632.601-13.264.601c-2 0-3.805-.884-4.588-2.57 0 1.541 4.4 4.646 5.527 5.544.85.68 1.746 1.224 2.924 1.224 6.63 0 6.63-.482 13.262-.482 6.63 0 6.63.09 13.26.09 6.632 0 6.632 1.017 13.262 1.017 6.631 0 6.631-.11 13.263-.11 6.631 0 6.631-.134 13.263-.134 6.633 0 6.633-.31 13.264-.31 2.738 0 5.54-2.175 5.54-4.88 0-10.05-.194-10.05-.194-20.1 0-1.352-1.355-2.171-2.252-3.059" mask="url(#f)"/>
            </g>
            <path fill="#FFF" d="M57.863 153.193c-2.935-2.964-5.912-6.701-7.919-10.429-1.397-2.595-.53-4.543-.842-7.178-.068-.567.057-.88-.445-1.31-1.032-.88-2.72.561-3.336 1.308-1.807 2.187-1.284 5.352-1.137 7.98.034.606.953.61.919 0-.07-1.248-.214-2.517-.167-3.768.034-.94 1.127-6.157 3.247-4.21.218.2-.219 3.41-.17 3.934.076.804.232 1.558.502 2.314.779 2.179 2.425 4.07 3.736 5.932 1.52 2.161 3.108 4.224 4.962 6.097.423.427 1.073-.243.65-.67"/>
            <path fill="#FFF" d="M39.173 144.494c.492-.931 3.572.03 4.337.248.4.116 4.405 1.565 4.271 2.477-.199 1.356-3.708.73-4.455.664-.878-.08-1.906-.087-2.731-.47-1.516-.703-1.98-1.33-1.376-3.04.216-.61-.671-.874-.884-.271-1.064 3.01.529 4.045 3.075 4.537 1.703.33 3.462.395 5.188.347.804-.023 2.127.007 2.371-1.11.4-1.822-3.204-3.408-4.332-3.83-1.452-.543-5.224-2.018-6.256-.065-.299.566.493 1.079.792.513"/>
            <path fill="#FFF" d="M40.31 146.032c-1.197-.193-2.268.493-2.309 1.95-.059 2.075 2.129 2.413 3.551 2.543 1.507.139 3.016.276 4.525.392.78.06 1.865.292 2.485-.438 1.09-1.282-.056-2.91-1.234-3.348-.554-.206-.792.75-.24.956.357 1.443.136 2.065-.663 1.87l-1.044-.09-2.089-.182c-.695-.06-1.394-.099-2.087-.18l-1.038-.15c-1.63-1.023-1.662-1.812-.099-2.368.573.092.82-.862.242-.955"/>
            <path fill="#FFF" d="M38.717 149.246c-.516.975-1.1 2.203-.383 3.228.84 1.205 2.768 1.427 4.062 1.513 1.895.127 6.816-.668 5.328-3.834-.273-.579-1.09-.07-.819.508.977 2.077-3.428 2.366-4.215 2.34-1.561-.052-4.589-.542-3.154-3.247.3-.565-.52-1.073-.819-.508"/>
            <path fill="#FFF" d="M40.011 153.722c-.182 2.209 1.91 3.549 3.934 3.232 2.169-.34 4.165-2.189 4.05-4.48-.03-.63-1.014-.634-.982 0 .176 3.52-6.334 5.068-6.02 1.248.053-.632-.93-.629-.982 0"/>
            <path fill="#FFF" d="M45.231 155.966l3.046 1.956c.537.345 1.027-.544.492-.888l-3.046-1.956c-.537-.345-1.027.544-.492.888"/>
        </g>
    </g>
</svg>
