<svg xmlns="http://www.w3.org/2000/svg" xmlns:xlink="http://www.w3.org/1999/xlink" width="160" height="160" viewBox="0 0 160 160">
    <defs>
        <path id="a" d="M.013.279h3.44v6.575H.013z"/>
    </defs>
    <g fill="none" fill-rule="evenodd">
        <path fill="#FF5D7F" d="M28.043 106.856C42.992 96.032 69.775 77.62 85.488 67.939c.973-.6 1.982-1.21 3.113-1.38 1.025-.153 2.065.07 3.076.298a207.264 207.264 0 0 1 47.774 17.205c-5.089 4.722-21.614 17.595-26.37 22.653-10.273 10.924-19.997 19.813-32.187 31.148-2.057 1.912-7.348 5.918-7.934 5.9-.583-.017-1.574-.27-2.101-.516-5.22-2.44-10.284-7.411-15.504-9.852-1.57-.735-3.288-2.352-5.095-3.575 0 0-13.582-7.9-17.676-9.168-2.425-.917-8.764-2.947-12.584-7.945l8.043-5.851z"/>
        <path fill="#FFF" d="M89.694 72.629a37.034 37.034 0 0 0 9.366 2.244c.58.063.575-.844 0-.906a36.087 36.087 0 0 1-9.124-2.212c-.546-.209-.782.667-.242.874"/>
        <path fill="#FFF" d="M85.65 80.74c1.623-2.962 4.405-4.844 7.168-6.647.487-.317.033-1.102-.457-.782-2.89 1.886-5.797 3.875-7.494 6.972-.28.511.502.969.783.457M90.973 81.973a42.956 42.956 0 0 1 14.683-5.233l-.511-.666a161.813 161.813 0 0 1-6.16 10.05c-.323.488.462.942.783.458a161.793 161.793 0 0 0 6.159-10.05c.209-.371-.134-.727-.512-.666a43.658 43.658 0 0 0-14.899 5.326c-.505.29-.05 1.074.457.781"/>
        <path fill="#FFF" d="M96.327 80.888a26.19 26.19 0 0 1 4.899 2.079c.511.28.968-.502.457-.783a27.434 27.434 0 0 0-5.115-2.17c-.558-.173-.797.702-.241.874M111.55 78.018a98.88 98.88 0 0 0-9.015 9.166c-.38.439.259 1.082.64.64a98.873 98.873 0 0 1 9.017-9.166c.435-.39-.207-1.028-.641-.64"/>
        <path fill="#FFF" d="M107.726 83.85a21.72 21.72 0 0 1 9.215-2.917c.577-.048.582-.955 0-.906-3.449.291-6.681 1.3-9.672 3.041-.504.294-.049 1.077.457.783"/>
        <path fill="#FFF" d="M110.248 82.267a32.859 32.859 0 0 0-1.629 6.943c-.071.577.835.572.907 0a31.837 31.837 0 0 1 1.595-6.702c.195-.55-.68-.788-.873-.24M119.613 82.752l4.706 2.168c.526.242.987-.539.457-.783-1.568-.723-3.137-1.445-4.707-2.167-.525-.242-.986.538-.456.782"/>
        <path fill="#FFF" d="M119.587 82.196c-3.337 1.573-7.99 5.012-8.737 8.918-.03.152-.01.331.116.44 1.398 1.194 3.52 1.81 5.18 2.584.525.246.986-.535.458-.782-1.13-.527-3.039-.988-3.943-1.84-1.301-1.227.563-3.037 1.392-4.018 1.646-1.95 3.693-3.436 5.991-4.52.528-.249.068-1.03-.457-.782"/>
        <path fill="#FFF" d="M113.808 86.997a26.427 26.427 0 0 1 4.195 2.637c.463.355.914-.431.458-.782a26.466 26.466 0 0 0-4.196-2.638c-.52-.262-.978.52-.457.783M74.883 81.763l34.81 14.405c.546.225 3.574 1.074 3.57 1.76-.003.442-1.789 1.771-2.13 2.1-1.841 1.765-3.736 3.472-5.636 5.173-4.113 3.681-8.28 7.308-12.215 11.18-1.773 1.746-3.504 3.536-5.139 5.413-.637.733-1.433 2.203-2.261 2.684-1.801 1.047-4.415-.678-6.008-1.37-5.623-2.448-11.067-5.29-16.464-8.193-5.226-2.81-10.406-5.706-15.672-8.44-1.3-.676-2.852-1.226-4.043-2.057-1.17-.816-1.06-.935-.094-1.98 1.818-1.967 3.949-3.614 6.196-5.062 8.194-5.276 18.015-8.189 24.365-15.97.366-.45-.272-1.094-.64-.641-8.572 10.504-23.707 12.167-32.107 22.875-.165.21-.198.57.091.711 7.868 3.84 15.475 8.17 23.199 12.285 3.679 1.96 7.385 3.872 11.16 5.642 1.78.835 3.574 1.639 5.387 2.4 1.032.434 2.574 1.454 3.725 1.262 2.095-.347 3.622-3.332 4.924-4.761 2.634-2.891 5.463-5.6 8.34-8.247 5.444-5.009 11.175-9.726 16.323-15.047.259-.267.108-.63-.2-.757L75.125 80.89c-.538-.223-.773.653-.241.874"/>
        <path fill="#FFF" d="M73.41 85.768a10.15 10.15 0 0 0 4.463 1.901c.57.094.816-.779.24-.874a9.567 9.567 0 0 1-4.247-1.809c-.467-.35-.919.437-.457.782M70.185 88.774a11.433 11.433 0 0 0 5.752 1.882c.583.03.58-.875 0-.907a10.488 10.488 0 0 1-5.295-1.758c-.488-.322-.942.462-.457.783"/>
        <path fill="#FFF" d="M76.53 83.667c-1.01 1.052-8.093 8.438-9.39 6.859-.37-.451-1.008.193-.641.64 1.175 1.432 3.088-.266 4.101-1.024a53.95 53.95 0 0 0 6.571-5.835c.404-.42-.235-1.062-.64-.64M79.981 85.976c-.547.704-2.128 2.049-1.872 3.098.294 1.206 2.66 2.203 3.62 2.64 1.11.503 3.348 1.544 4.594 1.148.972-.309 1.912-2.278 2.15-3.18.056-.21-.04-.391-.207-.511-.817-.585-1.939-.784-2.882-1.098l-3.838-1.283c-.555-.184-.793.69-.242.875l4.537 1.514c1.133.378 1.434.498 1.019 1.644-.368 1.016-.868 1.2-1.919.985a13.207 13.207 0 0 1-3.83-1.42c-.384-.216-1.746-.853-1.894-1.293-.26-.771.989-1.943 1.405-2.478.353-.455-.284-1.1-.64-.64"/>
        <path fill="#FFF" d="M82.005 87.918a3.297 3.297 0 0 0-2.168 2.131c-.184.554.69.792.874.241.24-.719.812-1.273 1.534-1.498.555-.173.318-1.048-.24-.874M83.95 88.403c-.94.625-1.81 1.339-2.6 2.145-.408.417.233 1.059.642.641a14.895 14.895 0 0 1 2.415-2.003c.483-.321.03-1.106-.457-.783M78.074 90.094l-2.846.904c-.299.095-.476.527-.2.757l1.509 1.255c.445.37 1.09-.267.64-.64l-1.508-1.255-.2.757 2.846-.904c.554-.176.318-1.05-.24-.874"/>
        <path fill="#FFF" d="M77.667 92.304c-1.514.55-3.058.757-4.664.628-.396-.031-.594.516-.32.774a7.725 7.725 0 0 0 2.113 1.434c.525.24.987-.541.457-.783a6.946 6.946 0 0 1-1.93-1.292l-.32.773a11.5 11.5 0 0 0 4.905-.66c.544-.198.309-1.074-.241-.874"/>
        <path fill="#FFF" d="M75.943 94.525v1.603c0 .583.906.585.906 0v-1.603c0-.583-.906-.583-.906 0M70.748 94.174l.224.917c.138.567 1.012.327.874-.24l-.224-.918c-.138-.566-1.012-.327-.874.24M72.869 95.808l-.229.23c-.412.412.228 1.053.64.64l.23-.23c.413-.412-.228-1.053-.641-.64M74.41 96.593l-.454.689c-.322.488.462.943.782.457l.454-.69c.322-.487-.462-.941-.782-.456M80.259 92.26l-1.606 1.14c-.472.334-.02 1.121.457.782l1.606-1.14c.472-.335.02-1.12-.457-.783"/>
        <path fill="#FFF" d="M79.482 94.043c1.804.374 3.577.853 5.324 1.438.555.184.792-.69.24-.875a46.52 46.52 0 0 0-5.323-1.436c-.57-.118-.813.755-.241.873"/>
        <path fill="#FFF" d="M80.032 94.313a10.57 10.57 0 0 0-3.728 3.69c-.302.5.48.956.782.456a9.607 9.607 0 0 1 3.403-3.363c.502-.295.047-1.078-.457-.783"/>
        <path fill="#FFF" d="M79.007 95.814c.823.706 1.71 1.318 2.67 1.824.516.272.974-.51.457-.782a13.359 13.359 0 0 1-2.486-1.683c-.44-.378-1.084.26-.64.64M77.99 97.451l2.984 1.592c.515.275.973-.507.457-.782l-2.983-1.592c-.514-.275-.972.507-.457.782"/>
        <path fill="#FFF" d="M81.634 95.01a19.826 19.826 0 0 0-3.692 3.573c-.359.452.279 1.098.64.64a18.986 18.986 0 0 1 3.509-3.43c.462-.346.01-1.133-.457-.783"/>
        <path fill="#FFF" d="M76.772 98.957a6.914 6.914 0 0 0 4.2 1.643c.584.026.582-.88 0-.906a5.89 5.89 0 0 1-3.56-1.378c-.444-.372-1.088.266-.64.64M81.969 93.146l.459.915c.262.522 1.044.063.783-.457l-.46-.915c-.262-.521-1.043-.063-.782.457M94.128 94.76l3.434 1.375c.542.217.777-.659.242-.874l-3.435-1.375c-.542-.217-.777.659-.241.873"/>
        <path fill="#FFF" d="M97.092 92.249l-7.335 9.843c-.349.467.437.92.782.457l7.335-9.843c.349-.468-.438-.92-.782-.457"/>
        <path fill="#FFF" d="M89.845 96.17a38.545 38.545 0 0 0 7.039 3.153c.554.185.792-.69.24-.873a37.44 37.44 0 0 1-6.822-3.063c-.505-.291-.963.491-.457.782M91.487 100.461l1.84.9c.523.255.982-.526.458-.782l-1.84-.9c-.522-.255-.982.526-.458.782M89.298 98.591a30.984 30.984 0 0 0-4.417 2.203c-.499.301-.043 1.085.458.782a29.6 29.6 0 0 1 4.2-2.111c.534-.216.3-1.093-.241-.874"/>
        <path fill="#FFF" d="M87.543 101.01c3.053 2.594 6.568 4.343 10.487 5.183.568.123.812-.75.24-.873-3.768-.808-7.147-2.454-10.087-4.95-.442-.376-1.086.262-.64.64M57.654 96.486c-1.051.594-2.123 1.162-3.16 1.784-.536.321-1.148.701-1.362 1.33-.482 1.412 1.076 2.309 2.29 2.085.968-.179 1.83-.826 2.599-1.404.661-.498 1.535-1.021 1.963-1.747.594-1.007-.198-2.267-1.357-1.752-.531.237-.071 1.017.457.782.096.435-.005.754-.304.958-.154.134-.31.264-.47.39-.357.288-.717.573-1.09.84-.406.291-2.709 1.886-3.049.796-.346-1.107.82-1.519 1.571-1.942l2.37-1.338c.507-.286.05-1.07-.458-.782M63.346 97.198c1.908.84 3.816 1.683 5.723 2.524.529.233.99-.547.457-.782l-5.723-2.525c-.528-.233-.99.548-.457.783"/>
        <path fill="#FFF" d="M66.72 98.37l-3.54 2.847c-.454.366.19 1.004.641.641l3.54-2.846c.455-.366-.19-1.003-.64-.641"/>
        <path fill="#FFF" d="M62.522 100.032a47.385 47.385 0 0 1 4.238 1.992c-.03-.237-.06-.475-.092-.712l-1.823 1.585c-.441.383.202 1.021.64.64l1.824-1.584c.216-.188.154-.581-.092-.712a49.624 49.624 0 0 0-4.455-2.083c-.538-.22-.773.655-.24.874"/>
        <path fill="#FFF" d="M59.314 101.419c3.3 1.096 6.4 2.568 9.34 4.42.495.312.95-.472.458-.782a43.765 43.765 0 0 0-9.558-4.512c-.554-.184-.792.69-.24.874M58.986 103.057a17.228 17.228 0 0 0-4.208 2.83c-.433.392.21 1.031.64.64a16.412 16.412 0 0 1 4.026-2.687c.527-.25.067-1.032-.458-.783"/>
        <path fill="#FFF" d="M58.394 104.64a32.402 32.402 0 0 1 5.186 2.128l-.092-.712c-1.105 1.042-2.21 2.085-3.313 3.128-.425.4.216 1.04.64.64l3.313-3.127c.205-.193.165-.58-.09-.712a33.832 33.832 0 0 0-5.403-2.218c-.558-.174-.796.7-.24.874"/>
        <path fill="#FFF" d="M54.508 107.363a15.59 15.59 0 0 1 4.715 2.436c.466.35.918-.437.458-.783a16.318 16.318 0 0 0-4.932-2.526c-.558-.176-.796.698-.24.873M77.877 103.905a2.91 2.91 0 0 1 1.863 1.017c.379.444 1.017-.2.64-.64a3.648 3.648 0 0 0-2.262-1.25c-.57-.081-.817.792-.241.873M75.238 105.897a30.269 30.269 0 0 0 5.212 2.963c.528.235.99-.545.458-.782a30.223 30.223 0 0 1-5.213-2.964c-.477-.337-.93.448-.457.783M74.884 108.522c.656.47 1.312.938 1.97 1.406.474.34.927-.445.457-.781l-1.97-1.407c-.475-.34-.928.446-.457.782M73.364 110.507a5.678 5.678 0 0 0 1.726 1.338c.52.263.979-.519.457-.781a5.004 5.004 0 0 1-1.542-1.198c-.384-.44-1.023.203-.64.64M71.055 112.207l-2.742 1.778c-.488.316-.034 1.1.457.782l2.743-1.778c.487-.315.033-1.1-.458-.782"/>
        <path fill="#FFF" d="M71.118 113.144l1.318.509.55.211c.117.045.234.091.35.142.113-.195.102-.235-.033-.121-.148.014-.366.231-.501.317l-.601.38-1.203.761c-.49.312-.037 1.096.458.784l1.903-1.205c.37-.235.963-.486.929-1.018-.026-.411-.39-.643-.732-.786-.723-.304-1.466-.566-2.197-.848-.544-.21-.78.666-.24.874"/>
        <path fill="#FFF" d="M69.016 115.51c.773.093 1.514.33 2.205.686.518.267.976-.515.458-.782a7.753 7.753 0 0 0-2.663-.81c-.577-.07-.573.836 0 .906M84.303 107.645l.978 1.61c.301.497 1.085.041.782-.459a1217.2 1217.2 0 0 1-.977-1.608c-.302-.498-1.086-.043-.783.457M82.327 109.703c1.29 1.545 3.42 1.736 4.973 2.908.466.35.918-.435.458-.782-1.485-1.12-3.565-1.3-4.791-2.766-.374-.449-1.011.196-.64.64"/>
        <path fill="#FFF" d="M84.243 110.789a20.835 20.835 0 0 0-3.627 1.04c-.262.102-.439.396-.27.666a5.436 5.436 0 0 0 2.198 2.03c.52.262.978-.52.457-.783a4.57 4.57 0 0 1-1.874-1.704l-.27.665a20.713 20.713 0 0 1 3.626-1.04c.573-.11.33-.984-.24-.874"/>
        <path fill="#FFF" d="M84.702 113.562c-1.855.434-3.716.84-5.586 1.206-.923.18-2.784.106-3.453.835-.13.142-.183.377-.07.548l.08.123c.146.222.384.265.62.162l.105-.045c.534-.233.073-1.014-.457-.783l-.106.047.62.161c-.217.493-.02.58.589.26a140.4 140.4 0 0 0 3.302-.63 155.14 155.14 0 0 0 4.598-1.01c.567-.133.326-1.006-.242-.874M82.947 116.059l-5.183 1.209c-.567.132-.327 1.006.24.873l5.185-1.208c.567-.132.327-1.006-.242-.874"/>
        <path fill="#FFF" d="M79.943 117.976l1.289 2.26c.289.507 1.072.051.782-.456-.43-.755-.859-1.508-1.29-2.26-.288-.507-1.07-.051-.781.456M37.173 115.521c3.283-2.018 6.655-4.634 10.364-5.774l-.513-.665a124.655 124.655 0 0 1-6.62 10.982c-.328.485.456.939.781.458a124.298 124.298 0 0 0 6.622-10.983c.179-.335-.12-.786-.512-.665-3.818 1.173-7.205 3.79-10.579 5.866-.496.304-.042 1.088.457.781"/>
        <path fill="#FFF" d="M40.358 115.044l2.528 1.317c.517.27.975-.512.457-.782-.842-.44-1.685-.878-2.527-1.317-.517-.27-.975.512-.458.782M50.489 112.766l-6.186 9.09c-.187.276.059.705.392.682 2.98-.2 5.774-1.076 8.177-2.89.285-.214.598-.605.917-.754.666-1.027.935-1.03.809-.014.138.466.07.896-.202 1.287-.553 2.024-1.845 4.166-2.692 6.08-.16.36.21.92.62.62l9.283-6.803c.465-.341.014-1.128-.458-.782l-9.283 6.803.62.62c1.055-2.384 2.252-4.753 3.18-7.186.415-1.086.647-1.422.127-2.434a.443.443 0 0 0-.391-.225c-1.156.104-1.315.59-2.254 1.393-2.447 2.093-5.266 3.166-8.453 3.38l.39.68 6.187-9.09c.328-.482-.456-.937-.783-.457M56.524 129.521a79.178 79.178 0 0 1 11.9-7.157l-.62-.62c-.73 1.657-1.561 3.257-2.559 4.77-.639.97-3.035 5.07-4.373 4.838-.57-.1-.815.773-.24.873 1.73.3 3.054-2.08 3.977-3.272 1.613-2.08 2.915-4.346 3.978-6.751.182-.415-.192-.829-.62-.62a79.178 79.178 0 0 0-11.9 7.158c-.468.339-.015 1.125.457.781"/>
        <path fill="#FFF" d="M60.763 126.76l4.081 2.038c.52.26.98-.522.457-.783l-4.08-2.037c-.52-.26-.98.522-.458.782M71.003 125.017c.18 1.02.176 2.443.614 3.38.176.378.403.554.83.607.779.096 1.937-.412 2.671-.648a24.535 24.535 0 0 0 3.158-1.279c.525-.252.066-1.034-.457-.782-1.342.646-2.822 1.295-4.298 1.576-.257.048-.868.243-1.092.039-.116-.106-.13-.732-.158-.896l-.395-2.238c-.1-.573-.974-.33-.873.241"/>
        <path fill="#FF5D7F" d="M65.26 69.822l-6.547-4.798c-.47-.345-.923.441-.457.783l6.546 4.797c.47.346.924-.44.457-.782"/>
        <g transform="translate(78.569 56.467)">
            <mask id="b" fill="#fff">
                <use xlink:href="#a"/>
            </mask>
            <path fill="#FF5D7F" d="M3.407 6.162L.84.514C.6-.016-.182.444.058.97l2.568 5.648c.24.53 1.021.07.781-.457" mask="url(#b)"/>
        </g>
        <path fill="#FF5D7F" d="M111.24 66.163c.924-1.408 1.849-2.815 2.775-4.222.32-.49-.464-.943-.784-.458l-2.774 4.222c-.32.489.463.943.782.458M55.04 145.83l-1.734 2.6c-.324.486.46.94.782.457l1.734-2.6c.324-.486-.46-.94-.783-.456M65.842 151.145a24.71 24.71 0 0 0-1.814 7.91c-.037.582.87.58.906 0a23.972 23.972 0 0 1 1.782-7.67c.221-.538-.654-.773-.874-.24M86.758 150.696a45.306 45.306 0 0 1 4.628 5.593c.332.474 1.118.021.782-.458a46.66 46.66 0 0 0-4.77-5.775c-.406-.42-1.047.221-.64.64"/>
        <path fill="#FFF" d="M71.357 128.921a50.505 50.505 0 0 0-5.612 6.116c-.353.456.284 1.102.641.64a50.453 50.453 0 0 1 5.612-6.115c.43-.397-.213-1.037-.64-.64"/>
    </g>
</svg>
