<svg xmlns="http://www.w3.org/2000/svg" xmlns:xlink="http://www.w3.org/1999/xlink" width="160" height="160" viewBox="0 0 160 160">
    <defs>
        <path id="a" d="M0 .171h67.72v17.575H0z"/>
        <path id="c" d="M.808.28h21.254v28.013H.808z"/>
    </defs>
    <g fill="none" fill-rule="evenodd">
        <path fill="#FF5D7F" d="M122.493 58.27c.976-3.265 1.95-6.53 2.927-9.796.21-.704-.89-1.007-1.1-.303-.977 3.265-1.953 6.53-2.928 9.796-.211.705.89 1.006 1.1.303M139.995 69.432l7.153-3.151c.671-.295.09-1.28-.577-.985-2.383 1.05-4.768 2.1-7.15 3.151-.672.295-.092 1.28.574.985M135.612 91.226l6.184 1.51c.713.174 1.017-.927.303-1.102l-6.183-1.508c-.713-.174-1.018.926-.304 1.1M96.834 85.675l4.047-4.75c1.683-1.977 2.193-2.917 4.71-2.128 2.77.87 5.21 1.878 8.185 1.944.434.01 3.89-.621 4.215-.362.66.524-.147 3.33-.23 4.112-.499 4.774-.269 9.578-.179 14.365.17 9.103-.985 18.166-.582 27.268.42 9.48 1.096 18.955 1.654 28.427.044.73 1.185.735 1.142 0-.72-12.21-2.127-24.605-1.698-36.84.21-6.009.726-11.988.643-18.007-.094-6.746-.444-13.382.975-20.035.092-.43-.264-.804-.702-.701-5.358 1.254-10.54.39-15.214-2.501-.2-.125-.532-.098-.69.088l-7.082 8.312c-.474.557.33 1.368.806.808"/>
        <path fill="#FF5D7F" d="M95.94 87.125c-.53 11.757-.853 23.197-.072 34.948l2.46 37.082c.03.44.46.702.858.493 5.748-3.006 11.737-4.752 18.198-5.294.726-.06.734-1.202 0-1.14-3.034.253-6.023.701-8.966 1.504a45.281 45.281 0 0 0-5.64 1.947c.05-.02-2.659 1.397-2.845 1.306-1.68-.82-1.135-8.945-1.266-10.905l-.859-12.954c-.515-7.76-1.194-15.532-1.514-23.302-.321-7.862.434-15.832.788-23.685.033-.734-1.108-.732-1.141 0"/>
        <path fill="#FF5D7F" d="M97.21 84.912l-6.342-1.456-23.625-6.97-30.17-7.69-3.1-1.347s-2.447-.775-2.594 1.149c-.148 1.922.665 5.522.665 5.522s1.036 14.197.296 19.077c-.74 4.88-.888 26.028-.888 26.028l-.117 22.096s-1.21-2.358 5.328 1.372c6.212 3.55 9.826 4.107 14.435 5.257 4.609 1.15 17.032 4.7 17.032 4.7l13.161 1.774 14.789 3.253 2.54-.675-3.117-47.097 1.707-24.993z"/>
        <path fill="#FF5D7F" d="M93.53 84.081a658.278 658.278 0 0 0-60.168-16.794c-.715-.163-1.02.937-.303 1.101a658.255 658.255 0 0 1 60.166 16.794c.7.232 1-.87.304-1.1"/>
        <g transform="translate(31 140.165)">
            <mask id="b" fill="#fff">
                <use xlink:href="#a"/>
            </mask>
            <path fill="#FF5D7F" d="M.399 1.3c10.251 3.136 20 7.422 30.405 10.173 6.314 1.67 12.596 2.466 19.027 3.446 5.88.898 11.313 2.939 17.338 2.822.733-.014.735-1.155 0-1.14-6.436.124-12.4-2.164-18.71-3.008-6.425-.86-12.65-1.93-18.91-3.64C19.7 7.26 10.432 3.174.701.198c-.704-.215-1.004.886-.303 1.1" mask="url(#b)"/>
        </g>
        <path fill="#FFDADD" d="M100.642 154.682c.994-3.01 2.424-5.866 3.284-8.917.453-1.605.771-3.25 1.291-4.834.295-.895.582-2.209 1.174-2.926.82-.99.354-.964 1.44-.28 3.775 2.376 4.899 7.69 7.959 10.72.521.517 1.33-.29.806-.807-1.82-1.802-2.87-4.408-4.304-6.507-1.386-2.031-3.253-3.718-4.822-5.614-.256-.309-.702-.153-.896.115-1.912 2.646-2.672 5.65-3.474 8.772-.884 3.438-2.448 6.61-3.558 9.974-.23.7.87 1 1.1.304M103.86 81.929c-1.01 16.928.876 34.212 2.635 51.054.076.722 1.218.73 1.142 0-1.759-16.842-3.646-34.126-2.635-51.054.044-.734-1.098-.731-1.141 0"/>
        <path fill="#FF5D7F" d="M118.204 78.342c-9.986-6.627-21.364-9.908-32.636-13.695-6.697-2.25-13.446-2.71-20.354-3.892-5.94-1.017-11.57-3.465-17.66-2.296-.407.079-.568.685-.253.954a82.768 82.768 0 0 1 7.31 7.035c.136-.325.27-.65.404-.975-6.76.064-14.927-1.08-21.364 1.396-.678.26-.384 1.365.303 1.1 6.294-2.422 14.398-1.293 21.061-1.354.509-.005.735-.614.404-.974a82.802 82.802 0 0 0-3.533-3.645 52.273 52.273 0 0 0-1.588-1.487c-1.609-.902-1.43-1.346.536-1.333 2.736-1.092 7.997 1.416 10.91 2.067 6.8 1.519 13.832 1.599 20.549 3.559 6.438 1.879 12.709 4.388 19.113 6.394 5.791 1.815 11.185 4.79 16.222 8.131.613.408 1.186-.58.576-.985"/>
        <path fill="#FF5D7F" d="M46.108 59.09a97.83 97.83 0 0 0-.288 6.848c-.004.735 1.137.736 1.141 0a97.29 97.29 0 0 1 .288-6.848c.057-.733-1.085-.73-1.14 0M54.344 66.128c.182 2.039.282 4.08.303 6.127.007.575.9.577.895 0a78.771 78.771 0 0 0-.304-6.127c-.05-.57-.944-.574-.894 0"/>
        <path fill="#FFF" d="M79.492 106.048c0 7.463-6.05 12.13-13.512 10.422-7.462-1.707-13.511-9.14-13.511-16.603 0-7.462 6.049-12.128 13.51-10.42 7.463 1.706 13.513 9.139 13.513 16.601M69.755 128.439l-3.671-.84c-.152-.034-.304-.194-.304-.346v-1.018c0-.18.134-.256.304-.217l.812.185c.09.022.197-.034.197-.133v-2.992c0-.063-.063-.148-.125-.163l-.912-.208a.233.233 0 0 1-.178-.229v-.268c0-.107.054-.184.178-.156l.912.21c.062.013.125-.053.125-.115v-1.912c0-.115.125-.23.25-.202l1.098.252c.126.028.26.193.26.318v1.911c0 .072.063.158.134.174l.867.199c.107.024.17.11.17.217v.304c0 .088-.09.149-.17.13l-.84-.192c-.09-.02-.161.008-.161.098v2.992c0 .09.116.205.205.226l.849.194c.152.035.25.2.25.343v1.018c0 .152-.107.253-.25.22zm-5.682-6.284a.175.175 0 0 0-.133-.165l-.814-.186c-.053-.012-.125.034-.125.105v1.1c0 .062.063.156.134.173l.805.184c.062.014.133-.04.133-.112v-1.099zm0-2.02c0-.08-.071-.158-.142-.174l-.805-.184c-.053-.013-.125.042-.125.114v1.098c0 .062.063.149.134.165l.805.184c.062.014.133-.032.133-.103v-1.1zm1.206 7.155a.647.647 0 0 1-.509.08l-1.116-.255a.258.258 0 0 1-.18-.22v-1.09c0-.071.073-.135.153-.116l.33.075c.063.014.116-.018.116-.098V124.2c0-.08-.071-.167-.142-.184l-.787-.18c-.07-.016-.143.048-.143.12v1.518c0 .161-.018.326-.053.47l-.223.85c-.018.051-.09.088-.161.072l-.41-.095c-.082-.017-.108-.13-.09-.19l.231-.768c.046-.16.063-.36.063-.531v-5.672a.56.56 0 0 1 .17-.416.457.457 0 0 1 .429-.108l1.822.416c.187.044.366.138.491.265a.692.692 0 0 1 .242.51v6.566c0 .207-.09.355-.233.447zM79.468 126.98l-1.67-.382c-.081-.018-.17.024-.17.113v2.788c0 .214-.081.384-.214.496-.143.118-.358.168-.599.113l-1.787-.408c-.116-.028-.232-.161-.232-.286v-1.189c0-.133.125-.177.242-.15l.777.179c.124.028.232-.046.232-.171v-1.707c0-.106-.098-.2-.197-.224l-1.679-.383c-.08-.019-.143-.086-.143-.158v-.393c0-.071.062-.12.143-.101l1.724.394c.054.012.152-.055.152-.117v-.858c0-.062.063-.164.098-.2l1.34-1.159c.035-.028.009-.097-.036-.106l-2.724-.624c-.09-.02-.143-.086-.143-.157v-.394c0-.07.062-.119.143-.101l4.43 1.014c.08.018.152.097.152.187v.794c0 .08-.018.157-.08.206l-1.518 1.206c-.054.042-.081.107-.081.188v.366c0 .09.08.17.17.19l1.661.38c.09.02.152.097.152.187v.357c0 .081-.071.128-.143.11zm-6.128-2.616c-.018.05.044.171.099.184l.142.032a.2.2 0 0 1 .16.206v4.387c0 .133-.088.211-.222.181l-1.126-.258a.274.274 0 0 1-.223-.282v-4.19a.165.165 0 0 0-.125-.163l-.349-.08a.145.145 0 0 1-.107-.203l1.045-2.7c.036-.081.143-.128.241-.106l1.332.305c.097.023.125.145.097.21l-.964 2.477zM58.248 121.575c-.04-.554-.303-1.726-.53-2.08-.23-.354-.666-.602-1.022-.682-.377-.088-.68.008-.911.285-.23.276-.374 1.378-.384 1.945.609.14 1.119.246 1.528.32.409.074 1.046.19 1.319.212zm2.165.987l-3.346-.765a17.66 17.66 0 0 0-.87-.177 9.823 9.823 0 0 0-.75-.104c.064.688.288 1.252.672 1.692.385.44.92.738 1.603.894.302.07.639.094 1.011.072a6.726 6.726 0 0 0 1.271-.218l.424 1.025c-.698.361-1.364.588-1.996.682a5.226 5.226 0 0 1-1.944-.089c-1.16-.265-2.098-.833-2.814-1.706a4.617 4.617 0 0 1-1.075-3.019c0-1.204.4-2.111 1.2-2.722.8-.61 1.804-.778 3.008-.501 1.11.253 1.99.811 2.636 1.673.647.861.97 1.907.97 3.137v.126z"/>
        <path fill="#FF5D7F" d="M73.945 104.808c-.487 1.22-1.715 3.2-5.239 2.94-4.345-.322-10.265-2.353-10.581-7.114-.375-5.639 7.808-5.013 10.984-2.864 4.81 3.256 1.402 5.75-1.146 5.168-2.49-.57-3.044-2.107-3.292-2.56-.247-.453-1.025-1.571-2.278-1.14-1.02.353-.787 1.687-.312 2.52.599 1.054 2.72 3.008 5.9 3.735 3.067.701 5.533-.904 6.052-3.41.376-1.821-1.25-4.461-3.83-5.971-1.999-1.17-3.907-1.973-6.994-2.231-4.451-.373-7.547 2.624-7.547 6.193 0 4.293 3.463 9.41 7.523 11.349l.05.023v.78c.886.45 1.82.797 2.784 1.017.945.216 1.86.298 2.73.259v-.81c.392-.008 6.75-.215 7.541-7.298 0 0 .004-.017.008-.048l-2.353-.538z"/>
        <g transform="translate(73.667 40.61)">
            <mask id="d" fill="#fff">
                <use xlink:href="#c"/>
            </mask>
            <path fill="#FF5D7F" d="M2.63 21.18c.034-3.82.053-7.643.101-11.464.038-3.06.36-6.718 4.01-7.534 2.763-.616 5.459.726 7.818 1.906 1.413.707 3.144 1.486 4.188 2.703 1.711 1.996 1.398 5.53 1.432 7.986.06 4.225-.137 8.435-.503 12.643-.101 1.168 1.72 1.16 1.822 0 .342-3.927.545-7.855.516-11.798-.02-2.49.324-5.53-.58-7.898-1.44-3.767-6.76-6.072-10.335-7.041-3.287-.89-7.34-.45-9.239 2.759C.747 5.322.936 7.615.909 9.716.86 13.537.842 17.359.809 21.18c-.011 1.172 1.811 1.173 1.822 0" mask="url(#d)"/>
        </g>
        <path fill="#FF5D7F" d="M59.883 78.958c-.05-4.343-.03-8.692-.149-13.034-.119-4.334-1.312-9.522 1.015-13.46 4.818-8.157 13.949-5.731 16.721 2.142 3.307 9.39 1.006 19.931.654 29.593-.043 1.172 1.778 1.17 1.822 0 .39-10.685 4.49-27.37-4.169-35.927-4.739-4.683-11.376-3.234-15.426 1.623-2.557 3.068-2.87 6.434-2.745 10.295.206 6.26.384 12.502.456 18.768.012 1.172 1.834 1.175 1.82 0M31.453 119.225l-.118 22.096s1.764-.068 5.327 1.372"/>
    </g>
</svg>
