<svg xmlns="http://www.w3.org/2000/svg" xmlns:xlink="http://www.w3.org/1999/xlink" width="160" height="160" viewBox="0 0 160 160">
    <defs>
        <path id="a" d="M.702.61h108.819v51.354H.702z"/>
        <path id="c" d="M0 .604h113.145v22.91H0z"/>
    </defs>
    <g fill="none" fill-rule="evenodd">
        <g transform="translate(21.443 107.41)">
            <mask id="b" fill="#fff">
                <use xlink:href="#a"/>
            </mask>
            <path fill="#FF5D7F" d="M1.016 2.573C4.222 4.287 5.42 11.31 6.548 14.562c1.491 4.304 2.928 8.628 4.446 12.924.927 2.626 1.67 5.917 3.49 8.094 1.148 1.373 2.866 1.843 4.526 2.373 7.612 2.434 15.565 4.056 23.318 5.963 9.207 2.264 18.414 4.586 27.685 6.58 3.17.682 6.934 1.926 10.092 1.294 5.561-1.113 9.93-7.388 13.69-11.28 2.97-3.076 7.49-6.389 8.773-10.625 2.824-9.326 4.408-19.068 6.929-28.492.21-.786-1.009-1.121-1.219-.336-2.181 8.16-3.882 16.408-5.896 24.603-.511 2.082-.847 4.44-2.146 6.174-1.461 1.949-3.374 3.662-5.055 5.416-3.823 3.987-7.923 9.504-12.757 12.234-3.703 2.09-8.442.584-12.437-.285-16.637-3.618-33.51-7.376-49.835-12.226-1.472-.438-3.258-.783-4.394-1.825-1.716-1.573-2.325-4.572-3.095-6.725a528.02 528.02 0 0 1-2.414-6.933c-1.46-4.266-2.908-8.536-4.43-12.78-.877-2.447-1.697-5.908-4.165-7.227-.716-.384-1.355.706-.638 1.09" mask="url(#b)"/>
        </g>
        <path fill="#FF5D7F" d="M131.94 104.508c.226.273.102 3.21-1.609 4.127-.6 2.246-7.088 29.026-7.088 29.026s-.362 1.267-2.184 3.22c-1.824 1.953-14.18 14.601-14.18 14.601s-4.017 4.83-10.082 3.225c-6.066-1.606-56.912-13.75-56.912-13.75s-3.133-.132-5.093-5.484c-1.96-5.353-9.639-27.038-9.639-27.038s-2.07-2.81-3.29-3.8c-1.219-.99-.21-3.465 3.038-5.638 3.249-2.173 20.614-13.174 20.614-13.174s3.663-1.158 10.089-.678c6.425.482 28.546 4.063 28.546 4.063l44.207 9.596 3.584 1.704z"/>
        <g transform="translate(20 87.202)">
            <mask id="d" fill="#fff">
                <use xlink:href="#c"/>
            </mask>
            <path fill="#FF5D7F" d="M5.989 22.282c-.74-.154-2.547-.163-3.161-.686-2.824-2.405 1.292-4.518 2.575-5.379 2.239-1.5 4.479-2.998 6.73-4.477 4.474-2.94 8.965-6.069 13.701-8.573 3.57-1.888 7.227-1.283 11.079-.79 5.308.679 10.605 1.44 15.888 2.293 9.638 1.556 19.218 3.446 28.766 5.475 5.087 1.08 10.162 2.205 15.256 3.248 2.565.525 5.127 1.062 7.66 1.731 1.223.324 2.667.545 3.798 1.12 1.5.344 2.39 1.474 2.676 3.389-.56.447-1.118.899-1.672 1.354-.631.513.267 1.402.892.893 1.675-1.365 4.254-2.742 2.219-5.016-1.061-1.184-2.984-1.594-4.413-2.047-2.916-.925-5.901-1.612-8.892-2.244-11.008-2.325-21.999-4.761-33.054-6.853A493.796 493.796 0 0 0 36.256 1.03c-3.68-.466-7.207-.924-10.622.792-4.311 2.167-8.388 5.075-12.427 7.707a772.964 772.964 0 0 0-8.441 5.597c-1.43.958-3.655 2.028-4.43 3.717-1.616 3.524 2.998 4.173 5.317 4.655.794.166 1.133-1.052.336-1.217" mask="url(#d)"/>
        </g>
        <path fill="#FFF" d="M129.284 108.188c-6.2 5.112-12.047 10.807-18.56 15.522-4.612 3.338-9.753 1.367-14.83.312l-14.122-2.937-55.783-11.602c-.794-.164-1.132 1.052-.336 1.218l61.432 12.777c4.941 1.027 9.873 2.133 14.829 3.084 3.722.714 6.324.503 9.447-1.762 6.598-4.784 12.532-10.538 18.816-15.719.628-.517-.27-1.406-.893-.893M110.618 130.373c.465 0 .466-.721 0-.721-.465 0-.465.721 0 .721"/>
        <path fill="#FFF" d="M110.751 130.254a39.121 39.121 0 0 0 4.053-3.299c.294-.274-.098-.805-.438-.566-1.251.877-2.364 1.899-3.416 3.005-.282.296.076.769.438.567a50.15 50.15 0 0 0 3.886-2.41l-.438-.566-1.55 1.646c-.319.337.19.85.51.51l1.55-1.646c.269-.286-.086-.807-.437-.566a50.005 50.005 0 0 1-3.886 2.408l.437.567c1.01-1.06 2.07-2.05 3.27-2.892l-.436-.567a37.91 37.91 0 0 1-3.907 3.185c-.375.267-.015.893.364.624M118.597 124.035a19.167 19.167 0 0 1 1.83-1.51l-.438-.567-2.423 2.307c-.34.325.16.804.51.51l1.951-1.635-.51-.51a24.012 24.012 0 0 0-1.875 1.9c-.308.351.158.815.51.511l1.14-.987c.351-.305-.161-.813-.51-.51l-1.14.986.51.511a23.9 23.9 0 0 1 1.875-1.901c.349-.316-.158-.805-.51-.51l-1.951 1.635.51.51 2.424-2.307c.29-.275-.1-.81-.438-.566-.692.5-1.35 1.04-1.975 1.622-.34.317.17.827.51.51M123.293 120.192a19.848 19.848 0 0 1 2.583-2.76l-.602-.35c-.39 1.3-1.978 1.8-2.61 2.98-.167.314.174.676.494.493a9.708 9.708 0 0 0 2.385-1.91c.313-.343-.196-.854-.51-.51a9.075 9.075 0 0 1-2.238 1.796l.493.494c.674-1.258 2.25-1.713 2.682-3.152.109-.363-.346-.58-.604-.35a20.799 20.799 0 0 0-2.695 2.904c-.283.369.343.729.622.365M111.416 134.74a57.442 57.442 0 0 0 3.194-3.408l-.51-.51a26032.81 26032.81 0 0 0-3.707 4.633c-.288.358.152.819.51.51l3.188-2.756c.352-.304-.16-.812-.51-.51l-3.188 2.756.51.51 3.707-4.633c.285-.356-.202-.867-.51-.51a57.923 57.923 0 0 1-3.194 3.407c-.332.327.178.837.51.51M118.197 129.324l2.072-2.38c.302-.348-.173-.838-.51-.511a27.553 27.553 0 0 0-2.355 2.603c-.233.293.068.816.438.567a10.878 10.878 0 0 0 2.606-2.466c.281-.37-.345-.73-.623-.364a9.848 9.848 0 0 1-2.348 2.207l.438.566a27.553 27.553 0 0 1 2.354-2.603l-.51-.51-2.072 2.38c-.304.35.204.863.51.511M124.028 124.722l1.777-1.849c.272-.282-.096-.82-.437-.566a9.137 9.137 0 0 0-2.379 2.605c-.221.363.268.699.567.437l1.74-1.527-.51-.51-.872.89c-.326.331.185.842.51.51.29-.297.581-.594.873-.89.327-.335-.165-.814-.511-.51l-1.74 1.527.566.437a8.222 8.222 0 0 1 2.12-2.346l-.437-.567-1.777 1.848c-.322.335.187.846.51.51M110.886 140.038l3.71-3.2-.51-.51c-1.362 1.423-2.724 2.846-4.087 4.267-.324.34.163.815.511.511l3.592-3.142c.35-.306-.162-.815-.51-.51a4861.913 4861.913 0 0 1-3.593 3.141l.511.511 4.086-4.267c.325-.339-.161-.81-.51-.51l-3.71 3.199c-.352.304.16.812.51.51M118.392 134.402a8.643 8.643 0 0 1 2.07-2.009l-.437-.567c-.937 1.03-1.89 2.047-2.857 3.048-.33.342.156.795.51.51l2.376-1.905c.363-.29-.151-.799-.51-.51l-2.376 1.905.51.51c.968-1.001 1.92-2.017 2.858-3.047.26-.288-.084-.811-.438-.567a9.664 9.664 0 0 0-2.329 2.268c-.275.374.351.735.623.364M123.77 130.701l.945-.791-.51-.51a35.732 35.732 0 0 1-1.58 1.504c-.348.31.163.814.51.51l1.53-1.334-.51-.511-.549.703c-.282.363.225.876.51.51l.549-.702c.28-.361-.153-.824-.51-.511l-1.53 1.335.51.51a35.732 35.732 0 0 0 1.58-1.504c.332-.336-.16-.803-.51-.51l-.946.79c-.357.3.156.808.51.511M110.608 146.127l3.636-4.046-.568-.437a32.907 32.907 0 0 1-3.547 3.933l.51.51a25.554 25.554 0 0 1 2.39-2.15c.364-.287-.15-.795-.51-.51a25.363 25.363 0 0 0-2.39 2.15c-.326.333.173.83.51.51a34.067 34.067 0 0 0 3.66-4.078c.25-.326-.294-.74-.566-.438l-3.635 4.045c-.31.345.199.856.51.51M118.606 138.813l1.51-1.712-.51-.51a40.633 40.633 0 0 1-2.948 3.015c-.35.323.156.79.51.51.762-.6 1.472-1.254 2.131-1.967.315-.34-.194-.852-.51-.51-.66.712-1.37 1.367-2.131 1.967l.51.51a40.633 40.633 0 0 0 2.948-3.015c.306-.347-.203-.86-.51-.51l-1.51 1.711c-.307.347.202.86.51.51M122.656 135.14l.77-.908c.298-.352-.207-.865-.51-.51-.22.257-.456.494-.713.715l.511.51.371-.466c.286-.36-.222-.874-.51-.51l-.372.466c-.285.36.152.82.511.51.256-.22.492-.458.712-.715l-.51-.51-.77.907c-.3.353.209.866.51.511M110.39 149.708a12.245 12.245 0 0 1 2.848-2.834l-.436-.566-3.768 4.153c-.311.343.179.841.51.51l3.769-3.765c.329-.329-.181-.84-.51-.51l-3.77 3.765c.17.17.34.341.511.51l3.768-4.153c.26-.286-.087-.817-.438-.566a13.304 13.304 0 0 0-3.107 3.092c-.272.378.354.738.623.364M118.42 142.44c.11-.275.263-.526.455-.752l-.566-.438a5.571 5.571 0 0 1-1.19 1.476l.51.51 1.564-1.879-.566-.436-.617.956c-.253.391.371.753.623.364.206-.319.41-.638.617-.957.219-.338-.302-.755-.567-.437l-1.565 1.879c-.296.355.158.821.51.51a6.163 6.163 0 0 0 1.303-1.621c.193-.344-.292-.76-.566-.437a3.753 3.753 0 0 0-.64 1.07c-.171.432.526.62.695.192M122.114 138.255l.674-.63-.568-.438-.47.725c-.255.39.37.753.622.364l.472-.724c.23-.353-.276-.71-.567-.438l-.673.631c-.34.318.171.828.51.51M30.038 114.625l5.386 1.66c.064-.231.127-.464.192-.695a39.486 39.486 0 0 1-4.683-1.279l-.192.696c1.213.265 2.35.684 3.438 1.278l.365-.622a9.609 9.609 0 0 0-2.437-.814c-.454-.086-.65.61-.192.696a8.88 8.88 0 0 1 2.264.74c.415.2.777-.398.365-.622a13.427 13.427 0 0 0-3.61-1.352c-.456-.098-.632.547-.193.696 1.536.523 3.094.948 4.683 1.278.452.094.638-.558.192-.695l-5.386-1.66c-.445-.137-.635.559-.192.695M31.66 118.566l3.345.69c.451.092.645-.576.192-.696a29.304 29.304 0 0 0-3.425-.7l-.096.71c.795.085 1.58.218 2.36.394.39.088.642-.447.278-.66a4.51 4.51 0 0 0-1.986-.61c-.344-.026-.433.397-.255.617.224.275.467.424.805.529.445.137.635-.56.192-.696a.758.758 0 0 1-.487-.344l-.255.616c.594.045 1.105.21 1.621.512l.28-.66a22.284 22.284 0 0 0-2.553-.42c-.4-.043-.499.652-.096.709 1.156.165 2.297.397 3.425.698.065-.231.128-.464.192-.695l-3.345-.69c-.453-.093-.647.602-.192.696M32.897 121.769l3.322 1.155.192-.695a31.56 31.56 0 0 0-4.365-.956c-.447-.064-.657.595-.192.697.837.183 1.614.469 2.368.88l.278-.66-1.43-.382c-.45-.12-.641.577-.192.696l1.43.382c.39.104.645-.46.279-.66a9.53 9.53 0 0 0-2.541-.953l-.192.697c1.478.215 2.931.533 4.365.954.45.133.627-.544.192-.695l-3.322-1.156c-.44-.153-.628.544-.192.696M33.11 126.14a5.173 5.173 0 0 1 2.62.793l.28-.659-2.91-1.146-.192.696c.965.153 1.902.396 2.82.733.436.16.625-.537.192-.696a15.03 15.03 0 0 0-2.82-.733.361.361 0 0 0-.192.696l2.908 1.146c.392.155.614-.452.279-.66a5.918 5.918 0 0 0-2.985-.89c-.465-.015-.464.707 0 .72M32.744 128.876c.09.57.606.769 1.077 1l2.328 1.137.278-.66c-.814-.246-1.628-.49-2.441-.737-.446-.135-.635.558-.192.696a16.99 16.99 0 0 1 2.616 1.061c.42.214.737-.352.364-.622a7.321 7.321 0 0 0-1.62-.882l-.191.695c.68.153 1.331.355 1.978.615.432.172.619-.526.193-.696a12.84 12.84 0 0 0-1.98-.614c-.462-.105-.615.526-.191.695.522.209.992.48 1.447.81l.364-.623c-.9-.457-1.826-.834-2.788-1.135l-.192.696 2.44.737c.385.116.651-.477.279-.66l-1.506-.735c-.357-.175-1.5-.539-1.568-.97-.073-.457-.768-.263-.695.192M36.802 133.849l-.25-.048-.183.672a6.131 6.131 0 0 1 1.955.102l.096-.708-2.842-.193c-.472-.032-.446.663 0 .722l2.51.325c.424.056.455-.583.096-.709a25.086 25.086 0 0 0-2.38-.699c-.453-.11-.633.554-.192.696.934.3 1.84.658 2.724 1.082.417.2.783-.422.365-.623a22.71 22.71 0 0 0-2.897-1.155l-.192.696c.806.194 1.598.426 2.38.7l.095-.71-2.509-.325v.722l2.842.192c.404.028.493-.622.096-.708a6.745 6.745 0 0 0-2.147-.129c-.347.036-.501.47-.181.673.264.168.504.198.806.12.45-.114.259-.81-.192-.695M37.806 137.409l-.5-.159-.096.71c.537-.022 1.011.11 1.435.45l.437-.566a20.923 20.923 0 0 0-2.346-.965l-.096.708c.938.11 1.85.328 2.742.635.44.152.629-.545.191-.695-.955-.33-1.929-.543-2.933-.661-.424-.05-.458.585-.096.708a19.5 19.5 0 0 1 2.174.893c.341.165.779-.293.437-.567-.571-.458-1.209-.692-1.945-.662-.407.016-.488.584-.096.709l.5.158c.444.14.634-.556.192-.696M36.85 141.047a15.26 15.26 0 0 1 3.106 1.811l.364-.623-2.409-1.204c-.349-.175-.754.273-.437.566a5.064 5.064 0 0 0 2.186 1.2c.45.117.641-.578.192-.696a4.286 4.286 0 0 1-1.867-1.014l-.438.567 2.409 1.204c.424.213.73-.348.364-.623a15.313 15.313 0 0 0-3.106-1.812c-.422-.183-.79.438-.364.624M39.343 116.948a14.565 14.565 0 0 1 5.05.89l.095-.708a12.735 12.735 0 0 1-3.952-.88l-.095.71c1.207.127 2.372.392 3.52.783l.096-.709a7.492 7.492 0 0 1-3.332-.708l-.278.66.973.206c.454.096.647-.6.192-.695-.324-.07-.648-.138-.973-.207-.376-.08-.67.477-.278.66a8.338 8.338 0 0 0 3.696.806c.417-.005.475-.58.096-.71a16.978 16.978 0 0 0-3.712-.808c-.437-.047-.443.573-.096.709 1.339.526 2.709.82 4.143.904.43.026.458-.576.096-.708a15.116 15.116 0 0 0-5.24-.917c-.466 0-.466.722 0 .722M39.073 119.637c1.391.058 2.724.36 3.999.92.06-.224.12-.447.182-.672a15.751 15.751 0 0 1-3.346-.693l-.192.696 3.696.982.096-.708c-.106-.03-.213-.058-.32-.086-.409-.221-.773.402-.364.623.288.156.357.174.684.184.408.013.488-.604.096-.708l-3.696-.983c-.45-.12-.633.555-.192.696 1.157.371 2.33.605 3.538.719.347.033.505-.53.181-.672a11.936 11.936 0 0 0-4.362-1.02c-.464-.02-.464.702 0 .722M38.123 122.667c1.524.058 3.027.231 4.523.526v-.696a8.992 8.992 0 0 1-3.036-.042l-.192.696 3.728.609c.45.074.652-.606.192-.696l-2.272-.447c-.454-.089-.648.607-.192.696l2.272.447.192-.696-3.728-.609c-.452-.074-.652.612-.192.696 1.149.21 2.266.221 3.42.042.352-.055.337-.63 0-.696a30.187 30.187 0 0 0-4.715-.551c-.465-.018-.464.704 0 .721M39.385 126.83c1.188.324 2.386.597 3.596.82l.097-.709-3.407-.006c-.393 0-.508.643-.096.709l2.718.432.096-.71-.472-.018c-.464-.018-.463.703 0 .721l.472.02c.397.015.503-.645.096-.71l-2.718-.431c-.032.236-.065.472-.096.709l3.407.006c.394 0 .506-.633.096-.709a44.092 44.092 0 0 1-3.597-.82c-.45-.122-.641.574-.192.696M40.023 131.557l3.63.29v-.721a20.68 20.68 0 0 1-3.6-.105v.722l2.782-.014c.465-.003.464-.71 0-.722-.447-.011-.89-.001-1.336.03-.462.032-.465.755 0 .722.446-.031.889-.041 1.336-.03v-.722l-2.781.014c-.477.002-.45.67 0 .722a20.68 20.68 0 0 0 3.599.104c.467-.026.462-.684 0-.721l-3.63-.291c-.463-.037-.46.685 0 .722M41.105 135.12a8.726 8.726 0 0 1 3.118.391l.096-.71-3.31-.002v.722a9.591 9.591 0 0 1 2.925.417l.096-.71-1.636-.163v.722a2.43 2.43 0 0 1 1.24.227c.417.198.784-.424.364-.623a3.172 3.172 0 0 0-1.604-.326c-.47.03-.46.677 0 .722l1.636.163c.416.042.471-.595.096-.709a10.274 10.274 0 0 0-3.118-.442c-.464.005-.465.72 0 .722 1.104 0 2.207.002 3.311.003.414 0 .482-.588.096-.71a9.312 9.312 0 0 0-3.31-.416c-.462.025-.465.747 0 .722M41.571 137.953c.872.58 1.852.891 2.897.94.47.023.456-.678 0-.72l-2.664-.25c-.401-.037-.5.653-.096.709l2.56.353c.453.063.65-.632.191-.696l-2.56-.353-.095.709 2.664.249v-.722a4.926 4.926 0 0 1-2.532-.841c-.389-.259-.75.366-.365.622M41.918 143.12c.921-.045 1.836-.02 2.754.074v-.721a7.24 7.24 0 0 1-1.85-.003l-.095.71a8.145 8.145 0 0 1 2.58.07l.096-.71c-.526.011-1.044-.016-1.566-.085.031.237.063.473.096.71.166.016.334.032.501.05.418.195.785-.426.365-.624-.37-.173-.658-.211-1.06-.123-.431.096-.273.66.098.709.522.069 1.04.096 1.566.085.392-.008.51-.63.096-.709a8.738 8.738 0 0 0-2.772-.096c-.358.045-.54.649-.096.708.685.094 1.354.11 2.04.03.46-.056.468-.675 0-.722a18.178 18.178 0 0 0-2.753-.075c-.462.023-.465.744 0 .722M49.288 118.644c1.268.262 2.545.421 3.84.474.466.02.46-.691 0-.721l-3.567-.234v.722a8.703 8.703 0 0 1 3.136.38l.096-.71c-.97-.019-1.925-.11-2.88-.28l-.096.708a2.16 2.16 0 0 1 1.14.218c.416.202.782-.42.364-.623a2.929 2.929 0 0 0-1.504-.316c-.382.021-.518.633-.096.71 1.017.18 2.039.284 3.072.305.416.009.479-.59.096-.709a9.278 9.278 0 0 0-3.328-.405c-.465.028-.464.691 0 .722l3.566.233v-.721a22.55 22.55 0 0 1-3.647-.45c-.454-.093-.648.603-.192.697M47.788 120.723c1.741.385 3.49.718 5.25 1l.098-.71a26.752 26.752 0 0 1-4.188-.31l-.096.708 3.739.157v-.722l-.781-.002c-.465-.002-.466.72 0 .721l.78.003c.467.002.463-.702 0-.722l-3.738-.157c-.398-.016-.503.645-.096.709 1.453.225 2.908.341 4.38.338.391-.001.508-.643.095-.71a90.708 90.708 0 0 1-5.251-.999c-.453-.1-.646.596-.192.696M48.152 124.622l4.23.06v-.721c-.956.066-1.883.017-2.827-.166-.031.236-.063.473-.096.709a9.18 9.18 0 0 1 3.173.532l.095-.709a6.55 6.55 0 0 1-3.066-.436l-.192.695c.436.09.821.232 1.21.454.404.23.768-.394.364-.624a4.588 4.588 0 0 0-1.382-.525c-.461-.096-.619.527-.192.695a6.966 6.966 0 0 0 3.258.463c.405-.037.492-.57.097-.709a9.732 9.732 0 0 0-3.365-.558c-.393.004-.506.63-.095.709 1.003.194 1.999.263 3.018.191.46-.031.47-.714 0-.721l-4.23-.06c-.465-.007-.465.715 0 .721M47.385 128.021l4.24.97.192-.696a23.638 23.638 0 0 1-3.548-.784l-.096.708c1.085.059 2.156.195 3.22.413l.097-.71-.358-.032c-.462-.043-.46.68 0 .721l.358.034c.403.037.493-.628.096-.71a23.323 23.323 0 0 0-3.413-.437c-.417-.022-.476.594-.096.71 1.164.351 2.343.612 3.548.783.445.063.656-.59.192-.696l-4.24-.97c-.451-.104-.645.592-.192.696M47.474 131.316c1.19.016 2.36.153 3.522.417l.096-.708-3.596-.174c-.4-.019-.502.64-.096.709l3.327.564c.454.076.65-.619.191-.697l-3.326-.563-.096.708c1.198.059 2.398.117 3.596.174.404.02.493-.619.096-.709a17.821 17.821 0 0 0-3.714-.442c-.465-.006-.465.716 0 .721M47.106 135.24l4.007.82.096-.71a22.85 22.85 0 0 1-3.474-.277l-.096.709c1.057-.016 2.078.12 3.094.41l.096-.709-1.7-.008c-.473-.002-.457.681 0 .722.388.035.731.123 1.094.26.435.166.623-.531.191-.695a4.739 4.739 0 0 0-1.286-.287v.722l1.7.008c.41.002.488-.596.097-.709a11.237 11.237 0 0 0-3.286-.436c-.39.006-.511.642-.096.709 1.217.193 2.435.298 3.666.303.397.002.504-.625.096-.709l-4.007-.818c-.453-.093-.647.602-.192.695M47.88 139.053c.91.093 1.792.292 2.66.583l.095-.71a9.301 9.301 0 0 1-2.348-.216c-.031.237-.063.473-.096.71a7.871 7.871 0 0 1 2.62.771l.182-.672-1.985.02c-.414.004-.481.585-.096.709l1.716.553c.442.142.632-.554.191-.696l-1.715-.554-.096.71 1.985-.02c.34-.003.515-.509.183-.672a8.88 8.88 0 0 0-2.985-.872c-.404-.045-.489.622-.096.71.839.187 1.681.27 2.54.241.414-.013.482-.58.097-.709a13.2 13.2 0 0 0-2.852-.608c-.462-.048-.459.675 0 .722M47.202 143.395c1.276.055 2.527.237 3.765.546l.096-.709a11.745 11.745 0 0 1-2.795-.434l-.192.696 2.825.682c.452.109.645-.587.193-.696l-2.826-.682c-.451-.108-.641.57-.192.696.98.275 1.97.426 2.987.46.406.014.49-.61.096-.709a19.694 19.694 0 0 0-3.957-.572c-.464-.02-.463.702 0 .722M56.73 119.911c1.264.199 2.516.454 3.757.767l.096-.708-2.229-.232v.722c.56.018 1.09.113 1.624.283.444.142.634-.555.192-.696a6.606 6.606 0 0 0-1.816-.31c-.473-.015-.452.675 0 .723l2.229.232c.409.043.484-.611.096-.71a41.966 41.966 0 0 0-3.758-.767c-.454-.071-.65.624-.192.696M58.096 122.943a2.926 2.926 0 0 1 2.113.062v-.696a5.276 5.276 0 0 1-1.882-.092l-.096.708a4.671 4.671 0 0 1 1.744.262c.44.153.63-.544.193-.695a5.245 5.245 0 0 0-1.937-.288c-.392.015-.509.615-.096.708a6.278 6.278 0 0 0 2.265.093c.399-.054.282-.583 0-.696a3.537 3.537 0 0 0-2.496-.062c-.437.15-.249.847.192.696M56.823 125.768a10.746 10.746 0 0 1 3.228.405l.19-.695-3.818-.586c-.454-.07-.65.625-.192.696l3.88.595c.455.07.65-.626.192-.696l-3.88-.595-.192.696 3.82.585c.446.069.65-.566.19-.695a11.4 11.4 0 0 0-3.418-.432c-.463.012-.465.733 0 .722M55.47 129.407l3.614.452v-.722l-2.906-.306v.722c.84.014 1.648.142 2.451.383.446.135.637-.562.193-.695a9.63 9.63 0 0 0-2.644-.41c-.474-.008-.452.674 0 .722l2.906.306c.465.05.453-.665 0-.722l-3.614-.451c-.46-.058-.455.664 0 .721M54.927 132.82a11.269 11.269 0 0 1 3.124.092l.095-.709a10.69 10.69 0 0 1-2.557-.11c-.031.237-.064.473-.096.71a5.894 5.894 0 0 1 2.617.608c.06-.223.12-.448.182-.671a7.886 7.886 0 0 1-1.709-.126l-.096.709a6.62 6.62 0 0 1 1.459.293c.444.14.634-.556.191-.696a7.555 7.555 0 0 0-1.65-.32c-.402-.033-.496.635-.096.71a8.787 8.787 0 0 0 1.9.151c.336-.01.52-.506.183-.672a6.722 6.722 0 0 0-2.98-.708c-.395-.003-.508.639-.097.708a11.5 11.5 0 0 0 2.75.136c.377-.028.523-.636.095-.709a11.928 11.928 0 0 0-3.315-.117c-.457.048-.462.77 0 .721M55.333 136.75a7.597 7.597 0 0 1 2.47.341l.096-.708a7.41 7.41 0 0 1-2.712-.222l-.096.709a6.508 6.508 0 0 1 2.644.616c.418.196.784-.426.364-.623a7.412 7.412 0 0 0-3.008-.715c-.408-.01-.488.602-.096.709.953.26 1.92.345 2.904.247.393-.039.506-.582.096-.708a8.215 8.215 0 0 0-2.662-.368c-.463.012-.466.734 0 .722M54.655 140.7a6.002 6.002 0 0 1 3.04.89c.027-.22.057-.44.085-.66-.877.141-1.725.025-2.547-.302l-.096.709c.874.02 1.682.226 2.456.635.41.216.775-.407.364-.624a6.228 6.228 0 0 0-2.82-.733c-.436-.01-.453.567-.096.709.952.379 1.922.464 2.931.303.322-.052.33-.512.086-.66a6.762 6.762 0 0 0-3.403-.99c-.465-.01-.465.712 0 .722M53.3 144.882c1.439.125 2.84.403 4.22.826l.097-.708a13.471 13.471 0 0 1-3.659-.021l-.096.708c.934.122 1.85.31 2.761.55.45.12.642-.576.192-.695a23.34 23.34 0 0 0-2.953-.576c-.399-.052-.498.65-.096.71 1.288.185 2.559.21 3.85.045.385-.049.513-.581.097-.708a21.169 21.169 0 0 0-4.414-.853c-.462-.04-.46.682 0 .722M64.457 121.518c1.099.19 2.163.479 3.21.867l.095-.709-2.16-.072v.722a5.564 5.564 0 0 1 2.408.51l.279-.66-1.09-.267-.193.696 1.773.346c.453.088.647-.607.191-.696l-1.772-.346c-.45-.088-.647.584-.192.696l1.09.267c.38.093.665-.482.279-.66a6.439 6.439 0 0 0-2.773-.608c-.466.002-.463.707 0 .722l2.16.072c.43.014.46-.575.096-.71a18.022 18.022 0 0 0-3.21-.866c-.454-.078-.649.617-.191.696M65.672 124.66c.957.136 1.892.356 2.81.66l.096-.709a7.95 7.95 0 0 1-2.676-.253l-.096.708c.968.088 1.915.27 2.85.538.447.128.638-.569.191-.696a16.42 16.42 0 0 0-3.041-.563c-.411-.038-.48.604-.096.708.941.254 1.895.35 2.868.28.404-.03.493-.578.097-.709a16.198 16.198 0 0 0-2.811-.66c-.454-.065-.65.63-.192.696M63.909 126.837c1.674.241 3.336.54 4.99.897v-.697l-.515.073c-.458.064-.263.76.192.696.171-.024.343-.049.515-.072.356-.05.331-.625 0-.697a74.004 74.004 0 0 0-4.99-.896c-.454-.066-.65.63-.192.696"/>
        <path fill="#FFF" d="M64.545 127.407a24.44 24.44 0 0 1 3.714.733c.45.125.64-.571.192-.695a25.595 25.595 0 0 0-3.906-.76c-.46-.054-.456.669 0 .722M64.395 130.84l-.239-.265-.254.615c1.367.054 2.715.212 4.056.48l.096-.71a14.694 14.694 0 0 1-4.338-.722l-.192.696 5.139.847c.454.074.649-.621.191-.697-1.713-.281-3.425-.564-5.138-.846-.451-.074-.642.55-.192.696a15.34 15.34 0 0 0 4.53.748c.398.006.503-.627.096-.708a26.955 26.955 0 0 0-4.248-.506c-.33-.012-.454.396-.256.617.08.089.16.177.238.266.311.347.82-.165.511-.51M62.516 134.392c1.724.093 3.389.42 5.022.973l.096-.71a8.53 8.53 0 0 1-1.908-.111c-.454-.08-.65.616-.192.695a9.386 9.386 0 0 0 2.1.138c.41-.02.484-.577.096-.709a19.432 19.432 0 0 0-5.214-.998c-.464-.025-.462.697 0 .722"/>
        <path fill="#FFF" d="M63.328 134.974c1.317.023 2.588.242 3.838.656.442.146.632-.55.192-.697a13.503 13.503 0 0 0-4.03-.68c-.465-.009-.465.713 0 .72M62.245 138.785a8.266 8.266 0 0 1 3.179.369v-.697c-.396.143-.76.198-1.183.132-.455-.07-.65.626-.192.696.55.085 1.04.058 1.567-.131.332-.12.352-.584 0-.697a8.831 8.831 0 0 0-3.371-.394c-.46.036-.464.757 0 .722"/>
        <path fill="#FFF" d="M62.688 139.038l3.768.882c.391.092.642-.449.278-.66l-.797-.461c-.403-.234-.767.39-.364.622.266.155.531.309.797.462l.278-.659-3.768-.882c-.452-.106-.644.59-.192.696"/>
        <path fill="#FFF" d="M62.52 138.584c.894.087 1.778.221 2.655.42.324.074 2.077.341 2.23.621l.13-.493-.062.04.494.13-.034-.045c-.277-.365-.904-.006-.623.364l.033.045c.114.148.315.246.494.129l.062-.04a.369.369 0 0 0 .13-.494c-.315-.574-1.549-.678-2.12-.824a22.557 22.557 0 0 0-3.39-.575c-.462-.045-.459.677 0 .722M63.095 142.967c.913.14 1.807.343 2.69.61v-.695c-.233.075-.424.092-.662-.01-.421-.185-.79.437-.364.622.408.177.79.22 1.219.084.338-.109.346-.59 0-.696a19.295 19.295 0 0 0-2.69-.61c-.455-.07-.651.625-.193.695"/>
        <path fill="#FFF" d="M62.92 143.251c1.268.125 2.488.43 3.673.894v-.696l-.378.051c-.458.063-.263.758.192.697l.378-.052c.394-.053.285-.584 0-.696a14.36 14.36 0 0 0-3.865-.92c-.461-.045-.459.677 0 .722"/>
        <path fill="#FFF" d="M62.84 143.278c1.235.223 2.442.538 3.628.948.44.152.628-.544.192-.696a24.02 24.02 0 0 0-3.628-.948c-.454-.082-.648.614-.192.696M61.837 146.77a28.27 28.27 0 0 1 3.563.393c.454.08.649-.616.191-.696a29.799 29.799 0 0 0-3.754-.42c-.465-.022-.464.7 0 .722"/>
        <path fill="#FFF" d="M61.47 146.761l2.032.274c.454.06.65-.635.192-.697-.678-.09-1.355-.182-2.033-.273-.454-.061-.65.634-.192.696"/>
        <path fill="#FFF" d="M62.785 147.04l1.085.135c.46.059.455-.664 0-.72l-1.085-.137c-.46-.057-.455.665 0 .722M73.083 123.31c1.531 0 3.026.177 4.514.538l.096-.71a33.559 33.559 0 0 0-3.487-.28c-.397-.013-.506.647-.096.707 1.402.21 2.788.484 4.165.824.45.11.643-.585.192-.697a45.93 45.93 0 0 0-4.166-.823l-.095.71c1.168.033 2.329.127 3.487.281.406.054.485-.614.096-.708a19.875 19.875 0 0 0-4.706-.564c-.464 0-.465.722 0 .722M72.588 125.575l5.242.86c.033-.235.064-.471.096-.708a118.56 118.56 0 0 1-.507-.005c-.464-.005-.464.716 0 .722l.507.005c.394.004.507-.641.095-.708-1.746-.288-3.493-.575-5.24-.861-.455-.076-.651.62-.193.695M73.397 129.535c1.002.215 2.01.318 3.036.303.466-.006.464-.704 0-.721a8.231 8.231 0 0 1-2.265-.407l-.192.695c.774.111 1.527.287 2.271.527.443.144.632-.553.191-.696a13.6 13.6 0 0 0-2.27-.526c-.45-.065-.646.547-.192.695.8.262 1.617.402 2.457.433v-.721a12.593 12.593 0 0 1-2.844-.278c-.453-.098-.647.598-.192.696M72.04 132.529c1.868.257 3.715.612 5.547 1.066l.095-.709-1.753-.112c-.464-.03-.462.692 0 .722l1.753.112c.408.026.488-.612.096-.709a53.065 53.065 0 0 0-5.547-1.066c-.454-.063-.65.632-.192.696"/>
        <path fill="#FFF" d="M73.123 133.206l2.439.678c.448.124.64-.572.193-.696l-2.44-.678c-.448-.125-.64.572-.192.696M72.503 136.87a5.584 5.584 0 0 1 2.931.13l-.16-.603a3.79 3.79 0 0 1-.048.027c-.454-.087-.648.609-.192.697.316.06.519.014.751-.214.2-.196.095-.523-.16-.603a6.34 6.34 0 0 0-3.314-.13c-.453.101-.26.797.192.696M71.367 140.231l4.051 1.07.096-.709a25.685 25.685 0 0 1-3.252-.524c-.032.237-.063.473-.096.709a5.924 5.924 0 0 1 2.472.702c.41.219.774-.404.365-.623a6.826 6.826 0 0 0-2.837-.8c-.405-.025-.491.618-.095.709 1.137.257 2.283.438 3.443.549.41.04.482-.606.095-.708l-4.05-1.07c-.45-.12-.641.576-.192.695M70.51 144.867c1.237.02 2.456.152 3.669.4l.096-.708-1.056-.002c-.465-.002-.465.72 0 .722l1.056.002c.397 0 .504-.626.096-.709a20.924 20.924 0 0 0-3.862-.426c-.465-.008-.465.713 0 .721"/>
        <path fill="#FFF" d="M70.917 144.995c.885.114 1.755.3 2.611.548.447.129.638-.568.192-.696a18.645 18.645 0 0 0-2.803-.573c-.46-.06-.455.663 0 .721M69.56 149.207c1.372.127 2.725.345 4.068.65.032-.237.065-.473.096-.71a1.258 1.258 0 0 1-.68-.106c-.44-.149-.63.548-.191.696.301.103.556.14.871.132.395-.01.506-.616.096-.708a32.797 32.797 0 0 0-4.26-.676c-.462-.043-.459.678 0 .722"/>
        <path fill="#FFF" d="M70.82 149.19c1.19.173 2.35.45 3.49.83.03-.236.063-.472.095-.708l-.509-.013c-.464-.01-.464.711 0 .722l.51.012c.42.01.47-.583.095-.708-1.14-.382-2.3-.658-3.489-.831-.454-.066-.65.63-.192.696M82.705 125.75c1.053.066 2.078.251 3.088.55l.096-.708c-.799.032-1.59-.006-2.38-.13l-.097.709a6.283 6.283 0 0 1 2.104.606c.416.203.782-.42.363-.623a7.297 7.297 0 0 0-2.467-.705c-.4-.042-.497.646-.095.709.855.134 1.706.191 2.572.156.404-.017.495-.591.096-.709a14.711 14.711 0 0 0-3.28-.577c-.464-.029-.462.693 0 .722M81.665 128.306l4.603 1.184.096-.708a20.488 20.488 0 0 1-4.886-1.032l-.096.71c1.61.207 3.185.561 4.732 1.048l.193-.695c-.716-.133-1.43-.267-2.146-.399-.454-.084-.648.612-.192.696l2.145.398c.453.084.641-.555.193-.695a28.51 28.51 0 0 0-4.925-1.076c-.423-.054-.458.586-.095.71 1.652.562 3.339.908 5.077 1.056.41.036.484-.609.096-.708l-4.603-1.185c-.45-.116-.642.58-.192.696M81.078 131.994c1.61-.026 3.181.153 4.742.544l.096-.709a14.575 14.575 0 0 1-3.646-.664l-.191.696c1.366.248 2.712.57 4.043.968.446.133.637-.563.192-.696a37.539 37.539 0 0 0-4.044-.968c-.453-.082-.64.555-.191.696 1.254.395 2.524.62 3.837.69.409.021.489-.61.096-.708a18.88 18.88 0 0 0-4.934-.57c-.464.007-.465.73 0 .721M81.078 135.66c1.057.023 2.093.15 3.124.387l.097-.71c-.901-.034-1.795-.112-2.687-.244l-.096.71a10.18 10.18 0 0 1 2.308.532c.439.154.627-.543.191-.697a11.027 11.027 0 0 0-2.5-.558c-.4-.043-.497.65-.095.71a26.32 26.32 0 0 0 2.879.27c.403.014.493-.618.096-.71a16.447 16.447 0 0 0-3.317-.412c-.464-.01-.464.712 0 .722M80.447 138.716c1.002.152 1.977.39 2.935.718l.096-.708c-.945.05-1.88.01-2.817-.137l-.096.71a9.493 9.493 0 0 1 3.203.862c.418.197.785-.426.364-.623a10.52 10.52 0 0 0-3.567-.96c-.4-.037-.498.644-.096.708 1 .156 1.997.216 3.01.161a.363.363 0 0 0 .095-.708 16.77 16.77 0 0 0-2.935-.718c-.455-.07-.651.626-.192.695M79.22 142.966l3.134.87.096-.709c-1.05.128-2.093.12-3.138-.047l-.097.71c.809-.002 1.538.197 2.236.607.4.237.764-.387.363-.623a5.028 5.028 0 0 0-2.599-.707c-.391.001-.508.643-.096.71 1.112.177 2.213.208 3.33.072.38-.047.519-.592.096-.71l-3.132-.87c-.449-.124-.64.573-.193.697M78.096 146.504c1.322.17 2.635.388 3.94.65l.097-.71-.648.01c-.464.006-.465.728 0 .722l.648-.01c.393-.005.507-.626.097-.708a60.185 60.185 0 0 0-4.134-.676c-.459-.06-.454.663 0 .722"/>
        <path fill="#FFF" d="M78.639 146.908a9.585 9.585 0 0 1 2.346.52c.438.156.627-.541.192-.696a10.324 10.324 0 0 0-2.538-.546c-.463-.043-.46.68 0 .722M78.367 152.204c1 .076 1.985.223 2.964.438.453.1.647-.594.193-.695a17.53 17.53 0 0 1-2.884-.915l-.193.696 2.795.892c.443.141.633-.555.192-.696l-2.794-.892c-.455-.145-.609.523-.193.696.936.388 1.895.693 2.884.914l.193-.695a22.709 22.709 0 0 0-3.157-.465c-.463-.036-.46.685 0 .722M102.35 129.457c.676.059 1.353.117 2.03.174v-.721c-.665.073-1.328.093-1.997.06v.721l.918.005c.464.002.465-.72 0-.722l-.918-.005c-.467-.002-.462.7 0 .722.669.034 1.332.014 1.997-.06.458-.051.468-.682 0-.721l-2.03-.174c-.463-.04-.46.682 0 .721M101.463 133.138l2.792.766c.463.127.608-.522.193-.696a9.975 9.975 0 0 0-2.113-.62c-.065.23-.128.463-.192.695.627.1 1.253.2 1.88.302.454.072.65-.623.192-.696l-1.88-.302c-.453-.073-.652.614-.192.696.73.13 1.43.335 2.112.621l.193-.696-2.793-.766c-.448-.123-.64.573-.192.696M100.902 136.458l2.736.677c.459.114.618-.532.192-.696-.728-.28-1.471-.493-2.237-.643l-.097.71c.703.033 1.382.18 2.03.454.424.178.792-.443.365-.623a6.92 6.92 0 0 0-2.395-.553c-.4-.02-.498.63-.096.708.766.15 1.51.363 2.238.643l.192-.696-2.736-.677c-.451-.112-.644.584-.192.696M101.443 140.014l-.357-.175c-.062.224-.122.448-.183.673 1.016.06 2.008.222 2.992.48l.192-.696-3.25-.786c-.385-.093-.652.462-.278.66.854.45 1.741.816 2.667 1.097.445.135.636-.561.19-.696a14.018 14.018 0 0 1-2.493-1.024c-.093.219-.186.44-.277.66l3.249.785c.45.109.642-.579.192-.696a16.375 16.375 0 0 0-3.184-.506c-.35-.021-.5.516-.182.673l.358.174c.415.204.781-.418.364-.623M101.046 145.224l2.642.556c.456.095.631-.545.192-.697a14.635 14.635 0 0 1-2.91-1.385l-.278.66c1.12.23 2.153.64 3.125 1.243.395.245.758-.379.364-.623a10.122 10.122 0 0 0-3.298-1.317c-.394-.08-.636.438-.277.66.973.601 2 1.084 3.082 1.459.064-.233.127-.465.192-.697l-2.642-.555c-.453-.095-.647.6-.192.696M100.543 148.212a8.23 8.23 0 0 0 2.625 1.12l.096-.71-3.156-.406c-.4-.051-.495.636-.095.709l2.398.434c.454.082.648-.613.192-.696l-2.4-.435-.095.71 3.156.406c.404.053.486-.617.095-.709a7.64 7.64 0 0 1-2.452-1.046c-.39-.254-.752.37-.364.623M98.86 152.481l2.605.638c.45.11.643-.58.192-.695l-1.951-.504-.192.696c.735.1 1.442.289 2.123.59.422.185.788-.438.365-.624a8.523 8.523 0 0 0-2.296-.662c-.445-.06-.656.576-.192.696l1.951.503.192-.695-2.604-.638c-.452-.11-.644.585-.192.695M92.594 155.4a5.385 5.385 0 0 1 2.234.462l.277-.66a10.779 10.779 0 0 1-2.424-.956l-.277.66 2.256.946c.428.18.615-.519.192-.696l-2.256-.946c-.38-.16-.633.467-.279.66.824.446 1.69.79 2.597 1.028.38.1.663-.487.278-.66a6.252 6.252 0 0 0-2.598-.56c-.464.002-.465.724 0 .723M92.638 150.95l2.982.768.096-.71a5.25 5.25 0 0 1-2.226-.69l-.364.623c.873.461 1.784.81 2.744 1.043.452.109.644-.587.192-.697-.901-.218-1.752-.536-2.572-.969-.41-.216-.77.392-.364.623.807.46 1.663.717 2.59.79.41.032.484-.61.095-.71-.993-.255-1.987-.51-2.981-.768-.45-.115-.642.58-.192.697M92.91 147.008c1.09.177 2.148.45 3.187.822l.096-.708a4.029 4.029 0 0 1-2.25-.85l-.351.603 3.362.65c.454.087.649-.609.192-.697l-3.362-.649c-.312-.06-.663.36-.35.604.823.64 1.715.99 2.759 1.06.43.029.458-.58.096-.708a17.934 17.934 0 0 0-3.187-.824c-.454-.073-.65.622-.192.697M93.676 143.738a6.263 6.263 0 0 1 3.04.542l.28-.66c-1.052-.317-2.076-.7-3.075-1.158v.624c.41-.253.981.174 1.38.307.403.136.752.146 1.143-.025.424-.186.058-.808-.365-.623-.432.188-1.02-.257-1.426-.38-.386-.117-.746-.118-1.096.097-.212.131-.257.506 0 .624 1.056.482 2.135.894 3.246 1.23.382.116.656-.487.278-.66a7.025 7.025 0 0 0-3.405-.64c-.461.03-.465.753 0 .722M93.986 138.367a17.51 17.51 0 0 0 3.577.851c.4.053.498-.645.096-.709a7.915 7.915 0 0 1-2.98-1.105l-.279.66 2.429.589c.451.11.644-.587.192-.696l-2.428-.59c-.398-.096-.63.442-.278.66.972.605 2.021 1 3.152 1.179l.096-.71a16.644 16.644 0 0 1-3.384-.825c-.44-.155-.628.542-.193.696M94.313 134.25c.96.501 1.973.788 3.052.868v-.722a4.072 4.072 0 0 1-2.387-.485l-.279.66c.937.386 1.9.616 2.907.716.462.045.46-.676 0-.722a9.525 9.525 0 0 1-2.714-.69c-.381-.157-.631.466-.279.66a4.746 4.746 0 0 0 2.752.583c.462-.042.468-.688 0-.722a6.825 6.825 0 0 1-2.687-.77c-.411-.215-.777.408-.365.624M95.174 131.163c.832.105 1.645.295 2.443.556l.191-.696a5.052 5.052 0 0 1-1.6-.705l-.279.66c.508.124 1.02.189 1.543.195.464.005.464-.717 0-.722a5.87 5.87 0 0 1-1.35-.17c-.405-.099-.618.435-.279.66.547.362 1.137.62 1.774.778.452.112.632-.552.191-.696a14.055 14.055 0 0 0-2.634-.582c-.46-.057-.456.665 0 .722M93.854 127.111l3.319.972.095-.709a6.177 6.177 0 0 1-1.797-.413l-.191.697 1.295.201c.453.07.65-.625.192-.696l-1.296-.202c-.458-.07-.63.528-.191.697.644.248 1.3.387 1.988.438.416.03.477-.598.096-.709l-3.318-.971c-.446-.132-.637.565-.192.695M88.26 127.787c.871.009 1.728.098 2.582.273.032-.236.063-.473.096-.709a1.326 1.326 0 0 1-.905-.227l-.279.66c.373.065.708.18 1.037.366.405.23.769-.394.365-.623a3.721 3.721 0 0 0-1.209-.44c-.396-.068-.635.427-.279.66.387.252.81.363 1.27.326.379-.03.521-.621.096-.709a14.454 14.454 0 0 0-2.774-.298c-.465-.005-.465.716 0 .721M88.944 132.356l2.372.304c.363.047.48-.513.182-.672a9.807 9.807 0 0 1-1.87-1.294l-.35.603c.692.147 1.32.406 1.914.791.39.253.753-.37.364-.623a6.163 6.163 0 0 0-2.087-.864c-.327-.07-.639.348-.351.603a10.61 10.61 0 0 0 2.016 1.407l.182-.672-2.372-.305c-.46-.06-.455.663 0 .722M88.7 134.983c.946.359 1.854.79 2.733 1.29l.365-.624a14.115 14.115 0 0 1-2.18-1.415l-.35.603 2.015.8c.432.17.62-.528.192-.697-.672-.266-1.344-.532-2.015-.8-.328-.13-.628.384-.351.604a15.02 15.02 0 0 0 2.324 1.529c.41.216.77-.393.365-.624a20.784 20.784 0 0 0-2.905-1.362c-.435-.165-.624.532-.193.696M86.852 137.52a47.804 47.804 0 0 1 3.516 1.692l.279-.66a15.117 15.117 0 0 1-2.077-.914c-.41-.218-.765.384-.365.623.409.246.819.49 1.228.735.4.239.763-.385.364-.623l-1.227-.735-.365.623c.726.387 1.474.714 2.25.987.385.137.637-.468.278-.66a47.672 47.672 0 0 0-3.517-1.69c-.422-.183-.79.44-.364.623M86.956 141.982c1.08.408 2.12.896 3.128 1.461l.365-.623a9.721 9.721 0 0 1-2.424-1.909l-.438.567 2.11 1.19c.405.227.768-.395.364-.624l-2.11-1.189c-.36-.204-.714.266-.437.567.75.81 1.608 1.484 2.57 2.021.406.226.77-.395.365-.623a24.068 24.068 0 0 0-3.301-1.533c-.436-.164-.624.533-.192.695M86.122 145.158a7.29 7.29 0 0 0 2.65 1.58c.447.152.617-.529.192-.694l-2.506-.977-.192.696c.813.194 1.627.39 2.44.583.452.11.645-.587.192-.695l-2.44-.584c-.462-.11-.618.53-.192.696l2.507.976.191-.695a6.451 6.451 0 0 1-2.332-1.397c-.34-.316-.851.194-.51.511M85.666 148.561l-.066-.009.348.265-.03-.078-.036.279c.01-.025.023-.05.034-.075l-.311.179c.206-.027.55.251.718.352a16.68 16.68 0 0 1 1.686 1.143l.364-.623-2.344-1.466-.279.66c.576.199 1.09.495 1.55.895.348.303.86-.205.51-.51a5.574 5.574 0 0 0-1.868-1.082c-.397-.137-.615.45-.278.66l2.345 1.466c.405.253.723-.35.364-.623-.685-.52-1.404-1.016-2.167-1.42-.228-.12-.526-.292-.783-.124a.461.461 0 0 0-.171.56c.064.168.174.243.348.264l.066.009c.46.058.455-.663 0-.722M85.86 153.26c1.219.328 2.4.75 3.548 1.276l.278-.66a21.765 21.765 0 0 1-3.058-.996l-.19.695c.823.128 1.622.332 2.406.618.437.158.626-.539.191-.697a12.737 12.737 0 0 0-2.407-.616c-.462-.072-.622.519-.19.695.994.41 2.011.74 3.056.997.38.093.665-.483.279-.66a23.734 23.734 0 0 0-3.72-1.348c-.45-.12-.64.576-.193.696M99.569 156.853a7.092 7.092 0 0 0 3.231-.24c.441-.14.26-.82-.192-.696-.84.23-1.685.453-2.555.257-.032.236-.065.472-.096.709.6-.002 1.199-.028 1.797-.08.46-.04.464-.763 0-.722-.598.053-1.196.079-1.797.08-.399 0-.502.617-.096.708 1.006.227 1.963.01 2.94-.256l-.193-.696c-.93.294-1.88.384-2.847.24-.454-.068-.651.628-.192.696M105.721 154.798a6.878 6.878 0 0 0 1.495-1.278c.312-.357-.152-.796-.51-.51a9.99 9.99 0 0 1-1.47.96c-.354.191-.113.791.279.66a2.324 2.324 0 0 0 1.004-.643c.314-.342-.195-.853-.51-.51a1.574 1.574 0 0 1-.686.457l.278.66a10.917 10.917 0 0 0 1.615-1.074l-.51-.51c-.397.453-.841.841-1.35 1.165-.39.248-.028.873.365.623M105.763 151.538l1.429-1.428-.511-.51c-.377.409-.79.766-1.255 1.071-.394.258-.054.817.363.623a2.883 2.883 0 0 0 1.113-.926c.279-.373-.347-.733-.622-.365-.225.3-.518.512-.854.668l.363.623a7.512 7.512 0 0 0 1.403-1.184c.313-.34-.18-.84-.511-.51l-1.428 1.427c-.329.33.181.84.51.51M106.11 147.684a2.73 2.73 0 0 0 1.542-1.27c.195-.353-.275-.737-.567-.437l-1.289 1.321c-.328.338.161.808.51.51l1.295-1.1c.355-.3-.158-.808-.51-.51l-1.295 1.1.51.51 1.29-1.321-.568-.437a1.975 1.975 0 0 1-1.11.938c-.436.147-.249.845.193.696M106.763 143.922a4.019 4.019 0 0 0 1.492-1.623c.146-.29-.179-.727-.494-.494a5.14 5.14 0 0 0-1.313 1.405c-.192.305.19.682.493.494.29-.18.544-.395.76-.658.292-.356-.216-.87-.51-.51a2.441 2.441 0 0 1-.614.544l.493.495c.28-.446.632-.834 1.056-1.147l-.494-.493a3.32 3.32 0 0 1-1.234 1.365c-.393.244-.031.869.365.622M106.54 140.317a7.55 7.55 0 0 0 1.526-1.3c.264-.295-.072-.789-.437-.567a2.976 2.976 0 0 0-1.033 1.047c-.184.312.182.674.493.493a3.805 3.805 0 0 0 1.144-1.026c.28-.37-.346-.73-.623-.364a2.94 2.94 0 0 1-.885.768l.494.493a2.22 2.22 0 0 1 .774-.788l-.437-.566c-.41.457-.864.853-1.38 1.187-.389.251-.027.877.364.623M106.699 136.721a3.171 3.171 0 0 0 1.77-1.534c.19-.37-.256-.709-.566-.437l-1.395 1.222c-.322.282.088.744.438.567.433-.22.82-.507 1.159-.854.324-.332-.185-.842-.51-.51-.3.307-.632.546-1.014.74l.437.567 1.395-1.222-.567-.437a2.435 2.435 0 0 1-1.34 1.203c-.432.156-.245.854.193.695M107.296 132.449c.761-.286 1.325-.874 1.549-1.66.07-.245-.18-.545-.444-.444-.674.261-1.158.75-1.404 1.43-.087.242.194.546.444.444.368-.152.658-.387.817-.76.18-.423-.44-.791-.622-.364-.081.187-.19.347-.386.428l.443.444c.153-.424.479-.763.9-.926l-.444-.444c-.151.53-.525.96-1.045 1.156-.43.161-.244.86.192.696M107.747 129.389c.549-.286.994-.692 1.348-1.198.171-.245-.118-.647-.408-.53-.411.166-.767.39-1.08.706-.24.24 0 .735.35.603l.787-.296c.431-.163.244-.86-.192-.696l-.786.297.351.602c.22-.223.47-.402.762-.52l-.408-.53a2.966 2.966 0 0 1-1.089.938c-.412.216-.047.838.365.624M28.926 107.202c.603-.998 1.593-2.017 2.633-2.554.413-.213.048-.836-.364-.623-1.148.592-2.227 1.712-2.893 2.814-.24.398.384.761.624.363M36.155 99.946a9.998 9.998 0 0 1-2.415 2.138c-.392.247-.03.871.364.623a10.61 10.61 0 0 0 2.562-2.25c.292-.357-.215-.87-.51-.51M39.42 99.037c.837-.565 1.676-1.126 2.519-1.682l-.365-.623-2.472 1.758.437.567a7.74 7.74 0 0 1 1.63-.988c.423-.192.056-.814-.364-.623a8.461 8.461 0 0 0-1.776 1.1c-.318.253.103.805.437.567l2.473-1.758c.372-.265.028-.883-.365-.623-.842.557-1.682 1.117-2.518 1.682-.383.259-.023.884.364.623M47.513 93.118l-2.626 1.493.365.623a6.973 6.973 0 0 1 2.776-1.258c.454-.096.262-.791-.192-.695a7.485 7.485 0 0 0-2.949 1.33c-.363.27-.05.859.365.623l2.625-1.494c.404-.23.04-.853-.364-.622M53.1 91.482a2.486 2.486 0 0 1-1.558.3v.722l1 .001c.465.001.466-.72 0-.721l-1-.002c-.477 0-.45.669 0 .722a3.124 3.124 0 0 0 1.922-.4c.405-.227.042-.85-.363-.622M32.309 109.105a11.116 11.116 0 0 1 1.969-2.563c.333-.324-.177-.834-.51-.51-.825.8-1.522 1.706-2.082 2.71-.228.405.396.769.623.363M36.479 105.736c.384-.586.86-1.09 1.414-1.518l-.51-.51c-.128.067-.092.08.107.039l.252.443c-.137.15-.135.191.008.122l-.407-.53a1.756 1.756 0 0 1-.512.62c-.365.286.149.794.51.51a2.25 2.25 0 0 0 .625-.766c.134-.266-.09-.63-.407-.53-.223.07-.427.152-.513.382-.071.192.081.385.252.444.223.078.433-.097.595-.224.366-.287-.148-.79-.51-.51a6.825 6.825 0 0 0-1.528 1.663c-.254.39.37.752.624.365M41.012 101.952l1.793-.939-.364-.622c-.175.119-.352.234-.537.337-.062.034-.215.109-.206.106l.408.166-.001-.002-.13.493c.09-.06.2-.099.3-.141.425-.185.057-.807-.365-.624-.099.043-.208.082-.299.142a.37.37 0 0 0-.13.494l.001.002c.072.137.261.21.408.166.327-.1.638-.328.915-.517.382-.26.051-.84-.364-.622l-1.794.938c-.411.216-.047.838.365.623M46.65 98.757l1.186-.801c.382-.26.05-.843-.365-.624l-1.552.82c-.412.217-.048.836.364.623l1.63-.844c.413-.214.048-.836-.364-.623l-1.63.844.364.623 1.553-.82-.365-.623-1.185.803c-.383.259-.022.884.364.622M52.823 94.808l-1.644.253c-.401.061-.308.732.095.709l2.733-.158c.462-.026.465-.748 0-.721l-2.733.157c.033.236.064.472.096.709l1.645-.253c.458-.07.263-.766-.192-.696M34.623 109.627a1.916 1.916 0 0 0-1.217.71c-.285.36.223.875.51.51.237-.3.52-.466.898-.524.458-.07.264-.766-.191-.696M37.42 108.677l1.035-.887c.276-.238-.018-.707-.352-.604a2.946 2.946 0 0 0-1.497 1.058c-.225.293.205.677.493.493.522-.33 1.042-.661 1.563-.993.39-.249.029-.874-.364-.623l-1.563.994.494.493a2.12 2.12 0 0 1 1.066-.726l-.35-.603-1.035.888c-.353.303.16.81.51.51M41.61 105.457l2.076-1.175c.405-.23.041-.853-.364-.624l-2.076 1.176c-.404.23-.041.853.364.623M46.625 101.116c-.117.095-.222.18-.276.326-.04.107.001.28.093.351.335.26.713-.09.997-.276.347-.228.699-.456 1.027-.71-.146-.187-.291-.377-.437-.566-.3.256-.618.478-.95.687-.174.109-.331.192-.414.389-.046.11.008.273.093.35.187.17.417.1.638.052.453-.1.261-.796-.192-.695-.073.016-.2.032-.185.033l.256.106-.007-.006.093.351c-.027.066-.177.156-.093.153.025 0 .092-.058.116-.074.104-.065.209-.13.312-.198.295-.194.575-.408.843-.637.308-.262-.111-.818-.437-.567-.268.206-.552.393-.832.58-.156.103-.31.205-.467.304-.057.036-.116.068-.171.105-.067.042-.083.027-.028.019.117.03.234.06.352.092l-.003-.002.092.351c-.08.218-.032.092.091-.008.36-.293-.153-.8-.511-.51M51.769 99.34a2.872 2.872 0 0 1 1.646-.792c.404-.057.306-.723-.096-.709l-.774.027c-.302.01-.49.392-.255.615a1.79 1.79 0 0 0 1.3.516c.464-.007.466-.728 0-.722a1.052 1.052 0 0 1-.79-.304c-.084.206-.17.41-.255.617l.774-.027-.095-.71a3.515 3.515 0 0 0-1.966.978c-.334.324.177.834.51.51M57.063 92.064a15.8 15.8 0 0 0 2.547.662l.096-.709a3.65 3.65 0 0 1-1.44-.168l-.097.709a3.875 3.875 0 0 1 1.725.168c.448.147.617-.533.191-.696l-.537-.206c-.434-.167-.622.53-.192.696l.538.206.191-.696a4.347 4.347 0 0 0-1.916-.194c-.39.047-.506.576-.096.709a4.215 4.215 0 0 0 1.633.194c.376-.028.524-.635.095-.709-.868-.15-1.715-.37-2.546-.661-.44-.155-.628.542-.192.695M63.098 93.637c1.131-.207 2.225-.078 3.29.349l.19-.696a12.548 12.548 0 0 1-2.243-.607c-.437-.163-.62.532-.192.696.898.344 1.811.54 2.768.614.47.036.45-.666 0-.722-.485-.06-.866-.24-1.248-.529-.37-.28-.73.347-.364.623.496.374 1 .552 1.612.628v-.722a9.078 9.078 0 0 1-2.576-.588l-.192.696c.733.273 1.474.473 2.244.607.462.08.622-.523.192-.696-1.193-.478-2.413-.58-3.673-.348-.456.083-.263.778.192.695M70.976 93.593l1.929 1.058.182-.673a6.08 6.08 0 0 1-2.954-.852l-.181.673 2.462.324c.352.046.497-.53.182-.673l-.789-.359c-.42-.19-.787.431-.364.623l.788.36.183-.673-2.462-.324c-.373-.05-.467.505-.182.672a6.863 6.863 0 0 0 3.317.951c.356.01.494-.502.182-.672l-1.928-1.059c-.408-.223-.772.4-.365.624M76.241 95.609c1.132.09 2.222.319 3.3.677l.095-.708a8.404 8.404 0 0 1-2.554-.694l-.182.672c.496-.043.989-.06 1.486-.031.247.014 1.257-.009 1.37.192l.056-.437-.054.043.351-.092-.073-.03.251.444a1.15 1.15 0 0 1 .014-.047c.125-.448-.57-.639-.697-.191l-.012.046c-.058.203.07.371.251.444l.075.03c.125.05.257-.017.35-.093l.055-.044c.124-.1.129-.308.056-.437-.244-.434-.826-.424-1.272-.482-.735-.095-1.468-.1-2.207-.037-.316.028-.541.511-.182.673a9.505 9.505 0 0 0 2.918.792c.422.046.462-.586.096-.708a14.709 14.709 0 0 0-3.49-.704c-.464-.037-.461.685 0 .722M83.955 96.055l-.542-.29-.278.66c.817.24 1.616.527 2.397.87l.277-.66-2.07-.682-.19.696 2.424.408c.454.077.65-.619.192-.696l-2.425-.408c-.453-.076-.641.549-.192.696l2.07.682c.382.125.656-.494.278-.66a21.498 21.498 0 0 0-2.57-.942c-.387-.114-.642.465-.277.66l.541.289c.41.22.775-.404.365-.623M90.078 98.584c1.294.05 2.544.282 3.773.69.443.146.63-.547.191-.696l-3.356-1.143c-.032.236-.065.473-.096.71a7.34 7.34 0 0 1 1.741.455c.32.125.531-.276.408-.53-.173-.35-.41-.532-.79-.62l-.096.71.742.007c.464.005.464-.716 0-.721l-.742-.008c-.4-.005-.498.617-.096.71.12.094.239.191.358.287l.408-.53a8.084 8.084 0 0 0-1.933-.483c-.423-.054-.46.586-.096.71 1.12.38 2.238.76 3.357 1.142l.191-.696a14.26 14.26 0 0 0-3.964-.715c-.465-.018-.464.703 0 .721M97.005 99.504a8.06 8.06 0 0 1-.07.024l.35.093.044.094-.179.311c.175-.088.66.097.867.137a46.76 46.76 0 0 1 2.819.644l.192-.695a9.23 9.23 0 0 1-2.927-1.048l-.278.659 3.003.591c.39.077.643-.44.278-.66l-.926-.559c-.398-.24-.762.383-.364.623l.926.56.278-.66-3.003-.591c-.385-.076-.653.449-.278.66.973.547 2 .923 3.1 1.121.45.08.648-.577.19-.696a46.347 46.347 0 0 0-2.533-.589c-.527-.106-1.203-.376-1.709-.12-.115.059-.172.19-.178.312-.01.186.04.286.168.416a.359.359 0 0 0 .351.093c.023-.009.047-.016.07-.024.438-.148.25-.846-.191-.696M105.163 101.356l2.375 1.004.279-.66-3.114-1.114-.096.708c1.026.098 2.053.168 3.083.207.465.019.464-.703 0-.721a54.356 54.356 0 0 1-3.083-.207c-.428-.042-.454.58-.096.708l3.113 1.115c.381.137.656-.499.279-.66l-2.376-1.002c-.422-.18-.791.442-.364.622M111.678 102.752c1.61.079 3.145.428 4.636 1.037l.192-.696-3.403-.649c-.455-.086-.637.548-.192.696.967.322 1.94.484 2.96.497.464.006.465-.716 0-.722a9.007 9.007 0 0 1-2.768-.47c-.064.232-.129.463-.192.695l3.403.649c.464.088.617-.522.192-.696a14.518 14.518 0 0 0-4.828-1.062c-.465-.024-.463.699 0 .721M119.132 104.65c.836.284 1.683.496 2.553.64l.096-.709a2.932 2.932 0 0 1-1.651-.578c-.062.224-.122.448-.183.673 1.065.074 2.112.227 3.153.457.452.1.645-.596.191-.696a22.728 22.728 0 0 0-3.344-.483c-.39-.027-.446.484-.182.672.61.436 1.269.647 2.016.677.398.016.502-.64.096-.709a16.348 16.348 0 0 1-2.553-.64c-.44-.148-.63.548-.192.697M126.887 106.129l1.094.427.192-.695a1.855 1.855 0 0 1-1.093-.574l-.256.617c.72.09 1.413.307 2.062.63.414.208.78-.415.363-.622a7.443 7.443 0 0 0-2.425-.73c-.33-.042-.449.411-.254.616a2.48 2.48 0 0 0 1.411.758.361.361 0 0 0 .192-.695l-1.094-.428c-.433-.169-.62.529-.192.696M57.478 95.851c.658.253 1.4.22 2.094.23.398.005.502-.625.096-.71l-1.099-.224-.096.708.57.006c.464.004.465-.718 0-.722l-.57-.005c-.397-.004-.503.625-.096.708l1.1.226.095-.708c-.633-.01-1.302.025-1.902-.205-.435-.166-.622.532-.192.696M63.029 96.668c.84.06 1.654.216 2.46.46l.096-.709a6.29 6.29 0 0 1-1.782-.489l-.181.673a4.45 4.45 0 0 1 2.094.433l.278-.66-.565-.175c-.444-.139-.634.558-.19.695l.563.176c.384.12.652-.48.278-.66a5.235 5.235 0 0 0-2.458-.531c-.328.01-.53.52-.183.673a7.518 7.518 0 0 0 2.146.587c.416.05.47-.595.096-.709a12.088 12.088 0 0 0-2.652-.485c-.463-.034-.461.688 0 .721M70.394 97.489l1.666.745.278-.66a6.634 6.634 0 0 1-1.968-.66l-.277.66 2.24.356c.454.072.65-.623.192-.696l-2.24-.357c-.374-.059-.67.454-.278.66a7.205 7.205 0 0 0 2.139.733c.369.065.681-.479.278-.66l-1.665-.744c-.421-.188-.788.433-.365.623M76.55 99.22c.77-.27 1.498-.28 2.273-.027l.096-.709a1.688 1.688 0 0 1-1.045-.48l-.437.567c.82.4 1.664.619 2.575.663.464.022.463-.7 0-.722a5.56 5.56 0 0 1-2.211-.564c-.35-.17-.755.271-.437.566.451.421.944.633 1.555.692.422.04.466-.59.096-.709a4.05 4.05 0 0 0-2.656.028c-.436.152-.248.85.192.696M83.01 100.754l1.458.346.095-.71a3.209 3.209 0 0 1-1.567-.586l-.183.672a6.684 6.684 0 0 1 1.929.4c.438.158.626-.54.192-.696a7.363 7.363 0 0 0-2.12-.425c-.386-.021-.454.483-.183.672.58.404 1.23.622 1.932.685.407.036.488-.616.096-.709l-1.455-.345c-.452-.106-.646.59-.193.696M89.659 100.888c.81-.003 1.56.2 2.257.612l.279-.66c-.73-.2-1.46-.4-2.19-.598l-.095.708a3.985 3.985 0 0 1 2.01.421l.182-.672-1.393-.126c-.463-.042-.46.68 0 .722l1.393.125c.356.033.493-.516.182-.672a4.725 4.725 0 0 0-2.374-.52c-.399.018-.501.599-.096.71l2.188.598c.395.107.633-.451.279-.66a5.076 5.076 0 0 0-2.622-.71c-.464.003-.466.725 0 .722M96.19 102.934c.753.33 1.52.561 2.333.68.448.065.648-.556.192-.696l-2.179-.668c-.455-.14-.607.524-.19.696.58.239 1.168.448 1.77.63.445.134.635-.563.192-.696-.6-.182-1.19-.39-1.772-.63-.062.232-.127.464-.19.696l2.177.668.192-.696a8.352 8.352 0 0 1-2.16-.608c-.421-.185-.79.438-.364.624M103.187 104.06l1.514.307c.391.08.64-.44.278-.66-.173-.103-.346-.208-.518-.313l-.279.66a8.289 8.289 0 0 1 2.059.76l.278-.66-1.625-.666-.096.709a4.695 4.695 0 0 1 1.654.442c.418.197.784-.426.364-.624a5.727 5.727 0 0 0-2.018-.54c-.441-.035-.44.569-.096.71l1.626.665c.379.155.635-.47.278-.66a9.04 9.04 0 0 0-2.232-.832c-.393-.09-.637.443-.278.66l.519.312.277-.659-1.513-.307c-.454-.092-.648.603-.192.696M112.413 107.36l-.178-.702-.349.458a10.175 10.175 0 0 1 2.974.333c.451.12.634-.556.191-.695l-2.806-.884c-.032.236-.063.473-.096.709.409.042.758.198 1.066.466l.256-.616c-.188.045-.33-.025-.43-.208-.236-.4-.86-.037-.623.364.23.389.595.599 1.053.566.285-.021.51-.395.254-.617a2.704 2.704 0 0 0-1.576-.677c-.42-.042-.468.592-.096.709l2.807.883.191-.695a10.83 10.83 0 0 0-3.165-.36.365.365 0 0 0-.347.456l.178.702c.114.45.81.259.696-.192M118.202 107.355c.442.19.832.437 1.183.766l.35-.603a6.368 6.368 0 0 1-1.532-.57l-.183.672c.468-.017.861.144 1.182.485.098.104.314.15.437.056.117-.09.245-.15.38-.034.352.3.865-.208.511-.51-.364-.31-.86-.381-1.256-.08l.438.058a2.178 2.178 0 0 0-1.692-.697c-.341.012-.512.498-.182.672a7.068 7.068 0 0 0 1.706.644c.337.08.625-.347.351-.604a4.546 4.546 0 0 0-1.329-.879c-.422-.18-.79.441-.364.624M123.736 109.717c.777.224 1.498.551 2.18.986.06-.224.12-.449.182-.672a3.661 3.661 0 0 1-1.806-.573c-.06.225-.12.449-.182.673l2.252.11c.463.022.462-.7 0-.722l-2.252-.11c-.372-.018-.472.492-.182.673a4.422 4.422 0 0 0 2.17.67c.374.018.47-.49.182-.673a8.96 8.96 0 0 0-2.352-1.057c-.447-.13-.638.567-.192.695M57.155 98.585a3.949 3.949 0 0 1 2.076.39l.182-.674a3.475 3.475 0 0 1-1.498-.409c-.06.225-.12.448-.182.673a3.824 3.824 0 0 1 1.482.408l.181-.673-.563-.016c-.464-.013-.464.709 0 .722l.563.016c.349.01.504-.51.182-.673a4.746 4.746 0 0 0-1.845-.506c-.357-.024-.49.509-.182.672.586.31 1.2.478 1.862.507.35.016.504-.513.183-.671a4.675 4.675 0 0 0-2.44-.488c-.461.034-.465.757 0 .722M63.135 99.009l1.5.573v-.695a1.443 1.443 0 0 1-.938-.113l-.278.66c.612.186 1.223.371 1.834.558.446.135.636-.562.192-.697-.611-.185-1.223-.37-1.834-.557-.384-.117-.653.48-.278.66.486.231.966.293 1.495.184.381-.078.301-.58 0-.695-.5-.192-1-.384-1.5-.574-.435-.166-.623.531-.193.696M71.207 100.75c-.372-.054-.64-.237-.81-.575l-.407.53 1.237.354.096-.709a2.531 2.531 0 0 1-1.096-.356l-.183.672c.342-.013.667.036.98.177.42.19.787-.432.364-.623a2.925 2.925 0 0 0-1.344-.276c-.352.013-.497.486-.181.672.454.269.936.413 1.46.456.414.033.477-.6.096-.71l-1.237-.353c-.319-.09-.544.258-.407.53.243.486.701.828 1.24.907.455.067.651-.629.192-.696M76.72 102.144l-.99-.85-.351.604 2.56.873.19-.697a25.132 25.132 0 0 1-3.208-.77l-.096.708 3.211.385v-.722l-1.169-.036c-.464-.014-.464.708 0 .722l1.17.036c.475.014.448-.668 0-.722l-3.212-.384c-.418-.05-.468.593-.096.708 1.054.328 2.122.584 3.21.772.452.078.636-.544.19-.697l-2.558-.872c-.334-.114-.624.37-.352.603l.991.85c.351.3.863-.207.51-.51M83.46 103.03l1 .419.095-.71a8.34 8.34 0 0 1-2.261-.524l-.192.696c.773.22 1.548.44 2.323.662l.192-.696-1.392-.39c-.454-.128-.622.538-.192.696a7.283 7.283 0 0 0 3.06.432c.462-.031.465-.754 0-.72a6.802 6.802 0 0 1-2.868-.408l-.192.696 1.392.39c.448.125.639-.569.192-.696l-2.323-.662c-.455-.13-.62.535-.192.696a9.063 9.063 0 0 0 2.453.55c.444.039.435-.566.096-.708l-.998-.42c-.428-.18-.615.519-.192.696M89.978 104.666l1.627.647c.38.152.641-.475.279-.659a14.885 14.885 0 0 0-2.229-.913l-.096.708c.452-.017.842.096 1.216.345l.087-.66c-.232.041-.438.01-.649-.092l-.182.672 1.096-.046c.463-.02.465-.741 0-.722l-1.096.046c-.332.014-.524.508-.182.673.397.191.772.241 1.204.166.33-.058.321-.504.087-.66a2.631 2.631 0 0 0-1.58-.443c-.41.015-.489.584-.097.709.71.225 1.393.504 2.057.84l.277-.66-1.627-.647c-.432-.172-.62.525-.192.696M96.275 105.484c.684.116 1.33.317 1.953.625l.365-.623-1.942-.833-.278.66 1.409.403c.449.129.632-.554.192-.696l-2.269-.731c-.445-.144-.625.542-.192.696l1.768.626c.438.156.627-.542.191-.696l-1.767-.626-.192.696 2.269.731.192-.696-1.41-.404c-.381-.109-.662.495-.277.66l1.941.833c.416.179.79-.412.365-.623a7.647 7.647 0 0 0-2.126-.698c-.454-.077-.65.618-.192.696M101.936 106.744c1.069.149 2.095.426 3.093.837l.192-.696-2.849-.57c-.062.232-.127.463-.19.695a8.818 8.818 0 0 1 1.937.587v-.624c-.251.124-.463.147-.736.122v.722l1.165-.004c.464-.001.465-.723 0-.722l-1.165.004c-.472.001-.456.68 0 .722.405.037.737-.041 1.1-.22.228-.113.244-.516 0-.624a9.55 9.55 0 0 0-2.11-.659c-.452-.084-.65.604-.192.696l2.848.57c.465.094.616-.521.192-.695a12.626 12.626 0 0 0-3.093-.836c-.454-.064-.65.632-.192.695M111.584 110.09l3.087.44.096-.708a13.34 13.34 0 0 1-3.992-.874c-.065.231-.129.464-.192.695l3.24.477c.448.066.648-.555.192-.695-.467-.145-.935-.29-1.403-.433-.444-.137-.635.559-.192.696l1.403.432.192-.695-3.24-.477c-.458-.068-.632.526-.192.695 1.35.518 2.74.812 4.184.9.4.025.501-.65.096-.708l-3.087-.441c-.454-.065-.65.63-.192.695M118.919 110.116a3.88 3.88 0 0 1 1.323.568l.279-.66a9.61 9.61 0 0 1-1.897-.796l-.364.624 1.15.614.183-.672-.78-.054c-.465-.03-.462.691 0 .722l.78.054c.358.024.49-.509.182-.672l-1.15-.616c-.41-.219-.773.398-.365.624.658.363 1.349.653 2.068.868.407.121.61-.44.279-.66a4.448 4.448 0 0 0-1.496-.64c-.453-.102-.646.593-.192.696M121.914 112.103c.536.424 1.11.756 1.747 1.005l.192-.696-1.74-.49v.696c.244-.043.445.038.638.183l.181-.672-.56-.004c-.464-.004-.465.718 0 .721l.56.005c.39.003.45-.472.182-.673-.353-.266-.764-.331-1.193-.256-.364.065-.322.606 0 .696l1.74.49c.457.129.615-.53.192-.696a5.581 5.581 0 0 1-1.429-.82c-.36-.284-.874.223-.51.51M53.765 101.077l-.56-.242-.182.672.734.06-.096-.708-.544.204.278.037c-.417-.298-1.043.13-.866.63.161.452.824.465 1.038.054.173-.33-.17-.651-.493-.494l-.864.419c-.373.181-.11.766.278.66l.783-.216c.448-.122.258-.819-.192-.695l-.783.215.279.66.863-.42-.494-.494c-.048.092.084.304.173.34.08.033.17.002.246-.02.166-.049.328-.124.49-.185.383-.144.319-.674-.096-.708l-.734-.06c-.345-.028-.51.53-.182.672l.56.242c.422.183.79-.439.364-.623M58.862 101.44a2.13 2.13 0 0 1-.974-.168l-.095.709 1.662.222c.46.061.455-.661 0-.722l-1.662-.222c-.441-.06-.433.569-.096.709.372.155.762.218 1.165.194.462-.027.465-.75 0-.722M62.22 102.18c-.134-.13-.266-.26-.399-.392l-.351.603 2.337.676.096-.71a6.657 6.657 0 0 1-1.897-.454l-.192.697c.726.18 1.452.362 2.177.543.45.113.643-.583.192-.696-.726-.18-1.451-.363-2.177-.544-.46-.115-.615.53-.192.697a7.315 7.315 0 0 0 2.089.48c.414.034.476-.6.096-.71-.78-.224-1.558-.45-2.337-.675-.346-.1-.606.352-.35.604l.397.392c.331.326.841-.184.51-.51M69.582 103.266a1.242 1.242 0 0 1-.758-.286l-.364.623a6.557 6.557 0 0 0 2.325.667c.462.045.458-.677 0-.721a5.563 5.563 0 0 1-1.961-.57c-.426-.212-.726.347-.364.624.33.255.707.372 1.122.384.465.014.464-.708 0-.721M74.98 104.668a6.151 6.151 0 0 1 2.38.755l.181-.673c-.326-.04-.586-.166-.848-.356l-.279.66 1.606.285c.454.081.65-.615.192-.696l-1.607-.285a.363.363 0 0 0-.277.66c.376.27.758.397 1.213.454.366.046.476-.51.183-.672a7.04 7.04 0 0 0-2.744-.854c-.462-.047-.458.675 0 .722M83.101 106.041a5.25 5.25 0 0 0 1.794 1.158c.38.15.645-.48.279-.66-.453-.22-.904-.441-1.356-.662l-.279.66c.327.104.687.308 1.016.113.196-.116.308-.33.34-.551.073-.49-.278-1.01-.814-.916-.491.087-.686.676-.52 1.104.265.689 1.33.495 1.905.479.464-.013.466-.735 0-.722-.296.008-.592.01-.888-.002-.075-.002-.299.034-.356-.013.017.014-.013-.104 0-.097 0-.001.03-.086-.037-.047-.02.013.023.082 0 .093a.101.101 0 0 1-.011.057c-.012.026-.009.01.009-.05-.084.03-.374-.12-.452-.144-.384-.123-.648.478-.278.66l1.356.662.278-.66a4.366 4.366 0 0 1-1.475-.972c-.331-.327-.841.183-.51.51M89.029 108.243c.797.076 1.58.213 2.357.404.387.095.65-.461.278-.66l-1.386-.74-.278.66 2.071.355c.455.078.65-.618.192-.696l-2.072-.355c-.376-.065-.664.452-.277.659l1.386.74.278-.659a17.504 17.504 0 0 0-2.55-.43c-.461-.043-.458.678 0 .722M97.278 109.827c.13-.144.26-.287.392-.43a.37.37 0 0 0 0-.511.91.91 0 0 0-.815-.318l.096.71c.303-.052.589-.002.861.136l.279-.66-1.933-.563c-.39-.114-.638.459-.278.66a3.757 3.757 0 0 0 1.96.483c.464-.013.466-.735 0-.722a3.017 3.017 0 0 1-1.596-.385l-.277.66 1.931.564c.386.112.65-.471.279-.66a2.19 2.19 0 0 0-1.418-.21c-.397.068-.308.763.096.71.143-.02.207-.006.304.105v-.51l-.392.43c-.312.344.197.856.51.511M102.14 109.912l2.343.624c.063-.233.128-.464.192-.697a9.364 9.364 0 0 1-1.746-.51l-.096.708a3.142 3.142 0 0 1 1.783.623l.182-.672a3.716 3.716 0 0 1-1.743-.397l-.278.66 2.077.55c.45.12.64-.576.192-.695l-2.078-.551c-.384-.102-.653.471-.277.66.666.334 1.36.502 2.107.495.381-.004.46-.472.183-.673a3.804 3.804 0 0 0-2.148-.722c-.437-.014-.449.567-.096.709a9.421 9.421 0 0 0 1.746.512c.45.086.646-.576.192-.697l-2.341-.623c-.45-.12-.642.576-.193.696M111.76 111.974l-1.289-.394-.193.695 1.872.557c.065-.231.129-.463.192-.695l-2.828-.725c-.45-.115-.642.579-.192.696l2.003.52.096-.71-1.481-.036c-.477-.012-.448.666 0 .722l3.006.367c.46.056.456-.666 0-.722l-3.006-.367v.722l1.48.036c.408.01.492-.606.097-.708l-2.003-.52-.192.696 2.828.724c.451.117.638-.563.192-.695l-1.871-.557c-.447-.134-.635.56-.193.695l1.289.395c.446.136.635-.56.192-.696M117.549 114.314l.732.035c.441.022.442-.565.095-.709l-1.705-.706c-.374-.154-.653.497-.279.66.675.294 1.35.586 2.023.88.423.183.79-.438.365-.624l-2.023-.879c-.093.22-.186.44-.277.66l1.705.706.096-.71-.732-.034c-.465-.023-.464.699 0 .721M120.805 114.644a.18.18 0 0 1-.208-.068l-.35.603.772.166c.453.097.646-.598.191-.696-.257-.055-.514-.11-.773-.167-.338-.072-.622.342-.35.604.258.25.56.327.91.254.454-.095.262-.791-.192-.696M48.307 105.43a3.703 3.703 0 0 0 1.418-1.381c.189-.322-.182-.658-.494-.494a9.413 9.413 0 0 1-.688.332c-.085.036-.179.06-.26.1-.147.073-.172-.057.08.072l.179.312.001-.015-.105.256a.14.14 0 0 1 .032-.036c.369-.275.01-.901-.364-.624-.16.12-.26.21-.286.419-.014.116.077.26.178.311.2.102.396.033.592-.04.345-.13.679-.293 1.006-.464l-.494-.494a2.978 2.978 0 0 1-1.16 1.123c-.406.225-.042.848.365.624M43.859 106.95l-.04-.013.251.252c-.001-.011-.004-.021-.006-.032-.012.093-.025.185-.036.278l-.168.076-.256-.106c-.122-.098-.082-.158-.224 0-.014.015-.11.087-.087.074l.438.056-.006-.004.057.437c.006-.01.146-.165.191-.213.319-.337-.19-.848-.51-.51-.105.11-.229.226-.305.359-.073.128-.065.335.057.437l.005.004c.125.104.29.143.438.057.366-.214 1.01-1.01.341-1.282-.524-.214-.926.623-.332.826.441.15.63-.546.192-.696M39.197 110.127l-.056.014.278.037c-.007-.005-.014-.01-.022-.013l.166.407c.052.013.093-.012.123-.075l-.567-.438a3.238 3.238 0 0 1-.866.783c-.391.247-.039.858.365.623l.663-.385c.401-.233.038-.857-.364-.623l-.664.385.365.623a4.19 4.19 0 0 0 1.124-1.041c.267-.353-.275-.672-.566-.438-.134.108-.264.223-.31.394a.37.37 0 0 0 .167.407c.182.113.351.043.527-.037.423-.191.057-.814-.363-.623M39.796 113.37c.29-.333.616-.594 1.005-.8l-.438-.568-.477.41.567.438a.493.493 0 0 1 .346-.232c.454-.06.46-.782 0-.722-.42.056-.732.234-.97.59-.24.359.272.69.568.437.158-.137.317-.274.477-.41.32-.277-.09-.753-.438-.567-.438.233-.824.539-1.15.913-.304.349.204.861.51.51M43.54 109.84c-.268.154-.326.527-.04.702.294.18.74.028 1.023-.086.257-.103.396-.51.086-.66-.473-.228-1.068-.082-1.295.42-.115.254.08.654.407.531l1.156-.436c.43-.163.243-.861-.192-.696-.385.145-.77.29-1.156.437l.408.53c.054-.12.166-.23.309-.162l.085-.66c-.112.046-.228.095-.348.118-.139.027-.181-.047-.061.08l.106.256v-.02l-.106.255-.017.015c.403-.23.04-.854-.365-.623M48.33 108.407l1.398-.872c.35-.219.12-.749-.279-.66a4.29 4.29 0 0 0-1.695.79c-.37.284-.067.81.364.623a5.85 5.85 0 0 0 1.493-.942c.315-.27-.09-.773-.437-.567-.152.091-.317.19-.442.29-.014.012-.2.222-.122.06-.2.417.423.784.622.365.357-.747-.788-1.483-1.179-.705-.162.324-.01.722.286.912.426.273.835-.082 1.2-.298l-.438-.567a5.264 5.264 0 0 1-1.347.83l.364.622c.46-.353.957-.59 1.523-.716l-.278-.66-1.398.872c-.393.246-.03.87.365.623M52.87 105.47l.578.086v-.696c-.261.087-.598.145-.837.286-.235.137-.445.352-.658.521-.238.19-.044.645.256.616l1.59-.153c.459-.044.463-.767 0-.722l-1.59.153.255.616c.164-.13.332-.304.519-.4.197-.102.447-.151.657-.221.305-.101.38-.639 0-.696l-.578-.086c-.454-.069-.65.627-.192.695M58.417 105.548c-.163.1-.33.128-.508.043v.623c.2-.104.434-.09.611.057l.437-.566-.884-.416-.365.623.935.402c.423.181.79-.44.365-.624l-.935-.4c-.418-.18-.79.422-.365.622l.885.416c.342.16.776-.285.437-.567-.437-.363-.975-.433-1.485-.17-.23.119-.24.507 0 .623.411.198.841.197 1.236-.043.396-.241.034-.865-.364-.623M61.878 106.555l1.622.637.192-.696a6.416 6.416 0 0 1-1.9-.61l-.365.623c.778.342 1.589.51 2.44.476.462-.018.465-.74 0-.722a4.636 4.636 0 0 1-2.076-.378c-.415-.182-.785.41-.364.624a7.033 7.033 0 0 0 2.073.683.361.361 0 0 0 .192-.696l-1.622-.637c-.433-.17-.62.528-.192.696M69.01 107.14a.248.248 0 0 1-.071-.018l.252.444.001-.007-.252.252c-.075.014.163.029.188.034.165.032.32.087.47.162l.28-.66a1.154 1.154 0 0 1-.656-.335l-.256.616a2.59 2.59 0 0 1 1.638.345c.401.237.764-.387.364-.623a3.238 3.238 0 0 0-2.002-.444c-.298.032-.491.377-.254.616.27.273.594.452.973.521.374.068.67-.465.278-.66-.354-.175-.81-.345-1.215-.269-.11.022-.233.14-.252.252v.008c-.034.206.052.368.252.443.022.01.046.016.07.018.454.09.648-.605.192-.695M74.055 107.957c.82.184 1.54.51 2.221 1l.278-.66a3.584 3.584 0 0 1-1.498-.688l-.35.603 2.519.668c.405.108.614-.436.278-.66l-1.01-.668-.28.66 2.226.47c.454.096.648-.6.192-.696l-2.225-.47c-.402-.085-.625.43-.278.66l1.01.668.278-.66-2.519-.668c-.322-.086-.649.37-.351.603a4.383 4.383 0 0 0 1.816.875c.413.09.607-.423.278-.66a6.41 6.41 0 0 0-2.393-1.072c-.453-.102-.646.594-.192.695M82.529 109.9a3.51 3.51 0 0 1 1.639.376l.182-.672a4.151 4.151 0 0 1-2.05-.768l-.181.673a9.6 9.6 0 0 1 2.606.634c.432.17.62-.528.192-.696a10.23 10.23 0 0 0-2.798-.66c-.39-.038-.445.488-.183.672.728.511 1.531.787 2.414.867.356.031.494-.517.182-.673a4.326 4.326 0 0 0-2.003-.474c-.465.002-.466.724 0 .721M89.24 111.174a5.858 5.858 0 0 1 2.046.188c.033-.236.064-.473.096-.71-.373.043-.704-.018-1.003-.26l-.16.602c.415-.106.755-.015 1.09.24l.278-.661-2.512-.553c-.377-.083-.671.484-.279.66.858.384 1.736.692 2.649.918.451.112.643-.584.191-.695-.85-.21-1.676-.488-2.475-.846l-.279.659 2.513.553c.42.093.597-.418.279-.66-.482-.365-1.066-.46-1.646-.31-.245.062-.374.428-.16.603.442.358.941.538 1.514.473.381-.044.518-.594.096-.71a6.485 6.485 0 0 0-2.238-.213c-.46.037-.464.76 0 .722M96.04 111.326l-1-.166c-.366-.06-.685.483-.277.66l2.61 1.134.181-.673a4.83 4.83 0 0 1-1.688-.53l-.182.672 1.939.25c.459.06.454-.663 0-.721l-1.939-.25c-.361-.047-.482.515-.182.672.65.341 1.323.543 2.052.63.348.04.503-.533.182-.673l-2.61-1.135-.278.66 1 .166c.455.075.651-.62.193-.696M100.964 112.91a4.33 4.33 0 0 1 2.15.376l.28-.659-1.122-.216-.096.709a5.85 5.85 0 0 1 1.694.446l.096-.709c-.624.07-1.148-.049-1.674-.396l-.277.66a12.42 12.42 0 0 1 3.201.908c.422.185.789-.437.364-.623a13.047 13.047 0 0 0-3.373-.981c-.393-.058-.64.421-.279.66.628.413 1.29.578 2.038.494.416-.047.476-.55.096-.709a6.461 6.461 0 0 0-1.886-.472c-.402-.042-.495.632-.096.709l1.121.216c.372.071.676-.479.278-.66-.812-.37-1.623-.534-2.515-.475-.461.03-.465.753 0 .722M109.65 115.013l1.995.927.182-.672a5.897 5.897 0 0 1-1.84-.123c-.456-.103-.629.545-.192.696l1.318.456v-.696a2.314 2.314 0 0 1-1.276-.122c-.032.236-.065.472-.096.709l2.356.013c.464.003.465-.718 0-.721l-2.356-.014c-.427-.002-.465.573-.096.709.547.201 1.09.23 1.66.122.376-.072.308-.59 0-.696l-1.317-.456-.193.696a6.54 6.54 0 0 0 2.032.149c.319-.028.538-.507.182-.673l-1.995-.926c-.419-.195-.786.427-.365.622M114.823 116.62a3.213 3.213 0 0 1 1.838.405l.278-.66-2.15-.509c-.453-.107-.637.559-.192.697l1.784.55c.445.139.635-.558.192-.695l-1.785-.552c-.064.232-.128.464-.19.697l2.15.508c.387.091.645-.454.277-.66a3.908 3.908 0 0 0-2.202-.502c-.461.03-.465.753 0 .721M118.217 117.814c.377.216.798.216 1.173-.01.396-.242.033-.866-.365-.624-.156.094-.284.102-.444.01-.404-.23-.768.393-.364.624M57.77 108.62a.75.75 0 0 1 .821-.002l.182-.672-1.149-.033c-.464-.014-.464.708 0 .722l1.15.032c.364.011.481-.493.182-.672a1.48 1.48 0 0 0-1.55.001c-.397.24-.035.864.364.624M63.623 110.489c-.264-.656-.781-1.138-1.483-1.29-.031.238-.064.474-.096.71a3.4 3.4 0 0 1 1.74.381l.086-.66a1.19 1.19 0 0 1-.7-.114c-.417-.202-.784.42-.365.623.413.2.804.254 1.257.188.31-.045.344-.525.086-.66a4.144 4.144 0 0 0-2.104-.48c-.39.016-.51.62-.096.71.438.094.808.359.98.784.17.425.87.24.695-.192M68.844 111.254c-.531.036-1-.102-1.4-.456l-.256.615c.76-.049 1.496.058 2.2.358l.277-.66-1.196-.306v.696c.417-.155.807-.154 1.208.054.412.213.777-.41.364-.623-.566-.293-1.162-.35-1.764-.127-.314.118-.37.602 0 .696l1.196.306c.38.098.667-.493.278-.659a5.487 5.487 0 0 0-2.563-.457c-.29.02-.506.395-.255.617.541.478 1.186.717 1.911.667.46-.031.464-.753 0-.721M75.29 112.005a2.842 2.842 0 0 1 2.044.003l.193-.696c-.586-.15-1.172-.299-1.757-.45l-.096.71a4.148 4.148 0 0 1 1.747.564l.182-.673c-.492.02-1.263-.112-1.651.243a.352.352 0 0 0-.092.35c.066.185.148.271.337.334.11.035.278.001.351-.093l.03-.038c.282-.363-.225-.877-.51-.511l-.03.039.35-.093-.063-.021.253.252-.023-.06-.093.351c.055-.049.45-.004.54-.008l.601-.023c.351-.014.5-.487.182-.673a4.986 4.986 0 0 0-2.11-.662c-.41-.036-.485.61-.098.709l1.757.45c.458.116.622-.536.193-.697a3.463 3.463 0 0 0-2.43-.003c-.431.159-.244.857.192.696M81.06 112.915a7.732 7.732 0 0 1 3.163.82l.278-.66-1.914-.556-.191.695 1.92.477c.45.11.643-.585.192-.697l-1.92-.475c-.452-.112-.64.565-.192.695l1.913.558c.385.111.65-.473.278-.66a8.634 8.634 0 0 0-3.526-.919c-.465-.02-.464.702 0 .722M88.612 115.376a4.747 4.747 0 0 1 1.828.125c.455.122.623-.54.192-.696l-1.445-.523-.192.696 1.132.175.095-.709-.773-.013c-.464-.008-.465.714 0 .722.258.004.516.01.773.013.396.007.507-.645.096-.708l-1.13-.176c-.455-.07-.637.535-.193.696l1.445.523.192-.696a5.285 5.285 0 0 0-2.02-.15c-.455.055-.461.777 0 .721M95.113 116.183c.404.298.872.442 1.371.448.395.005.509-.652.096-.709a2.148 2.148 0 0 1-1.169-.52l-.16.603c.258-.036.497.03.719.16.402.233.766-.39.364-.624-.404-.234-.815-.295-1.273-.232-.269.038-.348.437-.16.603.426.379.92.628 1.488.707l.095-.71a1.67 1.67 0 0 1-1.006-.349c-.375-.276-.735.35-.365.623M101.38 117.323a1.26 1.26 0 0 1 1.116.261l.255-.616a2.169 2.169 0 0 1-1.514-.527c-.084.206-.17.411-.255.617.535.018 1.05.129 1.54.347l.278-.66-1.353-.4c-.063.232-.127.464-.192.695.644.15 1.286.298 1.93.446.451.104.645-.591.192-.696l-1.93-.445c-.451-.104-.638.563-.192.695l1.352.402c.382.112.66-.491.279-.66a5.031 5.031 0 0 0-1.904-.446c-.3-.01-.492.41-.255.616.577.496 1.261.757 2.024.737.289-.007.507-.405.255-.615-.525-.44-1.149-.6-1.818-.446-.454.103-.262.8.192.695M108.015 118.72a8.88 8.88 0 0 1 1.617.38l.192-.696-1.966-.43-.096.708c.96.073 1.882.288 2.78.629.435.165.622-.532.192-.696a10.574 10.574 0 0 0-2.972-.654c-.404-.031-.491.622-.095.708l1.965.43c.455.1.633-.548.192-.695a8.908 8.908 0 0 0-1.617-.38c-.454-.063-.651.633-.192.697M114.703 119.281l-.563-.227-.192.695 1.715.482.192-.696a12.082 12.082 0 0 1-1.868-.544l-.192.696 1.566.246c.454.072.65-.623.192-.696l-1.566-.246c-.458-.072-.63.529-.192.696.609.231 1.23.412 1.868.544.451.093.643-.569.192-.696l-1.715-.481c-.459-.129-.612.527-.192.695l.563.228c.431.174.619-.524.192-.696M53.57 110.084l1.24-.593-.531-.407c-.046.18-.137.272-.302.35l.438.567a.645.645 0 0 1 .093-.11c.138-.124.103-.29-.106-.496l.277.036-.023-.018.165.216-.006-.045c-.063-.458-.76-.264-.696.192.076.551.84.31.887-.137a.457.457 0 0 0-.387-.496c-.293-.052-.542.128-.715.348-.252.32.052.747.438.566a1.16 1.16 0 0 0 .633-.782c.082-.322-.252-.54-.53-.407l-1.24.593c-.419.2-.053.823.364.623M49.724 110.532a.905.905 0 0 1-.052.168c.395.139.413.283.055.431l-.256-.105.038.03c.358.288.872-.22.51-.51-.445-.359-.95.172-.692.64.124.227.394.29.626.197.274-.109.4-.391.466-.659.113-.45-.583-.643-.695-.192M45.624 111.941c-.372.044-.89.181-.934.634-.046.481.458.57.822.509.458-.076.263-.772-.191-.696-.113-.012-.114.045-.005.172.075.065.094.125.056.18.024.008.22-.073.252-.077.455-.054.461-.777 0-.722M49.289 114.56a3.185 3.185 0 0 0 1.512-.627c.302-.23.148-.786-.278-.66l-1.171.345.192.696.926-.389-.278-.66c-.034.044-.073.05-.117.019.03.118.062.234.093.351.045-.298.3-.453.585-.342l-.252-.444c-.034.182-.166.365-.379.332-.454-.07-.65.625-.192.696.58.09 1.155-.23 1.267-.836.038-.207-.057-.368-.253-.444-.531-.207-1.167.078-1.398.594-.298.667.483 1.037 1.01.698.325-.208.117-.825-.278-.66l-.926.389c-.414.173-.269.831.192.696l1.17-.345-.277-.66a2.77 2.77 0 0 1-1.34.556c-.458.062-.263.758.192.696M54.01 113.266l1.198.045c-.06-.224-.12-.448-.182-.673-.244.148-.466.16-.731.062l.158.604a.917.917 0 0 1 .918-.228c.448.125.64-.572.192-.697a1.655 1.655 0 0 0-1.62.415c-.208.2-.086.513.159.602.434.159.895.104 1.289-.134.312-.19.173-.659-.183-.673l-1.198-.045c-.464-.018-.464.704 0 .722M60.25 112.131a2.391 2.391 0 0 1-1.366-.223l-.086.66c.418-.14.846-.195 1.285-.131.448.065.65-.561.192-.696-.558-.165-1.424.261-.923.893.289.364.797-.15.51-.51-.093.254-.067.352.077.293a.236.236 0 0 1 .144.02l.192-.696a3.536 3.536 0 0 0-1.668.13c-.274.092-.382.514-.087.66.545.271 1.123.39 1.73.322.457-.051.463-.773 0-.722M63.352 113.45c.473.066.88.248 1.226.58.117-.2.234-.401.35-.603l-1.375-.524.086.659c.264-.149.527-.124.775.042l.183-.673-1.15.044c-.463.017-.465.739 0 .722l1.15-.044c.366-.014.479-.474.182-.672a1.415 1.415 0 0 0-1.504-.042c-.291.164-.19.554.086.66l1.376.524c.345.132.598-.365.351-.602a2.758 2.758 0 0 0-1.544-.767c-.454-.063-.65.632-.192.696M68.993 115.031c-.1.037-.14.02-.16-.09l-.349.458.945-.067c.344-.025.506-.483.182-.673l-1.064-.624-.278.66a4.67 4.67 0 0 0 1.678.251c.464-.015.466-.737 0-.722a4.095 4.095 0 0 1-1.486-.225c-.393-.135-.625.456-.278.66.355.207.71.416 1.063.624l.183-.673-.945.067c-.247.018-.393.216-.348.457a.801.801 0 0 0 1.05.593c.43-.16.244-.857-.193-.696M73.302 115.361c.517-.034.964.048 1.425.288l.364-.623-.555-.244-.182.673a3.994 3.994 0 0 1 1.572.327c.428.18.615-.519.192-.696a4.528 4.528 0 0 0-1.764-.353c-.334-.001-.524.523-.183.673.186.08.37.162.556.243.415.182.784-.404.364-.623a3.304 3.304 0 0 0-1.789-.386c-.46.03-.464.752 0 .721M80.741 116.1a.462.462 0 0 1-.389-.32l-.347.457c.947-.127 1.817.1 2.58.676.03-.22.058-.44.086-.66-.721.158-1.396-.02-1.978-.465l-.182.672 1.745-.06c.462-.015.466-.73 0-.721l-.566.01c-.464.01-.465.731 0 .722.189-.003.377-.008.566-.01v-.722l-1.745.06c-.385.013-.457.463-.182.672.734.561 1.637.734 2.534.539.336-.073.312-.49.087-.66a3.984 3.984 0 0 0-2.945-.775c-.207.027-.444.212-.348.457.167.428.44.704.893.824.448.12.64-.577.191-.696M86.417 117.447c.36.143.72.286 1.078.43l.096-.709a2.24 2.24 0 0 1-1.02-.234l-.278.66c.794.23 1.587.463 2.381.695l.096-.709a.79.79 0 0 1-.558-.129l-.182.672 1.628-.045c.464-.013.466-.735 0-.721l-1.628.045c-.345.01-.508.496-.182.672.3.162.58.235.922.228.406-.009.49-.593.096-.709l-2.38-.695c-.385-.113-.653.476-.28.66a3.11 3.11 0 0 0 1.385.332c.434.003.454-.566.096-.709l-1.077-.43c-.432-.172-.62.525-.193.696M93.241 118.78c.33.627.89.963 1.592.997.399.02.503-.649.096-.709a5.19 5.19 0 0 1-1.583-.487l-.087.66c.539-.136.936.109 1.452.124.688.02 1.114-.072 1.766.271.412.216.777-.407.365-.623-.639-.336-1.24-.426-1.953-.403-.635.02-1.179-.227-1.822-.066-.288.073-.366.52-.086.66a5.78 5.78 0 0 0 1.756.56c.032-.236.065-.472.096-.709-.453-.021-.759-.238-.969-.639-.216-.41-.84-.046-.623.365M101.29 121.027a3.15 3.15 0 0 1 1.39.129l.191-.696a10.841 10.841 0 0 1-2.693-.753l-.182.673c.715.072 1.41.22 2.095.434.033-.236.064-.472.096-.709l-.576-.012c-.464-.01-.464.712 0 .722l.576.012c.416.009.479-.59.097-.709a11.451 11.451 0 0 0-2.288-.46c-.346-.035-.507.533-.183.672.926.398 1.87.678 2.867.826.448.067.647-.555.191-.696a3.971 3.971 0 0 0-1.772-.129c-.458.063-.263.759.192.696M107.556 122.566a8.493 8.493 0 0 1 2.122-.03c.4.042.498-.644.096-.709-1.071-.172-2.13-.4-3.177-.687-.031.237-.064.473-.096.71l1.545.01c.346.002.506-.506.182-.673-.324-.166-.71-.018-.77.373-.075.489.44.653.824.64.462-.015.465-.737 0-.722l-.138.29h-.364l.083.043.183-.673-1.545-.01c-.406-.003-.49.601-.096.709 1.048.286 2.106.514 3.177.686l.096-.709a9.204 9.204 0 0 0-2.314.057c-.458.065-.263.761.192.695M112.377 122.711c-.158.027-.178.067-.06.12l.082.045a.617.617 0 0 0 .263.065.466.466 0 0 0 .424-.288c.116-.317-.225-.667-.55-.548-.177.065-.316.246-.252.444l.011.034c.142.44.839.252.696-.192l-.011-.034-.253.444-.282-.105v-.365l-.02.038.216-.165c.055-.022-.031-.055-.098-.091a.683.683 0 0 0-.253-.077.46.46 0 0 0-.424.165c-.288.358.22.872.51.51M55.059 115.572h.57c.465 0 .465-.715 0-.721l-1.03-.016c-.468-.007-.458.688 0 .722l1.46.106v-.721c-.371.036-.741.072-1.111.11-.266.027-.548.054-.69.313-.245.448.397.895.709.495.101-.129.143-.285.056-.437l-.018-.031c-.23-.404-.854-.04-.623.364l.018.031.057-.437.293-.039.165.216-.012-.042c-.012.093-.025.185-.036.279l-.046.023a29.678 29.678 0 0 1 .543-.055l.695-.069c.459-.045.468-.687 0-.721l-1.46-.107v.722l1.03.015v-.721h-.57c-.465 0-.466.721 0 .721M57.603 115.523c.682.398 1.516.485 2.218.854l.182-.673c-.06.01-.119.01-.178.004-.125-.03-.157.052-.098.247l-.278-.037.072.03c.421.183.79-.439.364-.622-.373-.161-.78.045-.79.487-.01.495.503.639.908.613.335-.021.519-.495.182-.672-.7-.368-1.54-.46-2.219-.854-.4-.234-.765.39-.363.623M62.534 116.517l2.115.526.095-.71c-.54.02-.983-.14-1.375-.514l-.256.616c.84-.047 1.64.063 2.436.335l.097-.709-.94.065c-.46.032-.464.754 0 .722l.94-.065c.406-.028.488-.575.095-.709a6.855 6.855 0 0 0-2.628-.36c-.299.016-.492.389-.255.615a2.531 2.531 0 0 0 1.886.727c.396-.015.504-.608.096-.71l-2.114-.525c-.45-.112-.644.584-.192.696M67.967 118.275l2.877.83.096-.708c-.145 0-.29-.016-.432-.05-.172-.11-.258-.048-.258.182.458-.07.264-.765-.192-.695-.358.055-.66.457-.477.82.2.4.97.448 1.36.464.412.018.48-.597.095-.708-.959-.278-1.918-.554-2.877-.83-.448-.13-.638.567-.192.695M72.805 118.43l1.923.497c.46.12.615-.529.192-.695l-1.105-.434-.095.708a6.51 6.51 0 0 1 1.566.257c.447.13.638-.567.192-.696a7.334 7.334 0 0 0-1.758-.282c-.436-.018-.45.57-.096.708.368.146.736.29 1.104.434l.192-.695-1.923-.498c-.45-.117-.642.579-.192.696M79.805 120.165a5.265 5.265 0 0 1 1.613.406l.278-.66a3.386 3.386 0 0 1-1.79-.976l-.256.616c.954.082 1.893.234 2.825.453l.193-.696-.86-.137c-.45-.073-.654.596-.192.695.54.117 1.056.274 1.563.495.422.183.79-.438.364-.623a9.11 9.11 0 0 0-1.735-.567c-.064.231-.127.464-.192.695l.86.138c.447.071.652-.588.192-.696-.995-.234-2-.391-3.018-.479-.323-.027-.46.407-.254.617a4.08 4.08 0 0 0 2.108 1.162c.374.078.675-.49.278-.66a6.447 6.447 0 0 0-1.977-.505c-.463-.043-.46.679 0 .722M85.814 120.476l3.37.738c.032-.236.065-.473.096-.71-.485.054-.91.012-1.365-.187l-.278.66c.878.206 1.75.293 2.65.257.464-.019.466-.74 0-.722a8.954 8.954 0 0 1-2.458-.232c-.377-.088-.669.489-.278.66.571.25 1.105.354 1.73.287.372-.04.526-.615.095-.71l-3.37-.737c-.453-.1-.647.596-.192.696M93.108 121.904l2.616.979.192-.696-2.026-.418c-.46-.094-.62.53-.192.697.525.204 1.062.28 1.622.234.46-.038.464-.76 0-.721a3.102 3.102 0 0 1-1.43-.21c-.063.233-.127.464-.192.697.676.138 1.35.278 2.026.417.46.095.624-.534.192-.696l-2.615-.978c-.436-.164-.625.534-.193.695M100.893 123.37l.09-.05.278.035c-.206.19-.232.342-.078.455l.064.073c.079.082.154.161.253.22a.64.64 0 0 0 .569.07c.354-.127.327-.56 0-.696l-1.11-.463-.192.697c.471.19.966.273 1.474.255.464-.016.466-.738 0-.722a3.05 3.05 0 0 1-1.282-.23c-.433-.174-.613.521-.192.697l1.11.462v-.696c-.056.02-.243-.238-.29-.277a.784.784 0 0 0-.32-.175c-.249-.06-.527.035-.622.288-.164.44.387.987.758.567.307-.347-.202-.86-.51-.51M104.967 125.218h3.245v-.722a1.92 1.92 0 0 1-1.187-.315l-.279.66 1.877.395.192-.696-.187-.03c-.455-.073-.65.623-.192.695l.187.03c.45.071.654-.598.192-.695l-1.878-.395c-.395-.084-.632.435-.277.659.487.308.977.439 1.552.414.462-.02.468-.722 0-.722h-3.245c-.465 0-.465.722 0 .722"/>
        <path fill="#FFDADD" d="M51.881 117.718c-1.771.427-3.332.03-4.685-1.191l-.279 1.055.47 1.122.713.927.644-1.33.777.776c2.154-6.949 3.057-14.098 3.966-21.29.522-4.126 1.075-8.252 1.978-12.316.924-4.151 1.656-9.534 6.115-11.14 2.693-.972 5.716-1.352 8.513-1.926 2.677-.549 7.424-2.558 9.787-1.188 1.667.966 1.265 1.204 1.179 2.997a199.263 199.263 0 0 1-.481 7.169c-.315 3.673-.728 7.337-1.327 10.975-.131.795 1.086 1.137 1.217.336.651-3.95 1.093-7.929 1.422-11.917.18-2.184.326-4.373.432-6.563.06-1.249.51-3.106-.307-4.229-1.322-1.815-3.945-.646-5.653-.225-4.032.993-8.135 1.674-12.18 2.61-2.755.64-5.672 1.063-7.16 3.706-2.017 3.583-2.714 8.36-3.436 12.345-1.834 10.124-2.219 20.435-5.283 30.32-.14.454.324.918.777.777 1.02-.315 1.372-.924 1.076-1.953-.1-.351-.436-.499-.776-.44-1.293.221-1.839.612-2.37 1.869-.22.516.137 1.034.713.928 1.053-.195 1.496-.636 1.659-1.698.04-.269-.025-.574-.291-.713-.956-.498-.825-.49-1.903-.42-.334.022-.641.272-.632.632.045 1.703 1.544 2.561 3.031 1.73a.623.623 0 0 0 .314-.546c-.081-1.917-1.427-2.965-3.32-2.542-.437.096-.643.755-.278 1.055 1.797 1.47 3.63 1.945 5.914 1.516.798-.15.46-1.367-.336-1.218"/>
        <path fill="#FFDADD" d="M84.222 123.617l-.72-.68-1.056.615c.618-.643.687-1.373.206-2.19a55.837 55.837 0 0 1-.61-3.91 80.816 80.816 0 0 1-.385-4.113c-.227-3.211-.28-6.432-.343-9.65-.125-6.408-.24-12.816-.36-19.224L80.9 81.72l2.666-2.498c1.436-.934 3.72-1.34 5.337-1.923l4.002-1.442c2.295-.826 4.385-2.763 5.423.759.854 2.904.293 6.96.363 9.96a409.6 409.6 0 0 1 .1 9.967c0 .813 1.263.814 1.264 0a400.12 400.12 0 0 0-.225-14.237c-.08-2.328.097-4.905-.324-7.196-.121-.662-.16-1.399-.766-1.846-1.87-1.38-6.4 1.458-8.172 2.096-2.446.882-4.893 1.758-7.337 2.643-.994.36-2.381.645-3.072 1.536-1.548 1.996-.435 6.732-.393 9.046l.259 13.731c.09 4.822.139 9.656.676 14.453.235 2.102-.014 6.061 1.83 7.374.212.15.598.099.767-.099l.246-.29c.218-.258.258-.637 0-.893a27.059 27.059 0 0 1-.205-.202c-.415-.408-1.308.002-1.056.615.39.948.353.992 1.3 1.434.732.341 1.375-.746.638-1.09"/>
        <path fill="#FA5575" d="M125.13 85.376l7.14-5.35c.22-.166.004-.542-.22-.375L124.912 85c-.22.166-.005.543.22.375M132.963 91.645l6.26-3.13c.25-.125.03-.5-.219-.375l-6.26 3.13c-.25.125-.031.5.219.375M113.504 79.718v-9.39c0-.28-.433-.28-.433 0v9.39c0 .28.433.28.433 0"/>
    </g>
</svg>
