<svg xmlns="http://www.w3.org/2000/svg" xmlns:xlink="http://www.w3.org/1999/xlink" width="236" height="126" viewBox="0 0 236 126">
    <defs>
        <path id="a" d="M.319.483h140.502V63.39H.32z"/>
        <path id="c" d="M.468.175h92.93V35H.468z"/>
        <path id="e" d="M0 .219h7.731v8.46H0z"/>
    </defs>
    <g fill="none" fill-rule="evenodd">
        <g transform="translate(39)">
            <mask id="b" fill="#fff">
                <use xlink:href="#a"/>
            </mask>
            <path fill="#FFF" d="M1.685 27.88c.024-2.987.313-5.869.721-8.821.41-2.961.194-5.992.64-8.925.572-3.758 3.029-7.519 6.9-8.375 3.503-.774 7.767-.149 11.351-.027 11.012.375 22.087.267 33.078.988 11.091.728 22.03.742 33.09-.404 10.877-1.127 21.894-.569 32.81-.486 7.096.053 16.601-1.362 19.117 7.502.966 3.404.356 7.64.275 11.16a259.01 259.01 0 0 1-.316 8.086c-.258 4.76-.58 9.511-.708 14.278-.18 6.8 1.554 17.094-7.726 17.98-5.404.514-10.883.311-16.31.855-6.026.603-12.06.791-18.114.654-4.942-.112-9.813-.702-14.731-1.117-6.37-.537-12.775-.424-19.16-.382-12.18.08-24.427-.215-36.568.815-2.831.24-5.661.435-8.501.523-4.59.142-9.385.595-12.942-2.925-5.836-5.775-1.563-14.036-1.464-21.077.01-.696-1.056-.696-1.066 0-.081 5.766-3.217 12.376-.875 17.988 2.79 6.686 9.118 7.276 15.387 7.12 5.484-.136 10.925-.786 16.401-1.042 7.126-.334 14.274-.158 21.406-.239 6.247-.07 12.5-.172 18.747-.092 5.713.073 11.327.76 17.013 1.202 12.649.983 24.965-1 37.56-1.158 5.287-.066 10.413-1.247 11.664-7.281.663-3.2.238-6.73.303-9.995.062-3.12.182-6.236.354-9.352.31-5.581.655-11.152.75-16.744.108-6.264.528-12.47-5.414-16.213-2.784-1.752-5.665-1.592-8.822-1.598-3.238-.007-6.476-.026-9.714-.06-6.248-.066-12.5-.166-18.748-.085-5.718.075-11.328.796-17.015 1.26-6.89.56-13.87.485-20.77.126C46.778 1.317 33.253.97 19.727.604 12.914.42 5.74-.429 2.724 7.18c-1.311 3.306-.798 6.91-1.189 10.38-.391 3.468-.888 6.809-.917 10.32-.005.696 1.06.697 1.067 0" mask="url(#b)"/>
        </g>
        <path fill="#FFF" d="M85.246 21.52c.5-.61.767-1.08.767-1.385-.038-.216-.25-.324-.67-.324-.307 0-.653.036-1.055.073a9.28 9.28 0 0 0-1.19.143c-.345.054-.594.09-.786.108.039.252.077.522.134.81.096.594.173 1.098.21 1.493.231-.035.48-.09.768-.16.614-.163 1.19-.361 1.688-.613.038-.054.095-.108.134-.144m-3.087 2.52c-.346 0-.519-.144-.537-.45a15.138 15.138 0 0 0-.288-1.872c-.288-1.08-.518-1.962-.71-2.682a.636.636 0 0 1 .212-.378.482.482 0 0 1 .421-.234c.154 0 .269.018.365.054a.71.71 0 0 1 .422.378c.192-.036.383-.09.613-.126.767-.107 1.63-.18 2.59-.18.594 0 1.035.09 1.342.234.422.252.652.666.652 1.278-.038.504-.25 1.007-.613 1.476a4.747 4.747 0 0 1-.289.288v.018a.56.56 0 0 1-.249.467c-.46.38-1.246.775-2.359 1.17a4.237 4.237 0 0 1-1.074.216c-.096.217-.268.343-.498.343m5.619 2.375a1.48 1.48 0 0 1-.192-.684c.077-.162.192-.252.345-.252.384.217.921.45 1.611.739a7.738 7.738 0 0 1-.192-1.224c-.076-.72-.114-1.729-.134-3.042 0-2.196-.019-4.32-.038-6.371 0-.397-.077-.595-.23-.613-2.244.036-4.986.558-8.247 1.584-.345-.036-.537-.251-.556-.683 0-.27.173-.487.556-.648.844-.36 2.09-.684 3.72-.973a36.078 36.078 0 0 1 3.875-.503c.46-.018.901-.037 1.304-.037.614.09.94.648.94 1.674 0 .594-.02 1.728-.02 3.402-.02.828-.02 1.818-.02 2.952 0 .828.02 1.782.097 2.844.115 1.331.25 2.25.403 2.718 0 .449-.25.683-.748.701-.96 0-1.784-.54-2.474-1.584m-9.57-.881a.784.784 0 0 1-.518.197c-.192 0-.326-.035-.44-.144-.116-.126-.193-.323-.212-.593C77 24.31 77 23.339 77 22.079c0-.828 0-1.602.038-2.286 0-.684.038-1.44.096-2.25 0-.395.02-.827.02-1.296-.02-.108-.04-.251-.078-.396-.019-.108-.019-.215-.019-.324 0-.108.096-.216.25-.324l.019-.018c-.02-.054-.02-.125-.02-.198 0-.396.154-.684.461-.863.421-.252 1.112-.613 2.071-1.08.403-.216.806-.414 1.228-.612.632-.289.997-.432 1.093-.432.153 0 .326.09.537.251.21.217.326.36.326.45 0 .18-.135.307-.384.378-.767.379-1.592.81-2.474 1.297-.499.287-1.016.593-1.553.953l-.077.037c.115.251.173.522.173.828 0 .341-.058.917-.173 1.745-.096.9-.153 1.602-.192 2.07 0 .216-.02.935-.038 2.124 0 .972.019 1.961.058 2.952 0 .18-.058.324-.154.45M103.909 15.672c-.443.113-.868.226-1.311.319a16.93 16.93 0 0 1-1.165 2.684c-.443.788-.96 1.726-1.57 2.814a54.648 54.648 0 0 0-1.052 1.651c-.37.525-.684.882-.961 1.051-.092.112-.222.15-.388.15-.24-.019-.37-.15-.388-.413 0-.187.037-.337.13-.469.22-.3.443-.637.683-1.05.48-.695.997-1.52 1.533-2.458a39.44 39.44 0 0 0 1.164-2.496c.185-.413.332-.788.461-1.163-.276.056-.554.112-.83.15-.518.075-1.035.13-1.552.13H98.2c-.37-.055-.554-.262-.554-.637v-.338c.073-.225.276-.45.61-.637.147.018.295.018.48.018.868 0 1.81-.075 2.807-.244.037-.15.056-.281.093-.413a14.49 14.49 0 0 0 .35-2.795c.02-.244.167-.413.462-.507.111 0 .24-.019.407-.019.351.038.536.357.536.976 0 .732-.111 1.557-.333 2.458a39.682 39.682 0 0 0 3.325-.882c.185-.075.37-.131.536-.187.166 0 .332.056.517.13.222.15.35.283.35.395 0 .112-.054.244-.146.394-.13.169-.296.3-.481.394-.923.356-2.013.694-3.251.994m1.404 4.69c.055.49.092 1.033.092 1.634 0 .6-.092 1.295-.277 2.082a8.617 8.617 0 0 1-.517 1.52l-.037.075c.536-.018 1.035-.037 1.496-.037 2.291 0 4.046.15 5.265.432.443.093.665.281.665.6 0 .375-.204.619-.591.694-.425-.056-1.109-.168-2.05-.32-.85-.074-1.996-.111-3.455-.111a28.99 28.99 0 0 0-4.23.319c-1.33.206-2.494.45-3.529.713-.222.018-.387.037-.48.037-.166 0-.314-.094-.443-.243a.868.868 0 0 1-.222-.45c0-.376.222-.64.684-.751.757-.226 1.625-.376 2.623-.508a22.81 22.81 0 0 1 2.567-.28c.149-.02.278-.039.388-.039.037-.112.093-.262.148-.412.203-.526.37-1.089.499-1.708.074-.45.129-.9.129-1.313a8.95 8.95 0 0 0-.13-1.576c-.184.038-.368.074-.516.112-.72.188-1.127.263-1.22.263h-.184c-.129-.018-.24-.112-.351-.282a.73.73 0 0 1-.13-.43c0-.244.112-.452.352-.64.48-.149 1.237-.337 2.29-.562a1.09 1.09 0 0 1 .259-.075h.037c.35-.057.739-.131 1.164-.225a6.93 6.93 0 0 1 .96-.094.878.878 0 0 1 .462.226c.11.187.166.356.166.469 0 .187-.166.375-.462.525-.406.112-.868.225-1.422.356M122.698 12.63c.017-.342.197-.558.554-.63l2.274.593c.304.073.465.198.465.36-.054.413-.5.612-1.342.612-.394 0-.913-.073-1.593-.234-.25-.09-.358-.324-.358-.701zm.573 5.357c.143.521.25 1.168.322 1.923.036.648.071 1.133.071 1.456v1.6c-.018.576-.035.99-.035 1.277-.09.395-.287.575-.59.575-.324 0-.466-.162-.466-.503 0-.198-.018-.467-.036-.827v-1.564c0-.593-.072-1.348-.215-2.283-.072-.36-.125-.701-.179-1.007-.107-.252-.143-.431-.143-.54 0-.18.09-.36.304-.503.107-.072.269-.107.448-.107.25 0 .43.18.519.503zm4.832-3.146c-.287.323-.824.682-1.61 1.06.107.396.16.935.16 1.6a30.11 30.11 0 0 1-.34 4.35 30.267 30.267 0 0 1-.555 3.003c.215-.018.43-.036.645-.072.537-.09 1.038-.162 1.52-.215.43-.037.824-.072 1.182-.072.519.035.824.233.895.593 0 .395-.215.63-.627.72-.322.035-.68.089-1.055.16-.465.055-.985.126-1.522.199-1.056.161-2.13.34-3.22.539-1.003.162-1.916.36-2.775.594-.322.053-.591.089-.77.089-.16 0-.286-.144-.375-.396-.037-.107-.037-.287-.037-.539.055-.234.412-.431 1.093-.575.518-.18 1.199-.341 2.022-.485.537-.09 1.055-.198 1.557-.324.107-.018.233-.036.358-.055.125-.736.268-1.546.412-2.408a34.04 34.04 0 0 0 .375-4.495v-.43c0-.36-.053-.72-.125-1.061l-.036-.18c-.25.108-.483.198-.716.288-1.055.395-2.04.737-2.971 1.042-.304.09-.519.143-.626.162a4.44 4.44 0 0 1-.627.054c-.322 0-.5-.234-.537-.665 0-.198.144-.378.466-.522.179-.053.412-.126.698-.234a41.32 41.32 0 0 0 3.364-1.096c1.558-.575 2.775-1.08 3.634-1.528.178 0 .304.072.376.216a.453.453 0 0 1 .035.18c0 .16-.089.323-.268.503zm-11.562 8.647c-.43.341-.787.665-1.055.97a6.18 6.18 0 0 0 1.79 1.636 61.849 61.849 0 0 1-.144-1.94c-.036-.36-.054-.738-.072-1.097l-.519.43zm1.629-7.766c0 1.347.018 2.606.053 3.757 0 .503 0 .953.018 1.384.18-.108.376-.197.555-.287.144-.055.233-.09.305-.09.107 0 .179.053.25.126.054.072.09.18.09.323-.018.072-.054.143-.09.216-.09.18-.447.503-1.073.97.017 1.097.07 2.086.16 2.967.072.772.125 1.492.18 2.139 0 .504-.251.773-.752.773-.358-.036-1.02-.611-2.023-1.69-.447-.431-.877-.809-1.288-1.169-.376-.269-.555-.556-.555-.862 0-.09.125-.27.412-.54.358-.45 1.02-1.007 2.022-1.671.197-.144.394-.288.572-.432a83.105 83.105 0 0 1-.035-2.175c-.036-1.15-.054-2.284-.054-3.362-.215.072-.43.126-.644.162-.25.036-.483.072-.698.072h-.197c-.358-.036-.519-.234-.519-.576v-.323c.053-.216.25-.396.573-.575.107.018.25.018.411.018a5.7 5.7 0 0 0 1.074-.108c0-.576.018-1.115.054-1.637.054-.412.268-.628.662-.628.43 0 .662.197.662.557-.054.504-.09.953-.107 1.384.25-.072.483-.144.733-.252.108-.035.18-.054.251-.09.125 0 .269.036.447.108.18.127.287.252.287.36 0 .09-.054.198-.126.324-.106.143-.25.27-.428.341-.359.18-.752.342-1.182.486zM138.788 14.527c-.5 1.978-.807 4.502-.922 7.574-.039.678-.29.998-.77.998a.677.677 0 0 1-.538-.226.689.689 0 0 1-.211-.527c0-.113 0-.395.038-.848.02-.527.077-1.47.173-2.789.134-1.658.308-2.902.538-3.711a.947.947 0 0 1-.057-.321c0-.132.038-.396.154-.773.057-.226.211-.452.442-.64.211-.17.423-.264.653-.264.193 0 .366.094.5.264a.89.89 0 0 1 .212.547 9.388 9.388 0 0 0-.212.716M137.116 27c-.27 0-.5-.15-.711-.414-.27-.17-.405-.472-.405-.886 0-.264.097-.471.327-.66a.955.955 0 0 1 .692-.283c.116 0 .25.057.442.17.327.189.5.584.5 1.169 0 .602-.288.904-.845.904M66.878 51.74c-.893-.371-1.706-.946-2.44-1.69-.138-.148-.258-.297-.356-.409 0-.111.198-.167.634-.167.476 0 1.19.316 2.162.929.04-.093.06-.297.06-.594 0-1.003-.06-2.266-.14-3.845-.119-1.671-.158-3.417-.158-5.237 0-.743.02-1.56.1-2.452v-1.059c0-.223-.06-.538-.14-.928.1-.28.297-.465.576-.576h.337c.397.111.615.465.615 1.058v1.245c-.02.892-.02 1.728-.02 2.507 0 .966 0 1.84.04 2.6 0 .837.039 1.84.118 3.028.12 2.229.199 3.919.199 5.07-.04.502-.239.762-.636.78-.316 0-.633-.092-.95-.26m-5.337-9.25c.476-.742.774-1.336.913-1.744.06-.224.099-.39.099-.484-.218-.37-.694-.575-1.448-.575a8.3 8.3 0 0 0-1.963.316h-.08c.06.092.099.167.14.24.237.632.356 1.635.356 3.01v.26c.317-.13.615-.26.853-.372a8.437 8.437 0 0 0 1.011-.501c.04-.038.08-.093.12-.15m2.577-.556a10.63 10.63 0 0 1-1.943 1.727c-.912.669-1.805 1.17-2.638 1.505-.02.036-.04.036-.04.036a.81.81 0 0 1-.138.187.604.604 0 0 1-.437.167c-.218 0-.357-.093-.436-.316-.198-.483-.317-1.635-.377-3.454-.06-.595-.337-1.17-.833-1.728-.119-.074-.159-.204-.159-.371 0-.223.099-.41.317-.595.16-.092.357-.148.596-.148.119 0 .258.037.397.074 0 .018.02.037.02.037.078-.186.238-.334.495-.446a7.578 7.578 0 0 1 1.943-.241c.675 0 1.29.093 1.845.279.755.334 1.15.928 1.15 1.8-.039.261-.118.521-.197.781l.04-.019a.427.427 0 0 1 .217-.055c.14.037.238.093.317.167.02.056.04.13.04.204a.834.834 0 0 1-.179.41m.219-6.204a48.857 48.857 0 0 1-4.344.947c-.634.074-1.25.13-1.844.148h-.556c-.397-.037-.595-.26-.595-.631v-.316c.079-.241.298-.445.654-.613.159.019.318.019.497.019 1.25 0 2.598-.167 4.046-.52a35.397 35.397 0 0 0 5.037-1.486c.279-.111.497-.204.676-.279.198 0 .436.056.674.168.277.167.416.315.416.445s-.06.279-.178.465a1.555 1.555 0 0 1-.615.427c-1.11.445-2.4.854-3.868 1.226M89.524 49.928c-.147 0-.367-.072-.642-.197-.476-.341-.99-.772-1.503-1.275a17.902 17.902 0 0 1-3.244-3.825 1.048 1.048 0 0 1-.202-.324 28.43 28.43 0 0 1-1.062 1.922 14.868 14.868 0 0 1-2.218 2.838c-.33.286-.66.556-.99.807a1.626 1.626 0 0 1-.567.126c-.239-.018-.367-.162-.386-.449 0-.126.11-.27.33-.431a16.78 16.78 0 0 0 2.2-2.604c1.832-2.891 3.225-6.338 4.142-10.361.128-.61.256-1.185.384-1.76.074-.251.275-.395.642-.395.349.072.532.27.568.575 0 .251-.073.736-.201 1.454a37.318 37.318 0 0 1-1.943 6.285c-.092.216-.184.431-.276.629.11.036.22.072.294.125.147.234.33.486.532.736a25.014 25.014 0 0 0 2.547 3.197 131.4 131.4 0 0 1 1.613 1.67c.293.216.458.467.458.772 0 .234-.128.395-.348.485h-.128zm-10.319-8.242c-.33-.467-.678-.916-1.008-1.347a.495.495 0 0 1-.11-.323v-.18a.802.802 0 0 1 .257-.467c.11-.09.257-.143.403-.18.073 0 .146.018.22.018.129.037.238.072.33.126.513.45 1.283 1.617 2.31 3.52.238.467.384.898.42 1.257 0 .395-.182.592-.531.592-.165 0-.33-.09-.513-.305-.238-.305-.531-.753-.88-1.329-.018-.036-.036-.053-.055-.089-.568 1.436-1.594 2.783-3.079 4.04-.55.467-1.08.7-1.594.736-.44-.072-.715-.358-.807-.897-.018-.27-.018-.647-.018-1.131 0-1.365.037-2.767.11-4.167 0-1.185-.147-2.19-.422-3.034A4.014 4.014 0 0 1 74 37.322v-.25c.074-.324.311-.504.678-.522.22 0 .404.09.587.251.495.88.75 2.676.75 5.388 0 1.15-.054 2.532-.127 4.13.843-.61 1.668-1.563 2.456-2.855.238-.378.458-.844.642-1.419a1.03 1.03 0 0 1 .22-.36zM108.636 50.8c-.683-.294-1.31-.75-1.9-1.336a17.59 17.59 0 0 1-.33-.383c0-.128.183-.183.588-.183.333 0 .831.183 1.494.548.037-.11.055-.31.055-.603 0-.859-.036-1.992-.11-3.382a62.16 62.16 0 0 1-.148-4.625c0-1.133.02-2.375.093-3.728V35.48c0-.22-.055-.513-.129-.878a.909.909 0 0 1 .553-.603h.295c.369.11.571.475.571 1.06v1.865c-.017 1.316-.017 2.54-.017 3.71 0 .86 0 1.646.036 2.34 0 .75.037 1.664.11 2.724.13 2.01.203 3.51.203 4.552-.036.475-.24.73-.608.749a1.74 1.74 0 0 1-.756-.2m-2.692-12.376c.092.365.166.84.24 1.407.037.457.055.805.055 1.06 0 .33-.018.64-.037.933-.056.31-.11.548-.148.694-.073.439-.295.64-.645.64-.35 0-.516-.164-.516-.53 0-.073.018-.219.055-.402 0-.274.018-.512.018-.695 0-.42-.073-.968-.184-1.664-.037-.237-.092-.475-.129-.73-.073-.274-.11-.457-.11-.567 0-.22.092-.403.313-.548.148-.074.295-.128.48-.128.294 0 .497.182.608.53m-4.13 2.486c.018-1.737.073-3.455.165-5.137 0-.329-.073-.493-.184-.512a7.5 7.5 0 0 0-1.29.11c0 .037.018.073.018.11a70.491 70.491 0 0 0-.11 3.345l-.038 2.504c.517-.146.996-.274 1.439-.42m-2.95.823c.165-.038.331-.092.497-.128l.018-2.066c0-1.244.019-2.578.074-4.022l-1.328.33c.038.145.056.31.056.456 0 .53-.037 1.444-.092 2.724a88.137 88.137 0 0 0-.129 2.906c.295-.054.609-.128.904-.2M97 42.17v-.31c0-1.097.018-2.286.055-3.528 0-.622.019-1.299.019-2.03-.019-.055-.019-.11-.019-.164-.424.146-.848.292-1.253.438a36.47 36.47 0 0 0-.092 2.541l-.093 3.199v.183l1.383-.329m3.927 7.11a1.563 1.563 0 0 1-.165-.64c.074-.164.165-.236.295-.236.184.182.46.438.811.767a36.603 36.603 0 0 1-.037-1.645 208.92 208.92 0 0 1-.037-3.985v-1.298c-.442.165-.922.33-1.438.476a88.908 88.908 0 0 1-.074 2.833c-.055 1.974-.203 3.436-.424 4.405-.092.293-.258.457-.48.457-.221 0-.313-.146-.313-.44.11-1.169.203-2.448.24-3.892l.037-3.07a.505.505 0 0 1-.221.054c-.407.128-.812.238-1.18.347 0 .567-.02 1.243-.02 2.047 0 .566.02 1.152.02 1.737a.53.53 0 0 1-.13.347.472.472 0 0 1-.35.182.366.366 0 0 1-.295-.127c-.092-.091-.148-.238-.166-.439-.036-.401-.036-.987-.036-1.736 0-.603 0-1.189.018-1.755-.498.146-.977.274-1.42.384-.019.31-.037.585-.037.822-.092 1.7-.314 2.961-.645 3.766-.111.42-.35.64-.683.64-.258 0-.387-.22-.387-.621a17.9 17.9 0 0 0 .424-3.218l.037-1.133c-.259.036-.48.054-.664.054-.35 0-.553-.255-.608-.749 0-.22.166-.42.535-.603.202-.073.46-.165.774-.238l.073-2.76c0-1.243.038-2.596.111-4.04 0-.475.24-.713.72-.713.202.02.35.073.442.183.664-.274 1.567-.53 2.674-.768.94-.201 1.935-.347 3.005-.456.37-.019.72-.037 1.05-.037.554.073.85.549.85 1.425 0 .732-.056 2.103-.167 4.114-.018.273-.036.548-.036.822.258-.073.498-.164.719-.238a.43.43 0 0 1 .368.183.355.355 0 0 1 .037.165c0 .182-.092.347-.258.53a5.192 5.192 0 0 1-.903.567c-.037.511-.037 1.023-.037 1.554 0 1.022.019 2.21.055 3.528.055 1.662.129 2.796.203 3.38 0 .44-.24.678-.7.696-.628 0-1.144-.548-1.587-1.627M126.641 45.641c.22 0 .421.094.586.243.09.187.256.522.475.99.33.747.695 1.55 1.115 2.464.11.188.183.374.183.58-.036.26-.164.429-.42.503a.978.978 0 0 1-.567-.186c-.348-.318-.896-1.307-1.628-2.951a3.25 3.25 0 0 1-.274-.672.862.862 0 0 1-.092-.392c.019-.299.22-.485.622-.579m-1.243-7.245c.183 0 .31.094.402.262.037.093.055.186.092.261a.596.596 0 0 1-.238.485c-.402.262-.951.542-1.682.822a.7.7 0 0 1 .22.374c.109.373.2 1.026.31 1.923a13.072 13.072 0 0 0 1.956-1.176c.074 0 .128-.02.183-.02.183 0 .33.094.439.244.037.075.055.167.092.261a.636.636 0 0 1-.256.523c-.549.485-1.317.99-2.304 1.475v.037c.036.86.054 1.7.09 2.559.02.597.037 1.12.037 1.605 0 .691-.036 1.176-.073 1.438-.146.485-.384.86-.713 1.12a1.924 1.924 0 0 1-.914.244c-.713 0-1.427-.468-2.158-1.402-.128-.148-.238-.298-.347-.447-.019.037-.019.074-.019.093a7.14 7.14 0 0 1-.365 1.158c-.147.205-.311.317-.494.317-.091 0-.183-.056-.274-.168-.147-.187-.22-.355-.22-.541 0-.13.055-.3.165-.524.073-.485.128-.97.128-1.456 0-.242.018-.56.055-.952 0-.13.055-.224.127-.299.128-.112.366-.186.714-.186.146 0 .274.093.384.243v.933c0 .037-.018.093-.018.13.366.654.73 1.177 1.133 1.57.42.354.786.54 1.097.54.403 0 .604-.504.604-1.512v-1.139c-.036-1.158-.055-2.11-.091-2.82-.44.187-.878.375-1.354.542a9.217 9.217 0 0 1-2.267.504.653.653 0 0 1-.53-.243.767.767 0 0 1-.238-.523c0-.298.128-.485.402-.541.713-.075 1.5-.243 2.377-.523.513-.15 1.006-.336 1.482-.541a83.187 83.187 0 0 0-.22-1.643c-.037-.28-.073-.524-.092-.729 0-.037 0-.093.019-.13-.11.037-.22.075-.311.093-.494.13-.951.205-1.372.224a.734.734 0 0 1-.548-.224.723.723 0 0 1-.256-.541c0-.3.128-.486.402-.542.44-.037.914-.112 1.463-.225 1.06-.205 1.993-.503 2.78-.914.073 0 .127-.019.2-.019m.568-1.045l-1.664-.97a41.06 41.06 0 0 1-1.61-1.103c-.037 0-.055-.018-.055-.038a20.268 20.268 0 0 1-1.243 2.148c-.384.598-.75 1.158-1.097 1.643-.22.336-.457.654-.695.952-.256.336-.457.56-.604.691a.906.906 0 0 1-.512.187c-.146-.074-.22-.168-.22-.299 0-.112.038-.261.11-.448a3.93 3.93 0 0 1 .276-.56c.182-.337.438-.747.767-1.232.439-.673.896-1.4 1.372-2.185.256-.467.512-.952.75-1.457.182-.448.347-.877.457-1.27a.567.567 0 0 1 .53-.41h.2c.293.074.44.317.44.728 0 .056-.018.112-.018.187.109.075.237.168.384.261.475.373 1.243.915 2.267 1.625.548.373.987.691 1.317.933.11.076.182.169.256.243.128.15.2.28.238.392 0 .374-.165.541-.494.541a.91.91 0 0 1-.22-.036c-.2-.075-.512-.243-.932-.523m-10.46 5.228c.366 0 .658-.15.896-.448.22-.262.33-.541.347-.859 0-.187-.548-.43-1.627-.728a.761.761 0 0 1-.494-.486c-.073-.13-.109-.317-.109-.541 0-.113.091-.336.274-.673.292-.522.64-1.176 1.06-1.941.201-.356.311-.58.311-.691-.11-.15-.402-.3-.878-.449-.329-.074-.475-.317-.475-.766.054-.428.274-.653.658-.69.476.037 1.024.224 1.61.542.256.26.402.578.402.933-.037.859-.585 2.11-1.664 3.735.237.037.475.093.694.149.952.3 1.445.691 1.445 1.213 0 .3-.018.542-.055.747-.11.598-.347 1.084-.676 1.438a2.307 2.307 0 0 1-1.72.728c-.474 0-.859-.186-1.17-.541 0 .691.019 1.419.037 2.203v2.913c0 .635-.018 1.159-.018 1.55-.037.71-.183 1.083-.458 1.083-.328 0-.511-.354-.548-1.064a12.314 12.314 0 0 1-.073-1.438c-.018-1.008-.055-2.315-.091-3.921-.037-1.102-.092-2.41-.147-3.903a29.94 29.94 0 0 1-.036-1.68c0-.224.091-.392.31-.542.11-.074.22-.13.366-.13.366 0 .549.224.585.634 0 .356.019.822.037 1.382 0 .616.018 1.195.037 1.737.073.037.128.093.2.13.275.262.604.374.97.374M145.15 35.395c.019 1.123.038 2.096.038 2.9.018 1.011.036 2.04.036 3.07.02 1.327.056 2.674.094 4.04.018 1.497.056 2.845.093 4.098 0 .562-.112.973-.316 1.198-.187.187-.447.299-.763.299-1.004 0-1.916-.58-2.716-1.722a1.69 1.69 0 0 1-.242-.879c.019-.336.205-.486.54-.486.186.037.353.15.502.337.725.935 1.302 1.403 1.748 1.403-.074-1.272-.13-2.77-.186-4.529-.037-1.346-.092-2.825-.13-4.434-.037-1.16-.055-2.151-.093-2.993-.037-.674-.037-1.329-.037-1.965-.707.15-1.432.28-2.176.393-.521.075-1.023.112-1.507.112h-.464c-.373-.037-.54-.262-.54-.636v-.318c.074-.244.26-.45.595-.617.149.018.297.018.465.018 1.004 0 2.101-.13 3.273-.393 1.266-.243 2.623-.617 4.074-1.104.224-.075.41-.131.558-.187.186 0 .39.056.614.15.26.169.39.318.39.467 0 .15-.056.3-.167.469-.15.187-.353.336-.577.43-.892.337-1.916.617-3.106.88m-10.658 11.993c.075.58.168 1.067.28 1.44.278-.112.52-.205.725-.28.279-.15.54-.28.8-.393.148-.112.297-.224.446-.356.28-.298.428-.467.428-.542-.28-.225-.762-.356-1.47-.356-.39 0-.8.038-1.246.075 0 .131.019.262.037.412m-.762-12.443c-.223-.224-.335-.542-.335-.935.093-.188.242-.356.446-.468h.41c1.302.056 2.324.225 3.106.486.186.131.278.281.297.45 0 .374-.148.598-.446.673-1.041-.075-2.213-.131-3.478-.206m4.631 12.405c-.149.375-.39.73-.688 1.086a5.11 5.11 0 0 1-.986.823c-.112.056-.204.112-.278.15-.447.299-.875.542-1.248.693-.036.318-.26.485-.706.485-.223 0-.446-.243-.688-.692-.204-.561-.39-1.272-.558-2.133-.13-.71-.186-1.31-.186-1.777 0-.599.204-.917.632-.936.446 0 .67.187.707.543.335-.038.763-.075 1.283-.094.764.02 1.396.132 1.916.319.596.262.912.58.912.935 0 .187-.038.374-.112.598m-5.821-6.94c0-.375.167-.6.54-.637.483 0 1.915-.281 4.314-.86.335 0 .54.093.595.242 0 .093-.019.187-.019.281a.88.88 0 0 1-.335.355c-.371.244-.855.468-1.45.674-1.098.337-2.12.58-3.088.693-.372 0-.557-.244-.557-.749m4.835 2.19c-.446.355-1.042.691-1.767.991-.818.374-1.6.673-2.362.879a.75.75 0 0 1-.297.075c-.168 0-.317-.093-.428-.28-.112-.15-.15-.375-.15-.674 0-.225.13-.374.373-.487.502-.15.93-.262 1.265-.356.8-.261 1.525-.542 2.176-.804.372-.187.595-.3.67-.336a.731.731 0 0 1 .278-.057.602.602 0 0 1 .447.243c.019.094.037.187.037.28-.018.17-.093.338-.242.525M132 37.304c0-.393.186-.618.595-.674.596 0 2.362-.187 5.301-.599.373 0 .577.113.651.318 0 .075-.019.17-.019.28a.703.703 0 0 1-.335.394c-.446.187-1.04.374-1.784.543-1.34.3-2.605.505-3.795.58-.409 0-.614-.28-.614-.842M162.196 36.004c.431-.11.824-.222 1.177-.331.156-.13.313-.277.47-.461.196-.222.294-.35.294-.406-.353-.35-.921-.534-1.745-.534-.353 0-.745.018-1.137.036a8.5 8.5 0 0 0 .176.812c.078.405.157.737.216 1.013a3.86 3.86 0 0 0 .549-.13m-2.157 3.982c0 .258-.02.626-.02 1.143.098-.02.197-.038.275-.075.431-.092.803-.147 1.098-.147a.696.696 0 0 1 .313.147c.079.11.118.222.118.296 0 .147-.118.257-.314.35-.43.147-.94.295-1.51.442-.02.516-.02 1.069-.02 1.622.315-.11.609-.222.922-.332.53-.221.863-.369 1.02-.405.06-.038.098-.056.138-.056.255-.83.45-1.548.607-2.155.118-.59.196-.996.216-1.236 0-.257-.098-.405-.275-.442-.666 0-1.568.148-2.686.442.078.11.118.259.118.406m5.196-5.142a3.36 3.36 0 0 1-.392.609c0 .036.02.091.02.146a.846.846 0 0 1-.157.332c-.334.259-.765.48-1.275.7-.608.258-1.177.442-1.706.59-.04.332-.216.516-.529.516-.353 0-.53-.147-.55-.442-.038-.406-.136-.903-.313-1.53-.313-.865-.568-1.585-.764-2.155 0-.111.058-.24.175-.388.138-.147.295-.221.451-.221.138 0 .255.018.373.037a.95.95 0 0 1 .333.277c.354-.056.824-.093 1.432-.11.804.017 1.471.128 2 .312.666.258 1 .535 1 .866 0 .148-.039.295-.098.46m-6.667 7.723l-1 .277c-.49.146-.843.257-1.039.294v.387c0 .406-.019.793-.04 1.124 0 .055-.019.093-.019.13.47-.111.902-.221 1.255-.332.314-.074.608-.167.902-.258a23.3 23.3 0 0 1-.059-1.622m-2.137-.535c0 .075 0 .11.04.148.51-.184 1.215-.424 2.097-.682 0-.479-.02-.977-.02-1.511v-.037c-.705.221-1.47.479-2.274.737.078.424.118.867.157 1.345m-.863-5.031c.255-.073.491-.165.687-.257.255-.204.49-.48.725-.83.216-.369.334-.59.334-.682-.353-.258-.962-.405-1.805-.405-.333 0-.666.018-1 .018.08.295.157.626.236 1.014.117.534.196.977.275 1.326.215-.055.391-.11.548-.184m2.922-1.603a4.439 4.439 0 0 1-.412.793c0 .018.02.036.04.036.019.074.038.13.038.185a1.08 1.08 0 0 1-.156.387c-.314.294-.726.57-1.216.847-.588.332-1.137.59-1.647.756-.02.018-.04.018-.059.018-.078.295-.274.443-.55.443-.371 0-.567-.148-.587-.48-.039-.46-.176-1.05-.373-1.75-.352-.995-.627-1.843-.863-2.507a.841.841 0 0 1 .196-.424.629.629 0 0 1 .472-.22c.156 0 .274.018.372.036.157.074.275.148.353.24.333-.037.784-.074 1.352-.092.824.018 1.53.11 2.1.295.685.258 1.038.552 1.038.866 0 .165-.04.35-.098.57m-2.823 10.745c-.354 0-.51-.166-.51-.498.019-.129.039-.313.078-.534.02-.406.04-.737.04-.976 0-.59-.1-1.365-.295-2.305-.078-.368-.157-.7-.235-1.031-.098-.296-.137-.498-.137-.609 0-.202.097-.387.333-.552.157-.093.334-.148.53-.148.176 0 .313.074.43.184.785-.313 1.667-.59 2.648-.847a32.887 32.887 0 0 1 3.666-.81 9.31 9.31 0 0 1 .746-.038c.392 0 .725.11.96.313.275.277.412.59.412.959 0 .737-.157 1.548-.431 2.395-.275.81-.647 1.585-1.137 2.34-.099.185-.196.333-.314.406a.697.697 0 0 1-.373.092c-.196-.018-.314-.129-.353-.332-.51.258-1.098.498-1.745.72 0 .497.02 1.05.06 1.676.117-.018.215-.055.332-.092 1.236-.258 2.765-.608 4.569-1.069.725-.202 1.216-.331 1.47-.369.138 0 .256.019.353.038.157.073.236.184.236.331 0 .295-.098.48-.295.553-.744.59-2.215 1.143-4.45 1.658-.706.148-1.412.278-2.118.407 0 .35.02.681.02.994 0 1.07-.197 1.935-.588 2.6-.177.257-.413.404-.726.404-.451 0-.667-.24-.667-.7.412-.7.628-1.419.667-2.156 0-.314-.02-.608-.02-.885-.706.13-1.392.277-2.098.424-1.058.258-2.098.498-3.078.737-.569.147-.942.221-1.117.221a.67.67 0 0 1-.393-.203.634.634 0 0 1-.137-.331c0-.074 0-.166.02-.24 0-.147.097-.257.274-.33.607-.37 1.667-.702 3.177-.997.842-.147 1.941-.387 3.293-.7-.02-.257-.039-.497-.039-.755-.02-.277-.039-.535-.039-.774a25.41 25.41 0 0 1-2.431.608c-.078.037-.118.037-.137.037a.585.585 0 0 1-.451.184M69.216 121.58c-5.375-.529-3.908-8.552-4.194-12.431-.234-3.182-.581-6.342-.667-9.535-.084-3.13-.186-6.528 3.407-7.697 1.843-.599 4.182-.236 6.09-.094 3.573.267 7.093.635 10.687.462 2.95-.142 5.83-.828 8.778-.97 3.554-.171 7.132-.007 10.688.035 7.19.086 14.508-.283 21.681.247 6.448.478 12.823.717 19.296.75 2.282.013 5.189-.416 6.901 1.522 1.572 1.779.914 5.406.81 7.604-.148 3.071-.549 6.12-.728 9.187-.117 2.03-.005 4.085-.155 6.106-.28 3.794-2.92 3.852-5.919 3.964-3.282.123-6.514.709-9.802.778-7.086.148-14.303.645-21.33-.407-7.715-1.157-15.41.564-23.156.419-7.464-.14-14.923.061-22.387.06-.78 0-.782 1.237 0 1.237 8.038.002 16.069-.113 24.106-.035 4.017.038 7.848-.504 11.829-.797 4.227-.31 8.2.304 12.369.767 4.004.445 8.08.177 12.098.069 4.19-.114 8.332-.073 12.503-.554 2.899-.335 7.327.605 9.57-1.752 2.328-2.447 1.318-7.182 1.512-10.243.236-3.735.698-7.435.781-11.18.075-3.289.025-6.175-3.401-7.511-3.217-1.255-7.59-.493-11.017-.523-4.195-.037-8.297-.134-12.467-.569-8.134-.847-16.549-.278-24.719-.4-4.083-.06-8.218-.271-12.275.29-4.151.574-8.185.875-12.384.56-3.713-.276-8.613-1.638-11.922.593-3.68 2.48-2.759 7.288-2.525 11.162.26 4.292.7 8.534.78 12.839.065 3.575 1.23 6.898 5.162 7.284.775.077.77-1.161 0-1.237"/>
        <path fill="#FFF" d="M110.18 108.41c.145-.019.274-.038.383-.075a29.932 29.932 0 0 0 2.137-.543c.036-.15.128-.3.273-.468.348-1.011.566-1.817.676-2.415.037-.3.055-.525.055-.656-.255-.262-.84-.412-1.735-.412a9.274 9.274 0 0 0-2.117.3c.036.337.072.73.127 1.18.128 1.497.201 2.509.201 3.032v.056zm1.57-5.954c.768 0 1.425.093 2.009.262.822.319 1.241.88 1.241 1.704a8.892 8.892 0 0 1-.821 3.257c.018.094.036.17.036.225a.811.811 0 0 1-.237.505c-.475.281-1.06.543-1.79.806-.858.3-1.68.543-2.446.693a.68.68 0 0 1-.31.093c-.147 0-.275-.093-.385-.281-.109-.15-.163-.374-.163-.655 0-.113.036-.206.09-.281-.018-.038-.018-.094-.018-.131a24.72 24.72 0 0 0-.255-2.34c-.22-1.348-.402-2.453-.585-3.352a.86.86 0 0 1 .22-.449c.128-.169.274-.262.456-.262.164 0 .31.018.42.038.183.074.31.205.383.374a10.56 10.56 0 0 1 2.155-.206zm-4.912.262a.52.52 0 0 1 .457.28c.037.094.054.188.091.282 0 .224-.11.412-.292.561-.876.637-2.228 1.292-4.017 1.948a22.29 22.29 0 0 1-.42 1.516c.073.037.127.056.164.075.95.617 2.392 2.19 4.327 4.737.476.599.768 1.16.84 1.685 0 .355-.146.542-.401.542-.128 0-.274-.093-.439-.262a40.41 40.41 0 0 1-1.643-1.91 47.087 47.087 0 0 0-3.286-3.575c-.018.037-.037.075-.037.093-.347.917-.749 1.966-1.223 3.164-.311.675-.585 1.292-.84 1.835-.274.562-.512.955-.731 1.18a.679.679 0 0 1-.383.131c-.256-.038-.383-.187-.402-.45 0-.186.036-.317.128-.43.164-.356.347-.749.53-1.18.364-.786.747-1.703 1.15-2.733.292-.861.602-1.78.913-2.79.11-.374.22-.749.31-1.123-.073.038-.11.056-.145.056-.95.262-1.845.412-2.648.487a.756.756 0 0 1-.603-.262c-.146-.169-.238-.356-.238-.58 0-.337.128-.525.42-.6a17.754 17.754 0 0 0 2.83-.505c.256-.056.494-.132.731-.206.037-.262.091-.506.146-.768.128-.936.202-1.797.237-2.584a7.199 7.199 0 0 1-1.35.207h-.64a.926.926 0 0 1-.639-.225c-.256-.188-.383-.487-.383-.88 0-.3.018-.656.073-1.105.073-.337.146-.636.237-.918.091-.261.274-.392.566-.411h.128c.402.075.62.318.62.73-.127.824-.182 1.273-.182 1.386 0 .074.091.093.275.093.327 0 1.058-.188 2.172-.562a12.523 12.523 0 0 0 2.374-.973c.365.075.566.28.603.599a.628.628 0 0 1-.256.505c-.584.412-1.333.787-2.246 1.161h-.018c0 .113.018.206.018.3 0 .898-.11 1.89-.292 2.996a16.815 16.815 0 0 0 3.177-1.498c.073 0 .164-.019.237-.019zM128.916 104.01c-.071-.25-.195-.395-.356-.395-.817 0-1.793.216-2.895.628-.017.323-.07.825-.141 1.506-.018.144-.036.25-.036.34.675-.214 1.67-.448 2.984-.716.213-.054.408-.09.585-.108a9.279 9.279 0 0 0-.141-1.255m-3.552 7.458c.355-.018.728-.054 1.136-.107.994-.107 1.883-.269 2.63-.484v-.126c0-.61-.019-1.255-.019-1.936-.356.18-.746.322-1.173.466-.869.323-1.669.556-2.396.681a.655.655 0 0 1-.195.054c0 .502 0 .986.017 1.452m0-3.854c0 .179-.017.61-.017 1.327.39-.09.692-.162.904-.216a27.748 27.748 0 0 0 2.273-.646c.25-.053.444-.107.587-.16 0-.7-.018-1.31-.018-1.83-.693.216-1.599.485-2.734.807-.48.144-.8.234-.96.27-.017.179-.035.322-.035.448m.817-7.871a.371.371 0 0 1-.285.107c-.142 0-.23-.018-.3-.071a1.384 1.384 0 0 1-.25-.233c-.497-.538-.816-.986-.994-1.38-.018-.037-.018-.072-.018-.109 0-.107.054-.232.124-.358.072-.071.16-.162.303-.233a1.22 1.22 0 0 1 .283-.036c.195.018.356.126.48.34l.426.862c.178.358.301.591.337.717v.107a.412.412 0 0 1-.106.287m5.948-.843c.142 0 .25.072.338.198.018.035.036.09.036.16 0 .145-.089.306-.232.485-.585.377-2.112.824-4.598 1.327-.071.017-.143.035-.213.035 0 .09.018.18.018.251 0 .252-.072.592-.196 1.004-.035.09-.053.162-.071.198.462-.09.958-.144 1.456-.18h.515c.284.036.515.252.692.628.124.287.214.771.285 1.434.035.502.088 1.13.124 1.883.036 1.47.09 3.137.16 4.983a.95.95 0 0 1-.214.628.849.849 0 0 1-.621.323c-.32 0-.479-.16-.479-.466-.569.197-1.368.394-2.398.592-.48.071-.923.107-1.331.143-.053 0-.09-.018-.125-.018-.018.018-.036.036-.036.072-.16.125-.32.197-.478.197a.495.495 0 0 1-.356-.143c-.106-.126-.178-.323-.196-.574a47.074 47.074 0 0 1-.052-2.546c0-.771 0-1.47.034-2.097 0-.646.036-1.327.09-2.044 0-.359.018-.753.018-1.183a8.521 8.521 0 0 1-.054-.377c-.018-.072-.018-.18-.018-.287 0-.126.072-.233.195-.323.178-.143.339-.233.516-.233.195 0 .355.072.462.215.142-.071.283-.143.426-.197 0-.036.017-.09.035-.125.035-.18.124-.413.248-.736a3 3 0 0 0 .126-.77c-.853.16-1.67.305-2.434.448-.373.054-.64.09-.781.125-.213.036-.409.036-.586.036-.32 0-.498-.215-.532-.645 0-.18.142-.341.46-.503.161-.035.374-.107.658-.196a95.434 95.434 0 0 0 4.35-.718c.355-.448.622-.878.835-1.29.178-.502.285-.933.303-1.29a.666.666 0 0 1 .585-.324c.355.036.533.251.569.681 0 .18-.036.36-.072.502-.178.502-.39.987-.674 1.435a68.611 68.611 0 0 0 3.213-.718m-11.933 3.712c-.159 0-.32-.09-.497-.287-.355-.323-.817-.574-1.42-.753-.143-.036-.213-.072-.25-.108a1.4 1.4 0 0 1-.052-.43c0-.071 0-.161.017-.251.072-.287.32-.43.71-.448.285 0 .586.107.925.304.283.18.586.448.887.844.071.142.125.322.125.52-.036.411-.178.609-.445.609m.906 9.663c1.35.502 2.842.897 4.511 1.219.604.108 1.278.197 2.024.251.604.054 1.136.09 1.616.09.39 0 .835-.018 1.297-.054.372-.036.78-.09 1.225-.143.354-.054.585-.072.728-.072.302 0 .462.072.497.251 0 .107-.054.215-.125.34a.91.91 0 0 1-.337.287c-1.171.359-2.61.556-4.315.556-2.558 0-5.487-.627-8.791-1.846a11.477 11.477 0 0 1-1.562-.718c-.302-.18-.55-.34-.764-.484a.71.71 0 0 1-.106-.412c0-.215.088-.394.266-.573a.533.533 0 0 1 .409-.162c.106 0 .23.036.372.108.16.072.339.161.551.25.302-.43.479-1.039.515-1.829 0-.214-.106-.483-.32-.77-.16-.251-.23-.485-.23-.7 0-.358.178-.77.532-1.272.142-.18.213-.323.213-.43-.018-.252-.106-.556-.249-.88-.16-.25-.318-.537-.496-.86.018-.358.248-.555.674-.555.16.018.32.09.48.233.498.502.746 1.111.746 1.846 0 .449-.23 1.077-.675 1.883.32.538.497 1.112.497 1.739 0 .86-.214 1.541-.64 2.08.48.215.96.43 1.457.627M141.787 100.527c-.499 1.978-.807 4.502-.921 7.574-.039.678-.29.998-.77.998a.677.677 0 0 1-.539-.226.689.689 0 0 1-.211-.527c0-.113 0-.395.038-.848.02-.527.078-1.47.173-2.789.135-1.658.308-2.902.539-3.711a.947.947 0 0 1-.058-.321c0-.132.039-.396.155-.773.057-.226.211-.452.442-.64.211-.17.423-.264.653-.264.193 0 .365.094.5.264s.212.358.212.547a9.339 9.339 0 0 0-.213.716M140.116 113c-.27 0-.5-.15-.712-.414-.27-.17-.404-.472-.404-.886 0-.264.097-.471.326-.66a.957.957 0 0 1 .692-.283c.117 0 .25.057.443.17.327.189.5.584.5 1.169 0 .602-.288.904-.845.904"/>
        <g transform="translate(64 91)">
            <mask id="d" fill="#fff">
                <use xlink:href="#c"/>
            </mask>
            <path fill="#FFF" d="M90.968 5.878c-.89-.903-3.764-5.703-5.124-5.703 1.555.839 3.538 2.371 3.538 4.282 0 10.235-.093 10.235-.093 20.471 0 2.756-2.512 4.487-5.23 4.487-6.586 0-6.586.962-13.172.962s-6.586-.873-13.171-.873c-6.586 0-6.586-.057-13.172-.057s-6.586.035-13.171.035c-6.587 0-6.587-.007-13.174-.007s-6.587.613-13.174.613c-1.986 0-3.778-.9-4.557-2.618 0 1.57 4.371 4.733 5.49 5.647.844.692 1.734 1.247 2.904 1.247 6.586 0 6.586-.49 13.171-.49 6.586 0 6.586.09 13.171.09C41.79 33.964 41.79 35 48.376 35s6.586-.112 13.171-.112c6.587 0 6.587-.136 13.174-.136s6.587-.316 13.174-.316c2.719 0 5.503-2.215 5.503-4.97 0-10.236-.194-10.236-.194-20.472 0-1.378-1.345-2.212-2.236-3.116" mask="url(#d)"/>
        </g>
        <path fill="#FFF" d="M79.478 111.883c-1.034-.16-1.985-.695-2.866-1.249-.412-.26-.892-.732-1.436-.616-.892.191-1.268 1.851-1.157 2.617.19 1.315 1.398 1.363 2.442 1.569 2.03.4 3.68 1.727 4.657 3.557.292.546 1.112.06.82-.488-1.019-1.911-2.744-3.373-4.834-3.912-.441-.114-1.143-.072-1.542-.271-.84-.42-.74-2.095.195-1.866.543.133 1.216.748 1.747 1.005.56.27 1.105.49 1.72.586.6.092.856-.838.254-.932"/>
        <path fill="#FFF" d="M79.97 108.957c.723.493 1.257 1.372 1.121 2.38-.13.96-.833 1.632-1.664 1.642-.569.006-.57 1.027 0 1.021 1.184-.013 2.255-.953 2.513-2.314.28-1.472-.449-2.877-1.525-3.612-.49-.334-.936.548-.446.883"/>
        <path fill="#FFF" d="M84.913 106.797c-2.418-3.607-7.572-3.92-9.689.208-.624 1.219-1.973 4.526-.688 5.694.41.373.847.386 1.324.112.47-.27.534-.625.785-1.092.96-1.782 2.087-3.06 4.221-2.165.556.233.796-.743.246-.974-1.336-.56-2.725-.45-3.886.532-.483.409-.681.932-1.086 1.401-.404.47.17.359-.666.541-.815.178-.414-.533-.256-1.247.455-2.059 1.432-3.91 3.35-4.608 1.992-.727 4.327.287 5.547 2.107.348.518 1.15.016.798-.509"/>
        <path fill="#FFF" d="M79.259 103.404c-1.504-2.07-3.105-4.24-3.317-6.848l-.345.44c1.442-.57 3.985 2.932 4.715 3.835 1.028 1.27 2.094 2.468 2.824 3.935.263.53 1.075.066.812-.462-.961-1.934-2.51-3.728-3.962-5.335-.95-1.051-2.942-3.527-4.64-2.855-.181.072-.362.227-.345.442.227 2.791 1.829 5.083 3.445 7.31.347.478 1.163.021.813-.462M81.2 93.956c1.293 1.006 1.826 4.216 2.334 5.807.52 1.634 1.04 3.267 1.573 4.896.197.601 1.062.341.864-.267-.743-2.267-1.459-4.545-2.188-6.818-.511-1.593-.83-3.472-2.132-4.485-.474-.369-.922.5-.451.867"/>
        <path fill="#FFF" d="M81.86 101.37l-.574-3.445c-.053-.316-.84-4.134.138-3.91.578.132.826-.837.244-.97-3.148-.718-.914 7.29-.697 8.592.106.636.995.366.889-.267M86.034 97.555c2.364 6.018 3.515 12.582 4.044 19.002.049.588.969.594.92 0-.537-6.51-1.68-13.15-4.077-19.248-.215-.546-1.105-.308-.887.246M83.828 98.492c.02-.381.02-.765.036-1.147.011-.298-.02-.958.144-1.2.416-.614 1.13 1.782 1.241 2.113.209.623.921.086.714-.533-.39-1.16-.993-3.341-2.282-2.56-.836.506-.63 2.358-.68 3.327-.035.679.791.676.827 0M4.52 31.971a257.511 257.511 0 0 0 42.96.254c.69-.054.697-1.023 0-.969a257.511 257.511 0 0 1-42.96-.253c-.695-.062-.69.907 0 .968"/>
        <g transform="translate(0 27)">
            <mask id="f" fill="#fff">
                <use xlink:href="#e"/>
            </mask>
            <path fill="#FFF" d="M5.41 2.208c.533.497.523 1.827.61 2.466.124.899.203 1.8.27 2.703l.837-.464C6.44 6.461 5.71 6.108 4.9 5.905c-.92-.232-2.23-.023-1.621-1.352.702-1.532 2.934-2.1 3.953-3.449C7.553.678 6.91.057 6.469.37 4.388 1.838 2.343 3.35.263 4.82c-.399.28-.336.813.132.981a46.774 46.774 0 0 1 6.299 2.804c.4.214.79-.067.838-.464.309-2.53.257-5.021-.14-7.539-.087-.543-.943-.479-1.075 0A44.51 44.51 0 0 0 5.222 5.83l1.094.143c-.101-.962-.2-1.924-.302-2.886-.05-.476-.77-.798-1.038-.27a7.249 7.249 0 0 0-.774 2.511h1.113a5.312 5.312 0 0 0-.166-2.103c-.131-.472-.755-.495-1.018-.128-.45.63-.671 1.203-.802 1.953l.93-.236c-.274-.247-.557-.484-.832-.73-.525-.47-1.315.287-.788.76.275.245.558.483.833.729.28.25.857.184.93-.237.113-.64.31-1.162.691-1.697l-1.018-.128c.192.686.202 1.14.127 1.817-.077.688 1.033.678 1.113 0 .089-.742.284-1.301.623-1.97L4.9 3.088c.102.96.2 1.923.302 2.885.058.546.997.792 1.095.143.265-1.764.62-3.505 1.094-5.228H6.317c.382 2.418.397 4.826.101 7.253l.839-.464A48.678 48.678 0 0 0 .69 4.766l.134.981C2.905 4.28 4.95 2.766 7.03 1.297L6.269.562c-.813 1.077-2.225 1.581-3.186 2.534-.599.595-1.494 1.532-1.436 2.422.04.623.436.983 1.036 1.156.542.156 1.138.11 1.692.219.802.157 1.519.506 2.19.948.339.222.867-.07.838-.464a42.09 42.09 0 0 0-.374-3.469c-.134-.857-.158-1.832-.831-2.46-.515-.481-1.304.277-.788.76" mask="url(#f)"/>
        </g>
        <path fill="#FFF" d="M186.513 2.999c8.157-.472 16.285-1.304 24.457-1.586 8.167-.283 16.343-.383 24.515-.463.686-.006.688-.957 0-.95-8.172.08-16.348.18-24.515.462-8.172.283-16.3 1.114-24.457 1.586-.681.04-.686.99 0 .95M188.49 15.999c5.004-.311 10.016-.464 15.02-.775.65-.04.655-1.263 0-1.223-5.004.311-10.016.464-15.02.775-.65.04-.655 1.264 0 1.223M190.524 28c13.324-.54 26.628-1.428 39.952-1.968.697-.029.7-1.06 0-1.031-13.324.54-26.628 1.428-39.952 1.967-.697.029-.7 1.06 0 1.031M192.505 48.851c6.005.288 11.996.161 17.992-.404.668-.063.673-1.508 0-1.445a126.86 126.86 0 0 1-17.992.404c-.674-.032-.673 1.413 0 1.445M185.513 59.999a379.937 379.937 0 0 1 31.972-.851c.686.01.687-1.094 0-1.105a379.937 379.937 0 0 0-31.972.851c-.681.047-.686 1.152 0 1.105"/>
    </g>
</svg>
