<svg xmlns="http://www.w3.org/2000/svg" xmlns:xlink="http://www.w3.org/1999/xlink" width="160" height="160" viewBox="0 0 160 160">
    <defs>
        <path id="a" d="M.432.005h47.094v47.028H.432z"/>
        <path id="c" d="M0 .036h6.563v.75H0z"/>
    </defs>
    <g fill="none" fill-rule="evenodd">
        <path fill="#FF5D7F" d="M35.412 123.604c.149 9.882.658 19.76 1.527 29.603.09 1.022.217 3.92.907 4.677.669.736 2.295-.106 3.286-.033 28.882 2.146 53.595-.95 80.507 2.209 2.365-13.484 3.285-28.522 1.55-42.1-30.066-2.643-57.733-3.252-87.789-.492 0 1.255-.116 2.355.073 3.797"/>
        <path fill="#FF5D7F" d="M35.038 123.604c.175 10.584.22 21.549 1.754 32.04.493 3.368 1.463 2.726 4.34 2.582 2.668-.132 5.518.364 8.2.483 2.854.126 5.71.211 8.567.265 21.26.4 42.557-.962 63.74 1.46.148.017.336-.128.362-.275 2.393-13.91 3.282-28.157 1.562-42.2-.027-.215-.152-.355-.374-.374-29.235-2.546-58.538-3.137-87.789-.491-.204.018-.37.156-.374.374-.021 1.277-.041 2.524.072 3.797.042.477.792.48.75 0-.227-2.545-.268-3.447 2.51-3.683a422.738 422.738 0 0 1 19.211-1.198c8.186-.326 16.38-.413 24.57-.285 8.223.128 16.441.473 24.648.99 4.09.258 8.178.558 12.262.893.816.067 2.233-.09 2.954.249 1.3.61 1.049 1.69 1.165 2.886.208 2.142.35 4.29.438 6.44.31 7.66-.065 15.344-.95 22.956-.266 2.285-.58 4.564-.942 6.835-.452 2.842-2.094 2.096-4.48 1.873-3.979-.373-7.968-.627-11.96-.79-15.598-.64-31.209.076-46.81-.196-4.6-.08-9.199-.241-13.791-.52-1.613-.097-3.483.147-5.033-.033-2.607-.302-2.162-2.53-2.327-4.475-.835-9.852-1.363-19.715-1.526-29.603-.008-.481-.757-.483-.75 0"/>
        <path fill="#FFF" d="M57.995 131.921c-.018-3.169-3.144-5.132-6.093-4.024-4.53 1.702-4.85 7.342-4.636 11.414.205 3.909.576 9.097 4.838 10.718 3.56 1.355 7.022-.771 8.194-4.202.15-.436-.542-.624-.69-.19-1.315 3.848-6.087 5.522-9.165 2.513-1.975-1.932-2.19-5.224-2.392-7.787-.183-2.31-.32-4.849.309-7.106.363-1.303.976-2.567 1.97-3.51 2.303-2.183 6.925-1.903 6.949 2.174.002.461.718.462.716 0M64.871 127.598c-.323 7.41.43 14.73 2.243 21.92.113.447.804.258.691-.19a75.092 75.092 0 0 1-2.218-21.73c.02-.461-.696-.46-.716 0M77.102 137.984c-6.437.136-5.677 11.924.958 10.96 2.715-.394 4.704-3.098 4.5-5.798-.102-1.365-.795-2.624-1.805-3.531a5.658 5.658 0 0 0-1.475-.954c-.296-.131-2.308-.402-2.43-.58-.26-.377-.88-.02-.619.362.626.911 2.257.552 3.211 1.102 2.309 1.33 3.078 4.244 1.683 6.52-1.468 2.394-4.934 3.068-6.708.686-1.893-2.54-1.28-7.967 2.685-8.051.46-.01.462-.726 0-.716M90.488 138.78c-1.466-.781-5.223-1.69-4.957 1.268.12 1.35 1.37 2.049 2.41 2.656.93.543 1.789 1.145 2.497 1.968.523.608.9 1.575.357 2.35a4.09 4.09 0 0 1-1.56.23c-.57.06-1.043-.188-1.42-.742.346-.305-.162-.81-.507-.506-1.884 1.662 3.359 2.78 4.544 1.18.743-1.002-.258-2.274-.907-3.018a9.445 9.445 0 0 0-2.14-1.796c-.468-.292-1.041-.483-1.445-.867-1.197-.616-.822-1.56 1.126-2.834a8.121 8.121 0 0 1 1.64.73c.407.216.77-.402.362-.62M95.86 142.893c1.512.1 3.56.786 4.846-.43.776-.735.79-1.826.307-2.73-1.438-2.688-5.01-1.917-6.541.201-1.782 2.465-1.217 6.078 1.74 7.27 1.858.75 3.877.348 5.697-.303 1.093-.39 2.556-.735 2.474-2.123-.028-.457-.745-.46-.717 0 .086 1.427-3.982 2.109-5.072 2.124-2.427.036-4.62-1.48-4.431-4.128.169-2.367 2.615-5.077 5.147-3.742 1.58.832 1.343 3.277-.629 3.432-.88.069-1.916-.228-2.82-.288-.46-.03-.459.686 0 .717M113.388 139.8c-1.659-2.227-4.115-4.05-6.324-1.353-1.842 2.25-2.06 6.46.32 8.439 7.667 6.368 7.377-15.683 7.127-18.376-.034-.372-.617-.521-.703-.095-.602 3.012-.852 6.037-.875 9.11-.021 2.798-.328 6.036.42 8.767.385 1.403 1.277 2.9 2.765 3.333.565.164 1.377.346 1.55-.375.108-.448-.582-.64-.69-.191-1.61-.32-2.588-1.305-2.934-2.957a15.261 15.261 0 0 1-.294-2.89c-.089-1.51-.094-3.037-.1-4.55-.016-3.39.183-6.725.849-10.057l-.704-.095c.385 4.159.299 8.312-.415 12.435-.129.746-.256 1.51-.45 2.242-.67 2.529-.389 2.364-3.547 1.747-2.226.461-3.228-.256-3.008-2.152l.193-1.67.625-1.562c2.614-1.753 4.473-1.548 5.576.613.272.365.895.008.619-.362M56.92 122.069c-.07-.522.626-.49.52-.16-.033.104-.254.13-.338.136-.235.016-.585-.101-.62-.372-.076-.573 1.113-.774 1.155-.104.055.88-1.205 1.016-1.306.088-.094-.859.952-1.04 1.441-.477.605.696-.384 1.835-1.164 1.351-.599-.37-.682-1.38.07-1.609.535-.163 1.281.109 1.42.692.209.875-.844 1.58-1.614 1.394-.468-.114-.668.608-.2.722 1.254.303 2.702-.721 2.575-2.08-.106-1.13-1.41-1.763-2.431-1.436-1.213.39-1.337 1.94-.471 2.754 1.007.948 2.65.147 2.75-1.176.094-1.253-1.43-2.129-2.487-1.472-.97.602-.794 2.267.26 2.68 1.125.438 2.356-.955 1.747-2.014-.54-.94-2.143-.679-2.447.333-.363 1.212 1.394 1.96 2.19 1.12.49-.517.152-1.315-.484-1.522-.723-.236-1.412.428-1.316 1.152.063.47.813.477.75 0M103.626 121.86c.139.058.306-.059.503.02a.803.803 0 0 1 .379.335c.227.403-.158.683-.54.662-.386-.022-.765-.28-.71-.706.067-.53.673-.874 1.167-.754l-.275-.36c-.023.42-.188 1.083-.676 1.196-.19.044-.39-.052-.509-.201-.2-.256-.025-.407.238-.51.462-.183 1.153-.198 1.415.312.211.41-.223.974-.58.554-.312-.368-.84.164-.529.53.667.786 1.948.17 1.938-.8-.013-1.307-1.524-1.697-2.54-1.284-.465.19-.852.553-.785 1.095.056.455.43.846.855.993 1.177.409 1.868-.917 1.922-1.886a.378.378 0 0 0-.275-.361c-1.076-.263-2.393.696-2.086 1.885.243.939 1.51 1.348 2.293.807.916-.634.418-1.912-.505-2.23-.419-.145-.933-.064-1.228.292-.339.411-.126.944.33 1.134.443.185.638-.54.198-.723"/>
        <g transform="translate(56.555 74.74)">
            <mask id="b" fill="#fff">
                <use xlink:href="#a"/>
            </mask>
            <path fill="#FF5D7F" d="M1.182 46.595a400.337 400.337 0 0 1 10.02-23.274 392.181 392.181 0 0 1 8.06-16.195c.674-1.279 1.633-4.366 2.813-5.2l3.987.038c.483.524.886 1.1 1.21 1.726.458.78.826 1.617 1.227 2.428a609.665 609.665 0 0 1 7.875 16.557 620.405 620.405 0 0 1 10.4 24.109c.18.44.905.248.723-.2a623.794 623.794 0 0 0-11.433-26.37 611.925 611.925 0 0 0-6.412-13.446C28.587 4.604 27.06.102 23.975.007c-2.92-.09-4.34 4.803-5.359 6.74a392.307 392.307 0 0 0-6.606 13.13A402.708 402.708 0 0 0 .46 46.396c-.177.45.547.644.722.2" mask="url(#b)"/>
        </g>
        <path fill="#FFF" d="M57.219 131.79l-.944.79c-.244.204-.04.613.253.611l2.752-.017c.286-.002.427-.299.31-.54-.978-1.992-1.392-5.051-3.805-5.902-1.773-.624-4.025.373-5.491 1.343-4.346 2.877-5.83 8.226-5.388 13.193.405 4.556 2.275 9.474 7.225 10.515 1.988.419 4.12.145 5.871-.908.777-.467 1.42-1.03 1.803-1.858.426-.92.291-3.7 1.403-3.897.341-.06.3-.49.086-.655-1.28-.982-2.504-1.07-3.953-.403-.285.13-.198.584.085.653a4.449 4.449 0 0 1 2.107.93c.384.257.743-.363.361-.618a6.65 6.65 0 0 0-2.278-1.002l.086.655 3.23.404.086-.655-1.011.18a.348.348 0 0 0-.25.25c-.39 2.102-.327 4.488-2.472 5.61-2.036 1.065-4.79 1.052-6.834-.004-4.03-2.08-5.098-7.545-4.896-11.692.199-4.058 1.838-8.12 5.452-10.292.672-.404 1.764-1.055 2.566-1.066l3.67 1.504c.335.63.614 1.282.838 1.956.73 1.853.467 1.587-1.553 1.6l.253.61.944-.789c.354-.296-.155-.8-.506-.507M64.66 127.695h2.574l-.095-.704c-1.083.435-1.19 1.208-1.355 2.332-.472 3.189-.35 6.512-.151 9.718.202 3.265-.506 9.729 3.199 11.282l.095-.703a56.377 56.377 0 0 1-4.496-.318l.18.667c1.264-.753 1.457-1.893 1.583-3.3.31-3.457.285-6.977.427-10.445.018-.461-.698-.46-.716 0l-.261 6.383c-.076 1.855.449 5.645-1.394 6.744-.328.196-.154.63.181.667 1.499.166 2.989.272 4.496.318.438.014.44-.558.095-.704-2.988-1.252-2.556-8.473-2.706-11.164-.095-1.731-.984-9.984 1.014-10.786.353-.142.338-.704-.096-.703H64.66c-.461.001-.462.717 0 .716M77.061 138.632c-3.683-1.153-5.546 10.37.03 10.626 5.63.261 5.377-9.922.253-10.31-.46-.034-.457.683 0 .717 4.251.32 4.412 9.589-.459 8.83-4.434-.69-2.231-9.866-.015-9.173.441.138.63-.553.191-.69M90.937 140.063c-.63-2.308-3.782-3.084-4.923-.69-.517 1.082-.265 2.215.536 3.073.53.568 1.242.863 1.857 1.314 1.203.883 2.938 2.25.686 3.619-.175.054-.35.109-.527.162-1.638.53-2.198-.186-1.679-2.147.455-.046.46-.763 0-.717-1.191.12-2.003 1.199-1.468 2.378.704 1.555 2.748 1.495 4.079.926 1.296-.554 1.831-1.734 1.197-3.056-.398-.829-1.187-1.304-1.927-1.784-.552-.357-1.288-.674-1.712-1.202-2.176-2.708 2.347-4.776 3.19-1.686.121.445.812.256.69-.19"/>
        <path fill="#FFF" d="M86.565 145.82c.24.332.408.684.506 1.083.111.447.802.257.691-.19a3.604 3.604 0 0 0-.579-1.256c-.267-.37-.889-.012-.618.362M96.92 139.297c.818-.343 1.693-.737 2.595-.76.797-.02 1.309.21 1.818.82.694.831.921 2.134-.496 2.796-1.484.692-3.99.243-5.504-.051-.45-.089-.643.602-.19.69 1.937.377 6.872 1.27 7.399-1.613.244-1.337-.381-2.623-1.648-3.124-1.402-.555-2.858.003-4.164.552-.42.175-.235.868.19.69"/>
        <path fill="#FFF" d="M97.1 138.592c-1.265.245-1.906 1.96-2.173 3.086-.333 1.406-.006 2.929.834 4.1 1.736 2.424 5.115 2.533 7.314.714.356-.295-.153-.798-.506-.506-1.757 1.452-4.42 1.447-5.982-.31-.677-.763-1.071-1.838-1.079-2.854-.008-.974.61-3.312 1.782-3.54.452-.087.261-.778-.19-.69M108.485 137.576c-1.458 2.019-2.031 5.577-.946 7.887.733 1.558 2.847 3.055 4.3 1.47.31-.338-.195-.846-.506-.505-.993 1.081-2.358.061-2.946-.893-.539-.875-.641-1.866-.63-2.873.02-1.625.386-3.394 1.347-4.724.27-.374-.35-.732-.619-.362"/>
        <path fill="#FF5D7F" d="M129.329 113.929a16.028 16.028 0 0 1 5.213-3.515c.44-.183.247-.909-.199-.723a16.963 16.963 0 0 0-5.544 3.708c-.34.342.19.872.53.53M134.188 117.576a17.97 17.97 0 0 1 4.852-1.76c.471-.098.272-.82-.2-.722-1.766.37-3.44.983-5.03 1.834-.425.229-.047.875.378.648M22.264 114.05c1.17-.22 2.314-.086 3.414.36.446.18.641-.544.199-.723-1.228-.497-2.514-.604-3.812-.359-.473.09-.273.812.2.722"/>
        <g transform="translate(20 120.884)">
            <mask id="d" fill="#fff">
                <use xlink:href="#c"/>
            </mask>
            <path fill="#FF5D7F" d="M.362.785h5.84c.48 0 .481-.749 0-.749H.361c-.482 0-.483.75 0 .75" mask="url(#d)"/>
        </g>
        <path fill="#FFF" d="M47.92 131.391c-1.836 1.854-1.913 4.4-2.075 6.876-.203 3.1-.133 6.421 1.643 9.11 2.666 4.038 8.36 4.175 11.624.834.33-.338-.156-.79-.507-.506-2.034 1.64-4.296 3.168-7.045 1.966-1.517-.662-2.592-2.804-3.263-4.222-1.649-3.48-2.515-7.241-1.076-10.94l-.704-.095c-.562 4.548-1.012 9.664 2.043 13.49 2.193 2.747 5.689 3.887 8.844 2.138.404-.224.043-.842-.361-.619-4.294 2.381-8.394-1.286-9.645-5.285-.98-3.136-.56-6.528-.164-9.724.053-.432-.57-.44-.703-.095-1.793 4.607-.26 10.361 2.743 14.184 2.968 3.778 6.602 2.318 9.838-.292l-.507-.506c-3.9 3.992-9.982 2.084-11.594-3.048-1.039-3.305-1.172-10.147 1.415-12.76.324-.327-.182-.834-.507-.506M79.087 140.102c1.675 1.156 2.521 3.068 2.321 5.083-.045.459.671.456.716 0 .226-2.272-.804-4.41-2.675-5.701-.38-.263-.74.358-.362.618M107.118 139.817c-.857 2.01-1.07 4.097-.616 6.237.095.451.785.26.69-.19a9.356 9.356 0 0 1 .544-5.685c.179-.42-.438-.785-.618-.362M100.193 139.507c.895.864 1.172 2.093.759 3.262-.155.436.537.622.69.19a3.748 3.748 0 0 0-.943-3.959c-.331-.32-.839.186-.506.507M95.262 139.449a5.663 5.663 0 0 0 .108 7.461c.308.344.813-.164.506-.506-1.63-1.817-1.685-4.578-.107-6.45.295-.35-.209-.859-.507-.505M64.597 128.037c3.016.018 1.974 18.802 1.921 21.26-.01.46.707.46.717 0a224.59 224.59 0 0 0-.216-16.123c-.096-1.892.412-5.835-2.422-5.853-.462-.003-.462.713 0 .716"/>
        <path fill="#FFF" d="M64.994 137.163c-.033 4.136.15 8.258.55 12.375.02.215.213.426.452.345.497-.17.477-.141.821-.538.098-.11.152-.3.057-.434a2.509 2.509 0 0 1-.667-1.636c-.063-.409-.696-.295-.703.096-.012.632-.044.47.183 1.06.164.426.857.241.691-.19l-.158-.87-.703.095c.101.66.024 1.295.65 1.122.066-.018-.267-3.493-.285-3.801-.146-2.54-.193-5.081-.172-7.624.003-.461-.713-.461-.716 0M45.956 137.687a25.962 25.962 0 0 0 .472 7.88c.09.427.659.273.703-.096.49-4.072.03-8.162 1.307-12.076.143-.44-.548-.627-.69-.19-.653 2-.946 3.313-.925 5.406.022 2.298-.134 4.58-.408 6.86l.703-.095a25.32 25.32 0 0 1-.446-7.689c.042-.459-.674-.456-.716 0M56.747 130.08c.764.502 1.153 1.347 1.008 2.257l.703.095a7.571 7.571 0 0 0-1.087-4.009c-.153-.257-.58-.219-.654.086a8.452 8.452 0 0 0 .137 4.583c.137.439.828.251.69-.19a7.707 7.707 0 0 1-.136-4.203l-.655.086c.673 1.126 1 2.334.988 3.647-.003.39.639.503.704.095.198-1.239-.284-2.373-1.337-3.066-.386-.254-.746.366-.361.618M57.466 144.917c.164 1.316.02 2.441-.487 3.685-.151.373.496.65.655.276a18.048 18.048 0 0 0 1.32-4.718h-.69c.457 1.542.216 2.815-.733 4.099l.654.276.851-2.91-.703-.096c-.13 2.179-1.003 3.903-2.657 5.33-.352.303.155.795.506.506 2.087-1.716 3.259-3.943 3.556-6.622h-.716c.092 2.79-2.074 5.093-4.707 5.79-3.367.891-4.37-1.84-6.532-3.54-.359-.281-.869.222-.507.507 2.72 2.137 3.922 4.999 7.858 3.512 2.658-1.004 4.7-3.357 4.604-6.269-.016-.47-.666-.45-.716 0-.278 2.499-1.412 4.526-3.346 6.116l.506.506c1.79-1.543 2.726-3.476 2.867-5.836.024-.41-.593-.474-.704-.095l-.85 2.91c-.122.416.426.585.654.277 1.057-1.432 1.311-2.947.805-4.651-.091-.31-.64-.372-.69 0a17.314 17.314 0 0 1-1.248 4.547l.654.276c.535-1.314.69-2.45.512-3.876-.057-.45-.773-.457-.716 0"/>
    </g>
</svg>
