<?xml version="1.0" encoding="UTF-8"?>
<svg width="57px" height="49px" viewBox="0 0 57 49" version="1.1" xmlns="http://www.w3.org/2000/svg" xmlns:xlink="http://www.w3.org/1999/xlink">
    <!-- Generator: Sketch 50.2 (55047) - http://www.bohemiancoding.com/sketch -->
    <title>label_failure@2x</title>
    <desc>Created with Sketch.</desc>
    <defs>
        <polygon id="path-1" points="0.721397489 0.225 49.4969935 0.225 49.4969935 48.9995 0.721397489 48.9995"></polygon>
        <polygon id="path-3" points="0.000121945416 0.613535873 56.172 0.613535873 56.172 34.5322641 0.000121945416 34.5322641"></polygon>
        <polygon id="path-5" points="0.000221945416 0.6141 56.172 0.6141 56.172 34.5321 0.000221945416 34.5321"></polygon>
    </defs>
    <g id="訂單" stroke="none" stroke-width="1" fill="none" fill-rule="evenodd">
        <g id="訂單已完成已評價" transform="translate(-206.000000, -445.000000)">
            <g id="label_failure" transform="translate(206.000000, 445.000000)">
                <g>
                    <path d="M28.4207,48.0253 C26.3127,48.0253 24.1997,47.7393 22.1397,47.1753 C9.5267,43.7263 1.9487,30.6933 5.2467,18.1253 C7.9287,7.8943 17.2027,0.7503 27.7987,0.7503 C29.9057,0.7503 32.0187,1.0353 34.0777,1.5993 C46.6897,5.0493 54.2687,18.0823 50.9727,30.6513 C48.2897,40.8803 39.0157,48.0253 28.4207,48.0253" id="Fill-1" fill="#FFFFFF"></path>
                    <g id="Group-5" transform="translate(3.000000, -0.224500)">
                        <mask id="mask-2" fill="white">
                            <use xlink:href="#path-1"></use>
                        </mask>
                        <g id="Clip-4"></g>
                        <path d="M24.7986,0.2245 C14.0906,0.2245 4.3596,7.3335 1.5206,18.1595 C-1.8864,31.1445 5.9136,44.5605 18.9416,48.1235 C21.1096,48.7175 23.2836,48.9995 25.4206,48.9995 C36.1276,48.9995 45.8586,41.8915 48.6986,31.0665 C52.1036,18.0795 44.3036,4.6645 31.2756,1.0995 C29.1086,0.5075 26.9346,0.2245 24.7986,0.2245 M24.7986,1.7245 C26.8396,1.7245 28.8846,2.0015 30.8806,2.5465 C43.0966,5.8895 50.4396,18.5125 47.2476,30.6855 C44.6506,40.5855 35.6746,47.4995 25.4206,47.4995 C23.3796,47.4995 21.3336,47.2235 19.3376,46.6775 C7.1196,43.3355 -0.2224,30.7125 2.9716,18.5395 C5.5676,8.6395 14.5436,1.7245 24.7986,1.7245" id="Fill-3" fill="#73717F" mask="url(#mask-2)"></path>
                    </g>
                    <path d="M25.2498,10.6196 C25.3878,11.0446 25.5978,11.7756 25.5978,11.7756 C25.5978,11.7756 26.1688,12.0436 26.5538,12.2366 C26.7488,12.3366 26.7428,12.5196 26.5748,12.6236 C26.2498,12.8176 25.7498,13.1086 25.6368,13.1746 C25.6228,13.3056 25.5598,13.8836 25.5188,14.2636 C25.4928,14.4606 25.3278,14.5436 25.1548,14.4086 C24.8208,14.1396 24.3388,13.7316 24.3388,13.7316 C24.3388,13.7316 23.5858,13.8516 23.1398,13.9066 C22.9798,13.9246 22.8648,13.7736 22.9448,13.5876 C23.1008,13.2026 23.3378,12.6036 23.3378,12.6036 C23.3378,12.6036 22.9878,11.9696 22.7778,11.5746 C22.6428,11.3446 22.7108,11.2896 22.7248,11.2816 C22.7548,11.2566 22.8258,11.2326 22.9888,11.2456 C23.4348,11.2746 24.1558,11.3316 24.1558,11.3316 C24.1558,11.3316 24.5968,10.8716 24.8788,10.5746 C25.0138,10.4256 25.1988,10.4676 25.2498,10.6196" id="Fill-6" fill="#73717F"></path>
                    <path d="M32.22,10.8852 C32.291,11.3262 32.386,12.0802 32.386,12.0802 C32.386,12.0802 32.909,12.4342 33.261,12.6832 C33.437,12.8122 33.404,12.9922 33.222,13.0692 C32.87,13.2102 32.331,13.4222 32.21,13.4692 C32.176,13.5962 32.026,14.1582 31.926,14.5272 C31.87,14.7182 31.695,14.7742 31.545,14.6152 C31.256,14.2972 30.842,13.8212 30.842,13.8212 C30.842,13.8212 30.079,13.8232 29.631,13.8102 C29.47,13.8032 29.379,13.6362 29.488,13.4652 C29.699,13.1082 30.027,12.5532 30.027,12.5532 C30.027,12.5532 29.779,11.8722 29.63,11.4492 C29.532,11.2022 29.608,11.1572 29.623,11.1522 C29.657,11.1322 29.731,11.1192 29.889,11.1572 C30.325,11.2542 31.03,11.4212 31.03,11.4212 C31.03,11.4212 31.535,11.0342 31.861,10.7832 C32.016,10.6572 32.193,10.7272 32.22,10.8852" id="Fill-8" fill="#73717F"></path>
                    <path d="M38.0501,14.2919 C38.0191,14.7379 37.9411,15.4939 37.9411,15.4939 C37.9411,15.4939 38.3691,15.9569 38.6541,16.2789 C38.7971,16.4449 38.7241,16.6129 38.5291,16.6469 C38.1551,16.7039 37.5821,16.7879 37.4531,16.8059 C37.3921,16.9219 37.1171,17.4349 36.9371,17.7709 C36.8391,17.9449 36.6541,17.9599 36.5451,17.7709 C36.3361,17.3959 36.0411,16.8369 36.0411,16.8369 C36.0411,16.8369 35.2981,16.6669 34.8641,16.5519 C34.7091,16.5079 34.6581,16.3249 34.8031,16.1829 C35.0911,15.8839 35.5351,15.4169 35.5351,15.4169 C35.5351,15.4169 35.4481,14.6979 35.4011,14.2529 C35.3621,13.9899 35.4451,13.9639 35.4601,13.9609 C35.4981,13.9499 35.5721,13.9539 35.7191,14.0269 C36.1211,14.2209 36.7701,14.5429 36.7701,14.5429 C36.7701,14.5429 37.3501,14.2819 37.7231,14.1109 C37.9041,14.0239 38.0601,14.1319 38.0501,14.2919" id="Fill-10" fill="#73717F"></path>
                    <path d="M27.8489,2.5703 C18.2709,2.5713 9.5409,8.9383 7.0029,18.6123 C3.9599,30.2143 10.9539,42.2403 22.5919,45.4243 C24.5239,45.9543 26.4619,46.2063 28.3689,46.2063 C37.9479,46.2063 46.6769,39.8363 49.2159,30.1623 C52.2579,18.5623 45.2649,6.5353 33.6259,3.3513 C31.6949,2.8223 29.7559,2.5703 27.8489,2.5703 M27.8499,2.5703 L27.8499,4.0703 C29.6569,4.0703 31.4659,4.3153 33.2309,4.7983 C44.0789,7.7653 50.5989,18.9733 47.7649,29.7813 C45.4589,38.5683 37.4839,44.7063 28.3689,44.7063 C26.5619,44.7063 24.7519,44.4613 22.9879,43.9783 C12.1389,41.0093 5.6189,29.8013 8.4539,18.9933 C10.7589,10.2073 18.7339,4.0713 27.8489,4.0703 L27.8499,2.5703" id="Fill-12" fill="#73717F"></path>
                    <path d="M42.3665,18.8105 C40.5015,14.3025 36.5825,10.8985 31.8815,9.7065 C27.6055,8.6185 23.0885,9.4375 19.4915,11.9495 L18.6325,10.7195 C22.5875,7.9585 27.5495,7.0605 32.2515,8.2525 C37.4075,9.5615 41.7075,13.2935 43.7525,18.2365 L42.3665,18.8105 Z" id="Fill-14" fill="#73717F"></path>
                    <path d="M28.283,41.0957 C26.814,41.0957 25.332,40.9017 23.874,40.5027 C17.915,38.8727 13.313,34.1187 11.862,28.0967 L13.32,27.7447 C14.643,33.2367 18.839,37.5707 24.27,39.0557 C29.588,40.5127 35.266,38.9757 39.09,35.0487 L40.164,36.0957 C37.009,39.3357 32.704,41.0957 28.283,41.0957" id="Fill-16" fill="#73717F"></path>
                    <path d="M18.3533,34.2197 C18.7083,33.9487 19.2963,33.4667 19.2963,33.4667 C19.2963,33.4667 19.9193,33.5707 20.3453,33.6317 C20.5623,33.6587 20.6623,33.5047 20.5833,33.3237 C20.4253,32.9807 20.1793,32.4557 20.1243,32.3377 C20.1873,32.2227 20.4643,31.7117 20.6453,31.3757 C20.7363,31.1987 20.6483,31.0357 20.4303,31.0487 C20.0013,31.0807 19.3733,31.1417 19.3733,31.1417 C19.3733,31.1417 18.8223,30.6157 18.4873,30.3167 C18.3653,30.2097 18.1853,30.2697 18.1453,30.4677 C18.0543,30.8727 17.9093,31.4997 17.9093,31.4997 C17.9093,31.4997 17.2603,31.8237 16.8623,32.0287 C16.6213,32.1407 16.6453,32.2247 16.6523,32.2397 C16.6633,32.2777 16.7073,32.3367 16.8493,32.4187 C17.2323,32.6487 17.8583,33.0117 17.8583,33.0117 C17.8583,33.0117 17.9593,33.6407 18.0223,34.0457 C18.0483,34.2447 18.2243,34.3157 18.3533,34.2197" id="Fill-18" fill="#73717F"></path>
                    <path d="M24.2376,37.9648 C24.5476,37.6418 25.0536,37.0758 25.0536,37.0758 C25.0536,37.0758 25.6856,37.0828 26.1156,37.0778 C26.3346,37.0718 26.4096,36.9038 26.3036,36.7378 C26.0946,36.4218 25.7726,35.9428 25.6996,35.8338 C25.7436,35.7098 25.9396,35.1618 26.0676,34.8028 C26.1296,34.6138 26.0176,34.4668 25.8036,34.5128 C25.3846,34.6108 24.7736,34.7668 24.7736,34.7668 C24.7736,34.7668 24.1486,34.3308 23.7716,34.0868 C23.6346,34.0008 23.4656,34.0868 23.4566,34.2888 C23.4286,34.7028 23.3816,35.3458 23.3816,35.3458 C23.3816,35.3458 22.7906,35.7648 22.4286,36.0278 C22.2076,36.1758 22.2446,36.2558 22.2526,36.2688 C22.2696,36.3038 22.3226,36.3568 22.4756,36.4148 C22.8886,36.5838 23.5636,36.8478 23.5636,36.8478 C23.5636,36.8478 23.7596,37.4528 23.8836,37.8438 C23.9406,38.0358 24.1256,38.0788 24.2376,37.9648" id="Fill-20" fill="#73717F"></path>
                    <path d="M30.971,38.4775 C31.199,38.0935 31.564,37.4265 31.564,37.4265 C31.564,37.4265 32.18,37.2905 32.598,37.1875 C32.81,37.1315 32.845,36.9525 32.704,36.8135 C32.429,36.5535 32.005,36.1595 31.909,36.0705 C31.925,35.9395 31.991,35.3625 32.033,34.9825 C32.051,34.7845 31.908,34.6665 31.711,34.7605 C31.325,34.9505 30.766,35.2425 30.766,35.2425 C30.766,35.2425 30.057,34.9585 29.635,34.8075 C29.483,34.7545 29.337,34.8765 29.374,35.0765 C29.442,35.4855 29.542,36.1225 29.542,36.1225 C29.542,36.1225 29.061,36.6645 28.769,37.0025 C28.587,37.1975 28.641,37.2665 28.653,37.2775 C28.677,37.3075 28.741,37.3475 28.902,37.3705 C29.343,37.4395 30.06,37.5425 30.06,37.5425 C30.06,37.5425 30.389,38.0875 30.599,38.4405 C30.698,38.6155 30.887,38.6155 30.971,38.4775" id="Fill-22" fill="#73717F"></path>
                    <g id="Group-26" transform="translate(0.000000, 6.775500)">
                        <mask id="mask-4" fill="white">
                            <use xlink:href="#path-3"></use>
                        </mask>
                        <g id="Clip-25"></g>
                        <path d="M48.1135,34.3944 L2.2945,20.5354 C0.6085,20.0254 -0.3635,18.2484 0.1275,16.5674 L4.1175,2.8714 C4.6075,1.1904 6.3715,0.2414 8.0585,0.7514 L53.8775,14.6114 C55.5645,15.1214 56.5355,16.8974 56.0455,18.5794 L52.0545,32.2744 C51.5645,33.9554 49.8005,34.9044 48.1135,34.3944" id="Fill-24" fill="#FFFFFF" mask="url(#mask-4)"></path>
                    </g>
                    <g id="Group-29" transform="translate(0.000000, 6.775500)">
                        <mask id="mask-6" fill="white">
                            <use xlink:href="#path-5"></use>
                        </mask>
                        <g id="Clip-28"></g>
                        <path d="M7.1326,0.6141 C5.7686,0.6141 4.5176,1.4981 4.1176,2.8711 L0.1276,16.5671 C-0.3634,18.2491 0.6086,20.0251 2.2946,20.5351 L48.1136,34.3941 C48.4226,34.4871 48.7336,34.5321 49.0396,34.5321 C50.4036,34.5321 51.6546,33.6471 52.0546,32.2741 L56.0456,18.5791 C56.5356,16.8981 55.5646,15.1211 53.8776,14.6111 L8.0586,0.7521 C7.7506,0.6581 7.4386,0.6141 7.1326,0.6141 M7.1326,2.1141 C7.2976,2.1141 7.4636,2.1381 7.6246,2.1871 L53.4436,16.0471 C54.3436,16.3191 54.8656,17.2661 54.6056,18.1591 L50.6146,31.8541 C50.4096,32.5581 49.7766,33.0321 49.0396,33.0321 C48.8756,33.0321 48.7096,33.0071 48.5476,32.9581 L2.7286,19.0991 C1.8286,18.8271 1.3066,17.8791 1.5676,16.9871 L5.5576,3.2911 C5.7626,2.5871 6.3956,2.1141 7.1326,2.1141" id="Fill-27" fill="#73717F" mask="url(#mask-6)"></path>
                    </g>
                    <path d="M11.4055,19.8173 L10.3365,23.3063 C10.1885,23.7883 10.3555,24.1033 10.8385,24.2503 L17.1685,26.1893 C17.3965,26.2593 17.6355,26.2493 17.8605,26.1523 C18.1215,26.0243 18.4815,25.3013 18.9655,23.9923 L20.0285,24.7343 C19.3865,26.2863 18.8795,27.1713 18.5235,27.3823 C18.1335,27.5683 17.6825,27.5953 17.1535,27.4623 L10.1515,25.3173 C9.0725,24.9863 8.7105,24.2643 9.0525,23.1493 L11.0735,16.5513 L12.2915,16.9243 L11.7595,18.6633 L18.3935,20.6953 L19.3185,17.6753 L10.9455,15.1103 L11.2995,13.9563 L20.9025,16.8983 L19.2705,22.2263 L11.4055,19.8173 Z" id="Fill-30" fill="#73717F"></path>
                    <path d="M26.9861,18.9008 C26.6531,19.3538 26.3151,19.7778 25.9801,20.1468 L28.1611,20.8158 L28.8141,18.6838 L30.0321,19.0568 L29.3791,21.1888 L33.5281,22.4588 L33.1661,23.6388 L29.0181,22.3678 L28.8311,22.9768 C28.6351,23.5278 28.4221,24.0448 28.1901,24.5288 L33.3161,26.0988 L32.9571,27.2668 L28.4161,25.8748 C28.5111,27.7348 29.6801,29.5368 31.9131,31.2618 L30.9321,32.1128 C28.6421,30.1618 27.4501,28.1178 27.3271,25.9848 C26.8681,26.6208 26.3611,27.1458 25.8141,27.5748 C24.5801,28.4738 22.8681,28.9478 20.6941,28.9778 L20.3571,27.7638 C22.5421,27.6968 24.1441,27.2718 25.1651,26.4748 C25.5801,26.1158 25.9561,25.7028 26.2971,25.2258 L21.7811,23.8418 L22.1381,22.6748 L26.9461,24.1478 C27.1901,23.6678 27.4181,23.1538 27.6131,22.6038 L27.8001,21.9948 L24.9961,21.1358 C24.3481,21.7148 23.6831,22.1628 23.0281,22.4898 L22.2721,21.2868 C23.7041,20.6428 24.9461,19.5808 25.9971,18.0988 L26.9861,18.9008 Z" id="Fill-32" fill="#73717F"></path>
                    <path d="M42.6829,27.165 C42.5989,28.389 42.6339,29.495 42.7679,30.507 C43.6179,29.546 44.2939,28.38 44.7919,26.978 L43.1689,26.48 C42.9979,26.72 42.8309,26.946 42.6829,27.165 Z M41.5429,28.48 C41.2279,28.786 40.9079,29.063 40.5989,29.302 L40.1239,28.13 C41.4189,27.027 42.5799,25.37 43.5949,23.142 L44.7259,23.711 C44.4289,24.314 44.1289,24.888 43.8309,25.407 L47.2449,26.452 L46.8859,27.62 L45.9099,27.32 C45.2259,29.234 44.2829,30.776 43.0639,31.944 C43.4139,33.244 43.9949,34.338 44.7809,35.217 L43.7349,36.049 C42.9869,35.14 42.4219,34.037 42.0639,32.761 C40.9459,33.558 39.6669,34.109 38.2399,34.421 L37.8929,33.106 C39.4019,32.848 40.6929,32.3 41.7719,31.451 C41.6109,30.527 41.5279,29.53 41.5429,28.48 Z M38.5969,25.414 L39.5539,24.916 C39.9159,25.457 40.3179,26.231 40.7369,27.221 L39.7039,27.779 C39.3869,26.96 39.0189,26.167 38.5969,25.414 Z M39.6469,23.349 L41.9809,24.063 L41.6269,25.218 L35.6769,23.395 L36.0309,22.241 L38.4659,22.987 C38.4129,22.526 38.3239,22.097 38.2119,21.687 L39.5309,21.869 C39.5879,22.317 39.6289,22.815 39.6469,23.349 Z M37.3629,28.948 C37.7919,28.497 38.1909,28.009 38.5509,27.467 L39.4679,28.233 C39.0059,28.925 38.5229,29.553 38.0109,30.091 C38.3589,30.724 38.6769,31.362 38.9739,32.023 L37.8319,32.714 C37.5749,32.107 37.3079,31.526 37.0309,30.983 C35.9269,31.866 34.6879,32.472 33.3179,32.774 L32.9119,31.47 C34.2149,31.204 35.3849,30.645 36.4259,29.827 C36.0669,29.189 35.7119,28.581 35.3409,28.023 L36.3669,27.394 C36.7109,27.902 37.0509,28.423 37.3629,28.948 Z M38.0019,25.093 C37.0989,26.093 36.1539,26.913 35.1659,27.555 L34.4039,26.558 C35.3549,25.988 36.2679,25.228 37.1179,24.266 L38.0019,25.093 Z" id="Fill-34" fill="#73717F"></path>
                </g>
            </g>
        </g>
    </g>
</svg>