<svg xmlns="http://www.w3.org/2000/svg" width="24" height="24" viewBox="0 0 24 24">
    <path fill="#8B8B8B" fill-rule="evenodd" d="M9.39 22.706a10.708 10.708 0 0 0 5.245.015v-.572c0-.221.145-.414.352-.467.2-.051 2.01-.543 3.877-2.038a10.966 10.966 0 0 0 2.642-3.059c.771-1.328 1.278-2.85 1.508-4.527h-1.791c-.399 1.02-.952 1.9-1.647 2.616-1.13 1.166-2.63 1.906-4.457 2.2-1.314.212-3.33.406-5.472.123-2.04-.27-3.67-.903-4.844-1.882-1.248-1.04-1.936-2.437-2.048-4.151-.144-2.221.758-4.105 2.607-5.447 1.392-1.01 3.297-1.682 5.366-1.893 1.912-.195 3.72.026 4.96.605 1.138.531 1.963 1.159 2.453 1.866.463.667.627 1.41.475 2.151-.177.863-.77 1.683-1.67 2.31-.836.583-1.831.918-2.73.918-1.189 0-2.166-.286-2.902-.85-.622-.476-.93-1.045-1.096-1.35a3.898 3.898 0 0 0-.073-.131c-.084-.14-.318-.486-.67-.674-.38-.202-.79-.164-1.256.115-.286.17-.46.409-.534.728-.125.542.08 1.2.34 1.613.267.425.94 1.073 2.031 1.619.858.43 2.281.941 4.182.941a6.425 6.425 0 0 0 4.16-1.537c1.124-.957 1.889-2.257 2.155-3.662.18-.951-.11-2.024-.82-3.02-.744-1.048-1.869-1.89-3.166-2.371-2.201-.817-4.24-1.22-7.599-.713a9.682 9.682 0 0 0-5.814 3.186A9.265 9.265 0 0 0 1.505 8.03a7.778 7.778 0 0 0-.583 2.906c0 1.16.218 2.347.646 3.527a12.323 12.323 0 0 0 1.76 3.219c.749.991 1.616 1.843 2.577 2.53.987.705 2.023 1.202 3.081 1.476l.021.005.032.008a.477.477 0 0 1 .351.466v.539zM12.044 24c-1.099 0-2.188-.155-3.24-.46a.478.478 0 0 1-.336-.464v-.538c-1.062-.314-2.098-.829-3.084-1.534a12.898 12.898 0 0 1-2.781-2.728C.924 16.056 0 13.448 0 10.936 0 9.842.22 8.74.654 7.659a10.228 10.228 0 0 1 1.82-2.94A10.595 10.595 0 0 1 8.836 1.23c3.535-.535 5.771-.083 8.04.759 1.468.545 2.746 1.505 3.599 2.703.865 1.217 1.214 2.56.983 3.78a7.381 7.381 0 0 1-2.476 4.219 7.327 7.327 0 0 1-4.744 1.754c-2.075 0-3.636-.563-4.581-1.036-1.072-.536-1.97-1.268-2.404-1.96-.357-.567-.666-1.487-.465-2.362A2.063 2.063 0 0 1 7.76 7.75c.93-.556 1.674-.382 2.133-.137.539.286.879.762 1.034 1.02.03.05.06.105.093.168.302.556.93 1.712 3.197 1.712.71 0 1.538-.282 2.216-.755.69-.48 1.156-1.105 1.28-1.713.098-.474-.01-.94-.32-1.387C17 6.089 16.3 5.567 15.312 5.105c-1.082-.505-2.762-.701-4.494-.525-1.913.195-3.663.808-4.928 1.725-.75.545-1.32 1.19-1.694 1.916-.408.794-.583 1.695-.52 2.678.094 1.435.667 2.6 1.704 3.465 1.04.868 2.515 1.433 4.384 1.68 1.588.21 3.44.167 5.215-.12 1.63-.262 2.96-.913 3.949-1.933.668-.69 1.189-1.557 1.546-2.578a.462.462 0 0 1 .433-.316h2.633c.134 0 .262.061.35.167a.495.495 0 0 1 .106.386 2.271 2.271 0 0 1-.01.056c-.21 2-.78 3.808-1.69 5.377a11.91 11.91 0 0 1-2.869 3.322 12.516 12.516 0 0 1-3.868 2.107v.582a.478.478 0 0 1-.34.464 11.59 11.59 0 0 1-3.174.442z"/>
</svg>
