<svg xmlns="http://www.w3.org/2000/svg" xmlns:xlink="http://www.w3.org/1999/xlink" width="24" height="24" viewBox="0 0 24 24">
    <defs>
        <path id="a" d="M0 .02h23.986v11.994H0z"/>
    </defs>
    <g fill="none" fill-rule="evenodd">
        <path fill="#8B8B8B" d="M11.71 7.8c-.474 0-.948-.178-1.31-.537a.512.512 0 0 1 0-.728.522.522 0 0 1 .735 0 .82.82 0 0 0 1.152 0 .522.522 0 0 1 .734 0 .512.512 0 0 1 0 .728 1.856 1.856 0 0 1-1.31.538M7.78 13.034a.514.514 0 0 1-.178-.999c.568-.206.956-.748.965-1.348a1.437 1.437 0 0 0-.454-1.076.512.512 0 0 1-.017-.728.522.522 0 0 1 .734-.017c.503.477.786 1.146.776 1.836a2.459 2.459 0 0 1-.475 1.42 2.5 2.5 0 0 1-1.174.88.522.522 0 0 1-.178.032M16.196 13.034a.522.522 0 0 1-.177-.031 2.49 2.49 0 0 1-1.65-2.375c.01-.675.287-1.303.781-1.767a.522.522 0 0 1 .734.019.512.512 0 0 1-.019.728 1.44 1.44 0 0 0-.458 1.035c-.01.62.38 1.18.967 1.392a.514.514 0 0 1-.178 1"/>
        <path fill="#8B8B8B" d="M15.512 9.753a.52.52 0 0 1-.376-.16.512.512 0 0 1 .018-.727 4.487 4.487 0 0 0 1.422-3.291c0-2.506-2.056-4.545-4.583-4.545S7.41 3.069 7.41 5.575c0 1.254.505 2.423 1.421 3.29a.512.512 0 0 1 .018.727.522.522 0 0 1-.735.017 5.555 5.555 0 0 1-1.273-1.802 5.496 5.496 0 0 1-.47-2.232C6.372 2.5 8.895 0 11.994 0c3.1 0 5.622 2.5 5.622 5.575a5.555 5.555 0 0 1-1.745 4.037.52.52 0 0 1-.358.141"/>
        <g transform="translate(0 11.977)">
            <mask id="b" fill="#fff">
                <use xlink:href="#a"/>
            </mask>
            <path fill="#8B8B8B" d="M23.467 12.014H.52A.517.517 0 0 1 0 11.5v-.749c0-2.39.74-4.675 2.14-6.61A11.447 11.447 0 0 1 7.603.052a.52.52 0 0 1 .664.312.514.514 0 0 1-.315.658 10.373 10.373 0 0 0-4.968 3.716 10.193 10.193 0 0 0-1.946 6.011v.235h21.91v-.235c0-2.174-.674-4.254-1.948-6.014a10.373 10.373 0 0 0-4.975-3.716.514.514 0 0 1-.315-.658.52.52 0 0 1 .663-.313 11.442 11.442 0 0 1 5.47 4.086 11.21 11.21 0 0 1 2.143 6.615v.75a.517.517 0 0 1-.519.514" mask="url(#b)"/>
        </g>
    </g>
</svg>
