<svg xmlns="http://www.w3.org/2000/svg" xmlns:xlink="http://www.w3.org/1999/xlink" width="24" height="24" viewBox="0 0 24 24">
    <defs>
        <path id="a" d="M0 .021h16.436v19.462H0z"/>
        <path id="c" d="M.007.021h4.008v5.496H.007z"/>
        <path id="e" d="M0 22h20.304V0H0z"/>
    </defs>
    <g fill="none" fill-rule="evenodd" transform="translate(3 2)">
        <g transform="translate(0 2.181)">
            <mask id="b" fill="#fff">
                <use xlink:href="#a"/>
            </mask>
            <path fill="#8B8B8B" d="M15.983 19.483H.453A.45.45 0 0 1 0 19.036V.02h.905V18.59H15.53V.021h.905v19.015a.45.45 0 0 1-.453.447" mask="url(#b)"/>
        </g>
        <g transform="translate(15.98 2.181)">
            <mask id="d" fill="#fff">
                <use xlink:href="#c"/>
            </mask>
            <path fill="#8B8B8B" d="M3.562 5.517H.007v-.893H3.11V.02h.905v5.05a.45.45 0 0 1-.453.446" mask="url(#d)"/>
        </g>
        <mask id="f" fill="#fff">
            <use xlink:href="#e"/>
        </mask>
        <path fill="#8B8B8B" d="M2.23.893h15.535V0H2.23z" mask="url(#f)"/>
        <path fill="#8B8B8B" d="M19.994 2.203h-.904c0-.722-.595-1.31-1.325-1.31-.731 0-1.326.588-1.326 1.31h-.904c0-1.215 1-2.203 2.23-2.203s2.23.988 2.23 2.203M.905 2.203H0C0 .988 1 0 2.23 0v.893c-.731 0-1.325.588-1.325 1.31M7.25 5.6H3.545a.45.45 0 0 1-.452-.446.45.45 0 0 1 .452-.447H7.25c.25 0 .452.2.452.447a.45.45 0 0 1-.452.447M10.112 9.343H3.545a.45.45 0 0 1-.452-.446.45.45 0 0 1 .452-.447h6.567c.25 0 .452.2.452.447a.45.45 0 0 1-.452.446M12.89 13.086H3.546a.45.45 0 0 1-.452-.447.45.45 0 0 1 .452-.447h9.346c.25 0 .452.2.452.447a.45.45 0 0 1-.452.447" mask="url(#f)"/>
    </g>
</svg>
