<svg xmlns="http://www.w3.org/2000/svg" xmlns:xlink="http://www.w3.org/1999/xlink" width="24" height="24" viewBox="0 0 24 24">
    <defs>
        <path id="a" d="M0 203.5h193.197V0H0z"/>
    </defs>
    <g fill="none" fill-rule="evenodd" transform="translate(3 2)">
        <path fill="#FF0062" d="M14.762.458h2.402l-.476 2.72v16.587s.567 1.77-.974 1.77H1.842S.477 22.03.477 20.331V2.743S.481.458 3.157.458h11.605z"/>
        <path fill="#FF0062" d="M16.688 21.993H.478A.468.468 0 0 1 0 21.535V2.24h.955v18.837H16.21V2.24h.954v19.295a.468.468 0 0 1-.477.458"/>
        <path fill="#FF0062" d="M20.403 7.822h-3.711v-.917h3.233V2.24h.955v5.124a.468.468 0 0 1-.477.458"/>
        <mask id="b" fill="#fff">
            <use xlink:href="#a"/>
        </mask>
        <path fill="#FF0062" d="M2.333.917h16.214V0H2.333z" mask="url(#b)"/>
        <path fill="#FF0062" d="M20.88 2.24h-.955c0-.73-.618-1.323-1.378-1.323-.76 0-1.378.593-1.378 1.323h-.954c0-1.235 1.046-2.24 2.332-2.24 1.286 0 2.333 1.005 2.333 2.24M.955 2.24H0C0 1.005 1.046 0 2.333 0v.917C1.573.917.955 1.51.955 2.24" mask="url(#b)"/>
        <path fill="#FFF" d="M7.572 5.693H3.705a.468.468 0 0 1-.477-.458c0-.253.214-.458.477-.458h3.867c.264 0 .477.205.477.458a.468.468 0 0 1-.477.458M10.56 9.491H3.705a.468.468 0 0 1-.477-.458c0-.253.214-.459.477-.459h6.855c.264 0 .477.206.477.459a.468.468 0 0 1-.477.458M13.46 13.289H3.705a.468.468 0 0 1-.477-.459c0-.253.214-.458.477-.458h9.755c.264 0 .477.205.477.458a.468.468 0 0 1-.477.459" mask="url(#b)"/>
    </g>
</svg>
