<?xml version="1.0" standalone="no"?><!DOCTYPE svg PUBLIC "-//W3C//DTD SVG 1.1//EN" "http://www.w3.org/Graphics/SVG/1.1/DTD/svg11.dtd"><svg t="1530019109263" class="icon" style="" viewBox="0 0 1024 1024" version="1.1" xmlns="http://www.w3.org/2000/svg" p-id="2988" xmlns:xlink="http://www.w3.org/1999/xlink" width="40" height="40"><defs><style type="text/css"></style></defs><path d="M511.998578 3.584a473.941333 473.941333 0 0 0-188.416 37.774222 485.262222 485.262222 0 0 0-153.941334 103.367111 485.262222 485.262222 0 0 0-103.424 153.941334A473.941333 473.941333 0 0 0 28.443022 487.139556c0 66.730667 12.572444 129.536 37.774222 188.416a485.262222 485.262222 0 0 0 103.424 153.941333 485.262222 485.262222 0 0 0 153.941334 103.367111 473.941333 473.941333 0 0 0 188.416 37.831111 473.941333 473.941333 0 0 0 188.416-37.831111 485.262222 485.262222 0 0 0 153.941333-103.367111 485.262222 485.262222 0 0 0 103.424-153.941333A473.941333 473.941333 0 0 0 995.554133 487.082667a473.941333 473.941333 0 0 0-37.774222-188.416 485.262222 485.262222 0 0 0-103.424-153.941334 485.262222 485.262222 0 0 0-153.941333-103.367111A473.941333 473.941333 0 0 0 511.998578 3.584z m0 907.605333a408.177778 408.177778 0 0 1-164.807111-33.564444 427.008 427.008 0 0 1-134.087111-91.136 436.906667 436.906667 0 0 1-90.680889-134.599111 408.177778 408.177778 0 0 1-33.564445-164.750222c0-58.595556 11.207111-113.493333 33.564445-164.807112a431.047111 431.047111 0 0 1 90.680889-134.144c38.115556-38.115556 82.773333-68.266667 134.087111-90.680888a408.177778 408.177778 0 0 1 164.807111-33.507556c58.595556 0 113.493333 11.150222 164.807111 33.564444a431.047111 431.047111 0 0 1 134.087111 90.624 431.217778 431.217778 0 0 1 90.680889 134.144 407.893333 407.893333 0 0 1 33.564444 164.750223c0 58.595556-11.207111 113.493333-33.564444 164.807111a436.906667 436.906667 0 0 1-90.680889 134.599111 427.008 427.008 0 0 1-134.087111 91.136 408.177778 408.177778 0 0 1-164.807111 33.564444z m170.951111-595.057777a28.842667 28.842667 0 0 0-21.276445-8.476445c-8.533333 0-15.587556 2.844444-21.219555 8.533333L511.998578 444.586667l-128.455111-128.398223a28.842667 28.842667 0 0 0-21.219556-8.533333 28.842667 28.842667 0 0 0-29.752889 29.752889c0 8.533333 2.844444 15.587556 8.533334 21.276444l128.398222 128.455112-128.455111 128.398222c-5.688889 5.688889-8.533333 12.743111-8.533334 21.276444a28.842667 28.842667 0 0 0 29.809778 29.752889c8.533333 0 15.587556-2.844444 21.219556-8.533333L511.998578 529.635556l128.455111 128.398222c5.688889 5.688889 12.743111 8.533333 21.219555 8.533333a28.842667 28.842667 0 0 0 29.752889-29.752889c0-8.533333-2.844444-15.587556-8.533333-21.276444l-128.398222-128.455111 128.455111-128.398223c5.688889-5.688889 8.533333-12.743111 8.533333-21.276444s-2.844444-15.587556-8.533333-21.219556z" fill="#ffffff" p-id="2989"></path></svg>