<svg xmlns="http://www.w3.org/2000/svg" width="40" height="40" viewBox="0 0 40 40">
    <g fill="#FFF" fill-rule="evenodd">
        <path fill-rule="nonzero" d="M20 40a19.932 19.932 0 0 1-14.142-5.858A19.932 19.932 0 0 1 0 20 19.932 19.932 0 0 1 5.858 5.858 19.931 19.931 0 0 1 20 0a19.932 19.932 0 0 1 14.142 5.858A19.932 19.932 0 0 1 40 20a19.932 19.932 0 0 1-5.858 14.142A19.932 19.932 0 0 1 20 40zm0-39A18.939 18.939 0 0 0 6.565 6.565 18.938 18.938 0 0 0 1 20a18.939 18.939 0 0 0 5.565 13.435A18.939 18.939 0 0 0 20 39a18.939 18.939 0 0 0 13.435-5.565A18.939 18.939 0 0 0 39 20a18.938 18.938 0 0 0-5.565-13.435A18.939 18.939 0 0 0 20 1z"/>
        <path d="M20.826 20l5.963-5.962a.584.584 0 1 0-.827-.827L20 19.174l-5.962-5.963a.584.584 0 0 0-.827.827L19.174 20l-5.963 5.962a.584.584 0 1 0 .827.827L20 20.826l5.962 5.963a.584.584 0 1 0 .827-.827L20.826 20z"/>
    </g>
</svg>
