<svg xmlns="http://www.w3.org/2000/svg" xmlns:xlink="http://www.w3.org/1999/xlink" width="320" height="113" viewBox="0 0 320 113">
    <defs>
        <path id="a" d="M0 0h39.705v36.735H0z"/>
    </defs>
    <g fill="none" fill-rule="evenodd">
        <path fill="#FF5B4C" d="M0 1.047V112h320V0L160 33.136z"/>
        <path fill="#FFAEA8" d="M0 8l129.783 26.708L0 112zM320 8L194.18 34.081 320 113z"/>
        <path fill="#FF7B6F" d="M8.916 113l125.25-76h51.137l123.8 76z"/>
        <ellipse cx="160.495" cy="36" fill="#FF4C54" rx="35.666" ry="36"/>
        <g transform="translate(140.681 18)">
            <mask id="b" fill="#fff">
                <use xlink:href="#a"/>
            </mask>
            <path fill="#FFF" d="M35.176 16.832c-.935 2.586-3.3 6.977-10.078 8.036-8.36 1.307-19.75-.007-20.36-9.113C4.019 4.97 19.762 2.549 25.874 5.314c9.255 4.187 2.697 10.544-2.207 10.544-4.79 0-5.856-2.74-6.333-3.509-.476-.769-1.972-2.596-4.38-1.202-1.967 1.14-1.517 3.626-.604 5.035 1.153 1.779 5.237 4.63 11.354 4.63 5.9 0 10.645-4.213 11.643-9.31.725-3.704-2.403-8.11-7.37-9.895C24.131.225 20.458-.49 14.521.38 5.956 1.634 0 8.829 0 15.762c0 8.336 6.663 16.735 14.476 18.697l.093.022v1.515c1.705.48 3.502.739 5.36.739 1.817 0 3.578-.248 5.25-.71V34.45c.754-.186 12.987-3.414 14.51-17.521l.016-.097h-4.53z" mask="url(#b)"/>
        </g>
    </g>
</svg>
