<svg xmlns="http://www.w3.org/2000/svg" xmlns:xlink="http://www.w3.org/1999/xlink" width="160" height="160" viewBox="0 0 160 160">
    <defs>
        <path id="a" d="M.051.538h2.95v1.69H.05z"/>
        <path id="c" d="M.128.08h2.686v6.616H.128z"/>
    </defs>
    <g fill="none" fill-rule="evenodd">
        <path fill="#FF5D7F" d="M35.955 130.084a266.677 266.677 0 0 1 27.971 13.583c8.178-7.223 18.656-11.143 28.429-15.994 6.961-3.454 13.675-7.447 20.908-10.287 3.538-1.39 9.887-2.68 13.6-3.492-8.909-4.111-19.447-8.56-28.527-12.28-.668-.274-1.355-.55-2.076-.563-.757-.013-1.473.298-2.19.54-19.947 6.764-40.316 16.395-58.115 28.493M32.01 133.258l2.735.811c.53.158.758-.671.228-.829l-2.734-.811c-.531-.159-.758.672-.228.829M38.8 135.893l3.144.944c.531.159.759-.67.23-.829l-3.147-.944c-.53-.16-.758.67-.228.83M48.171 140.387l2.686 1.394c.49.256.926-.486.433-.741-.894-.466-1.79-.93-2.685-1.395-.49-.255-.925.487-.434.742M44.114 137.674l.899.458c.492.25.927-.49.434-.742l-.899-.458c-.492-.25-.927.49-.434.742M53.537 143.63l2.255 1.355c.476.286.908-.457.434-.742-.752-.452-1.503-.904-2.255-1.354-.475-.286-.908.456-.434.742M60.58 146.94c.185.577.829.954 1.416.715.216-.087.364-.285.3-.529-.054-.204-.314-.387-.529-.3-.136.056-.304.054-.358-.114-.169-.525-1-.3-.83.229M64.496 147.476a3.65 3.65 0 0 1 2.037-1.56c.527-.163.302-.993-.229-.83a4.565 4.565 0 0 0-2.55 1.956c-.295.47.449.902.742.434M70.12 143.589a12.96 12.96 0 0 0 3.351-1.699c.448-.317.02-1.063-.433-.742a12.18 12.18 0 0 1-3.146 1.612c-.522.176-.298 1.007.228.829M77.993 139.46l2.256-1.803c.431-.346-.18-.95-.608-.609l-2.256 1.805c-.432.345.18.95.608.608M85.589 135.496l2.71-1.344c.496-.245.062-.987-.433-.742l-2.711 1.344c-.496.245-.061.987.434.742M93.709 131.887l2.711-1.344c.496-.245.061-.987-.434-.742l-2.711 1.344c-.496.245-.06.987.434.742M102.951 127.407c.553 0 .555-.86 0-.86-.553 0-.554.86 0 .86"/>
        <path fill="#FF5D7F" d="M109.571 122.77c.15-.151.3-.301.452-.451.391-.393-.217-1-.608-.608l-.452.451c-.391.392.216 1 .608.607M115.131 120.64h.903c.553 0 .554-.86 0-.86h-.903c-.553 0-.553.86 0 .86M122.14 118.826l.9-.458c.493-.25.058-.993-.435-.742l-.898.458c-.494.251-.059.993.434.742M31.621 129.014a6.81 6.81 0 0 1 2.065-2.133c.46-.302.03-1.047-.433-.742a7.794 7.794 0 0 0-2.374 2.441c-.291.473.452.905.742.434M39.458 123.331l3.609-1.353c.513-.193.29-1.024-.229-.83l-3.608 1.355c-.514.192-.292 1.023.228.828M48.602 118.357c1.211-.74 2.422-1.478 3.633-2.216.472-.288.04-1.031-.434-.742l-3.633 2.215c-.471.288-.04 1.032.434.743M56.703 114.266l2.256-1.354c.474-.284.042-1.028-.434-.742l-2.256 1.353c-.473.285-.042 1.028.434.743M64.31 111.25l2.256-.898c.508-.203.286-1.034-.229-.83l-2.256.9c-.508.202-.287 1.034.228.829M75.333 106.717l.385-.235c.471-.288.04-1.032-.434-.743l-.385.236c-.472.288-.04 1.032.434.742M70.839 108.556l.872-.532c.472-.289.04-1.032-.434-.743l-.872.533c-.472.288-.04 1.032.434.742M80.234 104.695c.276-.118.553-.237.83-.354.215-.092.258-.405.154-.588-.127-.223-.376-.245-.588-.154l-.83.354c-.216.09-.26.404-.155.588.127.222.377.244.589.154M86.615 102.662l3.137-1.4c.504-.225.067-.966-.433-.742l-3.138 1.4c-.504.225-.067.965.434.742M93.72 99.198h2.707c.553 0 .555-.86 0-.86h-2.706c-.553 0-.555.86 0 .86M100.54 100.897l2.292.797c.523.182.748-.648.228-.829l-2.292-.797c-.524-.183-.749.648-.228.829M106.889 103.062l1.797.48c.534.142.763-.687.228-.83l-1.796-.48c-.536-.143-.764.687-.23.83M111.657 104.796l2.223.977c.502.22.941-.52.435-.743l-2.224-.976c-.501-.22-.94.52-.434.742M117.778 107.654l1.804.902c.494.247.93-.495.434-.742l-1.805-.903c-.493-.246-.929.495-.433.743M122.674 110.112l1.797.48c.535.143.764-.687.229-.83l-1.797-.479c-.535-.143-.764.686-.229.829M127.874 112.787c.588.327 1.176.652 1.763.977.484.269.919-.473.434-.742l-1.763-.976c-.484-.269-.919.473-.434.741M126.75 117.008c.61.168 1.188-.17 1.4-.752.189-.52-.641-.745-.829-.228-.053.144-.21.187-.343.151-.535-.146-.763.682-.229.83M107.896 93.162a43.663 43.663 0 0 1 4.391-7.54c.325-.45-.42-.879-.742-.435a43.617 43.617 0 0 0-4.39 7.54c-.23.5.511.938.741.435M119.2 96.463l3.487-4.067c.358-.418-.247-1.029-.608-.607-1.162 1.355-2.325 2.71-3.486 4.066-.359.418.247 1.029.608.608M134.817 102.361l3.78-2.9c.432-.333.004-1.08-.435-.743l-3.78 2.9c-.433.332-.005 1.08.435.743M27.8 113.158c-2.424-.765-4.848-1.53-7.272-2.293-.529-.168-.755.662-.229.828l7.273 2.294c.528.166.755-.663.228-.83M30.345 100.925l9.912 6.335c.468.299.9-.445.434-.742l-9.912-6.336c-.467-.299-.9.445-.434.743M47.701 94.438l3.712 4.412c.357.423.962-.187.608-.608L48.31 93.83c-.357-.424-.962.188-.608.608M31.444 147.564l-2.906 2.324c-.432.345.18.95.608.607l2.906-2.324c.432-.345-.18-.95-.608-.607M40.159 153.083l-2.615 3.195c-.348.425.257 1.037.608.609l2.615-3.196c.347-.425-.258-1.037-.608-.608M97.967 148.171l1.744 1.453c.422.352 1.032-.253.608-.608l-1.744-1.452c-.422-.352-1.034.253-.608.607M123.146 135.772l3.777 1.16c.53.164.756-.666.228-.828l-3.777-1.16c-.53-.163-.757.666-.228.828"/>
        <g transform="translate(135.84 123.305)">
            <mask id="b" fill="#fff">
                <use xlink:href="#a"/>
            </mask>
            <path fill="#FF5D7F" d="M.342 1.397l2.14.801c.518.194.742-.636.227-.829L.571.568c-.519-.195-.743.636-.229.829" mask="url(#b)"/>
        </g>
        <g transform="translate(82.272 152.098)">
            <mask id="d" fill="#fff">
                <use xlink:href="#c"/>
            </mask>
            <path fill="#FF5D7F" d="M.15.608l1.813 5.789c.164.526.995.301.829-.229L.978.38C.814-.147-.017.078.15.61" mask="url(#d)"/>
        </g>
        <path fill="#FEFEFE" d="M60.503 124.85c.34-.958-.416-1.383-1.253-1.645-1.732-.541-3.839.01-5.224 1.125-2.632 2.12-2.843 5.957-.794 8.533 2.245 2.822 6.85 4.405 10.322 3.229 2.73-.924 4.263-4.302 1.992-6.514-.362-.352-.918.202-.555.556 3.13 3.046-1.484 5.557-4.035 5.527-1.879-.022-3.831-.67-5.384-1.713-2.046-1.376-3.461-3.717-2.813-6.242.28-1.092.91-2.016 1.775-2.719.536-.52 1.18-.86 1.932-1.018 1.196-.4 2.29-.176 3.28.671-.169.478.59.683.757.21M68.772 124.1c-1.617.465-2.171 2.444-1.27 3.812 1.15 1.749 3.836 2.042 5.625 1.251 1.699-.75 2.799-2.845 1.78-4.576-1.178-2.002-3.832-1.313-5.575-.633-.465.181-.263.94.21.757 1.042-.407 2.275-.87 3.408-.616 2.008.453 1.878 2.987.443 4.005-1.135.806-2.722.895-3.987.346-1.372-.596-2.456-3.004-.425-3.59.484-.139.279-.897-.209-.756M74.737 121.227c1.86 2.101 5.745 4.846 8.528 2.783 3.01-2.231-.395-5.421-2.602-6.466-.454-.215-.854.46-.397.677.962.456 1.935 1 2.596 1.858.605.784.88 1.477.486 2.4-.405.949-1.13 1.405-2.21 1.436-2.259.066-4.44-1.654-5.846-3.243-.336-.38-.89.178-.555.555M83.859 116.822a40.153 40.153 0 0 0 9.443 4.774c.478.167.683-.59.209-.757a39.29 39.29 0 0 1-9.256-4.695c-.418-.286-.811.394-.396.678"/>
        <path fill="#FEFEFE" d="M84.866 116.375c.861-2.069 3.484-3.605 5.625-2.38 1.331.761 1.483 2.293.388 3.33-.187.177-2.571 1.678-2.673 1.284-.125-.49-.882-.282-.757.208.367 1.426 2.597.07 3.267-.377 1.248-.834 2.2-2.255 1.5-3.767-.703-1.52-2.63-2.083-4.167-1.808-1.836.33-3.238 1.615-3.94 3.3-.194.467.566.67.757.21M94.947 111.3c-1.437.05-2.126 1.714-1.399 2.893.915 1.488 3.436 1.91 4.935 1.222 1.364-.626 2.042-2.312 1.012-3.541-1.404-1.675-3.656-.909-5.336-.178-.462.2-.063.877.397.677.874-.38 1.87-.826 2.85-.736 1.335.123 2.498 1.64 1.267 2.733-.832.74-2.186.666-3.173.319-.397-.14-.735-.323-1.02-.635-.506-.553-.764-1.926.467-1.97.504-.017.506-.801 0-.784M98.513 109.408l4.033 2.098.303-.717c-.707-.22-1.769-.934-1.828-1.787-.13-1.914 1.595-1.157 2.248-.918 1.257.462 2.428 1.1 3.554 1.82.427.273.821-.406.396-.677-1.283-.822-5.25-3.54-6.714-1.768-1.298 1.57.717 3.648 2.136 4.086.42.131.7-.51.302-.717l-4.034-2.098c-.447-.233-.845.444-.396.678"/>
    </g>
</svg>
