<svg xmlns="http://www.w3.org/2000/svg" width="328" height="161" viewBox="0 0 328 161">
    <g fill="none" fill-rule="evenodd">
        <g fill="#EEE" fill-opacity=".3">
            <path d="M321 0h1v160h-1zM314 0h1v160h-1zM307 0h1v160h-1zM300 0h1v160h-1zM293 0h1v160h-1zM286 0h1v160h-1zM279 0h1v160h-1zM272 0h1v160h-1zM265 0h1v160h-1zM258 0h1v160h-1zM251 0h1v160h-1zM244 0h1v160h-1zM237 0h1v160h-1zM230 0h1v160h-1zM223 0h1v160h-1zM216 0h1v160h-1zM209 0h1v160h-1zM202 0h1v160h-1zM195 0h1v160h-1zM188 0h1v160h-1zM181 0h1v160h-1zM174 0h1v160h-1zM167 0h1v160h-1zM160 0h1v160h-1zM153 0h1v160h-1zM146 0h1v160h-1zM139 0h1v160h-1zM132 0h1v160h-1zM125 0h1v160h-1zM118 0h1v160h-1zM111 0h1v160h-1zM104 0h1v160h-1zM97 0h1v160h-1zM90 0h1v160h-1zM83 0h1v160h-1zM76 0h1v160h-1zM69 0h1v160h-1zM62 0h1v160h-1zM55 0h1v160h-1zM48 0h1v160h-1zM41 0h1v160h-1zM34 0h1v160h-1zM27 0h1v160h-1zM20 0h1v160h-1zM13 0h1v160h-1zM6 0h1v160H6z"/>
            <g>
                <path d="M327.5 156.5v1H.5v-1zM327.5 149.5v1H.5v-1zM327.5 142.5v1H.5v-1zM327.5 135.5v1H.5v-1zM327.5 128.5v1H.5v-1zM327.5 121.5v1H.5v-1zM327.5 114.5v1H.5v-1zM327.5 107.5v1H.5v-1zM327.5 100.5v1H.5v-1zM327.5 93.5v1H.5v-1zM327.5 86.5v1H.5v-1zM327.5 79.5v1H.5v-1zM327.5 72.5v1H.5v-1zM327.5 65.5v1H.5v-1zM327.5 58.5v1H.5v-1zM327.5 51.5v1H.5v-1zM327.5 44.5v1H.5v-1zM327.5 37.5v1H.5v-1zM327.5 30.5v1H.5v-1zM327.5 23.5v1H.5v-1zM327.5 16.5v1H.5v-1zM327.5 9.5v1H.5v-1zM327.5 2.5v1H.5v-1z"/>
            </g>
        </g>
        <path d="M1 0h327v160H1z"/>
        <g transform="rotate(30 56.028 335.987)">
            <circle cx="10.5" cy="8.5" r="3" fill="#FFF" stroke="#F5F5F5"/>
            <circle cx="15.5" cy="7.5" r="3" fill="#FFF" stroke="#F5F5F5"/>
            <circle cx="4.5" cy="7.5" r="3" fill="#FFF" stroke="#F5F5F5"/>
            <circle cx="8.5" cy="4.5" r="3" fill="#FFF" stroke="#F5F5F5"/>
            <circle cx="12.5" cy="3.5" r="3" fill="#FFF" stroke="#F5F5F5"/>
            <path fill="#FFF" stroke="#F5F5F5" d="M15.59 7.5c-1.509 1.988-3.382 3-5.587 3-2.205 0-3.979-1.014-5.277-3H2.278A1.5 1.5 0 0 0 .79 9.194l2.087 16A1.5 1.5 0 0 0 4.365 26.5h11.27a1.5 1.5 0 0 0 1.488-1.306l2.087-16A1.5 1.5 0 0 0 17.722 7.5h-2.131z"/>
            <path fill="#FFF" stroke="#F5F5F5" d="M2.266 14.5a1.5 1.5 0 0 0-1.489 1.686l.5 4A1.5 1.5 0 0 0 2.766 21.5h14.468a1.5 1.5 0 0 0 1.489-1.314l.5-4a1.5 1.5 0 0 0-1.489-1.686H2.266z"/>
            <path fill="#6F85FF" fill-opacity=".1" d="M4.239 16.732h14.41l-.42 3.396a1 1 0 0 1-.993.877H3.716L3.25 17.88a1 1 0 0 1 .99-1.148z"/>
            <circle cx="10" cy="18" r="1.5" fill="#FFF" stroke="#F5F5F5"/>
        </g>
        <g transform="rotate(-30 300.36 -277.519)">
            <circle cx="10" cy="10" r="9.5" fill="#FFF" stroke="#F5F5F5"/>
            <circle cx="10" cy="10" r="9.5" stroke="#F5F5F5"/>
            <path fill="#FF8200" fill-opacity=".1" d="M5.27 2.36C7.33 4.066 8.532 6.61 8.873 9.987c.51 5.066-1.798 8.68-1.61 8.656a9.107 9.107 0 0 0 10.07-13.967C14.243.787 10.223.015 5.27 2.359z"/>
            <path fill="#FFF" stroke="#F5F5F5" d="M4.468 2.336C5.4 3.91 7.584 4.529 11.12 4.122c3.065-.353 5.562.412 7.455 2.276-1.195-2.817-3.011-4.578-5.45-5.318C10.043.144 7.17.56 4.468 2.336z"/>
            <circle cx="10" cy="10" r="3.5" fill="#FFF" stroke="#F5F5F5"/>
        </g>
        <g transform="rotate(30 12.438 98.667)">
            <path fill="#FFF" stroke="#F5F5F5" d="M6.333 4.439l-.128.225-.259.025a4.917 4.917 0 1 0 5.365 5.365l.025-.259.225-.128a3.833 3.833 0 1 0-5.228-5.228z"/>
            <circle cx="14" cy="9" r="4.5" fill="#FFF" stroke="#F5F5F5"/>
            <path fill="#FFF" stroke="#F5F5F5" d="M2.932 11.5a1.5 1.5 0 0 0-1.439 1.925l2.067 7A1.5 1.5 0 0 0 4.999 21.5h10.003a1.5 1.5 0 0 0 1.439-1.075l2.067-7a1.5 1.5 0 0 0-1.439-1.925H2.932z"/>
            <path fill="#FFBA01" fill-opacity=".1" d="M5 14h12.83l-1.847 6.282a1 1 0 0 1-.959.718h-8.36a1 1 0 0 1-.95-.684l-1.663-5A1 1 0 0 1 5.001 14z"/>
            <circle cx="10" cy="2" r="1.5" fill="#FFF" stroke="#F5F5F5"/>
            <path fill="#FFF" d="M8 8h4v3H8z"/>
        </g>
        <g transform="rotate(-30 260.818 -406.114)">
            <path fill="#FFF" stroke="#F5F5F5" d="M6.333 4.439l-.128.225-.259.025a4.917 4.917 0 1 0 5.365 5.365l.025-.259.225-.128a3.833 3.833 0 1 0-5.228-5.228z"/>
            <circle cx="14" cy="9" r="4.5" fill="#FFF" stroke="#F5F5F5"/>
            <path fill="#FFF" stroke="#F5F5F5" d="M2.932 11.5a1.5 1.5 0 0 0-1.439 1.925l2.067 7A1.5 1.5 0 0 0 4.999 21.5h10.003a1.5 1.5 0 0 0 1.439-1.075l2.067-7a1.5 1.5 0 0 0-1.439-1.925H2.932z"/>
            <path fill="#FFBA01" fill-opacity=".1" d="M5 14h12.83l-1.847 6.282a1 1 0 0 1-.959.718h-8.36a1 1 0 0 1-.95-.684l-1.663-5A1 1 0 0 1 5.001 14z"/>
            <circle cx="10" cy="2" r="1.5" fill="#FFF" stroke="#F5F5F5"/>
            <path fill="#FFF" d="M8 8h4v3H8z"/>
        </g>
        <g transform="rotate(45 -93.939 218.474)">
            <path fill="#FFF" stroke="#F5F5F5" d="M11.342 1.801a1.5 1.5 0 0 0-2.684 0l-7.34 14.68-.011.024a1.5 1.5 0 0 0 .707 2C4.6 19.74 7.18 20.357 9.757 20.357c2.606 0 5.326-.63 8.164-1.895l.06-.029a1.5 1.5 0 0 0 .67-2.012L11.341 1.8z"/>
            <path fill="#E23F53" fill-opacity=".1" d="M11.023 2.283l6.968 13.938a2 2 0 0 1-1.356 2.847c-4.932 1.093-9.17 1.264-12.716.514-1.056 0 1.312-5.766 7.104-17.3z"/>
            <circle cx="10.524" cy="7.524" r="1" fill="#F5F5F5"/>
            <circle cx="7.667" cy="13.238" r="1" fill="#F5F5F5"/>
            <circle cx="13.333" cy="11.333" r="1" fill="#F5F5F5"/>
            <path fill="#FFF" stroke="#F5F5F5" d="M17.867 14.922c-2.648 1.714-5.242 2.576-7.78 2.576-2.541 0-5.185-.865-7.93-2.586l-.967 1.936-.028.06a1.5 1.5 0 0 0 .759 1.98c2.836 1.266 5.556 1.896 8.162 1.896 2.599 0 5.273-.627 8.026-1.885l.041-.02a1.5 1.5 0 0 0 .68-2.009l-.963-1.948z"/>
        </g>
        <g transform="rotate(-45 164.52 -325.005)">
            <path fill="#FFF" stroke="#F5F5F5" d="M11.342 1.801a1.5 1.5 0 0 0-2.684 0l-7.34 14.68-.011.024a1.5 1.5 0 0 0 .707 2C4.6 19.74 7.18 20.357 9.757 20.357c2.606 0 5.326-.63 8.164-1.895l.06-.029a1.5 1.5 0 0 0 .67-2.012L11.341 1.8z"/>
            <path fill="#E23F53" fill-opacity=".1" d="M11.023 2.283l6.968 13.938a2 2 0 0 1-1.356 2.847c-4.932 1.093-9.17 1.264-12.716.514-1.056 0 1.312-5.766 7.104-17.3z"/>
            <circle cx="10.524" cy="7.524" r="1" fill="#F5F5F5"/>
            <circle cx="7.667" cy="13.238" r="1" fill="#F5F5F5"/>
            <circle cx="13.333" cy="11.333" r="1" fill="#F5F5F5"/>
            <path fill="#FFF" stroke="#F5F5F5" d="M17.867 14.922c-2.648 1.714-5.242 2.576-7.78 2.576-2.541 0-5.185-.865-7.93-2.586l-.967 1.936-.028.06a1.5 1.5 0 0 0 .759 1.98c2.836 1.266 5.556 1.896 8.162 1.896 2.599 0 5.273-.627 8.026-1.885l.041-.02a1.5 1.5 0 0 0 .68-2.009l-.963-1.948z"/>
        </g>
        <g transform="rotate(-30 242.739 35.042)">
            <path fill="#FFF" stroke="#F5F5F5" d="M3.776 4.848a1.5 1.5 0 0 0-1.488 1.694l1.747 13.391a1.5 1.5 0 0 0 1.487 1.306h9.343a1.5 1.5 0 0 0 1.487-1.306l1.747-13.391a1.5 1.5 0 0 0-1.488-1.694H3.776z"/>
            <path fill="#FFF" stroke="#F5F5F5" d="M3.767 9.196a1.5 1.5 0 0 0-1.493 1.649l.47 4.696a1.5 1.5 0 0 0 1.492 1.35H16.48a1.5 1.5 0 0 0 1.493-1.35l.47-4.696a1.5 1.5 0 0 0-1.493-1.65H3.767z"/>
            <path fill="#FFF" stroke="#F5F5F5" d="M3.767 9.196a1.5 1.5 0 0 0-1.493 1.649l.47 4.696a1.5 1.5 0 0 0 1.492 1.35H16.48a1.5 1.5 0 0 0 1.493-1.35l.47-4.696a1.5 1.5 0 0 0-1.493-1.65H3.767z"/>
            <path fill="#42A5F5" fill-opacity=".1" d="M5.39 11.61h12.466l-.384 3.877a1 1 0 0 1-.995.902H5.09l-.68-3.593a1 1 0 0 1 .982-1.187z"/>
            <circle cx="10.435" cy="13.043" r="2.109" fill="#FFF" stroke="#F5F5F5"/>
            <rect width="18.639" height="2.478" x=".861" y="3.109" fill="#FFF" stroke="#F5F5F5" rx="1"/>
            <path fill="#FFF" stroke="#F5F5F5" d="M2.625 2.978h15.136V2a1.5 1.5 0 0 0-1.5-1.5H4.125a1.5 1.5 0 0 0-1.5 1.5v.978z"/>
        </g>
        <g transform="rotate(-35 135.467 -107.224)">
            <path fill="#FFF" stroke="#F5F5F5" d="M6.7 28.9l-.2-.15V1A.5.5 0 0 0 6 .5H5a.5.5 0 0 0-.5.5v27.75l-.2.15a2 2 0 1 0 2.4 0z"/>
            <rect width="10" height="5" x=".5" y="11.5" fill="#FFF" stroke="#F5F5F5" rx="2"/>
            <path fill="#8BC34B" fill-opacity=".1" d="M3 13h7.016v1.986a1 1 0 0 1-1 1H2V14a1 1 0 0 1 1-1z"/>
            <circle cx="5.5" cy="20.5" r="4" fill="#FFF" stroke="#F5F5F5"/>
            <circle cx="5.5" cy="7.5" r="4" fill="#FFF" stroke="#F5F5F5"/>
            <path fill="#FFF" d="M3 30h1v1H3z"/>
        </g>
        <g transform="rotate(45 3.4 424.743)">
            <path fill="#FFF" stroke="#F5F5F5" d="M6.7 28.9l-.2-.15V1A.5.5 0 0 0 6 .5H5a.5.5 0 0 0-.5.5v27.75l-.2.15a2 2 0 1 0 2.4 0z"/>
            <rect width="10" height="5" x=".5" y="11.5" fill="#FFF" stroke="#F5F5F5" rx="2"/>
            <path fill="#8BC34B" fill-opacity=".1" d="M3 13h7.016v1.986a1 1 0 0 1-1 1H2V14a1 1 0 0 1 1-1z"/>
            <circle cx="5.5" cy="20.5" r="4" fill="#FFF" stroke="#F5F5F5"/>
            <circle cx="5.5" cy="7.5" r="4" fill="#FFF" stroke="#F5F5F5"/>
            <path fill="#FFF" d="M3 30h1v1H3z"/>
        </g>
        <g>
            <g transform="rotate(30 56.028 335.987)">
                <circle cx="10.5" cy="8.5" r="3" fill="#FFF" stroke="#F5F5F5"/>
                <circle cx="15.5" cy="7.5" r="3" fill="#FFF" stroke="#F5F5F5"/>
                <circle cx="4.5" cy="7.5" r="3" fill="#FFF" stroke="#F5F5F5"/>
                <circle cx="8.5" cy="4.5" r="3" fill="#FFF" stroke="#F5F5F5"/>
                <circle cx="12.5" cy="3.5" r="3" fill="#FFF" stroke="#F5F5F5"/>
                <path fill="#FFF" stroke="#F5F5F5" d="M15.59 7.5c-1.509 1.988-3.382 3-5.587 3-2.205 0-3.979-1.014-5.277-3H2.278A1.5 1.5 0 0 0 .79 9.194l2.087 16A1.5 1.5 0 0 0 4.365 26.5h11.27a1.5 1.5 0 0 0 1.488-1.306l2.087-16A1.5 1.5 0 0 0 17.722 7.5h-2.131z"/>
                <path fill="#FFF" stroke="#F5F5F5" d="M2.266 14.5a1.5 1.5 0 0 0-1.489 1.686l.5 4A1.5 1.5 0 0 0 2.766 21.5h14.468a1.5 1.5 0 0 0 1.489-1.314l.5-4a1.5 1.5 0 0 0-1.489-1.686H2.266z"/>
                <path fill="#6F85FF" fill-opacity=".1" d="M4.239 16.732h14.41l-.42 3.396a1 1 0 0 1-.993.877H3.716L3.25 17.88a1 1 0 0 1 .99-1.148z"/>
                <circle cx="10" cy="18" r="1.5" fill="#FFF" stroke="#F5F5F5"/>
            </g>
            <g transform="rotate(-30 300.36 -277.519)">
                <circle cx="10" cy="10" r="9.5" fill="#FFF" stroke="#F5F5F5"/>
                <circle cx="10" cy="10" r="9.5" stroke="#F5F5F5"/>
                <path fill="#FF8200" fill-opacity=".1" d="M5.27 2.36C7.33 4.066 8.532 6.61 8.873 9.987c.51 5.066-1.798 8.68-1.61 8.656a9.107 9.107 0 0 0 10.07-13.967C14.243.787 10.223.015 5.27 2.359z"/>
                <path fill="#FFF" stroke="#F5F5F5" d="M4.468 2.336C5.4 3.91 7.584 4.529 11.12 4.122c3.065-.353 5.562.412 7.455 2.276-1.195-2.817-3.011-4.578-5.45-5.318C10.043.144 7.17.56 4.468 2.336z"/>
                <circle cx="10" cy="10" r="3.5" fill="#FFF" stroke="#F5F5F5"/>
            </g>
            <g transform="rotate(30 12.438 98.667)">
                <path fill="#FFF" stroke="#F5F5F5" d="M6.333 4.439l-.128.225-.259.025a4.917 4.917 0 1 0 5.365 5.365l.025-.259.225-.128a3.833 3.833 0 1 0-5.228-5.228z"/>
                <circle cx="14" cy="9" r="4.5" fill="#FFF" stroke="#F5F5F5"/>
                <path fill="#FFF" stroke="#F5F5F5" d="M2.932 11.5a1.5 1.5 0 0 0-1.439 1.925l2.067 7A1.5 1.5 0 0 0 4.999 21.5h10.003a1.5 1.5 0 0 0 1.439-1.075l2.067-7a1.5 1.5 0 0 0-1.439-1.925H2.932z"/>
                <path fill="#FFBA01" fill-opacity=".1" d="M5 14h12.83l-1.847 6.282a1 1 0 0 1-.959.718h-8.36a1 1 0 0 1-.95-.684l-1.663-5A1 1 0 0 1 5.001 14z"/>
                <circle cx="10" cy="2" r="1.5" fill="#FFF" stroke="#F5F5F5"/>
                <path fill="#FFF" d="M8 8h4v3H8z"/>
            </g>
            <g transform="rotate(-30 260.818 -406.114)">
                <path fill="#FFF" stroke="#F5F5F5" d="M6.333 4.439l-.128.225-.259.025a4.917 4.917 0 1 0 5.365 5.365l.025-.259.225-.128a3.833 3.833 0 1 0-5.228-5.228z"/>
                <circle cx="14" cy="9" r="4.5" fill="#FFF" stroke="#F5F5F5"/>
                <path fill="#FFF" stroke="#F5F5F5" d="M2.932 11.5a1.5 1.5 0 0 0-1.439 1.925l2.067 7A1.5 1.5 0 0 0 4.999 21.5h10.003a1.5 1.5 0 0 0 1.439-1.075l2.067-7a1.5 1.5 0 0 0-1.439-1.925H2.932z"/>
                <path fill="#FFBA01" fill-opacity=".1" d="M5 14h12.83l-1.847 6.282a1 1 0 0 1-.959.718h-8.36a1 1 0 0 1-.95-.684l-1.663-5A1 1 0 0 1 5.001 14z"/>
                <circle cx="10" cy="2" r="1.5" fill="#FFF" stroke="#F5F5F5"/>
                <path fill="#FFF" d="M8 8h4v3H8z"/>
            </g>
            <g transform="rotate(45 -93.939 218.474)">
                <path fill="#FFF" stroke="#F5F5F5" d="M11.342 1.801a1.5 1.5 0 0 0-2.684 0l-7.34 14.68-.011.024a1.5 1.5 0 0 0 .707 2C4.6 19.74 7.18 20.357 9.757 20.357c2.606 0 5.326-.63 8.164-1.895l.06-.029a1.5 1.5 0 0 0 .67-2.012L11.341 1.8z"/>
                <path fill="#E23F53" fill-opacity=".1" d="M11.023 2.283l6.968 13.938a2 2 0 0 1-1.356 2.847c-4.932 1.093-9.17 1.264-12.716.514-1.056 0 1.312-5.766 7.104-17.3z"/>
                <circle cx="10.524" cy="7.524" r="1" fill="#F5F5F5"/>
                <circle cx="7.667" cy="13.238" r="1" fill="#F5F5F5"/>
                <circle cx="13.333" cy="11.333" r="1" fill="#F5F5F5"/>
                <path fill="#FFF" stroke="#F5F5F5" d="M17.867 14.922c-2.648 1.714-5.242 2.576-7.78 2.576-2.541 0-5.185-.865-7.93-2.586l-.967 1.936-.028.06a1.5 1.5 0 0 0 .759 1.98c2.836 1.266 5.556 1.896 8.162 1.896 2.599 0 5.273-.627 8.026-1.885l.041-.02a1.5 1.5 0 0 0 .68-2.009l-.963-1.948z"/>
            </g>
            <g transform="rotate(-45 164.52 -325.005)">
                <path fill="#FFF" stroke="#F5F5F5" d="M11.342 1.801a1.5 1.5 0 0 0-2.684 0l-7.34 14.68-.011.024a1.5 1.5 0 0 0 .707 2C4.6 19.74 7.18 20.357 9.757 20.357c2.606 0 5.326-.63 8.164-1.895l.06-.029a1.5 1.5 0 0 0 .67-2.012L11.341 1.8z"/>
                <path fill="#E23F53" fill-opacity=".1" d="M11.023 2.283l6.968 13.938a2 2 0 0 1-1.356 2.847c-4.932 1.093-9.17 1.264-12.716.514-1.056 0 1.312-5.766 7.104-17.3z"/>
                <circle cx="10.524" cy="7.524" r="1" fill="#F5F5F5"/>
                <circle cx="7.667" cy="13.238" r="1" fill="#F5F5F5"/>
                <circle cx="13.333" cy="11.333" r="1" fill="#F5F5F5"/>
                <path fill="#FFF" stroke="#F5F5F5" d="M17.867 14.922c-2.648 1.714-5.242 2.576-7.78 2.576-2.541 0-5.185-.865-7.93-2.586l-.967 1.936-.028.06a1.5 1.5 0 0 0 .759 1.98c2.836 1.266 5.556 1.896 8.162 1.896 2.599 0 5.273-.627 8.026-1.885l.041-.02a1.5 1.5 0 0 0 .68-2.009l-.963-1.948z"/>
            </g>
            <g transform="rotate(-30 242.739 35.042)">
                <path fill="#FFF" stroke="#F5F5F5" d="M3.776 4.848a1.5 1.5 0 0 0-1.488 1.694l1.747 13.391a1.5 1.5 0 0 0 1.487 1.306h9.343a1.5 1.5 0 0 0 1.487-1.306l1.747-13.391a1.5 1.5 0 0 0-1.488-1.694H3.776z"/>
                <path fill="#FFF" stroke="#F5F5F5" d="M3.767 9.196a1.5 1.5 0 0 0-1.493 1.649l.47 4.696a1.5 1.5 0 0 0 1.492 1.35H16.48a1.5 1.5 0 0 0 1.493-1.35l.47-4.696a1.5 1.5 0 0 0-1.493-1.65H3.767z"/>
                <path fill="#FFF" stroke="#F5F5F5" d="M3.767 9.196a1.5 1.5 0 0 0-1.493 1.649l.47 4.696a1.5 1.5 0 0 0 1.492 1.35H16.48a1.5 1.5 0 0 0 1.493-1.35l.47-4.696a1.5 1.5 0 0 0-1.493-1.65H3.767z"/>
                <path fill="#42A5F5" fill-opacity=".1" d="M5.39 11.61h12.466l-.384 3.877a1 1 0 0 1-.995.902H5.09l-.68-3.593a1 1 0 0 1 .982-1.187z"/>
                <circle cx="10.435" cy="13.043" r="2.109" fill="#FFF" stroke="#F5F5F5"/>
                <rect width="18.639" height="2.478" x=".861" y="3.109" fill="#FFF" stroke="#F5F5F5" rx="1"/>
                <path fill="#FFF" stroke="#F5F5F5" d="M2.625 2.978h15.136V2a1.5 1.5 0 0 0-1.5-1.5H4.125a1.5 1.5 0 0 0-1.5 1.5v.978z"/>
            </g>
            <g transform="rotate(-35 135.467 -107.224)">
                <path fill="#FFF" stroke="#F5F5F5" d="M6.7 28.9l-.2-.15V1A.5.5 0 0 0 6 .5H5a.5.5 0 0 0-.5.5v27.75l-.2.15a2 2 0 1 0 2.4 0z"/>
                <rect width="10" height="5" x=".5" y="11.5" fill="#FFF" stroke="#F5F5F5" rx="2"/>
                <path fill="#8BC34B" fill-opacity=".1" d="M3 13h7.016v1.986a1 1 0 0 1-1 1H2V14a1 1 0 0 1 1-1z"/>
                <circle cx="5.5" cy="20.5" r="4" fill="#FFF" stroke="#F5F5F5"/>
                <circle cx="5.5" cy="7.5" r="4" fill="#FFF" stroke="#F5F5F5"/>
                <path fill="#FFF" d="M3 30h1v1H3z"/>
            </g>
            <g transform="rotate(45 3.4 424.743)">
                <path fill="#FFF" stroke="#F5F5F5" d="M6.7 28.9l-.2-.15V1A.5.5 0 0 0 6 .5H5a.5.5 0 0 0-.5.5v27.75l-.2.15a2 2 0 1 0 2.4 0z"/>
                <rect width="10" height="5" x=".5" y="11.5" fill="#FFF" stroke="#F5F5F5" rx="2"/>
                <path fill="#8BC34B" fill-opacity=".1" d="M3 13h7.016v1.986a1 1 0 0 1-1 1H2V14a1 1 0 0 1 1-1z"/>
                <circle cx="5.5" cy="20.5" r="4" fill="#FFF" stroke="#F5F5F5"/>
                <circle cx="5.5" cy="7.5" r="4" fill="#FFF" stroke="#F5F5F5"/>
                <path fill="#FFF" d="M3 30h1v1H3z"/>
            </g>
        </g>
    </g>
</svg>
