<svg xmlns="http://www.w3.org/2000/svg" xmlns:xlink="http://www.w3.org/1999/xlink" width="200" height="200" viewBox="0 0 200 200">
    <defs>
        <path id="a" d="M0 0h200v200H0z"/>
    </defs>
    <g fill="none" fill-rule="evenodd">
        <mask id="b" fill="#fff">
            <use xlink:href="#a"/>
        </mask>
        <g fill-rule="nonzero" mask="url(#b)">
            <path fill="#FB5373" d="M87.969 63.493a229.829 229.829 0 0 1 2.264-21.076c.054-.34-.47-.489-.524-.143a232.534 232.534 0 0 0-2.283 21.215c0 .35.52.35.543 0v.004zM83.511 61.215a124.01 124.01 0 0 1 .292-12.067c.027-.35-.52-.35-.543 0-.299 4.018-.398 8.04-.296 12.067a.274.274 0 0 0 .547 0zM87.762 12.26c-.668 1.233-1.062 3.305-1.201 6.229.22.157.35.411.35.681a6.103 6.103 0 0 1-.135 1.588c-.108.3-.26.448-.476.448-.529 0-.82-.215-.865-.654-.031-.274-.045-.776-.045-1.507a21.92 21.92 0 0 1 .812-6.188c-.66.237-1.3.522-1.92.852-.265.15-.546.272-.838.363-.377 0-.56-.198-.56-.61 0-.305.197-.547.623-.758.426-.21 1.05-.502 1.919-.897.295-.1.584-.216.865-.35a4.964 4.964 0 0 1 1.13-.47c.161.003.314.069.427.183.115.1.186.243.197.395a2.69 2.69 0 0 1-.283.695zM97.673 20.785c-.927.186-1.871.273-2.816.26-1.418 0-2.117-.449-2.117-1.4.089-.723.374-1.409.825-1.981.121-.153.56-.745 1.345-1.794 1.126-1.475 1.704-2.543 1.704-3.18a.511.511 0 0 0-.547-.582c-.7 0-1.583.35-2.632 1.018-.265.209-.57.362-.897.448-.412 0-.61-.242-.61-.744a.924.924 0 0 1 .426-.673 1.27 1.27 0 0 1 .686-.287c1.31-.686 2.346-1.036 3.103-1.036 1.157 0 1.754.579 1.754 1.736a3.843 3.843 0 0 1-.579 1.843c-.197.35-.672 1.049-1.417 2.116-.363.449-.713.942-1.067 1.413-.374.44-.654.953-.82 1.506 0 .198.38.292 1.174.292.652.006 1.304-.045 1.947-.153.081-.016.162-.037.242-.062.084-.027.172-.047.26-.059a.578.578 0 0 1 .641.655c-.009.359-.206.574-.605.664zM92.673 187.848c-.657.632-1.524 1-2.435 1.035-1.05 0-1.83-.578-2.332-1.708-.484-.027-.731-.229-.731-.592 0-.197.152-.413.448-.641a3.283 3.283 0 0 1-.031-.579c.005-1.235.176-2.464.507-3.654a9.283 9.283 0 0 1 1.506-3.3c.332-.45.606-.687.808-.687.394 0 .61.21.61.641 0 .153-.14.363-.4.655a4.53 4.53 0 0 0-.363.448c-.156.2-.284.42-.381.655a11.924 11.924 0 0 0-1.099 5.13 28.784 28.784 0 0 1 1.677-.865 4.933 4.933 0 0 1 1.826-.449c1.08 0 1.632.516 1.632 1.534a3.139 3.139 0 0 1-1.242 2.377zm-.485-2.727a4.09 4.09 0 0 0-1.69.489 6.278 6.278 0 0 0-1.525.973c.088.276.242.527.449.73.166.209.415.332.681.337a2.892 2.892 0 0 0 1.794-.686c.513-.329.837-.885.87-1.493 0-.229-.202-.35-.579-.35zM7.278 98.682a19.457 19.457 0 0 1-.942 4.34c-.672 1.597-1.735 2.39-3.166 2.39a2.148 2.148 0 0 1-.896-.183.695.695 0 0 1-.449-.61c0-.395.166-.606.502-.606.166.02.33.055.49.104.155.053.318.085.483.094.826 0 1.494-.565 2.014-1.709.452-1.173.714-2.412.776-3.668-.897 1.188-1.92 1.767-3 1.767a1.422 1.422 0 0 1-1.22-.579 2.139 2.139 0 0 1-.422-1.367 5 5 0 0 1 .942-2.91c.718-1.005 1.57-1.507 2.574-1.507.322.01.639.088.928.228.282.122.54.292.763.503.15.146.246.339.273.547.01.234-.06.465-.197.654a.865.865 0 0 1 .686.839 13.26 13.26 0 0 1-.139 1.673zm-1.749-2.906a1.067 1.067 0 0 0-.744-.26c-.583 0-1.099.367-1.538 1.067a3.74 3.74 0 0 0-.61 1.964c0 .502.21.744.637.744a2.359 2.359 0 0 0 1.461-.636c.433-.352.8-.779 1.081-1.26a12.4 12.4 0 0 1 .565-1.148 1.305 1.305 0 0 1-.852-.471zM174.004 97.493c-.441.433-.92.826-1.43 1.175l-1.004.731c2.067.166 3.103.928 3.103 2.27a2.69 2.69 0 0 1-1.346 2.268 4.83 4.83 0 0 1-2.744.79c-.46.002-.92-.049-1.368-.153-.641-.152-.96-.395-.96-.744 0-.449.198-.7.61-.7.313.05.623.115.929.197.292.08.594.12.897.121a3.619 3.619 0 0 0 1.874-.547c.592-.367.897-.73.897-1.098 0-.82-1.05-1.247-3.14-1.247h-.712a.498.498 0 0 1-.4-.152.556.556 0 0 1-.152-.408c0-.23.35-.597 1.054-1.081l2.144-1.48c.318-.196.61-.43.87-.7.216-.206.341-.49.35-.789 0-.336-.35-.52-1.037-.52a7.937 7.937 0 0 0-3.076.655 2.242 2.242 0 0 1-.287.152.655.655 0 0 1-.291.09.664.664 0 0 1-.449-.166.507.507 0 0 1-.197-.448.744.744 0 0 1 .323-.642c.591-.352 1.24-.599 1.915-.73a9.834 9.834 0 0 1 2.071-.256 2.901 2.901 0 0 1 1.525.394c.482.274.774.792.758 1.346a2.336 2.336 0 0 1-.727 1.672zM85.623 105.83a5.036 5.036 0 0 0 1.902 1.47c2.152.763 3.139.637 2.977-1.64-.161-2.279-1.726-4.171-3.139-5.965-6.542-8.273-11.412-17.937-19.161-25.112a1.135 1.135 0 0 0-.785-.404c-.318.063-.593.26-.753.543-1.023 1.345-1.381 1.56-1.166 2.085-.005.01 12.722 20.95 20.125 29.023z"/>
            <path fill="#FB5373" d="M85.435 106.036c.95 1.004 3.713 3.05 5.022 1.466 1.713-2.076-1.318-5.946-2.475-7.444-5.52-7.13-9.982-15.09-15.937-21.883-.95-1.09-2.637-3.588-4.036-4.08-1.013-.373-1.345.219-1.991 1.03-.753.942-.991 1.319-.448 2.319 2.215 4.112 5.017 8.018 7.591 11.906 3.794 5.735 7.65 11.583 12.287 16.686.234.255.62-.126.382-.386-6.373-7.018-11.49-15.318-16.552-23.318a748.493 748.493 0 0 1-2.538-4.036c-.422-.686-1.04-1.292-.897-2.085.144-.794 1.4-1.69 2.161-1.435.597.202 1.467 1.417 1.875 1.843a56.726 56.726 0 0 1 3.466 3.942c2.274 2.816 4.323 5.802 6.35 8.798 2.121 3.139 4.21 6.278 6.502 9.287 1.135 1.489 2.462 2.906 3.3 4.587.283.568.487 1.171.606 1.794.215 1.058.3 1.076-.66 1.758-1.376.982-2.582-.05-3.631-1.157-.234-.247-.62.152-.377.408z"/>
            <path fill="#FB5373" d="M86.202 103.65a1297.786 1297.786 0 0 0 8.968-58.48c.579-2.807 2.121-2.995 2.933-2.892 3.072.395 2.884 2.108 2.803 3.587-1.66 19.368-4.206 35.915-8.108 54.96-.578 2.825-.484 6.22-3.287 6.888-3.098.722-3.372-1.803-3.31-4.063z"/>
            <path fill="#FB5373" d="M86.466 103.726a1345.53 1345.53 0 0 0 8.467-54.618c.246-1.83.09-6.05 2.457-6.538 2.614-.548 3.368 1.7 3.215 3.708-.322 4.354-.811 8.7-1.309 13.036a433.885 433.885 0 0 1-3.888 26.511c-.897 4.982-1.92 9.937-2.86 14.91-.306 1.615-.346 3.444-1.095 4.933-.749 1.489-3.292 2.902-4.547.991-.52-.798-.449-2.103-.449-3.013a.274.274 0 0 0-.547 0c-.036 2.412.62 5.116 3.664 4.305 3.26-.861 3.139-5.278 3.655-7.929 2.157-10.816 4.112-21.663 5.583-32.596.73-5.465 1.36-10.946 1.892-16.444.229-2.404 1.834-7.345-1.193-8.646-2.475-1.058-4.09.449-4.619 2.83-.627 2.812-.77 5.83-1.161 8.682-.445 3.204-.894 6.41-1.345 9.618a1313.785 1313.785 0 0 1-6.449 40.108c-.058.35.467.493.53.152z"/>
            <path fill="#FFF" d="M88.52 102.552c-.65.19-1.206.613-1.565 1.188a1.95 1.95 0 0 0-.054 1.924 2.556 2.556 0 0 0 1.843 1.076c.33.07.67.06.996-.027.397-.157.74-.425.99-.771.161-.18.278-.395.342-.628.107-.507.148-1.588-.229-1.946a2.516 2.516 0 0 0-2.323-.816z"/>
            <path fill="#FB5373" d="M88.444 102.323c-1.292.448-2.435 1.717-1.892 3.18.448 1.174 2.215 1.842 3.354 1.39 1.139-.454 1.637-1.794 1.417-2.974-.22-1.18-1.709-1.726-2.816-1.605-.3.031-.305.511 0 .475.8-.138 1.614.145 2.157.75.524.699.215 1.99-.373 2.52a2.21 2.21 0 0 1-3.067-.35c-.897-1.207.184-2.507 1.346-2.929.322-.09.179-.565-.126-.457z"/>
            <path fill="#FFF" d="M59.417 161.749l.386-.274v-3.453l-2.884-.116.224 4.448 2.274-.44"/>
            <path fill="#040000" d="M52.964 75.982c1.471.4 4.094.623 5.417-.372.553-.5.968-1.133 1.206-1.839 2.942 1.547 5.274 1.875 8.072 3.727 5.283 3.484 1.368 8.542 1.597 12.188.35 5.53-2.036 17.888-2.49 18.749 0 0-1.838-.099-2.07-.117-1.288-.09-2.566-.273-3.84-.47a35.816 35.816 0 0 0-5.224-.49c-1.103 0-2.206.072-3.305.126a62.973 62.973 0 0 1-9.515-.17c-.422-.045-5.242-.686-5.287-.296-1.242-4.933-.13-10.215.448-15.161-.036.331-1.224.179-1.408.165-.448-.031-.87-.08-1.3-.139-.371.02-.743.01-1.113-.031a2.69 2.69 0 0 0-2.278.265.448.448 0 0 1-.188.08c-.206.023-.318-.233-.354-.448-.538-2.776-.718-5.623.318-8.3a10.879 10.879 0 0 1 4.686-5.62c3.462-1.923 7.785-3.506 11.453-4.995 1.713 1.628 2.888 2.525 5.175 3.148zM66.363 109.83a198.022 198.022 0 0 1-15.883 40.04 231.032 231.032 0 0 1-1.758 3.287c-.372.686-.897 2.363-1.547 2.798-.202.14.139.05-.287.085a3.48 3.48 0 0 1-.95-.345l-3.095-1.112c-.359-.13-1.708-.368-1.92-.69-.062-.104 1.135-3.238 1.283-3.767.924-3.296 1.664-6.642 2.323-10 1.69-8.664 2.87-17.422 4.3-26.13.054-.314-.448-.449-.48-.13-2.201 13.403-3.587 27.201-7.86 40.152a.26.26 0 0 0 .175.31l6.47 2.327a.251.251 0 0 0 .283-.112c8.292-14.678 15.018-30.296 19.43-46.583a.251.251 0 0 0-.484-.13zM43.996 156.95c-.292.78-.449 1.588-.722 2.377a.121.121 0 0 0 0 .059.094.094 0 0 0 0 .058c.367.655 4.591 7.682 4.686 7.623-.565.296-1.207-.22-1.637-.695l-5.144-5.7c-.103.144-.811 1.646-1.031 2.037a1.009 1.009 0 0 0-.484-.122 63.08 63.08 0 0 1 1.717-6.237l2.615.6z"/>
            <path fill="#040000" d="M43.717 156.861c-.282.843-.87 1.937-.627 2.807.242.87 1.045 1.758 1.484 2.489.7 1.152 1.4 2.31 2.108 3.453.305.484.627 1.282 1.09 1.655l.201-.494c-1.345.135-2.906-2.242-3.726-3.139l-2.866-3.161a.291.291 0 0 0-.448.058c-.166.305-.314.619-.471.928-.224.449-.274 1.086-.332.48-.103-1.031.69-2.83.982-3.811.34-1.162 0-1.543 1.117-1.287l1.695.38c.359.081.515-.475.152-.555l-2.619-.61a.3.3 0 0 0-.354.202c-.713 2.04-1.188 4.143-1.717 6.237a.287.287 0 0 0 .201.355l.485.12a.287.287 0 0 0 .323-.134c.157-.291.695-1.794.937-1.86-.054 0 2.278 2.788 2.511 3.044 1.063 1.175 2.332 3.489 4.13 3.31.22 0 .422-.319.206-.49-1.166-.932-2.009-3.174-2.77-4.439a21.386 21.386 0 0 1-1.526-2.529c-.417-.991 0-1.762.39-2.874.117-.332-.434-.494-.556-.135z"/>
            <path fill="#040000" d="M44.283 155.457l-.588 1.494c-.117.3.363.448.48.134l.587-1.48c.121-.296-.363-.426-.48-.13v-.018zM41.709 154.53a14.83 14.83 0 0 1-.687 2.241c-.116.296.368.426.485.13.284-.729.512-1.478.681-2.242.072-.314-.408-.448-.48-.134v.004zM59.184 73.92c-.785 2.493-3.852 2.376-5.906 1.878a11.314 11.314 0 0 1-5.61-3.52c-.21-.242-.565.112-.354.35 2.314 2.632 10.632 6.892 12.35 1.426.094-.305-.386-.449-.48-.135z"/>
            <path fill="#040000" d="M49.34 71.009c-2.501 2.65-6.542 3.18-9.744 4.726-3.08 1.485-5.636 3.39-7.358 6.395a.257.257 0 1 0 .448.251c2.05-3.587 5.435-5.56 9.14-7.107 2.77-1.157 5.739-1.642 7.887-3.915.22-.233-.135-.588-.354-.35h-.018zM66.605 107.955a485.63 485.63 0 0 0-28.82-1.412.251.251 0 0 0 0 .502 483.1 483.1 0 0 1 28.82 1.408c.319.027.319-.475 0-.498zM59.413 74.04c1.748 1.063 3.78 1.444 5.583 2.413a19.556 19.556 0 0 1 5.51 4.202c.211.242.561-.112.355-.355a19.888 19.888 0 0 0-4.892-3.874c-2.005-1.184-4.328-1.619-6.278-2.816a.257.257 0 1 0-.252.448l-.026-.018zM48.87 51.525a7.359 7.359 0 0 1 4.21 0l5.072 1.524c.379.09.74.24 1.068.449.349.223.55.618.524 1.031-.07.28-.17.55-.3.807-.39 1.121.547 1.866 1.188 2.61a9.48 9.48 0 0 0 2.624 2.27c.471.175.892.464 1.224.842.26.438.283.977.063 1.435-.228.45-.56.837-.969 1.13-1.018.79-4.368 1.664-3.87-.73.21-.996-.04-2.023-.287-3.005a19.345 19.345 0 0 0-1.072-3.39 5.323 5.323 0 0 1-.61-1.731 6.103 6.103 0 0 1-.932-.785 30.045 30.045 0 0 1-3.404 1.56c-.897.283-1.762.763-2.655.52 0 .79-.551.826-1.296 1.75.047.328.059.66.036.99a12.327 12.327 0 0 1-.336 3.086 1.063 1.063 0 0 0-1.202-.153c-.359.238-.381.897 0 1.054.17.072.368.045.53.13.16.109.28.266.345.449l.484 1.125c.099.198.16.412.18.633-.061.528-.405.982-.898 1.183-2.542 1.395-5.538-.57-5.964-3.305a1.717 1.717 0 0 1 .072-.964c.242-.391.576-.717.973-.95.646-.503 1.381-1.346 1.525-2.157.143-.812-.13-1.794-.144-2.646a5.758 5.758 0 0 1 .135-1.596 3.933 3.933 0 0 1 1.278-1.866 6.363 6.363 0 0 1 2.408-1.3z"/>
            <path fill="#040000" d="M56.66 53.767a11.525 11.525 0 0 1-2.768 1.345c-.896.287-2.6.193-3.291.713a6.323 6.323 0 0 0-1.4 1.866c-.376 1.026.584 2.69-.546 3.457-.225.157-.628 0-.897.188a1.184 1.184 0 0 0-.13 1.467c.094.143.264.21.376.332.678.717.601.246 1.072 1.372.834 1.986 1.346 3.87.552 5.982-.112.3.372.448.48.134a6.695 6.695 0 0 0-.032-4.847c-.282-.839-.708-1.66-.937-2.507 0 .058-1.502-2.134-.099-1.318a.247.247 0 0 0 .364-.148c.112-.541.196-1.087.25-1.637.05-.565-.143-1.82.055-2.345.448-1.13 1.838-1.628 2.87-1.857a12.52 12.52 0 0 0 4.309-1.794c.264-.174 0-.605-.251-.448l.022.045z"/>
            <path fill="#040000" d="M56.605 54.157c1.435 1.453 2.162 3.762 2.579 5.722a9.628 9.628 0 0 1 .139 4.036c-.287 1.291-1.184 2.045-1.695 3.139-.897 1.933.202 5.583 1.73 6.937.243.21.597-.139.355-.35-1.462-1.3-2.457-4.843-1.43-6.596.798-1.368 1.52-2.359 1.663-4.036.247-2.964-.852-7.067-2.986-9.229a.251.251 0 0 0-.355.35v.027z"/>
            <path fill="#040000" d="M55.152 58.296l1.274 3.067.17-.31a.66.66 0 0 1-.668-.304.251.251 0 0 0-.417.242.448.448 0 0 1-.036.448 3.108 3.108 0 0 1-.224-.26.242.242 0 0 0-.35 0c-.201.247-.897.673-.493-.246.126-.292-.305-.547-.448-.251-.449 1.049.493 1.83 1.273.847h-.35c.225.283.547.664.929.449.38-.216.273-.767.166-1.121l-.417.242c.24.39.71.574 1.152.448a.247.247 0 0 0 .175-.305l-1.274-3.067c-.12-.292-.605-.162-.48.134l.018-.013zM57.502 57.247a6.22 6.22 0 0 0-1.255.103c-.319.058-.184.538.13.48a5.578 5.578 0 0 1 1.125-.086.251.251 0 0 0 0-.497zM53.422 57.973a4.812 4.812 0 0 0-1.53.449c-.287.143-.035.574.251.448a4.036 4.036 0 0 1 1.279-.386c.313-.04.318-.538 0-.497v-.014zM53.726 62.655a2.099 2.099 0 0 1-1.385 2.69c-.305.099-.175.579.13.485a2.614 2.614 0 0 0 1.735-3.323c-.098-.305-.578-.175-.48.13v.018zM63.744 110.843a295.483 295.483 0 0 1-6.914 24.623c-.04.121.143.17.183.054a295.12 295.12 0 0 0 6.915-24.623c.032-.121-.157-.17-.184-.054zM61.614 110.372c-4.587 15.3-9.009 30.615-15.614 45.202-.05.112.117.21.166.099 6.61-14.601 11.04-29.933 15.637-45.251.036-.117-.153-.17-.189-.05zM57.556 108.798c-3.108 15.13-6.955 30.704-13.377 44.807-.053.108.112.207.166.095 6.426-14.117 10.287-29.7 13.395-44.843.027-.122-.157-.17-.184-.05v-.009zM52.265 118.135c-2.633 9.775-5.292 19.547-8.763 29.062-.045.117.144.166.184.05 3.475-9.512 6.13-19.283 8.762-29.059a.096.096 0 1 0-.183-.053z"/>
            <path fill="#040000" d="M64.65 115.193a28.103 28.103 0 0 0-5.56-2.92c-.117-.044-.166.14-.05.184 1.94.76 3.79 1.732 5.516 2.897.099.072.197-.094.094-.161zM62.368 121.31a25.646 25.646 0 0 0-9.718-2.978c-.12 0-.12.18 0 .188a25.426 25.426 0 0 1 9.624 2.955c.107.059.206-.107.094-.166zM60.583 127.843a33.946 33.946 0 0 0-9.996-3.18c-.12 0-.17.167-.049.189a33.632 33.632 0 0 1 9.946 3.17c.112.054.207-.112.099-.165v-.014zM58.4 133.327a43.726 43.726 0 0 0-11.068-3.64c-.121-.028-.17.16-.05.183 3.82.71 7.527 1.929 11.023 3.623.108.054.206-.112.094-.166zM55.408 138.47a124.88 124.88 0 0 0-9.525-3.353c-.116-.036-.166.148-.049.183 3.22.99 6.393 2.108 9.52 3.355.117.045.166-.14.054-.184zM52.879 143.946l-8.866-3.17c-.116-.04-.165.143-.049.184l8.861 3.175c.117.04.17-.144.054-.189zM50.641 147.152a57.82 57.82 0 0 1-6.592-2.82c-.112-.054-.206.112-.098.166a57.798 57.798 0 0 0 6.645 2.838c.117.045.166-.143.054-.184h-.009zM48.368 151.422a19.386 19.386 0 0 0-5.077-2.189.096.096 0 1 0-.053.184 19.197 19.197 0 0 1 5.031 2.153c.108.067.202-.1.099-.166v.018zM59.798 160.928c-.027.834 0 1.265 0 2.094a.238.238 0 0 0 0 .059c.011.02.025.038.04.054.557.502 6.79 5.83 6.866 5.748-.448.449-1.215.17-1.794-.143l-6.695-3.767c-.05.17-.246 1.82-.336 2.242a1.031 1.031 0 0 0-.493.04 55.076 55.076 0 0 1-.274-6.076l2.686-.25z"/>
            <path fill="#040000" d="M59.511 160.928c0 .897-.228 1.834.292 2.552.52.717 1.677 1.444 2.412 2.072 1.027.874 2.054 1.744 3.094 2.6.368.305.843.857 1.319 1.01l-.067-.525c-1.126.628-3.588-1.346-4.525-1.857l-3.637-2.054a.291.291 0 0 0-.421.17c-.081.45 0 1.754-.292 2.005.305-.273-.238-3.56-.247-3.995-.03-1.274-.569-1.395.691-1.52l1.686-.17c.368-.037.372-.61 0-.575l-2.664.27a.291.291 0 0 0-.287.286c-.04 2.032.126 4.036.27 6.077a.296.296 0 0 0 .291.287l.493-.04c.13-.002.243-.087.278-.212.05-.278.135-2.026.305-2.103-.157.068 1.229.929 1.435 1.045l2.13 1.197c1.265.713 3.278 2.539 4.803 1.687a.291.291 0 0 0-.067-.525c-.503-.162-1.175-.946-1.565-1.274-.87-.726-1.731-1.457-2.597-2.193-.686-.582-1.345-1.197-2.058-1.762-.816-.659-.507-1.282-.475-2.453a.298.298 0 1 0-.597 0z"/>
            <path fill="#040000" d="M60.054 161.117v-1.924a.251.251 0 0 0-.498 0v1.915a.251.251 0 0 0 .498 0v.009zM57.372 161.628c.036-.792.01-1.585-.08-2.372-.036-.314-.534-.319-.498 0 .09.787.116 1.58.08 2.372 0 .318.485.318.498 0z"/>
            <path fill="#FFF" d="M37.516 106.969c-2.032 8.645 2.636 12.461 5.807 15.816 2.462 2.605 5.076 5.202 6.776 8.403a39.646 39.646 0 0 1 3.48 9.417 38.34 38.34 0 0 1 .977 8.817c0 .78-.749 8.627-.664 8.659l6.727 1.09c.686-3.059 1.345-5.382 2.161-8.072 2.395-8.144 4.153-17.69-6.466-41.256"/>
            <path fill="#040000" d="M37.274 106.906c-.965 4.484-.39 8.668 2.466 12.336 3.247 4.162 7.596 7.345 10.143 12.072 2.987 5.538 4.713 12.291 4.395 18.596-.076 1.597-.26 3.193-.395 4.79-.09 1.053-.421 2.38-.228 3.43a.229.229 0 0 0 .17.175l6.727 1.09a.256.256 0 0 0 .309-.17c1.61-7.014 4.242-13.561 3.955-20.866-.39-9.969-4.26-19.642-8.287-28.633-.13-.291-.56-.04-.448.252 3.717 8.3 7.233 17.125 8.071 26.269a38.74 38.74 0 0 1-1.556 14.493c-.636 2.206-1.502 4.484-1.865 6.749 0 .054-.26 1.556-.108 1.421-.053.045-.448-.094-.497-.08-.552.094-1.409-.23-1.956-.319-1.161-.188-2.574-.215-3.686-.596-.614-.211-.278.103-.354-.13-.143-.413.099-1.377.13-1.794.247-3 .637-5.987.449-9a39.265 39.265 0 0 0-3.413-13.848c-2.161-4.798-5.771-8.336-9.345-12.107-3.857-4.036-5.435-8.4-4.229-14 .067-.314-.413-.449-.48-.13h.032z"/>
            <path fill="#040000" d="M50.327 108.031c9.207 13.682 11.077 31.803 8.902 47.808 0 .12.17.17.184.049 2.183-16.045.313-34.229-8.92-47.955-.067-.103-.233 0-.166.098z"/>
            <path fill="#040000" d="M46.879 109.525c4.202 6.497 6.21 14.125 7.65 21.65a90.507 90.507 0 0 1 1.202 26.327c0 .126.18.121.193 0a90.677 90.677 0 0 0-1.211-26.376c-1.44-7.543-3.457-15.184-7.668-21.696-.067-.103-.233 0-.166.095z"/>
            <path fill="#040000" d="M44.641 112.233a82.395 82.395 0 0 1 5.875 16.673c.027.12.21.072.184-.05a82.65 82.65 0 0 0-5.893-16.717c-.054-.112-.22 0-.166.094zM40.013 111.21a96.413 96.413 0 0 1 6.207 13.696c.04.112.228.063.184-.054a96.991 96.991 0 0 0-6.225-13.735c-.058-.113-.224 0-.166.094z"/>
            <path fill="#040000" d="M53.327 111.161c-4.775 1.189-9.51 2.543-14.287 3.736-.12.027-.071.215.05.184 4.775-1.18 9.51-2.525 14.287-3.736a.095.095 0 1 0-.05-.184zM57.65 115.888a75.507 75.507 0 0 0-15.291 3.282c-.117.04-.068.225.05.184a75.027 75.027 0 0 1 15.246-3.273c.12 0 .12-.207 0-.193h-.005zM60.283 122.596a77.336 77.336 0 0 0-13.005 2.323.095.095 0 1 0 .05.184 77.202 77.202 0 0 1 12.941-2.314c.121 0 .121-.202 0-.193h.014zM62.587 128.605a77.798 77.798 0 0 0-11.96.543c-.12 0-.12.206 0 .193a77.798 77.798 0 0 1 11.96-.53c.122 0 .122-.188 0-.192v-.014zM63.215 133.897a98.955 98.955 0 0 0-10.018 1.206c-.12.023-.071.206.05.188 3.3-.575 6.627-.98 9.968-1.21.121 0 .121-.202 0-.193v.009zM63.583 139.964a32.004 32.004 0 0 0-8.547.695c-.121.027-.072.211.05.184a31.839 31.839 0 0 1 8.52-.686c.125 0 .125-.184 0-.193h-.023zM63.13 145.493a45.047 45.047 0 0 0-7.421.247c-.122 0-.126.207 0 .193a44.559 44.559 0 0 1 7.421-.242c.121 0 .121-.184 0-.193v-.005zM61.314 151.874a12.031 12.031 0 0 0-6.345-.497c-.121.022-.072.206.049.184a11.874 11.874 0 0 1 6.242.497c.117.04.166-.143.054-.184z"/>
            <path fill="#FFF" d="M40.749 77.027a3.538 3.538 0 0 1 1.099 2.525.135.135 0 0 0 .264 0 3.803 3.803 0 0 0-1.175-2.713c-.12-.122-.314.067-.188.188zM41.256 76.233a2.05 2.05 0 0 1 1.174 1.453c.027.17.287.099.26-.067A2.291 2.291 0 0 0 41.39 76a.135.135 0 1 0-.134.233z"/>
            <path fill="#040000" d="M66.673 78.924c2.363 4.96 2.421 11.538.897 16.749-.664 2.242-1.624 4.376-2.498 6.524-.413 1.018-2.059 2.78-1.763 3.987.031.106.127.18.238.184.946.031 1.964-1.27 2.56-1.843.23-.22-.12-.574-.354-.35-.233.224-1.538 1.547-1.681 1.498-.386-.126.399-1.23.448-1.346.495-.882.933-1.794 1.314-2.73 1.054-2.655 2.242-5.256 2.758-8.072.874-4.83.668-10.377-1.466-14.861-.14-.292-.57-.036-.449.25l-.004.01zM30.117 101.516c.179.986.035 2.04.112 3.049.157 2.054.22 4.879.475 6.924 1.18.05 2.718-.655 3.883-.449-.192-.031.328-4.596.377-5.027.332-2.91 1.641-8.695 3.588-11 1.591-1.892 2.578.144 4.574-1.287l5.287-3.798c.199-.119.356-.298.448-.511a1.058 1.058 0 0 0-.054-.664 40.56 40.56 0 0 0-2.242-5.896c-.395-.83-.87-1.7-1.69-2.108-1.027-.511-5.26-4.641-6.323-4.197-2.74 1.139-4.458 2.327-6.624 6.228-.654 1.175-1.515 4.036-1.874 5.61-.597 2.69-.579 5.52-.57 8.233.06 1.647.272 3.285.633 4.893z"/>
            <path fill="#FFF" d="M37.982 95.92a20.628 20.628 0 0 0 1.52-3.404c.059-.166-.202-.233-.26-.072a19.73 19.73 0 0 1-1.47 3.34.135.135 0 0 0 .232.135h-.022z"/>
            <path fill="#040000" d="M57.283 59.336c.137-.016.24-.123.24-.249 0-.125-.103-.232-.24-.248-.138.016-.24.123-.24.248 0 .126.102.233.24.25zM55.462 63.53c.445.081.903-.02 1.273-.279.26-.184 0-.614-.25-.448-.256.194-.58.277-.898.228-.313-.053-.448.449-.134.48l.009.018zM53.767 59.644a.26.26 0 0 0-.354 0c-.252.206.103.57.354.365h.022-.354c.251.2.605-.164.354-.37l-.022.005zM86.744 70.188a.704.704 0 0 0-.695-.062c-.12.053-3.551 4.713-4.574 5.955-1.73 2.094-2.74 2.399-4.897 4.323-3.354 3-9.645-4.063-10.61-3.687-1.09.426-2.596 14.18-.896 13.086 2.009-1.296 7.771 1.031 10.672.161 4.691-1.408 7.731-6.067 10.314-12 .35-.909.75-1.798 1.198-2.664.318-.587 1.879-3.004 2.21-3.587 0-.027.032-.063 0-.085a.08.08 0 0 0-.04-.027c-.925-.41-1.82-.882-2.682-1.413z"/>
            <path fill="#040000" d="M85.865 70.018c-1.556 2.063-3.215 4.036-4.86 6.018-1.583 1.91-3.821 4.717-6.507 4.79-2.242.057-4.39-1.597-6.184-2.772-1.794-1.175-3.457-2.27-5.43-2.937-.26-.09-.373.318-.113.408 2.736.932 4.933 2.78 7.413 4.224 1.574.897 3.444 1.86 5.314 1.345 2.242-.592 4.175-2.79 5.578-4.484 1.745-2.117 3.511-4.202 5.162-6.395.166-.215-.202-.448-.368-.21l-.005.013zM64.314 90.942c1.502-2.754 7.108-.485 9.664-.547 2.69-.068 4.932-1.494 6.77-3.36 4.113-4.143 5.714-10.241 8.88-15.048.148-.23-.22-.449-.368-.216-3.323 5.05-4.964 11.66-9.628 15.736-3.367 2.941-6.677 2.448-10.762 1.906-1.794-.238-3.901-.516-4.901 1.313-.13.243.237.449.367.216h-.022z"/>
            <path fill="#FFF" d="M92.4 66.901c.304 0 .17.39-.09.449-.83.17-1.597.964-2.162 1.596.83-.38 1.7-.669 2.592-.86.287 0 .058.21-.045.295a15.4 15.4 0 0 0-2.287 1.991h.623c-.769.606-1.45 1.317-2.022 2.112"/>
            <path fill="#040000" d="M92.345 67.103c-.641-.269-2.022 1.345-2.345 1.69a.21.21 0 0 0 .256.333c.493-.22 2-1.01 2.57-.785l-.13-.31c-.207.413-.857.745-1.212 1.032a9.345 9.345 0 0 0-1.228 1.152.215.215 0 0 0 .152.363h.623l-.148-.363a11.848 11.848 0 0 0-2.058 2.153c-.161.22.206.448.368.215a11.44 11.44 0 0 1 1.99-2.067c.149-.121 0-.364-.152-.364h-.623l.148.364c.455-.502.957-.96 1.498-1.368.345-.27.807-.502 1.009-.897a.215.215 0 0 0-.126-.31c-.749-.295-2.202.52-2.897.826l.26.336c.356-.433.764-.82 1.216-1.152.278-.184.641-.234.897-.413.255-.18.38-.251.345-.565a.22.22 0 0 0-.157-.206l-.148-.063c-.251-.108-.363.305-.112.408l.004-.009z"/>
            <path fill="#FFF" d="M86.08 70.063c.87-1.413 1.826-3.4 3.211-4.31.418-.278.35.077.279.189-.355.538-1.068 1.224-1.346 1.793a7.888 7.888 0 0 1 1.745-1.112c.237-.112.547-.273.843-.399a2.69 2.69 0 0 1 .448-.166c.274 0 .153.198.031.292-.64.511-1.677 1.157-2.125 1.793a6.444 6.444 0 0 1 3.233-1.26"/>
            <path fill="#040000" d="M86.265 70.17c.58-1.064 1.229-2.09 1.941-3.071.178-.232.37-.45.579-.655.52-.502.753-.709.193-.072a6.96 6.96 0 0 0-.929 1.274.215.215 0 0 0 .337.26 9.202 9.202 0 0 1 1.695-1.08l.547-.265c.542-.193.641-.252.3-.18-.632.579-1.345.95-1.91 1.632-.14.17.04.485.256.332a6.83 6.83 0 0 1 3.139-1.233c.269-.036.273-.448 0-.426a7.233 7.233 0 0 0-3.341 1.292l.26.336a11.067 11.067 0 0 1 1.825-1.565c.21-.17.448-.287.475-.57a.215.215 0 0 0-.148-.26c-.412-.125-.83.17-1.197.346a10.61 10.61 0 0 0-2.188 1.345l.331.255c.072-.13 2.211-2.372 1.023-2.403-.601 0-1.39 1.139-1.7 1.542a34.6 34.6 0 0 0-1.843 2.956.215.215 0 0 0 .368.215l-.013-.005z"/>
            <path fill="#FB5373" d="M35.4 113.112c1.273-.058 1.268-.255 2.542-.206a.475.475 0 0 1 .524.48c.35 1.11.55 2.262.597 3.426a.605.605 0 0 1-.072.31.578.578 0 0 1-.314.214c-.44.156-.889.282-1.345.377-1.74.4-2.314.897-4.036 1.291a7.278 7.278 0 0 1-2.83.184.843.843 0 0 1-.448-.21 1.067 1.067 0 0 1-.184-.328 26.771 26.771 0 0 1-.767-2.955.655.655 0 0 1 .417-1.018l1.498-.52s.144-.04.21.318c.046.247.584 1.843.799 1.857.094 0-.282-1.597-.09-1.547.3.076 1.646 2.08 1.704 1.87.059-.211-.704-1.7-.484-1.62.449.162 1.372 1.427 1.655 1.445.282.018-.982-1.83-.745-1.991.238-.162 1.633 1.368 1.633 1.368a2.762 2.762 0 0 0-.48-1.283 3.287 3.287 0 0 1-.498-1.43c.072-.211.466-.018.713-.032z"/>
            <path fill="#040000" d="M30.915 113.901c-.763.265-1.937.341-2.157 1.26-.18.74.448 2.947.83 3.588 1.098 1.794 4.6.282 6.049-.242.92-.337 2.91-.408 3.533-1.207.422-.533.068-1.681-.049-2.282s-.175-1.879-.807-2.287c-.632-.408-2.242.022-2.982.139-.323.054-.184.538.134.489.713-.117 2.135-.543 2.758.09.274.277.346 1.345.413 1.703.448 2.332-1.677 2.332-3.381 2.965-1.04.385-3.14 1.278-4.247.896-1.21-.426-1.21-1.255-1.435-2.21-.08-.4-.17-.794-.265-1.189a2.507 2.507 0 0 1 1.736-1.237c.305-.103.175-.592-.135-.485l.005.01z"/>
            <path fill="#040000" d="M34.82 116.767l.18-.023a.202.202 0 0 0 .188-.143c.059-.305 0-.292-.13-.57-.13-.278-.529-.592-.7-.937a7.314 7.314 0 0 1-.403-1.139l-.323.188c.449.534 1.3 1.74 2.068 1.794a.197.197 0 0 0 .192-.197 1.664 1.664 0 0 0-.25-.713c-.36-.686-.661-1.402-.898-2.14l-.287.216.516.247a.193.193 0 0 0 .265-.265 9.596 9.596 0 0 1-.682-2.323c-.045-.242-.421-.139-.377.103.134.837.372 1.654.709 2.431l.264-.265-.52-.26a.197.197 0 0 0-.287.22c.211.726.642 1.345.87 2.054.175.547 0 .148-.314-.121a13.901 13.901 0 0 1-1-1.054.197.197 0 0 0-.327.188c.103.341.704 2.381 1.242 2.319-.246.027-.251.417 0 .39h.005z"/>
            <path fill="#040000" d="M30.686 111.327c.099.982.13 1.973.287 2.947.094.605.233 1.825.776 2.242 1.004.784.18-2.117.17-2.287l-.363.098c.318.66 1.256 2.552 2.094 2.69a.206.206 0 0 0 .242-.134c.081-.264-.049-.426-.161-.663a10.933 10.933 0 0 1-.897-2l-.354.148a6.574 6.574 0 0 0 2.242 2.376c.21.135.404-.201.193-.336a6.117 6.117 0 0 1-2.094-2.242.197.197 0 0 0-.355.152c.189.78.803 1.426 1.005 2.148-.121-.448-1.224-1.6-1.579-2.327a.197.197 0 0 0-.363.094c.032.411.103.818.21 1.215 0 .05.243.704.1.498-.17-.3-.287-.628-.346-.968a24.35 24.35 0 0 1-.448-3.65c-.027-.247-.413-.252-.39 0h.031z"/>
            <path fill="#FB5373" d="M108.332 75.996c1.345 2.493 3.305 5.215 6.507 4.107 3.636-1.255 6.421-5.758 8.547-8.749l-.512-.3c-1.793 2.789-4.39 7.74-3.112 11.161 1.18 3.14 6.386 2.588 8.938 2.166.376-.063.215-.637-.157-.574-3.543.583-8.996.628-8.305-4.35a20.022 20.022 0 0 1 3.139-8.103c.21-.323-.292-.605-.512-.3-1.686 2.368-3.52 4.834-5.686 6.789-1.65 1.489-3.789 2.66-5.874 1.175-1.14-.807-1.825-2.117-2.466-3.323-.184-.336-.696-.036-.516.3h.009z"/>
            <path fill="#FB5373" d="M108.749 78.05l.08 3.928c.028 1.255.346 3.026.081 4.25-.497 2.279-2.134 2.315-4.036 1.902a22.296 22.296 0 0 1-3.654-1.188c-.314-.13-.52.385-.229.542a7.901 7.901 0 0 1 1.839 12.758c-.234.229.085.677.358.449 1.592-1.189 3.803-2.153 5.103-.036.362.697.622 1.443.772 2.215.475 1.825.897 3.677 1.323 5.511.062.274.524.296.574 0 .52-3.345 2.166-6.278 5.964-5.695 2.475.377 4.758 1.753 6.762 3.193.27.193.52-.166.408-.408a30.395 30.395 0 0 1-1.614-4.126c-.345-1.148-1.05-2.982-.897-4.157.408-3.475 5.04-4.376 7.92-4.484a.3.3 0 0 0 .147-.556c-.897-.448-1.888-.404-2.793-.785-1.296-.547-2.243-2.17-1.31-3.498.632-.896 1.682-1.578 2.61-2.143.327-.197.027-.713-.3-.511-1.65 1.004-3.835 2.515-3.296 4.793.538 2.279 3.139 1.794 4.789 2.66l.152-.556c-2.551.103-7.273.896-8.359 3.7-.448 1.13 0 2.596.252 3.717a30.206 30.206 0 0 0 2.201 6.278l.408-.408c-2.354-1.691-5.327-3.476-8.34-3.36-3.44.135-4.794 3.216-5.26 6.22h.574c-.606-2.515-.812-6.327-2.516-8.416-1.641-2.01-3.839-.897-5.556.372l.363.448a8.48 8.48 0 0 0-1.96-13.695l-.228.547c1.852.758 5.83 2.56 7.7.848.923-.843.735-2.207.721-3.332-.036-2.327-.098-4.655-.148-6.982a.296.296 0 0 0-.592 0l-.013.004z"/>
            <path fill="#FB5373" d="M118.888 86.305c-.144.17-.26.251-.332.242a1.067 1.067 0 0 1-.354-.099 4.277 4.277 0 0 1-.345-.179c-.157-.067-.476-.166-.951-.318a52.624 52.624 0 0 0-1.731 4.865c.528.52 1.023 1.07 1.484 1.65a2.69 2.69 0 0 1 .583 1.794 2.901 2.901 0 0 1-1.054 2.135 3.404 3.404 0 0 1-2.296.775l-.09 1.005c-.071.79-.354 1.166-.824 1.125-.471-.04-.637-.331-.628-.852l.148-1.51a9.229 9.229 0 0 1-2.79-1.624.726.726 0 0 1-.282-.69c.04-.45.291-.646.776-.606.325.121.639.271.937.448.345.211.865.494 1.538.839a37.43 37.43 0 0 1 .897-4.036c-1.229-1.265-1.794-2.404-1.713-3.39a3.318 3.318 0 0 1 1.377-2.453 5.35 5.35 0 0 1 2.749-.987c.18-.403.394-.79.64-1.156a.897.897 0 0 1 .754-.332.502.502 0 0 1 .413.255c.1.14.149.309.139.48a3.215 3.215 0 0 1-.381.839c.391.091.763.252 1.098.475.341.247.502.498.476.767a1.045 1.045 0 0 1-.238.538zm-4.964.417a1.565 1.565 0 0 0-.65.991 2.69 2.69 0 0 0 .757 1.915 46.08 46.08 0 0 1 1.256-3.588c-.489.151-.95.382-1.363.682zm.78 5.753a32.359 32.359 0 0 0-.646 3.184 2.52 2.52 0 0 0 1.18-.403c.295-.211.489-.537.533-.897.027-.449-.323-1.085-1.067-1.884z"/>
            <path fill="#FB5373" d="M173.13 50.08c15.202 25.561 17.69 58.337 6.278 85.79-11.412 27.453-38.744 54.507-67.713 61.121l-1.448.955c0 .825.726 1.283 1.892 1.493 8.121-1.686 20.587-5.287 30.404-12.6 8.448-6.278 16.408-10.687 24.91-13.3 12.883-12.633 22-27.517 25.336-38.804 8.794-29.753 7.283-61.435-8.623-88.062a93.668 93.668 0 0 0-16.798-20.888c-14.525-4.893-31.05-14.664-44.175-19.673C112.399 1.987 100.646.897 91.825.762c-.619.36-.982.803-.995 1.346 33.43 1.96 64.9 18.717 82.3 47.973z"/>
            <path fill="#FB5373" d="M172.897 50.224a97.758 97.758 0 0 1 10.417 73.018c-5.955 23.413-21.498 44.35-40.776 58.623a94.395 94.395 0 0 1-16.933 10.063 76.372 76.372 0 0 1-9.488 3.588c-2.157.65-4.157.941-6.04 2.18a.291.291 0 0 0-.126.308c.592 3.287 6.417.74 8.273.238a87.708 87.708 0 0 0 13.206-4.686c10.238-4.628 18.48-12.489 28.799-17.04a72.585 72.585 0 0 1 4.444-1.794c.897-.318 2.098-.47 2.883-.964.785-.493 1.673-1.655 2.354-2.363a122.72 122.72 0 0 0 3.287-3.556c3.601-4.05 6.911-8.35 9.906-12.866a81.915 81.915 0 0 0 11.359-25.453c5.238-20.735 5.516-42.937-1.18-63.385a98.655 98.655 0 0 0-15.116-28.83 99.753 99.753 0 0 0-4.381-5.381c-1.794-2.04-3.74-4.52-5.942-6.121-1.56-1.14-4.036-1.61-5.83-2.332a176.522 176.522 0 0 1-8.313-3.588c-10.628-4.865-20.924-10.74-31.974-14.645a83.072 83.072 0 0 0-18.009-4.036 110.651 110.651 0 0 0-8.968-.69c-1.722-.064-3.668-.633-4.193 1.466a.274.274 0 0 0 .265.34c25.56 1.583 50.596 11.857 68.61 30.328a95.206 95.206 0 0 1 13.452 17.515.274.274 0 0 0 .471-.273 97.26 97.26 0 0 0-37.533-35.538 106.426 106.426 0 0 0-24.095-9.3 110.87 110.87 0 0 0-12.865-2.458c-2-.263-4.004-.47-6.013-.623-.498-.04-2.933 0-.39-.924a5.66 5.66 0 0 1 1.3.031c1.37.042 2.737.105 4.103.189a90.22 90.22 0 0 1 30.843 7.412c9.292 4.085 18.247 8.888 27.534 13.005 1.973.874 3.964 1.717 5.973 2.506 2.69 1.063 5.013 1.767 7.103 3.843a91.368 91.368 0 0 1 10.22 12.108 98.345 98.345 0 0 1 13.901 28.359c6.05 20.018 5.511 41.551.305 61.681a81.004 81.004 0 0 1-11.103 24.53 114.072 114.072 0 0 1-10.09 13.053c-1.677 1.875-3.587 4.633-5.91 5.727-2.13 1.009-4.511 1.592-6.686 2.551a85.484 85.484 0 0 0-13.74 7.817c-4.3 2.95-8.363 6.008-13.072 8.313a83.408 83.408 0 0 1-13.856 5.234c-1.713.484-3.444.928-5.18 1.322-.399.095-4.076.933-3.646-.614.175-.628 2.189-1.063 2.574-1.161 17.875-4.682 33.539-15.695 45.933-29.202 12.588-13.718 22.099-30.332 25.861-48.668a98.655 98.655 0 0 0-5.215-56.547 96.126 96.126 0 0 0-6.242-12.592.275.275 0 0 0-.471.282zM80.888 70.74l-2.66 4.125c-.188.292.283.565.472.274l2.659-4.126c.188-.296-.278-.57-.449-.273h-.022z"/>
        </g>
    </g>
</svg>
