<svg xmlns="http://www.w3.org/2000/svg" xmlns:xlink="http://www.w3.org/1999/xlink" width="200" height="200" viewBox="0 0 200 200">
    <defs>
        <path id="a" d="M0 0h200v200H0z"/>
    </defs>
    <g fill="none" fill-rule="evenodd">
        <mask id="b" fill="#fff">
            <use xlink:href="#a"/>
        </mask>
        <g fill-rule="nonzero" mask="url(#b)">
            <path fill="#040000" d="M105.686 95.335a8.068 8.068 0 0 0 1.9 1.572c.245.15.455-.237.227-.383a7.667 7.667 0 0 1-1.822-1.503c-.187-.215-.501.1-.314.314h.009zM101.95 100.173c-1.53.415-4.26.647-5.636-.392a4.556 4.556 0 0 1-1.257-1.909c-3.057 1.609-5.467 1.937-8.228 4.055a25.385 25.385 0 0 0-4.961 5.535c-1.986 3.435 4.77 7.38 4.05 12.688a54.67 54.67 0 0 1 .082 6.087s-.041 3.28-.032 3.39l.319 4.268s3.19-.059 3.449-.073c1.34-.095 2.67-.287 4-.492a37.385 37.385 0 0 1 5.412-.51c1.148 0 2.278.077 3.444.132 3.3.192 6.61.132 9.9-.178.456-.05 5.467-.715 5.499-.31 1.294-5.115.911-10.537.346-15.68 1.107.2 1.576-3.19 2.574-3.704 1.248-.66 5.982 2.925 6.747 1.73 2.465-3.858-4.934-10.774-8.405-12.705-3.604-2-8.1-3.645-11.914-5.194-1.785 1.677-3.011 2.615-5.39 3.262z"/>
            <path fill="#040000" d="M95.016 98.155c1.768 5.626 10.369 1.298 12.788-1.499.187-.214-.127-.533-.314-.314a11.995 11.995 0 0 1-5.5 3.59c-2.2.633-5.694.82-6.546-1.896-.086-.273-.515-.154-.428.119z"/>
            <path fill="#040000" d="M107.28 96.907c2.643 1.471 5.64 2.1 8.351 3.448 3.189 1.572 5.863 3.6 7.645 6.72a.225.225 0 0 0 .387-.228 16.478 16.478 0 0 0-6.606-6.255c-3.066-1.68-6.52-2.378-9.567-4.068a.223.223 0 0 0-.223.383h.013zM86.574 133.982a520.669 520.669 0 0 1 31.17-1.526.228.228 0 1 0 0-.456c-10.399.2-20.789.71-31.17 1.526-.282.023-.287.456 0 .456zM80.76 110.451c.203-.777.462-1.538.775-2.278"/>
            <path fill="#040000" d="M94.998 97.736c-1.463.888-3.103 1.234-4.652 1.922a21.909 21.909 0 0 0-3.767 2.228 14.861 14.861 0 0 0-5.235 6.191c-.118.26.264.488.383.224 1.366-3.012 3.503-5.075 6.273-6.834 2.278-1.453 4.938-1.95 7.226-3.34a.223.223 0 0 0-.228-.382v-.01z"/>
            <path fill="#040000" d="M64.702 96.219a.747.747 0 0 1 .729-.064c.127.06 3.722 4.938 4.792 6.237 1.823 2.196 2.825 2.565 5.13 4.528 4.1 3.49 9.927-4.615 10.934-4.218 1.139.455 2.884 15.207 1.107 14.063-2.105-1.366-8.137 1.08-11.175.169-4.907-1.472-8.091-6.35-10.784-12.57a26.88 26.88 0 0 0-1.262-2.77c-.328-.62-1.963-3.143-2.314-3.753 0-.028-.032-.064 0-.092.032-.027.027 0 .045-.027 1.012-.387 1.818-.993 2.798-1.503z"/>
            <path fill="#040000" d="M65.24 96.264c1.822 2.397 3.73 4.693 5.653 6.998 1.417 1.7 3.512 3.995 5.804 4.465 4.228.865 8.096-4.766 11.517-6.401.26-.123.032-.506-.223-.383-1.718.811-3.162 2-4.624 3.19-1.645 1.343-3.827 3.398-6.141 3.188-2.652-.21-4.925-3.093-6.506-5.011-1.727-2.082-3.463-4.146-5.094-6.305-.168-.228-.555 0-.382.223l-.005.036z"/>
            <path fill="#040000" d="M88.579 117.736c-1.048-1.927-3.271-1.627-5.158-1.367-1.767.237-3.549.638-5.344.579-2.405-.078-4.4-1.19-6.154-2.78-4.725-4.291-6.424-11.052-9.855-16.282-.155-.237-.542 0-.382.228 3.262 4.975 4.929 11.22 9.111 15.563 1.772 1.85 3.991 3.44 6.61 3.685 2.798.264 9.172-2.373 10.798.606.137.25.524.027.383-.223l-.01-.01zM98.793 82.273v.037l-.028-.2.16-.124h-.041l.255.069v.196c.292-.16.032-.61-.264-.456a.392.392 0 0 0-.091.62.255.255 0 0 0 .255.063.342.342 0 0 0 .205-.5c-.141-.306-.588-.042-.456.259l.005.036zM103.084 83.194v.05l-.228.127-.132-.073-.027-.2.11-.11.25.069v.173c.182-.282-.269-.542-.456-.26a.35.35 0 0 0 .11.497.323.323 0 0 0 .455-.232.319.319 0 0 0-.319-.383.35.35 0 0 0-.296.456c.096.318.597.182.501-.137l.032.023z"/>
            <path fill="#040000" d="M108.205 75.048a7.69 7.69 0 0 0-4.387-.269L98.442 76a3.567 3.567 0 0 0-1.144.405 1.185 1.185 0 0 0-.596 1.003c.054.295.14.584.255.86.323 1.194-.702 1.905-1.422 2.63a9.818 9.818 0 0 1-2.888 2.173 3.212 3.212 0 0 0-1.335.792c-.3.438-.362.997-.164 1.49.2.48.512.906.911 1.24 1.007.91 4.428 2.04 4.078-.488-.146-1.048.182-2.096.51-3.103.353-1.187.81-2.341 1.367-3.448.352-.537.61-1.13.76-1.754.752.127 1.508.482 2.278.519.79.055 1.58.055 2.37 0 .962-.097 1.92-.25 2.865-.456a1.822 1.822 0 0 0 1.33 1.823c-.063 0-.51 2.67-.528 2.897a12.861 12.861 0 0 0 .132 3.24 1.103 1.103 0 0 1 1.257-.078.66.66 0 0 1-.09 1.098c-.178.06-.383 0-.557.09a.911.911 0 0 0-.387.457l-.588 1.138c-.116.2-.195.42-.232.647.029.55.35 1.043.843 1.29 2.542 1.63 5.8-.196 6.437-3.012a1.822 1.822 0 0 0 0-1.007 2.957 2.957 0 0 0-.943-1.061c-.638-.565-1.344-1.472-1.435-2.346-.09-.875.264-1.868.333-2.734a5.804 5.804 0 0 0-.023-1.663 4.128 4.128 0 0 0-1.198-2.036 6.67 6.67 0 0 0-2.433-1.558z"/>
            <path fill="#040000" d="M107.499 86.93c-.456.232-.565.628-.788 1.097-.406.861-.911 1.672-1.299 2.538a5.33 5.33 0 0 0-.296 3.995.26.26 0 0 0 .501-.136c-.455-1.545-.196-2.734.51-4.142.36-.72.912-2.555 1.636-2.906.3-.146.037-.592-.264-.456v.01z"/>
            <path fill="#040000" d="M107.28 85.895c.214-.127.497-.346.761-.314a.487.487 0 0 1 .369.56c-.027.524-.42.624-.847.761-.32.105-.183.606.136.501.377-.065.722-.25.984-.528.196-.282.28-.626.233-.966a.984.984 0 0 0-.62-.802 1.563 1.563 0 0 0-1.275.337c-.288.178-.028.624.26.456v-.005z"/>
            <path fill="#040000" d="M98.187 78.046c1.567.41 3.188.581 4.806.505.715-.04 1.399-.164 2.1-.264 1.271-.182.579-.219 1.144.456.724.91.911.91.802 2.109-.227 1.59-.275 3.2-.146 4.802.036.328.556.332.52 0a14.83 14.83 0 0 1 .455-5.982.264.264 0 0 0-.182-.319L106.6 77.69a.26.26 0 0 0-.328-.25 15.44 15.44 0 0 1-7.954.086c-.328-.077-.456.424-.141.501l.009.019z"/>
            <path fill="#040000" d="M98.269 78.387c-1.403 2.784-2.861 5.973-2.278 9.167.128.703.364 1.383.701 2.013.657 1.23.975 1.581.68 3.12-.251 1.286-.702 4.215-1.969 4.812-.3.146-.036.592.264.455.912-.428 1.208-1.412 1.477-2.318.364-1.258 1.275-3.244 1.034-4.556a3.048 3.048 0 0 0-.456-.852c-.774-1.408-1.307-2.465-1.367-4.1-.063-2.63 1.176-5.203 2.328-7.486.15-.296-.3-.56-.455-.26l.04.005zM100.724 81.444l-1.544 3.098a.264.264 0 0 0 .155.383c.45.149.946-.007 1.23-.387l-.456-.256c-.136.365-.291.957.146 1.199.437.241.73-.173.961-.429l-.405-.054c.232.337.592.747 1.052.578.46-.168.515-.856.378-1.284-.1-.32-.6-.183-.5.136l-.484.31a.26.26 0 0 0-.405-.055c-.119.128-.264.456-.346.205-.046-.14.059-.341.104-.455.096-.255-.26-.428-.432-.255l-.72.255.155.382 1.54-3.097c.15-.301-.301-.565-.456-.265l.027-.009z"/>
            <path fill="#040000" d="M98.806 80.911a5.59 5.59 0 0 1 1.167.173.26.26 0 0 0 .136-.5 6.292 6.292 0 0 0-1.303-.192c-.332 0-.332.505 0 .52zM102.925 81.94c.481.095.943.269 1.367.516a.262.262 0 0 0 .26-.456 4.884 4.884 0 0 0-1.49-.565c-.329-.064-.456.456-.142.501l.005.005zM101.882 86.128a2.733 2.733 0 0 0 1.59 3.567c.31.123.455-.378.136-.501a2.2 2.2 0 0 1-1.225-2.925c.118-.315-.383-.456-.501-.141z"/>
            <path fill="#FB5373" d="M43.995 68.875l3.786-.16c.324 0 .324-.515 0-.5l-3.786.159c-.323 0-.323.514 0 .5zM43.736 70.774a24.282 24.282 0 0 1 4.018-.455.25.25 0 0 0 0-.501 25.016 25.016 0 0 0-4.155.455c-.314.064-.182.547.137.483v.018z"/>
            <path fill="#040000" d="M99.909 86.752c.364.059.724.136 1.084.232.182.032.36.085.529.16.082.045.095.036.054-.028-.036.091-.082.182-.123.269-.214.433-1.011 1.508-1.499.715-.173-.282-.624 0-.455.264.606.985 1.781.338 2.237-.419.177-.305.565-.874.191-1.175a2.246 2.246 0 0 0-.806-.287c-.36-.096-.72-.173-1.085-.232-.364-.06-.455.455-.136.5h.009z"/>
            <path fill="#FFF" d="M135.768 28.246h2.56a.287.287 0 0 0 0-.57h-2.57a.287.287 0 0 0 0 .57h.01z"/>
            <path fill="#040000" d="M86.314 132.897c-1.043 18.68.652 37.732 4.26 56.069.03.114.133.193.25.191l7.171-.187a.264.264 0 0 0 .26-.26c0-15.357 2.734-30.72 5.094-45.84.054-.328-.456-.455-.502-.141-1.33 8.47-2.637 16.943-3.644 25.453-.488 4.1-.911 8.228-1.18 12.36a146.451 146.451 0 0 0-.237 4.902c0 .761.187 1.914-.041 2.629-.187.592.455.168-.406.392-.86.223-2.027.054-2.92.077-.893.023-2.219.314-3.057.082-.305-.086-.341.027-.424-.077-.091-.498-.158-1-.2-1.504a211.58 211.58 0 0 1-.665-3.781 266.498 266.498 0 0 1-2.642-21.075 208.15 208.15 0 0 1-.584-29.29c0-.332-.5-.332-.519 0h-.014zM120.428 187.886c.72.488 1.066.775 1.768 1.285a.146.146 0 0 1 .045.045.15.15 0 0 1 0 .064c.082.78.748 9.308.634 9.321.665-.09.91-.91.97-1.585l.957-7.95c.173.06 1.68.911 2.11 1.107.078-.157.193-.293.336-.396a57.558 57.558 0 0 0-4.956-3.964l-1.864 2.073z"/>
            <path fill="#040000" d="M120.273 188.155c1.23.86 1.686 1.052 1.8 2.47.077.97.155 1.944.223 2.92.105 1.366.693 3.644.31 4.983a.305.305 0 0 0 .456.342c1.512-.692 1.27-3.12 1.43-4.496.16-1.376.114-3.085.524-4.424.21-.688-.36-.51.61-.123.397.155.77.414 1.153.606a.305.305 0 0 0 .36-.05l.342-.397a.31.31 0 0 0 0-.423c-1.64-1.367-3.262-2.775-5.012-4.01a.3.3 0 0 0-.364.046l-1.89 2.1c-.256.287.163.711.423.424l.934-1.043c.91-1.025.697-1.034 1.822-.073.911.756 2.583 1.599 3.19 2.606.295.51-.402-.155-.661-.292-.26-.136-.638-.346-.962-.501a.305.305 0 0 0-.455.26l-.524 4.423c-.146 1.244.064 4.265-1.235 4.861l.456.338c.168-.602-.032-1.45-.069-2.064-.09-1.408-.196-2.811-.305-4.214-.064-.852.087-2.21-.241-3.012-.328-.802-1.235-1.23-1.991-1.763-.337-.241-.638.278-.324.506z"/>
            <path fill="#040000" d="M118.843 187.052l1.613 1.18c.268.196.528-.255.26-.455l-1.613-1.18c-.27-.196-.529.255-.26.455zM120.528 184.72a15.12 15.12 0 0 0 2 1.562c.278.187.543-.264.26-.455a15.28 15.28 0 0 1-1.895-1.485c-.246-.228-.615.14-.365.369v.009z"/>
            <path fill="#FFF" d="M117.827 131.344c1.467 4.583.141 9.567-1.367 14.123-1.18 3.554-2.506 7.162-2.697 10.934-.152 3.502.142 7.01.875 10.437a39.959 39.959 0 0 0 2.966 8.761c.346.743 4.519 7.827 4.45 7.895l-5.065 5.09c-6.97-9.9-18.028-13.75-18.502-49.61"/>
            <path fill="#040000" d="M117.585 131.412c1.923 6.72-1.366 13.02-3.093 19.376-1.449 5.276-1.248 10.793-.118 16.119a39.144 39.144 0 0 0 4.46 11.44c.788 1.366 1.59 2.733 2.364 4.1.633 1.125.775.724-.132 1.635l-3.235 3.248c-.164.169-.724.911-.943.948.27-.032-.287-.67-.55-1.02-1.272-1.659-2.68-3.19-4.065-4.77-3.412-3.846-6.432-7.882-8.478-12.634-4.15-9.64-4.898-20.542-5.062-30.902a.26.26 0 1 0-.519 0c.182 11.54 1.07 23.982 6.67 34.346 3.139 5.81 8.082 10.073 11.845 15.394a.26.26 0 0 0 .405.055l3.162-3.189c.456-.455 1.9-1.44 1.973-2.168.086-.848-1.449-2.63-1.864-3.358-.86-1.49-1.785-2.961-2.56-4.497-3.563-7.038-5.034-16.173-3.084-23.863 1.708-6.743 5.33-13.34 3.303-20.437a.26.26 0 1 0-.501.14l.022.037zM93.827 190.465c.032.87-.068 1.722-.064 2.592.004.02.004.04 0 .06a.246.246 0 0 1-.04.054c-.58.524-7.067 6.1-7.149 6.018.456.456 1.271.173 1.85-.155l6.98-3.945c.054.173.263 1.895.355 2.355.173-.031.351-.018.519.037.16-2.383.414-4.465.342-6.743l-2.793-.273z"/>
            <path fill="#040000" d="M93.526 190.465c0 1.202.214 2.14-.414 2.833a24.25 24.25 0 0 1-2.278 1.95 312.27 312.27 0 0 1-2.647 2.242c-.456.392-1.14 1.216-1.718 1.407a.305.305 0 0 0-.073.552c1.604.888 3.613-.98 4.943-1.736.283-.155 3.846-2.337 3.777-2.383.233.155.278 1.918.324 2.192a.305.305 0 0 0 .291.223l.52.036a.305.305 0 0 0 .3-.3c.16-2.246.378-4.488.337-6.743a.305.305 0 0 0-.296-.3l-2.783-.274c-.383-.036-.383.56 0 .601l1.58.155c.192 0 .784-.032.957.096.173.128-.05 1.125-.064 1.585-.036 1.062.164 3.34-.291 4.296-.178.37-.123-.528-.164-.815-.05-.36-.091-.72-.16-1.075a.3.3 0 0 0-.455-.178l-3.809 2.169c-.98.556-3.562 2.556-4.683 1.931l-.073.547c.524-.173 1.034-.77 1.444-1.112 1.07-.91 2.128-1.79 3.19-2.692.76-.651 1.876-1.326 2.473-2.137.597-.81.383-2.045.378-3.07a.303.303 0 0 0-.606 0z"/>
            <path fill="#040000" d="M93.508 188.888l.096 1.668c0 .332.537.332.519 0l-.096-1.668c0-.332-.537-.332-.519 0zM96.36 188.815a16.014 16.014 0 0 0-.05 2.429c0 .332.537.332.52 0-.043-.81-.027-1.621.05-2.429.036-.332-.488-.328-.52 0zM88.897 134.77a312.588 312.588 0 0 0-1.22 26.66.1.1 0 0 0 .2 0c.027-8.902.434-17.788 1.22-26.66 0-.128-.186-.128-.2 0zM91.162 135.002c-.497 17.827-.957 35.704.91 53.476 0 .128.215.128.201 0-1.881-17.767-1.421-35.649-.91-53.476a.1.1 0 0 0-.201 0zM95.7 134.77c-.994 8.492-1.463 17.057-1.723 25.604-.278 8.893-.4 17.89.565 26.751 0 .123.214.128.196 0-.961-8.86-.834-17.858-.56-26.751.26-8.543.729-17.112 1.722-25.604 0-.128-.187-.123-.2 0zM97.882 145.759c-.666 11.795-1.303 23.603-.68 35.412 0 .127.206.132.201 0-.624-11.809 0-23.617.679-35.412 0-.128-.191-.128-.2 0zM103.103 134.533c-2.675 17.057 3.571 35.08 12.724 49.285.068.105.241 0 .173-.105-9.112-14.16-15.367-32.128-12.706-49.125.023-.128-.173-.183-.191-.055z"/>
            <path fill="#040000" d="M107.043 134.42c-1.17 8.505.52 17.12 2.688 25.334a92.907 92.907 0 0 0 10.141 24.064.101.101 0 0 0 .174-.105 92.114 92.114 0 0 1-9.918-23.235c-2.278-8.4-4.1-17.27-2.893-25.995 0-.123-.173-.178-.192-.05v-.014z"/>
            <path fill="#040000" d="M110.346 136.018a87.048 87.048 0 0 0 1.823 18.41c.027.128.218.073.195-.054a86.56 86.56 0 0 1-1.822-18.356c0-.127-.196-.127-.2 0h.004zM114.273 132.984a100.46 100.46 0 0 0 .178 15.708c0 .128.21.133.2 0a100.46 100.46 0 0 1-.177-15.708c0-.132-.192-.128-.2 0zM87.403 139.187c2.378-.15 4.761-.125 7.14-.275.127 0 .127-.225 0-.22-2.379.15-4.762.125-7.14.275-.127 0-.127.23 0 .22zM87.08 145.786a26.615 26.615 0 0 1 10.478.232c.128.032.178-.164.055-.191a26.989 26.989 0 0 0-10.606-.232c-.128.022-.073.214.055.19h.018zM86.706 152.847a35.499 35.499 0 0 1 10.87.114c.123.023.178-.168.05-.191a35.863 35.863 0 0 0-10.97-.119c-.128 0-.073.215.05.196zM87.048 158.998a45.822 45.822 0 0 1 12.1 0c.128 0 .182-.173.055-.192a46.041 46.041 0 0 0-12.16-.027c-.123 0-.127.219 0 .2l.005.019zM88.296 165.117c3.511-.23 7.022-.304 10.533-.22.04.01.081-.009.104-.046a.119.119 0 0 0 0-.123.096.096 0 0 0-.104-.046 119.428 119.428 0 0 0-10.533.215c-.127 0-.127.23 0 .22zM89.011 171.363l9.818-.26a.108.108 0 0 0 .08-.107.108.108 0 0 0-.08-.108l-9.818.26a.108.108 0 0 0-.079.108c0 .052.033.096.08.107zM90.26 176.683a62.041 62.041 0 0 0 7.517-.637c.127 0 .073-.21-.055-.192a61.96 61.96 0 0 1-7.462.629c-.128 0-.128.205 0 .2zM91.353 183.763a20.091 20.091 0 0 1 5.69-.496c.132 0 .128-.196 0-.2a20.296 20.296 0 0 0-5.745.505c-.123.027-.072.223.055.191z"/>
            <path fill="#040000" d="M101.904 139.039c5.044-.98 10.119-1.79 15.162-2.775.123-.023.073-.218-.055-.191-5.043.98-10.118 1.79-15.157 2.774-.127.023-.073.22.05.192zM99.932 145.412a78.214 78.214 0 0 1 15.854-3.644c.127 0 .127-.219 0-.2a78.396 78.396 0 0 0-15.904 3.644c-.123.04-.069.232.05.191v.01zM100.405 152.916a80.597 80.597 0 0 1 13.28-3.531c.128 0 .074-.219-.05-.196a80.665 80.665 0 0 0-13.284 3.535c-.119.041-.069.237.054.192zM100.902 159.604a80.342 80.342 0 0 1 11.517-4.766.102.102 0 0 0-.055-.196 80.998 80.998 0 0 0-11.562 4.811c-.114.06 0 .233.1.173v-.022zM102.62 164.92c3.268-1.264 6.6-2.357 9.981-3.275a.1.1 0 0 0-.054-.192 102.1 102.1 0 0 0-9.978 3.271c-.123.05-.068.242.05.196zM104.975 170.784a32.88 32.88 0 0 1 8.337-3.098c.128-.028.073-.224-.05-.192a33.144 33.144 0 0 0-8.387 3.116.1.1 0 0 0 .1.174zM107.845 175.813a46.219 46.219 0 0 1 7.098-3.039c.123-.04.073-.236-.05-.195a46.88 46.88 0 0 0-7.148 3.061c-.114.06 0 .232.1.173zM112.424 181.011a12.191 12.191 0 0 1 5.685-3.22.102.102 0 0 0-.054-.196 12.424 12.424 0 0 0-5.773 3.27.1.1 0 0 0 .142.142v.004zM61.294 90.893c-.196.21.16 1.335.228 1.535.173.47.382.928.624 1.367a.223.223 0 0 0 .414-.11c-.036-.564-.287-2.36.123-2.82h-.314c.374.402.483 1.335.67 1.855.165.458.366.903.601 1.33a.223.223 0 0 0 .406-.05l.223-.62h-.428c.338.987.797 1.928 1.366 2.802.16.242.542 0 .388-.223a11.982 11.982 0 0 1-1.33-2.697.223.223 0 0 0-.429 0l-.223.62.405-.055a12.492 12.492 0 0 1-.91-2.255 2.606 2.606 0 0 0-.457-1.02.219.219 0 0 0-.314 0c-.574.642-.305 2.345-.25 3.134l.414-.114a7.458 7.458 0 0 1-.638-1.417c-.109-.387-.032-.843-.136-1.203-.105-.36-.11-.455-.456-.556a.223.223 0 0 0-.219.055l-.114.128c-.195.21.119.524.315.314h.04z"/>
            <path fill="#040000" d="M62.141 97.95c-.91-1.098-1.895-2.146-2.556-3.403-1.057-2 .31.273.738.77a.223.223 0 0 0 .374-.214 10.633 10.633 0 0 1-.456-2.055c0-.1-.337-1.412-.059-.761.315.752.433 1.503.848 2.214a.228.228 0 0 0 .41-.173 7.24 7.24 0 0 1-.087-3.517c.064-.278-.369-.396-.428-.119a7.923 7.923 0 0 0 .082 3.754l.41-.173c-.456-.788-.551-1.68-.911-2.492-.11-.237-.114-.4-.356-.528a.228.228 0 0 0-.305.077c-.578.775.173 3.08.456 3.891l.369-.219c-.187-.218-1.449-2.91-1.978-1.922-.264.492.543 1.717.78 2.1a29.476 29.476 0 0 0 2.387 3.084c.177.223.492-.09.314-.314h-.032zM140.724 96.219a.747.747 0 0 0-.729-.064c-.127.06-3.722 4.938-4.792 6.237-1.823 2.196-2.825 2.565-5.13 4.528-4.1 3.49-9.927-4.615-10.934-4.218-1.139.455-2.884 15.207-1.107 14.063 2.105-1.366 8.137 1.08 11.175.169 4.916-1.472 8.1-6.35 10.798-12.57a26.88 26.88 0 0 1 1.257-2.788c.328-.62 1.964-3.143 2.314-3.754 0-.027.032-.063 0-.09-.032-.028-.027 0-.045-.028-1.02-.37-1.827-.975-2.807-1.485z"/>
            <path fill="#040000" d="M139.804 96.041c-1.558 2.064-3.212 4.041-4.86 6.027-1.65 1.987-3.955 5.035-6.739 5.28-2.214.201-4.328-1.74-5.923-3.02-1.594-1.28-3.043-2.533-4.856-3.385-.255-.123-.483.26-.223.383 3.421 1.617 7.262 7.289 11.512 6.4 2.278-.455 4.383-2.756 5.804-4.464 1.918-2.31 3.85-4.601 5.654-6.998.173-.228-.214-.455-.383-.223h.014z"/>
            <path fill="#040000" d="M117.23 117.959c1.626-2.98 8-.342 10.797-.606 2.615-.246 4.839-1.822 6.61-3.686 4.174-4.341 5.841-10.587 9.112-15.562.16-.242-.227-.456-.382-.228-3.43 5.23-5.135 11.99-9.854 16.282-3.586 3.258-7.08 2.789-11.5 2.2-1.885-.25-4.1-.55-5.157 1.368-.136.25.247.455.383.223l-.009.009zM144.446 90.579l-.113-.128a.223.223 0 0 0-.22-.055c-.336.082-.364.26-.455.556-.09.296-.027.816-.136 1.203a7.745 7.745 0 0 1-.634 1.417l.415.114c.05-.811.333-2.479-.255-3.135a.219.219 0 0 0-.315 0c-.223.303-.379.652-.455 1.02-.23.78-.535 1.536-.911 2.256l.405.055-.223-.62a.223.223 0 0 0-.428 0 11.982 11.982 0 0 1-1.33 2.697c-.155.241.227.456.387.223a12.683 12.683 0 0 0 1.366-2.802h-.428l.223.62a.223.223 0 0 0 .406.05c.237-.426.438-.87.601-1.33.192-.524.287-1.449.67-1.854h-.314c.414.455.159 2.278.123 2.82a.223.223 0 0 0 .414.109c.242-.44.45-.896.624-1.367.082-.241.433-1.316.228-1.535.196.21.51-.105.314-.314h.041z"/>
            <path fill="#040000" d="M143.6 98.246c.808-.92 1.568-1.88 2.277-2.88.26-.4 1.203-1.762.911-2.304-.533-.994-1.822 1.735-1.982 1.922l.37.219c.277-.834 1.029-3.103.455-3.89a.228.228 0 0 0-.305-.078c-.237.127-.246.287-.356.528-.378.816-.455 1.695-.91 2.492l.41.173a7.923 7.923 0 0 0 .081-3.754c-.059-.278-.492-.16-.428.119a7.403 7.403 0 0 1-.082 3.517.223.223 0 0 0 .405.173c.415-.71.533-1.467.848-2.214.237-.56 0 .3-.037.528a10.87 10.87 0 0 1-.483 2.278.223.223 0 0 0 .374.214c.433-.496 1.795-2.77.738-.77-.66 1.258-1.667 2.306-2.556 3.404-.177.223.137.537.315.314l-.046.009z"/>
            <path fill="#FB5373" stroke="#FB5373" stroke-width=".33" d="M85.895 3.959A13.025 13.025 0 0 1 92.77.743a24.415 24.415 0 0 1 11.75 1.366c6.683 2.383 13.293 8.2 11.963 15.996a26.56 26.56 0 0 1-1.79 5.549c-.77 1.881-1.477 3.931-2.534 5.676-.997 1.654-2.683 2.556-4.4 3.312a22.925 22.925 0 0 1-5.012 1.563c-4.064.743-7.786-.141-11.449-1.932-3.08-1.503-6.21-3.289-8.464-5.922-1.435-1.69-2.47-3.69-2.579-5.923-.105-2.127.456-4.205.943-6.255.857-3.535 1.9-7.635 4.688-10.173.205-.182-.086-.497-.287-.314-2.592 2.355-3.69 6.032-4.556 9.312-.943 3.608-2.045 7.517-.278 11.048 1.681 3.353 4.834 5.658 8.041 7.435 3.463 1.918 7.144 3.567 11.18 3.457 3.6-.095 7.709-1.243 10.665-3.362 1.463-1.052 2.196-2.528 2.898-4.145.911-2.11 1.863-4.224 2.606-6.406 1.203-3.544 1.23-7.098-.478-10.478-1.709-3.38-4.684-5.941-8.037-7.609C103.54.893 98.77-.25 94.16.155a15.968 15.968 0 0 0-5.035 1.12 14.164 14.164 0 0 0-3.517 2.37c-.21.182.082.492.287.314z"/>
            <path fill="#FB5373" stroke="#FB5373" stroke-width=".33" d="M95.28 19.795c1.221-.219 2.688-.533 3.399-1.672a4.67 4.67 0 0 0 .383-1.011c.21-.537.46-1.056.751-1.554a2.861 2.861 0 0 0 .292-1.772 5.162 5.162 0 0 0-.538-2.041 2.187 2.187 0 0 0-.455-.515c-.1-.063-.203-.12-.31-.168a.843.843 0 0 1-.725-.739c-.287-.391-.337-.596-.87-.692-.3-.055-.61.023-.91 0a3.062 3.062 0 0 1-1.368-.702 1.986 1.986 0 0 0-1.49-.323 9.845 9.845 0 0 1-1.54.077c-.355 0-.36-.086-.705.046-.912.337-1.303 1.312-2.306 1.567-.57.146-1.366.1-1.822.56-.938.953.775 1.518 1.417 1.85 1.982 1.034 2.733 3.221 3.266 5.244a.215.215 0 0 0 .42-.1c-.606-2.278-1.49-4.556-3.745-5.636-.1-.05-.734-.232-.848-.414-.505-.834.301-.889.793-.99a3.9 3.9 0 0 0 1.513-.496c.656-.428.856-.874 1.662-1.02.593-.11 1.212-.16 1.823-.237 1.175-.15 1.344.456 2.232.838.42.182.838.046 1.248.16.62.177.77.724 1.126 1.139.247.177.506.338.774.483.428.283.703.746.747 1.257.248.79.226 1.64-.063 2.415a16.36 16.36 0 0 0-.802 1.658c-.538 1.685-1.855 2.1-3.472 2.392-.269.045-.173.455.1.414l.023-.018z"/>
            <path fill="#FB5373" stroke="#FB5373" stroke-width=".33" d="M96.314 9.608a2.943 2.943 0 0 1-.455-2.5c.168-.58.66-.976.797-1.55.173-.733-.565-2.369.952-1.85.57.196 1.075.711 1.627.98 1.323.564 2.721.937 4.15 1.107 1.184.191 2.35.319 3.449-.26l-.315-.196c.105 1.126.51 2.246.456 3.376a4.656 4.656 0 0 1-1.822 3.48c-.215.174.077.484.291.315a5.057 5.057 0 0 0 1.886-3.052c.26-1.394-.246-2.734-.373-4.1a.219.219 0 0 0-.315-.196c-1.576.829-3.836.191-5.467-.233a9.658 9.658 0 0 1-2.733-1.193 3.535 3.535 0 0 0-1.704-.688.228.228 0 0 0-.21.15 5.622 5.622 0 0 0-.373 1.75c-.096.879-.488 1.266-.706 2.036a3.335 3.335 0 0 0 .455 2.83c.155.227.533.027.378-.201l.032-.005z"/>
            <path fill="#FB5373" stroke="#FB5373" stroke-width=".33" d="M102.71 21.29a28.378 28.378 0 0 1-2.095-2.16c-.911-1.153-.3-2.902.355-4.05a4.027 4.027 0 0 1 2.734-2.091c.988-.224 2-.456 2.998-.61 1.407-.247 2.341.231 3.189 1.366.565.742.938 1.768 1.553 2.446.456.483 1.162.105 1.267.798.036.255-.05.606-.032.879.04.633.241 1.426-.397 1.822l.306.141a1.312 1.312 0 0 0-1.672-.842 5.85 5.85 0 0 0-1.417.72c-.797.443-1.633.814-2.497 1.106a.228.228 0 0 0-.16.26l.115.456a.215.215 0 1 0 .419-.096c-.119-.492 1.307-.83 1.708-1.03.702-.35 2.656-1.872 3.09-.487a.214.214 0 0 0 .304.141c.857-.537.67-1.367.63-2.25-.051-1.14.455-1.367-.63-1.763a1.622 1.622 0 0 1-1.148-.912 25.074 25.074 0 0 0-.574-.91 9.626 9.626 0 0 0-1.107-1.427 2.934 2.934 0 0 0-2.733-.888c-1.367.21-2.948.405-4.219.911a4.665 4.665 0 0 0-2.278 2.355c-.455.912-.911 2.278-.638 3.326.324 1.212 1.768 2.205 2.602 3.062.196.2.51-.091.319-.287l.009.013z"/>
            <path fill="#FB5373" stroke="#FB5373" stroke-width=".33" d="M85.608 5.294c-3.294 5.968 4.164 11.9 8.834 14.228 4.911 2.45 10.77 3.362 16.064 1.708 1.448-.456 3.002-1.03 3.986-2.232a8.114 8.114 0 0 0 1.886-4.524c0-.274-.405-.287-.424 0a7.745 7.745 0 0 1-1.626 4.059c-.97 1.294-2.574 1.886-4.073 2.342-2.134.678-4.378.939-6.61.77a24.528 24.528 0 0 1-14.064-5.991c-2.797-2.438-5.686-6.342-3.595-10.128.132-.241-.227-.455-.36-.232h-.018zM82.806 7.982c-1.02 2.71.492 6.314 2.137 8.496.164.219.478-.073.314-.287-1.562-2.068-3.002-5.53-2.054-8.086.095-.255-.31-.383-.41-.123h.013z"/>
            <path fill="#FB5373" stroke="#FB5373" stroke-width=".33" d="M96.87 24.292a28.934 28.934 0 0 0 11.417.938c3.216-.405 6.446-1.736 8.041-4.743.128-.241-.232-.455-.36-.232-1.663 3.14-5.098 4.31-8.428 4.629a28.601 28.601 0 0 1-10.542-1.002.215.215 0 1 0-.128.41zM85.17 9.399c1.204-1.968 3.103-2.87 5.24-3.513a16.4 16.4 0 0 1 5.772-.774c.16 0 .169-.237 0-.251a17.216 17.216 0 0 0-6.537 1.002c-1.941.647-3.6 1.618-4.688 3.404-.082.136.127.268.21.132h.004zM107.175 8.715a16.483 16.483 0 0 1 7.185 9.317c.045.15.291.096.241-.06a16.752 16.752 0 0 0-7.289-9.466c-.141-.087-.273.127-.137.21z"/>
            <path fill="#FB5373" stroke="#FB5373" stroke-width=".33" d="M83.964 9.112c.072 6.801 6.651 11.922 12.574 13.963 1.713.532 3.476.89 5.262 1.07 1.733.278 3.495.334 5.243.17 3.19-.392 6.082-1.727 8.114-4.22.105-.122-.11-.259-.21-.131-2.113 2.596-5.298 3.922-8.605 4.173a22.21 22.21 0 0 1-4.533-.242 26.21 26.21 0 0 1-5.199-1.039C90.797 20.834 84.287 15.8 84.214 9.112a.128.128 0 0 0-.25 0zM97.932 4.524L97.89 5.59c-.155.064-.315.128-.456.178-.082.032-.15.05-.232.086a1.462 1.462 0 0 0-.615.456 2.774 2.774 0 0 0-.456 1.458c0 .16.232.168.25 0 .092-.912.347-1.472 1.208-1.795.31-.073.592-.23.815-.456a.793.793 0 0 0-.382-1.225c-.15-.064-.219.177-.078.241l-.013-.01zM105.24 6.538a3.786 3.786 0 0 1 1.197 2.21c.028.159.27.1.246-.056a3.986 3.986 0 0 0-1.27-2.323c-.12-.11-.301.06-.183.169h.01zM105.025 7.53a8.41 8.41 0 0 1 .72 1.855c.036.155.282.1.241-.055a8.743 8.743 0 0 0-.738-1.918.128.128 0 0 0-.223.119zM104.911 9.99c0-.34-.364-2.97-1.148-2.277-.146.128-.096.278-.073.456.046.337.119.665.155 1.006.022.59.235 1.158.606 1.618.11.118.296-.05.187-.169-.565-.606-.492-1.421-.629-2.182 0-.114-.214-.56.178-.406.1.037.205.479.241.579.14.443.219.903.233 1.367 0 .16.255.168.25 0v.009zM98.588 6.219a3.695 3.695 0 0 0-1.048 3.444.128.128 0 0 0 .246-.055 3.421 3.421 0 0 1 .975-3.189c.114-.11-.055-.296-.173-.182v-.018z"/>
            <path fill="#FB5373" stroke="#FB5373" stroke-width=".33" d="M98.825 6.98c-.383.687-.757 1.444-.524 2.246.045.15.287.095.246-.06-.214-.733.136-1.421.487-2.054.078-.142-.132-.274-.21-.133z"/>
            <path fill="#FB5373" stroke="#FB5373" stroke-width=".33" d="M99.704 6.674c-.656.989-1.326 2.233-.501 3.326.1.128.282-.041.187-.169-.752-.988-.055-2.15.523-3.02.092-.137-.123-.269-.21-.137zM100.915 7.203a2.511 2.511 0 0 0 0 2.16c.07.145.31.027.24-.12a2.281 2.281 0 0 1 0-1.967c.07-.146-.195-.22-.26-.073h.02zM102.606 6.765c.144.425.182.873.11 1.312-.025.16.25.164.275 0 .07-.458.029-.924-.12-1.366-.05-.155-.315-.1-.265.054zM99.65 13.212a5.435 5.435 0 0 0 1.872.62c.268.04.282-.388 0-.429a4.793 4.793 0 0 1-1.654-.551c-.242-.132-.456.228-.232.36h.013zM90.492 10.528a4.656 4.656 0 0 1 3.75 3.19c.5 1.758-.862 3.03-1.167 4.66-.032.155.21.232.237.073.36-1.918 1.859-3.189 1.016-5.248a4.975 4.975 0 0 0-3.763-2.916c-.155-.027-.228.21-.073.241zM96.305 13.731c.551-.433 1.29-.747 1.982-.382.096.05.31.15.1.2-.077 0-.26-.096-.355-.114a1.526 1.526 0 0 0-.688.05c-.155.041-.1.283.055.242.365-.05.737-.012 1.084.114a.456.456 0 0 0 .314-.028c.224-.15.132-.4-.04-.542a2.364 2.364 0 0 0-1.367-.319c-.475.061-.918.27-1.267.597-.128.1.041.282.169.182h.013zM97.271 14.42a.374.374 0 0 0-.319.3.132.132 0 0 0 .082.155c.294.125.577.278.843.455.25.173.642.41.674.738 0 .16.264.1.246-.054-.036-.337-.323-.542-.574-.738a5.212 5.212 0 0 0-1.111-.647l.082.155.136-.133c.16-.027.1-.273-.059-.241v.01zM98.237 16.76c-.273-.97-1.476-.883-2.278-.728a.124.124 0 1 0 .055.241c.624-.123 1.735-.264 1.959.542.045.155.287.1.246-.054h.018zM95.845 12.861a2.83 2.83 0 0 1 1.34-.729c.273-.064.765-.032.728-.455 0-.155-.26-.169-.246 0 .014.168-.528.2-.637.227a3.19 3.19 0 0 0-1.367.766c-.114.109.055.291.168.182l.014.009zM95.417 11.982a4.729 4.729 0 0 1 1.408-.984c.145-.069.027-.287-.119-.219a4.765 4.765 0 0 0-1.458 1.02c-.109.114.06.297.169.183zM95.567 10.346l-.724.693a.124.124 0 1 0 .168.182l.725-.688c.118-.114-.05-.296-.169-.187zM94.697 10.023l-.528.578c-.11.119.059.301.168.183l.529-.574c.104-.119-.064-.306-.169-.187zM93.5 9.658l-.21.624a.116.116 0 0 0 .03.121.145.145 0 0 0 .13.037.132.132 0 0 0 .1-.085l.21-.624c.022-.065-.018-.135-.09-.155-.072-.02-.148.017-.17.082zM92.246 9.799l-.055.17a.14.14 0 0 0 .265.08l.05-.17a.136.136 0 0 0-.26-.08zM111.554 15.918c-1.24-.25-2.47.314-3.445 1.061-1.34 1.03-1.239 2.565-1.212 4.1 0 .16.256.17.251 0-.023-1.298-.187-2.774.88-3.74.883-.801 2.254-1.453 3.448-1.207.16.027.232-.21.078-.241v.027z"/>
            <path fill="#FB5373" stroke="#FB5373" stroke-width=".33" d="M108.838 16.738c.647.25.046 1.65-.132 2.036a5.075 5.075 0 0 1-1.011 1.426c-.114.114.054.301.168.187a5.18 5.18 0 0 0 1.367-2.373c.141-.56.319-1.262-.333-1.513-.15-.06-.223.182-.072.237h.013zM89.444 12.214a3.235 3.235 0 0 1 3.043.41c.133.091.27-.118.137-.21a3.453 3.453 0 0 0-3.234-.455c-.15.055-.096.296.054.241v.014zM105.253 16.538c-.911-.237-2.36-.912-3.271-.433-.178.1-.392.278-.269.505.123.228.911.192 1.157.174.16 0 .169-.265 0-.251-.168.014-1.462.073-.56-.287a2.023 2.023 0 0 1 1.03.041c.614.137 1.225.328 1.822.492a.128.128 0 0 0 .073-.241h.018zM104.67 17.335a6.61 6.61 0 0 0-2.866 0c-.36.096-.706.487-.291.765.132.091.268-.123.132-.21-.347-.236.701-.391.706-.391.269-.033.54-.05.81-.05.482.001.963.049 1.436.141.155.027.228-.21.073-.237v-.018zM103.704 18.847c.466-.12.945-.185 1.426-.196.11 0 .214 0 .323.028.11.027.347 0 .155.132a2.515 2.515 0 0 1-.815.15c-.16.032-.1.274.054.246.155-.027 1.663-.232 1.04-.674a1.863 1.863 0 0 0-.962-.128c-.432.03-.86.098-1.28.2a.124.124 0 1 0 .059.242zM105.194 19.558c-.43.224-.816.52-1.144.875-.11.118.06.3.169.187a3.945 3.945 0 0 1 1.093-.843.124.124 0 0 0-.118-.219zM104.774 14.843a23.07 23.07 0 0 0 3.244 1.603c.15.06.223-.177.073-.236a23.508 23.508 0 0 1-3.189-1.577c-.137-.082-.273.128-.132.21h.004zM105.954 14.091a7.344 7.344 0 0 0 3.044 1.772.124.124 0 1 0 .073-.237 7.07 7.07 0 0 1-2.93-1.703c-.118-.11-.3.059-.187.168zM107.007 13.554a8.415 8.415 0 0 0 1.913 1.722c.132.086.265-.123.132-.214a8.164 8.164 0 0 1-1.863-1.677c-.1-.128-.287.041-.182.169zM108.975 14.123c.17.389.364.766.583 1.13.082.137.305 0 .223-.114a10.692 10.692 0 0 1-.587-1.134c-.064-.146-.283-.028-.22.118zM105.335 15.945a5.85 5.85 0 0 0 1.59.706.124.124 0 1 0 .073-.236 5.727 5.727 0 0 1-1.526-.68.125.125 0 0 0-.137.21zM81.285 13.376c.428.141 0 .947-.064 1.17-.041.115-.146.625-.269.68.1-.046.196-.638.233-.757l.282-.91a.128.128 0 0 0-.241-.074l-.41 1.335c-.083.264-.247.551-.114.816a.11.11 0 0 0 .104.063c.178 0 .25-.068.338-.223.16-.357.297-.723.41-1.098.154-.428.391-1.043-.196-1.234a.124.124 0 1 0-.073.236v-.004zM81.904 17.335a15.945 15.945 0 0 0 4.488 7.084c1.152 1.012 2.642 1.677 3.986 2.392a43.882 43.882 0 0 0 4.31 2.05 20.474 20.474 0 0 0 17.49-.948.124.124 0 1 0-.119-.218 20.16 20.16 0 0 1-16.915 1.075 40.255 40.255 0 0 1-4.452-2.073 28.246 28.246 0 0 1-3.713-2.128c-1.18-.883-2.082-2.186-2.902-3.394a13.89 13.89 0 0 1-1.908-3.895c-.046-.155-.287-.1-.242.055h-.023z"/>
            <path fill="#FB5373" stroke="#FB5373" stroke-width=".33" d="M100.97 26.825c.023.072 0 .123-.045.15-.16 0-.205-.046-.132-.146.073-.1.14 0 .1.114l-.06.096-.104.027h.023l-.11-.036a.214.214 0 0 0 .233-.36.273.273 0 0 0-.374.382.374.374 0 0 0 .602.032.342.342 0 0 0-.237-.542.319.319 0 0 0-.287.456c.136.241.514.04.378-.2l.013.027zM99.011 32.483a.06.06 0 0 1-.095 0l-.05-.21-.055.192.21-.15c-.046 0-.028 0 0 0l-.046.259c-.078.046-.141 0-.191-.073.077.264.492.169.414-.1a.305.305 0 0 0-.51-.141.219.219 0 0 0-.046.255.415.415 0 0 0 .379.21.21.21 0 0 0 .21-.151l.058-.187a.232.232 0 0 0-.045-.21.378.378 0 0 0-.579.06c-.16.223.205.455.36.228l-.014.018z"/>
            <path fill="#FB5373" d="M69.503 22.897c-4.232 3.495-8.524 7.235-10.077 12.698a.287.287 0 0 0 .551.15c1.522-5.358 5.786-9.025 9.927-12.447.283-.232-.123-.633-.4-.4zM66.424 33.895l5.95-5.312c.273-.241-.133-.642-.406-.4l-5.922 5.307c-.274.246.132.647.4.405h-.022zM126.966 26.515a14.788 14.788 0 0 1 5.38 4.556c.214.291.71 0 .492-.287a15.371 15.371 0 0 0-5.585-4.78c-.324-.168-.615.324-.287.493v.018zM128.424 20.415a43.608 43.608 0 0 1 12.638 12.701c.195.305.692 0 .492-.287a44.337 44.337 0 0 0-12.843-12.906c-.31-.205-.593.291-.287.492zM49.426 79.244a13.29 13.29 0 0 0 .223 6.833.283.283 0 0 0 .547-.15 12.679 12.679 0 0 1-.219-6.537c.082-.356-.455-.51-.551-.15v.004zM53.18 79.098a59.8 59.8 0 0 0 2.032 6.97c.123.342.674.192.551-.155a58.852 58.852 0 0 1-2.032-6.965c-.082-.356-.633-.205-.551.15zM78.76 96.392a30.724 30.724 0 0 0 22.302 9.253.287.287 0 0 0 0-.57 30.128 30.128 0 0 1-21.9-9.084c-.255-.264-.656.137-.401.4zM76.825 103.827c6.214 7.24 15.78 9.111 24.733 10.629.36.063.515-.488.155-.547-8.861-1.522-18.337-3.321-24.487-10.478-.242-.278-.643.127-.401.405v-.01zM146.984 71.84a29.28 29.28 0 0 1-.31 13.49.287.287 0 0 0 .552.155 30.114 30.114 0 0 0 .305-13.8c-.073-.355-.624-.204-.547.156zM153.221 70.615c.524 5.248.961 10.71-1.622 15.526-.173.324.319.61.492.287 2.638-4.91 2.237-10.446 1.7-15.813-.037-.364-.606-.364-.57 0zM146.383 38.355a32.943 32.943 0 0 0-5.321 2.087c-1.199.556-2.693 1.089-3.508 2.196-2.889 3.95 4.391 4.305 6.537 3.872 2.943-.592 5.709-1.972 8.501-3.038a160.552 160.552 0 0 1 8.738-3.04c.68-.213 1.536-.746 2.155-.19.274.245.515 2.118.592 2.478.31 1.367.574 2.774.793 4.168.565 3.601.862 7.24.889 10.884a.387.387 0 0 0 .774 0 75.535 75.535 0 0 0-2.52-18.556.392.392 0 0 0-.455-.268 161.21 161.21 0 0 0-9.567 3.189c-2.961 1.093-5.863 2.492-8.907 3.335-1.54.428-4.059 1.038-5.585.241-3.426-1.822-.679-3.294.779-4.027a33.74 33.74 0 0 1 6.342-2.583.387.387 0 0 0-.205-.748h-.032z"/>
            <path fill="#FB5373" d="M137.057 44.902c.82 3.932 1.367 7.909 2.087 11.845.528 2.961.642 7.745 4.1 8.861 1.594.506 3.407 0 5.011-.314a41.162 41.162 0 0 0 6.232-1.727A81.139 81.139 0 0 0 166.36 58.1c.455-.241.045-.91-.392-.67a82.852 82.852 0 0 1-10.61 5.012c-3.135 1.184-7.29 2.838-10.688 2.606-4.374-.296-4.556-7.176-5.116-10.56-.556-3.267-1.053-6.547-1.727-9.791-.1-.487-.848-.278-.747.205h-.023zM141.636 44.287c1.89-3.23 5.836-5.677 8.797-7.813 1.189-.857 2.674-2.397 4.045-2.83.501-.665.953-.619 1.367.142l.911 1.157c.6.864 1.125 1.779 1.567 2.734.22.455.884.059.67-.388-.574-1.193-2.055-4.556-3.567-4.888-1.043-.232-2.907 1.663-3.708 2.223-3.609 2.533-8.483 5.403-10.757 9.28a.388.388 0 1 0 .67.392l.005-.009z"/>
            <path fill="#FB5373" d="M140.542 44.374c2.948 1.594 6.606-.975 9.358-2.041 1.99-.77 3.995-1.508 6.018-2.178 2.023-.67 5.49-2.574 7.371-1.107.392.3.943-.242.547-.547-2.533-1.968-6.287.278-8.934 1.18-2.15.734-4.282 1.53-6.378 2.374-2.096.842-5.248 2.91-7.572 1.653-.455-.236-.829.429-.392.666h-.018z"/>
            <path fill="#FB5373" d="M149.408 43.458a244.151 244.151 0 0 1 12.3-4.702c.21-.077.119-.414-.095-.337a246.408 246.408 0 0 0-12.3 4.702c-.206.082-.12.423.09.337h.005zM152.364 37.786a1.462 1.462 0 0 0-1.216.51c-.228.223-.72.665-.456 1.012.265.346.975.09 1.308.05.15-.03.303-.05.456-.06.205 0 .241 0 .09.16-.15.16-1.029.665-1.074.319-.028-.223-.365-.128-.338.09.119.89 2.119 0 1.923-.696-.137-.456-1.08-.164-1.399-.123-.086 0-.51.118-.574.064-.136-.119.11-.401.183-.456a1.226 1.226 0 0 1 1.061-.501c.223.027.219-.324 0-.35l.036-.02z"/>
            <path fill="#FB5373" d="M150.847 37.667a13.043 13.043 0 0 0 2.028 2.447c.164.155.414-.096.25-.25a12.497 12.497 0 0 1-1.977-2.374c-.123-.187-.424 0-.3.177z"/>
            <path fill="#FB5373" d="M143.563 43.617a33.995 33.995 0 0 1 6.833-6.082 23.772 23.772 0 0 1 3.23-2.123c1.044-.492 1.267-.592 2.178.16.911.751 1.48 2.105 1.886 3.07.082.205.424.114.337-.095a10.957 10.957 0 0 0-3.061-4.233.178.178 0 0 0-.21-.027c-4.164 2.615-8.273 5.28-11.417 9.084-.145.169.1.42.246.246h-.022z"/>
            <path fill="#FB5373" d="M152.907 37.062l.455 1.043a.178.178 0 0 0 .337 0 .292.292 0 0 1 .529-.073.264.264 0 0 1-.37.355c-.195-.105-.373.2-.172.3a.615.615 0 0 0 .874-.778.647.647 0 0 0-1.198.105h.337l-.455-1.044c-.082-.205-.424-.118-.337.092z"/>
            <path fill="#FB5373" d="M153.321 37.485l.565-.4c.182-.128 0-.456-.178-.301l-.56.4c-.182.128 0 .433.173.301zM154.442 36.706c-.07.383.045.776.31 1.062a.651.651 0 0 0 .956-.21.802.802 0 0 0-.232-1.034 1.33 1.33 0 0 0-1.335-.1c-.205.082-.114.419.096.337.256-.125.55-.153.825-.078a.538.538 0 0 1 .387.597.31.31 0 0 1-.597.046 1.367 1.367 0 0 1-.06-.62c0-.228-.336-.223-.35 0zM137.686 46.647s-.388-1.822.938-.825c1.326.998 2.943 1.199 6.137.132 3.193-1.066 16.018-5.754 16.018-5.754s2.488-.874 3.19.456c.7 1.33 1.758 10.638 2.058 13.667.301 3.03.196 3.404-.642 3.855-.838.45-7.745 4.688-15.417 6.378-7.672 1.69-8.797.783-9.69-3.882-.893-4.665-2.592-14.027-2.592-14.027zM37.062 49.376c-.543 2.032.277 4.601 2.555 5.102a3.344 3.344 0 0 0 3.996-3.189h-.533a4.437 4.437 0 0 0 8.756 1.194.269.269 0 0 0-.487-.205 3.084 3.084 0 0 0 1.621 4.378c2.429.911 4.479-1.367 4.948-3.526l-.524-.068c0 1.936.911 4.369 3.13 4.651a2.847 2.847 0 0 0 3.257-2.943h-.533c.192 1.754.775 3.645 2.51 4.456a3.002 3.002 0 0 0 4.019-1.23c1.116-1.91.551-4.529.546-6.602 0-1.458.638-4.1-.847-5.011-1.17-.725-3.253-.743-4.592-1.034l-5.467-1.203L48.86 41.83c-1.822-.396-3.604-.829-5.417-1.189-.77-.155-1.189-.287-1.822.187s-1.18 1.79-1.604 2.506a46.533 46.533 0 0 0-2.5 4.865c-.138.315.323.584.455.27a48.747 48.747 0 0 1 2.888-5.536c.825-1.367 1.198-1.79 2.852-1.686 1.084.069 2.278.497 3.326.73l12.656 2.778 6.71 1.476c.61.137 1.95.237 2.488.547 1.207.706.911 2.05.911 3.19 0 1.821.191 3.644.078 5.466-.114 1.822-.825 4.1-3.395 3.522-1.908-.456-2.523-2.506-2.706-4.164-.036-.333-.56-.347-.533 0 .183 2.574-2.697 2.829-4.1 1.526-.948-.861-1.194-1.996-1.203-3.235 0-.296-.455-.373-.524-.073-.382 1.768-1.252 2.839-3.002 3.094-1.913.287-3.763-1.476-2.592-3.536l-.515-.205a3.909 3.909 0 0 1-7.708-1.052.269.269 0 0 0-.533 0c-.119 2.542-2.902 3.394-4.597 1.85-1.07-.975-1.271-2.278-.911-3.645a.269.269 0 0 0-.515-.146l.014.005z"/>
            <path fill="#FB5373" d="M39.335 54.141c-.72 4.378-1.772 8.889-2.383 13.403 7.704 1.417 18.957 4.164 26.606 5.846 1.572-4.365 2.046-9.458 3.476-13.873 0 0-3.357-.624-3.421-3.927 0 0-1.02 2.355-3.226 1.854-2.205-.5-2.542-2.35-2.701-3.553 0 0-1.367 3.189-3.896 2.733-2.528-.455-2.646-2.023-2.61-3.075 0 0-1.326 2.975-4.98 2.064 0 0-2.277-.214-2.892-3.695 0 0 0 2.178-3.472 2.355l-.501-.132z"/>
            <path fill="#FB5373" d="M39.057 54.064c-.752 4.474-1.745 8.906-2.378 13.403a.292.292 0 0 0 .2.355c8.925 1.659 17.74 3.891 26.602 5.845.153.039.309-.05.355-.2 1.554-4.524 2.064-9.312 3.472-13.872a.292.292 0 0 0-.196-.356 3.945 3.945 0 0 1-3.212-3.644c0-.256-.406-.429-.538-.146a2.843 2.843 0 0 1-2.4 1.786c-1.946.036-2.77-1.823-2.998-3.417a.292.292 0 0 0-.524-.069 5.226 5.226 0 0 1-1.258 1.79c-1.854 1.573-4.747.593-4.715-1.995 0-.268-.41-.41-.533-.145-.743 1.562-2.415 2.218-4.064 2.013-1.986-.25-2.847-1.653-3.303-3.58-.073-.329-.546-.237-.565.077-.073 1.567-2.373 2.278-3.608 1.954-.36-.086-.51.456-.155.552 1.65.405 4.246-.52 4.337-2.506l-.56.073c.456 2.11 1.549 3.767 3.786 4.027 1.85.219 3.777-.583 4.606-2.323l-.533-.146a3.19 3.19 0 0 0 3.44 3.408c1.671 0 2.979-1.495 3.621-2.916l-.524-.068c.255 1.776 1.03 3.426 2.975 3.767 1.526.269 2.834-.633 3.472-1.995l-.533-.155a4.287 4.287 0 0 0 1.717 3.33c.397.292 1.039.42 1.367.725 0 0 .483.123.487.14-.059-.2-.815 1.955-.806 1.914-.733 2.852-1.184 5.763-1.922 8.615-.11.424-.347 1.946-.656 2.278-.552.574-1.007.287-1.727.128l-3.617-.825c-5.34-1.22-10.675-2.474-16.037-3.599-1.198-.25-2.396-.497-3.599-.729-.948-.182-1.107-.228-1.143-1.207.053-.715.177-1.423.369-2.114.578-3.349 1.289-6.67 1.854-10.023.059-.36-.492-.515-.556-.15z"/>
            <path fill="#FB5373" d="M47.9 69.704c.113-1.515.34-3.02.679-4.501a9.462 9.462 0 0 1 .801-2.242c.502-.884 1.873-2.733 3.121-2.278l1.668 2.834-.205 1.057c-.119.61-.233 1.226-.351 1.822a561.232 561.232 0 0 0-.848 4.401c-.068.36.483.51.552.15.51-2.678 1.289-5.43 1.544-8.14.132-1.436-.319-2.397-1.781-2.661-4.825-.834-5.413 6.337-5.754 9.558-.037.369.533.364.574 0zM40.278 49.125c4.93.766 9.786 1.9 14.679 2.939.2.04.287-.269.086-.31-4.874-1.048-9.73-2.173-14.66-2.939-.2-.031-.287.278-.087.31h-.018zM63.567 53.708c2.041.41 4.072.866 6.091 1.367.2.05.287-.26.087-.31-2.023-.504-4.053-.96-6.091-1.366-.2-.041-.287.268-.087.31z"/>
            <path fill="#FFF" d="M38.442 60.091a113.781 113.781 0 0 0-3.718 11.258.943.943 0 0 1 .643 0l.419-1.062a.415.415 0 0 1 .155-.232.456.456 0 0 1 .319 0l1.294.296"/>
            <path fill="#FB5373" d="M38.187 60.023a125.877 125.877 0 0 0-3.731 11.257.269.269 0 0 0 .26.337h.65a.282.282 0 0 0 .26-.196c.333-.847 1.012-1.016 1.86-.82.332.073.455-.455.14-.514-.314-.06-1.366-.529-1.822-.265-.455.265-.592 1.577-.455.37.14-1.545 1.01-3.386 1.503-4.853a120.869 120.869 0 0 1 1.872-5.18c.123-.323-.391-.455-.514-.14l-.023.004z"/>
            <path fill="#FFF" d="M37.544 72.073c.246-4.1.634-8.188 1.162-12.264l8.05.656-1.462 11.316c-.012.28-.097.552-.246.788a.547.547 0 0 1-.734.16c-.35-.273-.04-.83-.095-1.276-.087-.729-1.057-.91-1.79-.87l-3.413.114-.119 2.164-1.17-.219"/>
            <path fill="#FB5373" d="M37.809 72.073c.118-1.9.26-3.804.455-5.704.137-1.494 0-3.863.565-5.253.656-1.613 3.7-.729 5.253-.606.911.078 1.822-.168 2.3.825.238.496-.273 2.105-.336 2.61l-.68 5.226c-.027.219-.24 3.034-.91 2.733.218.091-.11-.879-.128-.91-.802-1.368-4.191-.62-5.312-.584a.273.273 0 0 0-.269.269c-.05.911.232 1.909-.947 1.685-.338-.063-.456.456-.142.515l1.171.224a.273.273 0 0 0 .337-.26c.096-1.822.529-1.977 2.406-1.982.856 0 1.494-.241 2.027.547.3.455.096.724.287 1.02.324.492.492.798 1.12.456.958-.497.794-2.98.912-3.745l1.125-8.706c0-.15-.14-.26-.269-.269l-8.068-.624c-.155 0-.25.137-.264.269-.532 4.076-.92 8.164-1.166 12.264-.023.346.514.346.533 0z"/>
            <path fill="#FB5373" d="M40.574 63.002c1.417.245 2.854.361 4.292.347a.269.269 0 1 0 0-.538c-1.39.02-2.78-.088-4.15-.324-.338-.059-.484.456-.142.515zM40.538 65.075a22.588 22.588 0 0 1 3.845.1c.341.037.337-.496 0-.533a22.128 22.128 0 0 0-3.845-.1c-.342 0-.342.556 0 .533z"/>
            <path fill="#FFF" d="M47.613 69.704c.264-2.592.565-5.303 1.868-7.517a3.904 3.904 0 0 1 1.339-1.467c.71-.335 1.51-.43 2.278-.269.325.023.638.128.911.305.371.33.586.802.592 1.299a6.05 6.05 0 0 1-.164 1.535c-.432 2.278-.965 5.011-1.403 7.29"/>
            <path fill="#FB5373" stroke="#FB5373" stroke-width=".33" d="M85.203 12.606a2.105 2.105 0 0 1 .455-2.597c1.29-1.23 3.344-2.56 6.975-3.189s3.84.06 3.508.378c-.332.32-.701 2.014-.674 2.488.027.473.515 2.164-.118 1.708-.634-.456-1.545-.943-2.278-.83-.734.115-2.447.133-2.92.684-.474.552-.525 1.244-1.477 1.271-.952.028-1.74.255-1.585.912.155.656.952.542 1.635 1.266.684.724 1.645 1.12 2.278 2.916.634 1.795.456 2.396-.273 1.485-.729-.911-4.843-3.608-5.526-6.492z"/>
            <path fill="#FB5373" stroke="#FB5373" stroke-width=".35" d="M111.326 11.795s-1.69 1.33-.1 1.107c1.59-.223 2.646-.114 3.567 1.162.92 1.275 1.148 2.524 1.868 2.76.72.238 1.717.333 1.476.953-.242.62.223 2.733-.479 3.462a3.048 3.048 0 0 0 1.9-1.344c.579-1.066.456-.642 0-1.535-.455-.893-.948-2.993-3.421-5.686-2.474-2.692-3.745-3.603-4.078-3.22-.332.382-.733 2.341-.733 2.341zM104.296 14.387s-.123-.779.56-.323c.684.455 1.481.214.97.91-.51.698-1.562 2.566-1.539 3.81a4.064 4.064 0 0 0 1.863 3.084c.811.383 1.43 1.34.283.97-1.148-.369-5.308-.943-6.71-1.881.632-.388 2.277-.784 2.733-1.495.455-.71.801-1.735 1.234-2.492.433-.756.925-1.767.606-2.583z"/>
            <path fill="#FB5373" d="M145.672 99.718a25.512 25.512 0 0 0-4.232 8c-.114.35.455.496.546.15a24.774 24.774 0 0 1 4.1-7.745c.22-.287-.177-.692-.405-.4l-.009-.005zM148.57 102.2a38.724 38.724 0 0 0-3.987 5.864c-.178.323.314.61.492.287a38.269 38.269 0 0 1 3.895-5.75c.233-.282-.168-.688-.4-.4zM56.579 98.405l4.186 6.616c.192.31.688.022.492-.288l-4.186-6.615c-.196-.31-.688-.027-.492.287z"/>
        </g>
    </g>
</svg>
