<svg xmlns="http://www.w3.org/2000/svg" xmlns:xlink="http://www.w3.org/1999/xlink" width="200" height="200" viewBox="0 0 200 200">
    <defs>
        <path id="a" d="M0 0h200v200H0z"/>
    </defs>
    <g fill="none" fill-rule="evenodd">
        <mask id="b" fill="#fff">
            <use xlink:href="#a"/>
        </mask>
        <g mask="url(#b)">
            <g transform="translate(0 12)">
                <path fill="#FB5373" fill-rule="nonzero" d="M141.83 43.57s.24-1.175 1.1-.44c.86.735 11.105 10.11 11.105 10.11a2.5 2.5 0 0 1 .85 2.615c-.725 2.315-7.035 14.395-7.035 14.395l-.89 1.38s-.275.94-1 .1-12.17-12.23-12.17-12.23a8.81 8.81 0 0 1 .31-.845c.245-.62 2.415-5.43 3.885-7.295l3.845-7.79z"/>
                <path fill="#040000" fill-rule="nonzero" d="M142.045 42.62c-1.245 2.185-2.235 4.5-3.42 6.69-1.79 3.35-3.795 6.53-5.11 10.11a.28.28 0 0 0 .075.275c4.13 4.063 8.238 8.152 12.325 12.265a.281.281 0 0 0 .395-.4c-3.355-3.385-6.745-6.735-10.13-10.095-.94-.93-1.94-1.465-1.8-2.765.14-1.3 1.345-3 1.945-4.135.6-1.135 1.21-2.16 1.825-3.24 1.56-2.76 2.81-5.665 4.38-8.42a.288.288 0 1 0-.5-.285h.015z"/>
                <path fill="#040000" fill-rule="nonzero" d="M142.28 42.95c2 1.69 3.958 3.408 5.875 5.155 1.97 1.78 4.295 3.555 5.975 5.625 1.245 1.535.365 2.45-.43 4.215a53.983 53.983 0 0 1-1.805 3.61C150.045 65 148.3 68.5 146.5 71.935c-.17.32.315.605.5.285 2-3.843 4-7.695 6-11.555a55.001 55.001 0 0 0 1.725-3.69c.265-.625 1.065-1.695.845-2.415-.27-.9-1.555-1.73-2.185-2.345a160.457 160.457 0 0 0-3.43-3.225 272.382 272.382 0 0 0-7.285-6.44c-.275-.235-.675.165-.4.4h.01z"/>
                <path fill="#040000" fill-rule="nonzero" d="M155.29 55.415c.44-.305 1.31-1.215 1.795-1.25-.035 0 1.21.69 1.555.88 1.225.67 1.875.5 1.13 1.88-.745 1.38-1.455 2.745-2.175 4.12-1.1 2.105-2.115 4.25-3.075 6.42-.5 1.15-.915 2.775-1.665 3.78-1.14 1.535-4.415 1.05-6.18.965-.36 0-.36.545 0 .56 1.59.08 4.715.655 6.11-.285.655-.44.92-1.775 1.23-2.5.455-1.025.9-2.055 1.36-3.08 1.665-3.715 4.115-7.245 5.415-11.085a.275.275 0 0 0-.13-.315l-3.465-1.91a.28.28 0 0 0-.285 0L155 54.93c-.295.205 0 .69.285.5l.005-.015z"/>
                <path fill="#040000" fill-rule="nonzero" d="M142.96 43.255c2.775.115 3.915 1.145 5.825 2.905 1.06 1 2.2 1.875 3.35 2.75 2.885 2.19 5.855 4.24 8.185 7.045.23.28.625-.12.395-.4-2.685-3.23-6.225-5.46-9.5-8.05-1.415-1.125-2.6-2.575-4.035-3.645-1.295-.96-2.675-1.105-4.24-1.17-.36 0-.36.545 0 .565h.02zM156.84 55.27a262.69 262.69 0 0 0-5.87 15c-.05.13.16.185.205.055a256.57 256.57 0 0 1 5.845-14.95c.055-.125-.13-.235-.18-.105zM169.77 136.68c.14.92.415 1.795.59 2.705a.11.11 0 0 0 0 .065s.035.03.055.045c.71.435 8.64 5 8.705 4.885-.395.6-1.295.44-1.975.21l-8.11-2.745c-.025.195.1 2.04.1 2.545-.19 0-.376.05-.54.145a72.085 72.085 0 0 1-1.71-7l2.885-.855z"/>
                <path fill="#040000" fill-rule="nonzero" d="M169.46 136.765c.32 1.64.17 2.59 1.5 3.4 1.42.88 2.9 1.67 4.355 2.5 1.1.62 2.59 1.15 3.56 1.955l.125.055c.597.247.02.117-1.73-.39-.91-.255-1.805-.61-2.705-.915l-5.405-1.83a.33.33 0 0 0-.41.31c0 .385.03.77.045 1.155s.33 1.225 0 .79c-.785-1-.855-3.37-1.205-4.59-.08-.295-.395-1.38-.37-1.425.085-.145.65-.155.82-.24a11 11 0 0 1 1.855-.55.32.32 0 0 0-.17-.615l-2.865.845a.33.33 0 0 0-.225.395c.42 2.375 1.09 4.68 1.71 7a.33.33 0 0 0 .395.225l.54-.145a.335.335 0 0 0 .235-.31c0-.455-.08-.94-.055-1.39l-.03-.5c-.125-.465-.045-.54.23-.215.285-.06 1.6.65 2.05.805l2.705.915c1.47.5 3.585 1.8 5 .62a.32.32 0 0 0-.14-.535c-1.575-.265-3.525-1.915-4.895-2.695-.935-.535-1.86-1.085-2.8-1.61-1.28-.71-1.165-1.69-1.45-3.17-.13-.42-.745-.25-.67.155z"/>
                <path fill="#040000" fill-rule="nonzero" d="M169.24 135l.235 1.765c.045.35.605.355.555 0l-.235-1.765c-.045-.35-.6-.355-.555 0zM166.24 135.585c.237.806.414 1.628.53 2.46.045.35.6.355.555 0-.116-.883-.3-1.755-.55-2.61a.28.28 0 0 0-.535.15z"/>
                <path fill="#FFF" fill-rule="nonzero" d="M120.995 101.32l.045.525 3.335 1.92 1.72-2.72-4.42-2.26-.84 2.44"/>
                <path fill="#040000" fill-rule="nonzero" d="M121.575 102.145c-.79-.5-1.22-.71-2.025-1.17a.105.105 0 0 0-.06 0 .11.11 0 0 0-.07 0c-.795.255-9.415 3.305-9.38 3.42-.195-.685.5-1.265 1.13-1.63l7.365-4.37c-.135-.145-1.62-1.25-2-1.58a1.13 1.13 0 0 0 .24-.5 62.455 62.455 0 0 1 6 3.125l-1.2 2.705z"/>
                <path fill="#040000" fill-rule="nonzero" d="M121.735 101.865c-.875-.53-1.615-1.21-2.6-1.15-.985.06-2.375.83-3.36 1.185-1.745.62-4.5 1.07-5.96 2.255l.545.225c.155-1.455 3.12-2.63 4.245-3.295l4.09-2.43a.315.315 0 0 0 .065-.5c-.265-.23-1.72-1.06-1.725-1.36 0 .25 3.37 1.635 3.75 1.84.165.085 1.7.73 1.695.715.07.15-.335.665-.37.83a10.94 10.94 0 0 1-.815 1.8c-.165.375.385.7.555.325l1.225-2.725a.32.32 0 0 0-.115-.435c-1.945-1.17-4-2.135-6-3.125a.32.32 0 0 0-.435.115l-.24.5a.325.325 0 0 0 .05.39c.205.17 1.87 1.29 1.825 1.44.025-.08-2.225 1.095-2.22 1.095l-2.05 1.215c-1.525.905-3.94 1.625-4.15 3.605-.03.31.36.385.55.23 1.27-1.035 3.925-1.47 5.435-2a21.35 21.35 0 0 1 2.875-1c.26-.05.545-.28.81-.28.5 0 1.55.83 2 1.115a.332.332 0 1 0 .325-.58z"/>
                <path fill="#040000" fill-rule="nonzero" d="M121.245 102.28l1.855 1.065a.287.287 0 0 0 .28-.5l-1.85-1.065c-.315-.175-.595.305-.285.5zM122.25 99.41c.744.476 1.525.893 2.335 1.245.325.14.61-.34.28-.5a16.595 16.595 0 0 1-2.335-1.245c-.3-.195-.58.29-.28.5zM148.71 21.03a6.865 6.865 0 0 1 4.27.42l5.47 2.2c.415.138.803.348 1.145.62.342.282.515.72.46 1.16a4.575 4.575 0 0 1-.415.865c-.545 1.205.415 2.13 1.055 3a10.465 10.465 0 0 0 2.685 2.785c.507.243.946.61 1.275 1.065a1.7 1.7 0 0 1-.08 1.6 3.405 3.405 0 0 1-1.185 1.155c-1.215.77-5 1.405-4.225-1.205.335-1.08.16-2.245 0-3.365a22.22 22.22 0 0 0-.845-3.875 6.03 6.03 0 0 1-.5-2 7.265 7.265 0 0 1-.955-.965c-.145 1.345-2.305 2.39-3.275 2.03-.07.88-.7.86-1.615 1.81.017.37-.005.74-.065 1.105a13.34 13.34 0 0 1-.685 3.395 1.165 1.165 0 0 0-1.315-.29.7.7 0 0 0-.09 1.17c.18.095.4.085.575.195.17.14.286.334.33.55l.425 1.305c.093.229.14.473.14.72a1.63 1.63 0 0 1-1.105 1.22c-2.965 1.295-9.345-1.5-9.54-4.565a1.91 1.91 0 0 1 .175-1.06c.307-.412.71-.741 1.175-.96.77-.5 1.67-1.33 1.915-2.24.245-.91.035-2 .11-2.955.018-.597.12-1.187.305-1.755a4.445 4.445 0 0 1 1.61-1.945 7.185 7.185 0 0 1 2.775-1.19z"/>
                <path fill="#040000" fill-rule="nonzero" d="M149.05 36.435c-.405 2-.805 3.87-1.78 5.68-.165.32.31.6.5.285 1-1.845 1.425-3.785 1.835-5.815.075-.35-.46-.5-.535-.15h-.02zM156.575 24.45c-.54 1.815-2.235 1.195-3.43 2.19a7.5 7.5 0 0 0-1.415 1.555c-.375.825.245 2.96-.5 3.605-.63.56-1.42-.165-1.85.805a1.5 1.5 0 0 0 .1 1.2c.075.15.27.24.37.37.72.9 1 1.175.85 2.5-.045.35.5.35.555 0a6.37 6.37 0 0 0-.185-2.265c0-.045-.065-.085-.07-.125a3.5 3.5 0 0 0-.33-.28c-.315-.235-.165-.575.45-1.03a.28.28 0 0 0 .41-.165c.249-.85.436-1.718.56-2.595.035-.3-.035-1.385.135-1.74.655-1.365 2.345-1.605 3.535-2.165.925-.435 1.05-.765 1.33-1.7a.28.28 0 0 0-.535-.15l.02-.01z"/>
                <path fill="#040000" fill-rule="nonzero" d="M156.645 24.72c1.53 1.865 2.15 4.935 2.34 7.28a10.215 10.215 0 0 1-.335 3.83c-.44 1.42-1.525 2.125-2.205 3.325-1.17 2.07-.32 6.205 1.255 7.875.245.265.635-.13.39-.39-1.74-1.855-2.07-5.735-.62-7.745 1.03-1.425 1.785-2.575 2.03-4.395.435-3.19-.37-7.645-2.46-10.19-.23-.28-.62.115-.395.39v.02z"/>
                <path fill="#040000" fill-rule="nonzero" d="M156.59 29.37l1.105 3.535.19-.345a.56.56 0 0 1-.66-.375.275.275 0 0 0-.5.215c.065.315-.08.535-.29.215a.28.28 0 0 0-.435-.055c-.285.295-.9.4-.5-.365.17-.315-.31-.595-.5-.28-.21.39-.335 1 .04 1.355s1 .03 1.32-.32l-.435-.055c.21.32.5.805.965.635.465-.17.425-.865.34-1.28l-.5.215c.235.48.767.74 1.29.63a.275.275 0 0 0 .195-.34l-1.105-3.535c-.105-.34-.645-.195-.535.15h.015zM158.275 28.31a6.57 6.57 0 0 0-1.33 0c-.355.035-.36.59 0 .555a6.225 6.225 0 0 1 1.33 0c.355.04.355-.5 0-.56v.005zM154.675 28.795a5.175 5.175 0 0 0-1.675.335c-.33.13-.19.665.145.535a4.855 4.855 0 0 1 1.53-.315c.355 0 .355-.57 0-.555zM154.565 34.055a2.335 2.335 0 0 1-1.84 2.845c-.35.08-.2.615.145.54a2.91 2.91 0 0 0 2.23-3.535c-.075-.35-.61-.2-.535.15zM146.69 48.795c1.145-1.18 2.26-2.415 3.465-3.54.78-.73 1.685-1.58 2.765-1.825 1.095-.595 2-.075 2.645 1.57a9.86 9.86 0 0 1-1.245 1.705c-1.83 2.14-3.975 3.94-3.86 7 0 .36.575.36.565 0-.135-3.5 2.92-5.205 4.64-7.805.59-.89 1.265-2.165.195-3-1.22-.935-3.355-.085-4.44.6-1.965 1.24-3.5 3.235-5.13 4.89-.25.26.145.655.4.395v.01z"/>
                <path fill="#FFF" fill-rule="nonzero" d="M155.11 45.395a3.055 3.055 0 0 1-.91-1.435c-.08-1.31 1.2-1.715 1.89-1.96a.315.315 0 0 1 .325.12c.13.18-.06.415-.225.565-.435.4-.79 1-.54 1.555"/>
                <path fill="#040000" fill-rule="nonzero" d="M155.255 45.155a2.185 2.185 0 0 1-.755-1.185 1.385 1.385 0 0 1 .87-1.37c.13-.07.45-.285.6-.255.115-.075.14-.055.07.05a.235.235 0 0 1-.105.16c-.07.1-.17.185-.245.285-.347.407-.46.964-.3 1.475.12.34.66.195.545-.15-.26-.765.455-1.04.735-1.61a.55.55 0 0 0-.1-.68c-.455-.435-1.44.17-1.84.465a1.79 1.79 0 0 0-.78 1.735c.145.63.512 1.185 1.035 1.565.315.17.6-.315.285-.5l-.015.015z"/>
                <path fill="#040000" fill-rule="nonzero" d="M155.76 43.56c.53 2.08-2.74 4.37-3.84 5.845a6.445 6.445 0 0 0-1.46 4.3c0 .36.58.36.565 0-.15-2.955 2.145-4.755 3.87-6.81.855-1 1.755-2.11 1.405-3.5a.28.28 0 1 0-.54.15v.015z"/>
                <path fill="#FFF" fill-rule="nonzero" d="M156.865 43.39c0-.265 0-.5.05-.785.008-.148.042-.294.1-.43a.665.665 0 0 1 .7-.36.27.27 0 0 1 .125.045.34.34 0 0 1 .105.215c.095.639.282 1.26.555 1.845.314.442.688.84 1.11 1.18.43.435 1.565.875 1.865 1.43"/>
                <path fill="#040000" fill-rule="nonzero" d="M157.145 43.39c0-.265-.095-1.31.6-.925.11.06.19.825.23.94.15.468.405.896.745 1.25.32.341.67.652 1.045.93.5.345 1.12.575 1.465 1.085.205.3.69 0 .5-.285-.415-.61-1.095-.86-1.67-1.29a5.5 5.5 0 0 1-1.16-1.125c-.455-.63-.405-1.29-.665-1.97a.685.685 0 0 0-1.055-.36c-.615.325-.555 1.16-.585 1.75 0 .36.545.36.565 0h-.015z"/>
                <path fill="#FFF" fill-rule="nonzero" d="M156.665 46.45l-1.37-.685a.73.73 0 0 1-.22-.145.545.545 0 0 1-.13-.3 1.18 1.18 0 0 1 .555-1.055 3.5 3.5 0 0 1 1.155-.455 1.08 1.08 0 0 1 1.37.405l.225.24"/>
                <path fill="#040000" fill-rule="nonzero" d="M156.805 46.21l-1.025-.5c-.595-.3-.665-.815-.1-1.21.318-.2.67-.337 1.04-.405.585-.135.94.17 1.32.575.245.265.645-.135.395-.4-.46-.5-.83-.885-1.55-.785a3.2 3.2 0 0 0-1.795.77 1.295 1.295 0 0 0-.36 1.35c.245.585 1.275.845 1.79 1.105.325.16.61-.325.285-.5z"/>
                <path fill="#FFF" fill-rule="nonzero" d="M157.615 47.04l-1.37-.685a.73.73 0 0 1-.22-.145.5.5 0 0 1-.125-.3c-.025-.425.181-.83.54-1.06a3.5 3.5 0 0 1 1.155-.455 1.5 1.5 0 0 1 .73-.06 1.5 1.5 0 0 1 .64.47l.225.24"/>
                <path fill="#040000" fill-rule="nonzero" d="M157.755 46.795l-1.025-.5c-.595-.3-.66-.815-.1-1.21.317-.202.67-.34 1.04-.405.585-.135.94.165 1.32.57.25.265.645-.13.4-.395-.465-.5-.83-.885-1.55-.785-.666.06-1.296.33-1.8.77a1.305 1.305 0 0 0-.36 1.35c.25.58 1.275.845 1.79 1.105.325.16.61-.325.285-.5z"/>
                <path fill="#FFF" fill-rule="nonzero" d="M157.65 47.42a2.745 2.745 0 0 1-.825-.8.54.54 0 0 1 .085-.83 3 3 0 0 1 2.125-.72.59.59 0 0 1 .23.045.6.6 0 0 1 .185.17c.132.143.23.314.285.5a.625.625 0 0 1-.125.56.645.645 0 0 1-.56.16 2 2 0 0 1-.57-.21"/>
                <path fill="#040000" fill-rule="nonzero" d="M157.79 47.18c-.335-.235-.735-.5-.7-.945.035-.445.59-.65 1-.77.306-.124.639-.164.965-.115.18.065.465.4.435.6-.065.5-.605.235-.845.12-.325-.16-.61.325-.285.5.575.275 1.5.445 1.675-.42a1.175 1.175 0 0 0-1.17-1.355c-.765 0-1.83.315-2.295 1-.465.685.41 1.5.955 1.905.3.205.58-.28.285-.5l-.02-.02z"/>
                <path fill="#040000" fill-rule="nonzero" d="M154.855 45.785c1.195 2 3.81 2.55 5.03 4.595a.288.288 0 0 0 .5-.285 7.97 7.97 0 0 0-2.15-2.22c-1-.725-2.22-1.275-2.88-2.37-.19-.31-.675-.03-.5.28z"/>
                <path fill="#040000" fill-rule="nonzero" d="M145.76 42.91c.525 1.46 2.275 2.26 3.62 2.82a13.455 13.455 0 0 0 5.85 1c.355 0 .355-.575 0-.56a12.84 12.84 0 0 1-4.57-.545c-1.425-.455-3.82-1.33-4.36-2.845-.12-.335-.66-.19-.54.145v-.015zM160.355 50.705a2.57 2.57 0 0 0 2.43-1.5c.232-.33.319-.74.24-1.135a1.375 1.375 0 0 0-.325-.415 5.81 5.81 0 0 1-.79-1.055.287.287 0 0 0-.5.28c.335.575 1.25 1.275.93 1.945a2.08 2.08 0 0 1-2 1.325c-.36-.035-.355.53 0 .565l.015-.01z"/>
                <path fill="#040000" fill-rule="nonzero" d="M154.59 67.45c.97 2.885 3.71 4.6 6.575 5.265 3.05.71 5.555-.285 7.225-2.965 4.155-6.68-.39-16.82-5.425-21.78a.281.281 0 0 0-.395.4c4.245 4.185 8 12 6.64 18.15-.785 3.525-3.64 6.42-7.38 5.76-2.835-.5-5.74-2.13-6.695-5-.115-.34-.66-.195-.545.15v.02zM147.885 41.21c-5.75-.715-9.16 5.045-10.25 9.895-.08.355.46.5.54.15 1.04-4.605 4.24-10.165 9.71-9.5.36.045.355-.5 0-.565v.02z"/>
                <path fill="#040000" fill-rule="nonzero" d="M163.28 72.855a72.095 72.095 0 0 1-.725 9.145c-.045.35.5.5.545.15a74.5 74.5 0 0 0 .745-9.31.285.285 0 0 0-.565 0v.015zM136.595 62.7c-.71 5.835-.795 11.735-1.115 17.605 0 .36.545.36.565 0 .32-5.87.4-11.77 1.115-17.605.04-.36-.5-.36-.565 0z"/>
                <path fill="#040000" fill-rule="nonzero" d="M136.225 80.665c3.825 1.74 7.83 2.11 11.96 2.555 4.855.5 9.815 1.345 14.615.045a.285.285 0 0 0-.15-.545c-4.5 1.22-9.065.5-13.605.03-4.3-.46-8.55-.76-12.54-2.57-.325-.15-.61.335-.28.5v-.015zM154.76 30.915a.29.29 0 0 1 .345-.105c.34.115.5-.425.145-.535a.815.815 0 0 0-.88.25c-.23.27.16.665.39.39zM157.675 30.47a.095.095 0 0 1 .16-.05c.305.195.58-.285.28-.5a.65.65 0 0 0-.92.25c-.165.315.315.595.5.28l-.02.02zM156 34.75a1.74 1.74 0 0 0 1.75-.5c.24-.265-.155-.66-.395-.39a1.18 1.18 0 0 1-1.205.365.28.28 0 0 0-.15.535v-.01z"/>
                <ellipse cx="144.999" cy="54.55" fill="#FFF" fill-rule="nonzero" rx="2.735" ry="3.435" transform="rotate(-10.61 144.999 54.55)"/>
                <path fill="#FFF" fill-rule="nonzero" d="M142 59.185a.175.175 0 0 1-.11-.045l-.185-.18a.055.055 0 0 1 0-.065l.125-.21a.03.03 0 0 1 .045 0l.055.05.17-.285a.04.04 0 0 0 0-.05l-.13-.125a.03.03 0 0 0-.045 0l-.175.295a.545.545 0 0 1-.065.085l-.145.14a.04.04 0 0 1-.04 0l-.065-.07v-.045l.135-.125a.47.47 0 0 0 .07-.095l.665-1.1a.115.115 0 0 1 .085-.06.095.095 0 0 1 .095.03l.305.295a.26.26 0 0 1 .065.105.17.17 0 0 1 0 .13l-.77 1.275a.125.125 0 0 1-.085.05zm.605-1.53a.045.045 0 0 0 0-.05l-.105-.105-.13.215a.05.05 0 0 0 0 .045l.135.13a.025.025 0 0 0 .04 0l.06-.235zm-.24.39a.035.035 0 0 0 0-.045l-.135-.135a.04.04 0 0 0-.04 0l-.125.215a.04.04 0 0 0 0 .05l.135.13a.03.03 0 0 0 .04 0l.125-.215zm.365 1.885l-.61-.595a.085.085 0 0 1 0-.1l.12-.2c0-.035.055-.03.085 0l.135.13a.035.035 0 0 0 .055 0l.35-.58a.055.055 0 0 0 0-.05l-.155-.145a.045.045 0 0 1 0-.065l.03-.055h.055l.15.145a.03.03 0 0 0 .04 0l.22-.375a.055.055 0 0 1 .075 0l.185.18a.085.085 0 0 1 0 .09l-.225.375a.04.04 0 0 0 0 .045l.145.14a.055.055 0 0 1 0 .065l-.035.06a.04.04 0 0 1-.05 0l-.14-.135h-.04l-.355.58a.065.065 0 0 0 0 .065l.145.14a.075.075 0 0 1 0 .095l-.12.195a.045.045 0 0 1-.045-.005h-.015zM143.92 59.56v.07a.045.045 0 0 1 0 .06l-.5.85a.04.04 0 0 1-.065 0l-.19-.185a.065.065 0 0 1 0-.08l.5-.81a.06.06 0 0 0 0-.05l-.06-.055a.03.03 0 0 1 0-.05l.5-.405a.055.055 0 0 1 .06 0l.225.215a.035.035 0 0 1 0 .05l-.47.39zm.885 1.225l-.28-.27h-.045l-.33.54a.14.14 0 0 1-.1.07.16.16 0 0 1-.13-.05l-.295-.285a.075.075 0 0 1 0-.085l.14-.23h.065l.13.125a.04.04 0 0 0 .065 0l.2-.33a.06.06 0 0 0 0-.07l-.285-.27a.045.045 0 0 1 0-.05l.045-.075h.04l.285.275h.045l.1-.165a.08.08 0 0 1 .045 0l.395-.07-.455-.44v-.045l.045-.08a.025.025 0 0 1 .04 0l.74.715a.045.045 0 0 1 0 .055l-.095.155a.06.06 0 0 1-.04.03l-.435.055a.04.04 0 0 0-.035 0l-.045.07a.055.055 0 0 0 0 .06l.28.27a.04.04 0 0 1 0 .05l-.04.07a.028.028 0 0 1-.05-.025zM141.625 57.695l-.56-.54c-.055-.05-.1-.095-.15-.135a.87.87 0 0 0-.135-.11.67.67 0 0 0-.065.41c.026.14.098.266.205.36a.79.79 0 0 0 .19.13c.087.044.177.08.27.11l-.035.245a1.45 1.45 0 0 1-.47-.1 1.17 1.17 0 0 1-.365-.245 1.145 1.145 0 0 1-.35-.66 1.065 1.065 0 0 1 .15-.715.73.73 0 0 1 .55-.385.78.78 0 0 1 .64.255 1 1 0 0 1 .32.635 1.21 1.21 0 0 1-.18.72l-.015.025zm-.305-.445a1.63 1.63 0 0 0 .14-.465.42.42 0 0 0-.12-.255.195.195 0 0 0-.21-.05 1.055 1.055 0 0 0-.3.335l.26.24c.07.06.18.16.23.195z"/>
                <path fill="#FB5373" fill-rule="nonzero" d="M146.33 55.835c-.404.318-.978.3-1.36-.045-.805-.57-1.72-1.655-1.22-2.62.585-1.135 2.1-.055 2.465.735.555 1.195-.4 1.28-.825.865a.965.965 0 0 1-.34-.88.445.445 0 0 0-.31-.5c-.24-.05-.35.235-.355.455.053.542.304 1.046.705 1.415a1.07 1.07 0 0 0 1.575.045c.29-.305.28-1-.04-1.605a3.5 3.5 0 0 0-1.1-1.255 1.5 1.5 0 0 0-2.19.32 3.2 3.2 0 0 0 .13 3.085l-.095.15c.12.183.263.351.425.5.15.145.317.27.5.37l.095-.16a1.75 1.75 0 0 0 2.315-.53l-.375-.345z"/>
                <path fill="#040000" fill-rule="nonzero" d="M162.445 83c-.72 7.82-2.215 17.3-8.415 22.855-9 8.065-22.53 7.285-31.34-.465-.27-.235-.665.16-.395.395 8.9 7.825 22.04 8.63 31.445 1.04 6.875-5.55 8.5-15.585 9.26-23.825.035-.355-.5-.35-.555 0z"/>
                <path fill="#040000" fill-rule="nonzero" d="M122.68 105.615c.855-1.41 2-4.29 3.88-4.39 1.775-.09 3.685 1.065 5.5 1.19a5.755 5.755 0 0 0 5.27-3.145c1.075-2.37-.595-5.335-1.095-7.605a25.065 25.065 0 0 1 0-10.92c.08-.345-.455-.5-.54-.15a25 25 0 0 0 .16 11.845c.58 2.23 2.15 5.245.435 7.31-1.54 1.85-3.39 2.23-5.69 1.835-1.63-.28-3.245-.745-4.855-1.115a.29.29 0 0 0-.315.125 54.465 54.465 0 0 0-3.22 4.74c-.185.305.295.585.5.28h-.03zM139.57 84.56a17.745 17.745 0 0 0-.045 9.29.11.11 0 0 0 .21-.055 17.5 17.5 0 0 1 .04-9.18.106.106 0 0 0-.205-.055zM143.345 86.085a60.315 60.315 0 0 0-1.125 9.275c0 .14.21.14.215 0a60.15 60.15 0 0 1 1.115-9.215c.03-.135-.175-.195-.205-.06zM138.81 101.42c6.575-1.93 10.5-7.19 11.555-13.845 0-.135-.185-.19-.205-.055-1.03 6.58-4.9 11.785-11.405 13.695-.13.04-.075.245.055.205z"/>
                <path fill="#040000" fill-rule="nonzero" d="M130.935 104.86c11.785 3.64 23.55-7.405 26.145-18.17.03-.13-.175-.19-.205-.055-2.57 10.65-14.2 21.625-25.885 18-.13-.04-.185.165-.055.21v.015z"/>
                <path fill="#040000" fill-rule="nonzero" d="M127.305 107.045c10.345 4.736 22.598.972 28.5-8.755.07-.115-.115-.225-.185-.105-5.844 9.62-17.96 13.347-28.2 8.675-.125-.06-.235.125-.11.185h-.005zM136.57 87.675a58.415 58.415 0 0 1 12.115-1.905c.135 0 .135-.22 0-.215A59 59 0 0 0 136.5 87.47a.107.107 0 1 0 .06.205h.01zM137.17 91.7a78.455 78.455 0 0 1 22.19-2.355c.14 0 .14-.21 0-.215a78.825 78.825 0 0 0-22.245 2.37.106.106 0 1 0 .055.205V91.7zM140.06 94.665c6-.26 12-.292 18-.095.135 0 .135-.21 0-.215-6-.197-12-.165-18 .095-.135 0-.135.22 0 .215z"/>
                <path fill="#040000" fill-rule="nonzero" d="M140.18 98.6c5.13.11 10.575.74 15.225 3.045.12.065.23-.12.105-.185-4.68-2.32-10.165-2.965-15.33-3.07a.105.105 0 1 0 0 .21zM138.695 100.135c4.12 1.175 8.205 3.855 10.47 7.54.075.12.26 0 .185-.105-2.3-3.745-6.415-6.445-10.6-7.64a.106.106 0 0 0-.055.205zM136.365 103.44c2.54 1.813 5.008 3.72 7.405 5.72.105.09.255-.065.15-.15-2.41-2-4.893-3.918-7.45-5.755-.11-.08-.215.105-.105.185zM132.73 104.425a85.406 85.406 0 0 0 3.965 6.05c.08.11.265 0 .185-.105a83.139 83.139 0 0 1-3.965-6.05.106.106 0 0 0-.185.105zM128.805 103.41a32.675 32.675 0 0 0 1.335 5.435c.045.13.255.075.21-.06a32.25 32.25 0 0 1-1.35-5.43c0-.135-.23-.08-.21.055h.015zM162.785 83.955c3.32 7.72 4.365 16.7 5.465 24.97a210.895 210.895 0 0 1 1.81 25.295.28.28 0 1 0 .56 0 212.575 212.575 0 0 0-1.89-25.89c-1.11-8.185-2.18-17-5.465-24.655-.145-.33-.62-.045-.5.28h.02zM152.76 107.465a114.655 114.655 0 0 1 9.785 28.445c.07.35.61.2.535-.15a115.245 115.245 0 0 0-9.84-28.575c-.16-.32-.64-.04-.5.28h.02z"/>
                <path fill="#040000" fill-rule="nonzero" d="M163.115 136.365a80.378 80.378 0 0 1 7-1.685c.35-.07.205-.605-.145-.535a91.384 91.384 0 0 0-7 1.685.28.28 0 0 0 .15.535h-.005zM162.54 95.065a222.68 222.68 0 0 1 4.67 35.205c0 .14.22.14.215 0a222.72 222.72 0 0 0-4.68-35.27c-.03-.135-.235-.08-.205.055v.01zM160.23 103.5a188.21 188.21 0 0 1 5.315 28.245c0 .135.23.135.215 0a189.565 189.565 0 0 0-5.32-28.3.11.11 0 0 0-.21.055zM156.93 108c2.155 5.92 3.73 12 5.275 18.11a.107.107 0 1 0 .205-.06c-1.54-6.1-3.115-12.185-5.275-18.105-.045-.13-.255-.07-.205.055z"/>
                <path fill="#040000" fill-rule="nonzero" d="M160.23 101.92a13.16 13.16 0 0 1 4.27-1.17c.135 0 .135-.23 0-.215a13.71 13.71 0 0 0-4.395 1.2c-.125.06 0 .245.11.185h.015zM158.595 107.93a18.535 18.535 0 0 1 7.405-2.865c.135 0 .075-.225-.06-.205a18.71 18.71 0 0 0-7.44 2.885c-.115.075 0 .26.11.185h-.015zM157.305 112.685a32.345 32.345 0 0 1 8.9-2.95c.135-.025.08-.23-.055-.205-3.113.55-6.13 1.55-8.955 2.97-.125.06 0 .245.11.185zM159.205 116.755a31.1 31.1 0 0 1 7.59-2.755c.135-.03.075-.235-.055-.205a31.44 31.44 0 0 0-7.64 2.755c-.125.06 0 .245.105.185v.02zM160.72 121.675a24.17 24.17 0 0 1 7.16-2.39c.135 0 .08-.225-.055-.205a24.135 24.135 0 0 0-7.21 2.42c-.125.065 0 .25.105.185v-.01zM162.74 125.075a18.525 18.525 0 0 1 6.605-1.41.11.11 0 0 0 0-.215 18.725 18.725 0 0 0-6.66 1.42c-.125.05-.07.255.055.205zM163.525 130.035a14.315 14.315 0 0 1 5.625-1.885c.135 0 .135-.23 0-.215a14.7 14.7 0 0 0-5.735 1.915.11.11 0 0 0 .11.185zM164.8 133.5a35 35 0 0 1 3.68-1.175.107.107 0 0 0-.06-.205 33.77 33.77 0 0 0-3.675 1.175c-.13.05-.075.255.055.205zM164.42 50s2.825 4 3.89 6.47c1.065 2.47 4.14 10.865-3.345 15.97l-.785.2s-.705-.31-.625.71c.08 1.02-.5 7-.5 7s-.06 2.62-.41 2.775c-.35.155-4.47.875-9.145.375s-9.285-1.115-11.175-1.26c-1.89-.145-5.405-1.59-5.405-1.59s-1.13.09-1.105-.825c.025-.915.235-13.565.96-16.085.055-.58-.105-1.45.785-.5s8 8 8 8a4.3 4.3 0 0 0 1.615 1.32c.81.255 5.065.235 5.4-.25.335-.485 1.86-3.965 1.86-3.965S158 61 158.63 60.05A18.815 18.815 0 0 0 160.5 56c.085-.58-2.715-3.03-2.715-3.03l-4.43-3.5-5.45-4.5s-1.64-1.675-2.855-1.825c-1.215-.15-2.65-.075-1.55-.645 1.1-.57 1.87-1.075 3.655-1.055 0 0-2.075.5-.715 2.24 1.36 1.74 4 2.345 5.45 2.55 1.45.205 3.575-.06 4.195.46.62.52 2.58 1.6 3.14 2.455s.915 1.55 1.54 1.34a3.085 3.085 0 0 0 1.655-1.19c.285-.535.56-.955 1.05-.4l.95 1.1z"/>
                <path fill="#FFF" fill-rule="nonzero" d="M161.64 51.735c3.47 2.73 4.315 6.71 4.96 10.845.03.19.32.11.29-.08-.66-4.2-1.545-8.225-5.04-11-.15-.12-.365.09-.21.21v.025zM155.5 69.845a10.5 10.5 0 0 0 7.06 3.385c.195 0 .19-.285 0-.3a10.125 10.125 0 0 1-6.85-3.295c-.13-.145-.34.07-.21.21z"/>
                <path fill="#FB5373" fill-rule="nonzero" d="M123.925 109.55a18 18 0 0 0 .78 9.115c.13.365.715.21.585-.16a17.43 17.43 0 0 1-.79-8.795c.06-.38-.525-.545-.585-.16h.01zM131.345 112.345A19.31 19.31 0 0 0 141.62 131c.345.18.65-.345.305-.525a18.71 18.71 0 0 1-9.97-18.105c.03-.39-.575-.385-.61 0v-.025zM181.32 145.23a13.07 13.07 0 0 1 4.705-1.675l-.295-.5a9.62 9.62 0 0 1-3.7 2.215c-.37.12-.21.705.16.585a10.415 10.415 0 0 0 3.97-2.37c.24-.23 0-.55-.295-.5-1.713.263-3.36.852-4.85 1.735a.305.305 0 0 0 .305.5v.01zM179.94 143.14a5.22 5.22 0 0 1 2.76-1.5l-.295-.5-2.235 2.55c-.255.295.17.725.43.43l2.235-2.55a.305.305 0 0 0-.295-.5 5.79 5.79 0 0 0-3.03 1.68c-.27.28.16.71.43.425v-.035zM166.685 143.95a26.605 26.605 0 0 0-5.58-2.395.305.305 0 0 0-.295.5 28.855 28.855 0 0 0 3.97 3.685l.305-.525a7.295 7.295 0 0 0-4.155-.78.305.305 0 0 0-.08.595l2.7.83c.375.115.535-.47.16-.585l-2.71-.825-.08.595a6.755 6.755 0 0 1 3.85.7.305.305 0 0 0 .305-.525 28.065 28.065 0 0 1-3.845-3.585l-.295.5a26.115 26.115 0 0 1 5.435 2.33.3.3 0 0 0 .305-.5l.01-.015zM15 2.41c-.037 24.09-.082 48.182-.135 72.275a.28.28 0 0 0 .555 0c.053-24.09.105-48.182.155-72.275a.28.28 0 0 0-.56 0H15zM15.46.555c18.165 0 36.335.35 54.5.795 6.2.15 12.395.34 18.59.715 3.06.185 6.125.205 9.19.25 3.525.055 7.05.425 10.565.5 1.755.025 1.61-.3 1.635 1.24L110 8.4c.13 8.73.27 17.455.355 26.18a.28.28 0 0 0 .555 0c-.1-10.62-.28-21.24-.435-31.86a.29.29 0 0 0-.28-.28c-8.09-.9-16.26-.625-24.38-1.12-4.055-.245-8.12-.325-12.18-.435C60.5.535 47.39.315 34.275.15 28 .07 21.73 0 15.46 0a.28.28 0 0 0 0 .555z"/>
                <path fill="#FB5373" fill-rule="nonzero" d="M5.215 74.07l7.47 1.5c1.67.335 2.58.565 4.245.26a1839.9 1839.9 0 0 1 23.73-4.215c15.84-2.71 31.713-5.21 47.62-7.5.35-.05.2-.585-.15-.535a1824.22 1824.22 0 0 0-46.16 7.23c-7.6 1.293-15.19 2.627-22.77 4-1.32.24-2.785.725-4.105.635a20.12 20.12 0 0 1-2.535-.5c-2.4-.475-4.795-.955-7.195-1.425-.35-.065-.5.47-.15.535v.015zM.2 73c.7.12 1.4.245 2.1.345.35.055.5-.5.15-.535-.705-.1-1.4-.225-2.1-.35-.35-.06-.5.475-.15.54zM104.17 12.165l-63.225.195H29.63c-.53 0-3.215.4-3.615.045l-.18-1.235c-.555-1.03-.44-1.43.355-1.205a9.785 9.785 0 0 1 1.465.03c1.305 0 2.615.03 3.92.04l8.33.08 32.245.315 18.095.175 8.95.09h2c.085 0 2.68-.135 2.705-.105.185.185 0 1.5 0 1.8a.28.28 0 1 0 .56 0V10.5a.29.29 0 0 0-.28-.28l-71.135-.695c-2.45-.025-4.935-.175-7.385-.12-1.07.025-2 .325-2.06 1.575-.1 3.02 5.255 1.97 6.9 1.965l34.88-.105 38.79-.12a.28.28 0 0 0 0-.555z"/>
                <path fill="#FB5373" fill-rule="nonzero" d="M68.81 29.965c-1.08.925-2.825-.565-4.045-.29-.5.115-.775.59-1.195.75-1.24.46-2.12-.215-3.22-.59-1.335-.46-1.865.09-3.19.335-1.625.295-2.725-.45-4.16-.89a2.58 2.58 0 0 0-1.375-.13c-.585.15-.625.545-1.1.795-1.37.71-2.55.5-3.92.42-.82-.045-1.56.29-2.345.3-.145 0-.67.32-.8.265-.455-.195-.53-1.875-.59-2.34-.665-5-.085-10.2.21-15.2 0-.355-.53-.355-.555 0-.36 6.075-.7 12.095.14 18.15 0 .195.265.225.405.165 2.215-.97 3.25-.56 5.43-.405.94.07 1.155-.07 2-.455.59-.93 1.535-1.205 2.835-.825l.71.41c.57.2.94.535 1.56.595 1.425.13 2.385-.72 3.87-.47 1.91.315 2.32 1.615 4.12.655 2.5-1.33 2.155-.47 4.215-.37a1.67 1.67 0 0 0 1.405-.5c.27-.23-.12-.625-.395-.39l-.01.015zM70.72 29.8c1.68-.585 3.16.665 4.805.68.295 0 .565-.225.845-.27 3.35-.535 2.08-.395 3.695.5.54.305.965.5 1.565.26.2-.08.3-.315.5-.4.693-1.067 1.833-1.163 3.42-.29.094.078.192.15.295.215 1.635.33 1.905-.055 3.385-1 .97-.61 1.45-.765 2.67-.15.39.195.205.405.79.545.925.22 2.375-1.205 3.055-.615.275.23.665-.16.395-.395-.735-.63-.96-.3-1.825-.17a1.67 1.67 0 0 0-.57.37 2.35 2.35 0 0 1-2.11-.72c-.165-.045-.335-.18-.5-.22-.695-.135-1.24.25-1.8.59-.56.34-1 1-1.6 1.2-3 .965-1.415-.585-2.905-.815-.81-.125-1.46-.225-2.215.225-.905.54-.755 1.4-2.245.88-.5-.18-.89-.8-1.425-1-1.125-.445-2.29.185-3.435.345-1.785.25-3.15-.925-4.915-.31-.335.115-.19.655.15.535l-.025.01zM96.4 14.285a83.79 83.79 0 0 0 .32 14.215c.035.35.59.355.555 0a83.275 83.275 0 0 1-.315-14.21c0-.36-.535-.355-.56 0v-.005zM29.83 22.26c-.31 16.455-.245 32.915-.555 49.37a.28.28 0 0 0 .555 0c.31-16.455.25-32.915.555-49.37a.28.28 0 0 0-.555 0z"/>
                <path fill="#FB5373" fill-rule="nonzero" d="M30.38 20.97a116.3 116.3 0 0 1 11.735-.175c.355 0 .355-.54 0-.555a114.85 114.85 0 0 0-11.735.175c-.355.025-.355.58 0 .555zM96.91 21.09a33.61 33.61 0 0 1 5.63.115c.355.035.355-.5 0-.555a34.15 34.15 0 0 0-5.63-.12c-.36 0-.36.58 0 .56zM102.835 21.67v12.175a.28.28 0 0 0 .555 0V21.67a.28.28 0 0 0-.555 0zM52.9 31.425l-.4 36.365a.28.28 0 0 0 .555 0l.405-36.365a.28.28 0 0 0-.555 0H52.9zM86.38 32.61l-.295 31.63a.28.28 0 0 0 .555 0l.295-31.63a.28.28 0 0 0-.555 0zM35.3 35.85a7.045 7.045 0 0 0 1.965-1.5c.24-.27-.155-.66-.395-.395A6.57 6.57 0 0 1 35 35.37c-.32.165-.04.645.28.5l.02-.02zM35.095 37.275a24.555 24.555 0 0 0 2.405-2.13c.255-.255-.14-.65-.39-.395a23.025 23.025 0 0 1-2.315 2.045c-.28.215 0 .695.28.5l.02-.02zM88.5 25.315l.24 2.165c.04.35.595.355.555 0l-.24-2.165c-.04-.35-.595-.355-.555 0z"/>
                <path stroke="#FB5373" stroke-width=".27" d="M40.79 43.12a.43.43 0 0 0-.18.145.39.39 0 0 0-.03.2c.006.257.034.513.085.765.005.05.028.096.065.13a.195.195 0 0 0 .13.03 21.88 21.88 0 0 1 3.08.155.58.58 0 0 0 .75-.78.575.575 0 0 0-.54-.66c-1.07-.235-2.335-.49-3.36.015zM60.925 46.97c0 .845-.155 1.685-.16 2.53 0 1.29.3 2.58.105 3.855.075.105.25.07.33-.03a.605.605 0 0 0 .095-.365l.105-1.77.105-1.795c.035-.645.075-1.285.08-1.925a19.765 19.765 0 0 0-.09-2.04c-.035-.36.03-1.37-.415-1.5-.54-.17-.265.825-.24 1.105a18 18 0 0 1 .085 1.935z"/>
                <path fill="#FB5373" fill-rule="nonzero" d="M58.5 44.96c.41 2.23.85 4.455 1.165 6.695l.32-.42c-.75 0-1.275-5.5-1.375-6.21-.06-.425-.695-.245-.64.175.295 2.17.695 4.315 1.195 6.45a.34.34 0 0 0 .32.24h.5a.34.34 0 0 0 .32-.42c-.315-2.245-.755-4.465-1.165-6.695-.08-.42-.715-.245-.64.175v.01zM54.23 45.095c.025 2.425-.055 4.855 0 7.275a.34.34 0 0 0 .335.33c.249.033.501.033.75 0a.335.335 0 0 0 .33-.33c.025-2.395-.115-4.795-.155-7.185a.335.335 0 0 0-.665 0c.04 2.39.18 4.79.155 7.185l.335-.33c-.25.027-.5.027-.75 0l.33.33c-.07-2.42 0-4.85 0-7.275a.335.335 0 0 0-.665 0zM56.285 45.115c.13 1.33.28 2.66.41 4 .09.945-.135 1.53.89 1.525a.33.33 0 0 0 .33-.33c-.175-1.735-.385-3.465-.56-5.195-.04-.425-.705-.425-.66 0 .175 1.73.385 3.46.555 5.195l.335-.335c-.335 0-.075.14-.15-.03a2.13 2.13 0 0 1-.05-.54c-.045-.5-.1-1-.15-1.53-.095-.915-.195-1.835-.285-2.75-.04-.425-.705-.43-.665 0v-.01zM52.585 44.405c-.39 2-.705 4.035-1.035 6.055a.34.34 0 0 0 .32.42.255.255 0 0 1 .27.06c.17.145.5.12.555-.15.325-1.97.605-3.95.93-5.925.07-.415-.57-.595-.64-.175-.325 2-.605 3.95-.93 5.925l.555-.145a1.18 1.18 0 0 0-.74-.25l.32.42c.33-2 .645-4.05 1.035-6.06.085-.415-.555-.595-.64-.175z"/>
                <path fill="#FB5373" fill-rule="nonzero" d="M53.185 44.17c-.065-.055-.445-.45-.5-.435l-.045.34a3.24 3.24 0 0 1 .385-.045c.471-.04.946-.015 1.41.075.26.05.285 0 .305.265.02.265-.19.34-.415.375-.445.065-.805-.32-1.125-.575-.32-.255-.805.205-.47.47.625.5 1.2 1 2.055.725.59-.185.9-1.265.41-1.695a2.025 2.025 0 0 0-1.07-.28 4.82 4.82 0 0 0-1.585.035c-.23.045-.44.15-.47.41-.04.355.43.61.66.805.31.27.77-.2.455-.47z"/>
                <path fill="#FB5373" fill-rule="nonzero" d="M53.575 39.21a10.9 10.9 0 0 0-.14 4.5c.115.865 0 1.545.905 1.705.814.098 1.636.098 2.45 0 .765-.045 2.575-.1 3.06-.77.245-.34.17-1.035.2-1.405.085-.895.18-1.79.2-2.69.03-1 .14-2.24-.915-2.775-1.055-.535-2.605-.07-3.715.11-1 .16-1.64.345-2.045 1.305-.165.395.475.565.64.18.405-.97 2.44-1 3.24-1.08a3.215 3.215 0 0 1 1-.05c1.305.325 1.155 1.43 1.135 2.31.004.9-.063 1.8-.2 2.69-.245 1.24-.965 1.335-2.15 1.465-.705.08-2.045.345-2.69.06-.37-.16-.23-.105-.365-.55a6.765 6.765 0 0 1-.18-1.5 9.37 9.37 0 0 1 .21-3.32c.125-.395-.515-.59-.64-.185zM53.745 51.705c-.263.193-.545.36-.84.5-.25.088-.486.207-.705.355-.355.31-.075.725.33.76a3.32 3.32 0 0 0 1.33-.39c.42-.165 1.15-.325.965-.93-.125-.41-.765-.235-.64.175l.03.1.035-.255c-.06.145-.5.245-.645.3l-.5.19c-.09.035-.18.07-.27.095-.09.025-.29.04-.245.075l.095.235v-.065l-.1.235c.24-.15.495-.273.76-.37a4.58 4.58 0 0 0 .715-.44c.335-.255 0-.83-.335-.575l.02.005z"/>
                <path fill="#FB5373" fill-rule="nonzero" d="M56.125 51.675c-.35.23-.705.445-1.065.65-.215.125-.535.24-.645.5-.265.575.5.65.84.56.33-.102.641-.254.925-.45a5.4 5.4 0 0 1 .735-.33c.435-.185.445-.545.375-.97-.07-.425-.71-.245-.64.175 0 .04 0 .26.04.19s0 0-.055 0c-.14.075-.315.11-.465.18-.15.07-.385.225-.58.34-.195.115-.56.35-.71.255l.155.2v-.07l-.03.255c.11-.175.56-.33.74-.435.18-.105.5-.3.73-.455.355-.235 0-.81-.335-.575l-.015-.02z"/>
                <path stroke="#FB5373" stroke-width=".27" d="M60.345 39.285a3.08 3.08 0 0 0-.42-.965c0-.255-.8-.9-1-1.055a9.43 9.43 0 0 0-1.69-.765c-.275-.115-.58-.28-.62-.575-.04-.295.28-.585.45-.875a.215.215 0 0 0 .035-.155c0-.075-.125-.095-.205-.095a7.085 7.085 0 0 0-1.83.25.315.315 0 0 0-.115.04c-.135.1-.025.315.075.45.18.24.315.595.125.825a.815.815 0 0 1-.345.21c-.425.16-.85.31-1.26.5a5.94 5.94 0 0 0-.9.5 3.28 3.28 0 0 0-1.5 2.17 2.4 2.4 0 0 0 .75 2.105c.244.328.558.598.92.79a2 2 0 0 1 .445.5c.15.235.285.4.23.155l-.055-.25c.08.09.166.174.26.25.12.095.155.11.095-.075s-.115-.305-.115-.305c.088.057.174.118.255.185.115.105.15.055.07-.075l-.08-.13s.38.22.325.13a4.333 4.333 0 0 0-.205-.28l1.5-.025c.5 0 1.675-.33 1.875.295.03.1.055.23.155.255a.23.23 0 0 0 .14 0 4.5 4.5 0 0 0 2.5-1.845c.312-.671.36-1.435.135-2.14z"/>
                <path fill="#FB5373" fill-rule="nonzero" d="M54.055 37.065c.76 1.33 3.075.91 3.89-.105.265-.325-.2-.8-.47-.465-.36.46-.915.727-1.5.72-.41 0-1.1-.08-1.33-.5a.335.335 0 0 0-.575.335l-.015.015z"/>
                <path fill="#FB5373" fill-rule="nonzero" d="M57.12 36.85c1.24.545 2.455.93 2.9 2.35a2.675 2.675 0 0 1-1.335 3.22c-.38.19-.045.765.335.575a3.31 3.31 0 0 0 1.78-3.305c-.225-2-1.695-2.685-3.345-3.41-.39-.175-.725.4-.335.57z"/>
                <path fill="#FB5373" fill-rule="nonzero" d="M53.5 43.135a84.236 84.236 0 0 1 4.945-.075.33.33 0 1 0 0-.66 76.086 76.086 0 0 0-4.945.07c-.425 0-.425.685 0 .665z"/>
                <path fill="#FB5373" fill-rule="nonzero" d="M58.295 41.825c-.2.21-.66.2-.915.275a.335.335 0 0 0 0 .64c.085.023.172.037.26.04l-.17-.62a2.5 2.5 0 0 0-.765.635.325.325 0 0 0 0 .335c.26.37.66.115.945-.085l-.405-.5a2.905 2.905 0 0 0-.42.47c-.14.185 0 .42.2.5.275.105.58-.195.79-.335l-.45-.455a1.855 1.855 0 0 0-.34.625.335.335 0 0 0 .32.42c.265 0 .545-.31.735-.46l-.5-.405a1.115 1.115 0 0 0-.235.64.34.34 0 0 0 .42.32c.235-.04.39-.31.555-.46.197-.18.428-.318.68-.405.4-.135.23-.775-.175-.64a3.5 3.5 0 0 0-.67.29 2.27 2.27 0 0 0-.34.275c-.082.077-.157.16-.225.25l.41.325c0-.09.105-.24.15-.305.22-.34-.25-.615-.5-.4-.06.05-.39.255-.265.265l.32.42a1.55 1.55 0 0 1 .27-.465c.205-.265-.19-.625-.455-.455-.06.04-.425.215-.28.27l.2.5a2 2 0 0 1 .315-.335c.28-.245-.09-.735-.4-.5a1.32 1.32 0 0 1-.3.185l.285.165v-.03.335c.14-.162.31-.296.5-.395a.335.335 0 0 0-.165-.62h-.085v.64c.395-.115.905-.125 1.21-.445.305-.32-.18-.785-.47-.47l-.035-.035zM52.93 42.33c.14.08.27.18.415.25.145.07.245.075.36.135l.165-.62a.415.415 0 0 1-.175 0c-.29-.035-.43.385-.235.57.18.138.335.307.455.5L54 42.84l-.03.025.325-.085c-.095 0-.205-.165-.27-.23-.305-.315-.72.14-.47.47.094.122.172.255.235.395l.2-.5h-.04l.255.035a3.5 3.5 0 0 1-.365-.355.33.33 0 0 0-.5.4c.078.13.13.275.155.425l.33-.33h-.035l.235.1a4.745 4.745 0 0 1-.39-.45c-.21-.245-.68 0-.555.325 0 .05.12.255.1.32l.405-.235h-.04l.2.15a3.2 3.2 0 0 0-1-1.045c-.375-.205-.71.365-.335.575a1.5 1.5 0 0 1 .58.5c.125.185.21.37.43.45a.335.335 0 0 0 .41-.23 1.13 1.13 0 0 0-.1-.675l-.555.325c.185.22.35.5.66.55a.335.335 0 0 0 .33-.335 2.075 2.075 0 0 0-.24-.76l-.525.405c.235.225.44.545.795.5a.335.335 0 0 0 .2-.5 3.085 3.085 0 0 0-.34-.53l-.47.47c.23.235.595.6.915.29a.34.34 0 0 0 .085-.325 2.44 2.44 0 0 0-.625-.77l-.235.565a.415.415 0 0 0 .175 0c.305 0 .5-.455.17-.62-.33-.165-.5-.23-.775-.385a.335.335 0 0 0-.335.575h-.03z"/>
                <path fill="#FB5373" fill-rule="nonzero" d="M54.855 36.255c-1.5.705-3.15 1.08-3.835 2.8-.615 1.54.165 2.7 1.295 3.7.315.285.785-.185.465-.47-1.305-1.16-1.815-2.67-.41-4.035.79-.765 1.865-.97 2.82-1.42.39-.185.05-.755-.335-.575zM56.965 35.815A2 2 0 0 0 58 33.5a2.16 2.16 0 0 0-2.12-1.625 2 2 0 0 0-2.175 1.42 2.17 2.17 0 0 0 1.075 2.445c.385.185.72-.385.335-.57a1.5 1.5 0 0 1-.77-1.67 1.36 1.36 0 0 1 1.535-.935 1.5 1.5 0 0 1 1.46 1.045 1.35 1.35 0 0 1-.71 1.635c-.38.195-.045.765.335.575v-.005z"/>
                <path fill="#FB5373" fill-rule="nonzero" d="M56.405 33.855c0 .18.045.365.06.55a.335.335 0 0 0 .5.29c-.27.14-.21-.415-.355-.075a.72.72 0 0 0 0 .23c-.07.303-.167.6-.29.885a.865.865 0 0 0 .59 1c.385.175.725-.4.335-.575-.5-.21-.125-.5 0-.82.024-.144.04-.29.05-.435 0-.1.03-.06.09-.21.205-.5-.26-.84-.71-.595l.5.285-.06-.55c-.055-.42-.72-.425-.665 0l-.045.02zM55.185 36.825a.94.94 0 0 0 .315-1.24c-.08-.165-.225-.29-.295-.46a1.635 1.635 0 0 1-.065-.435.535.535 0 0 0-.085-.24c-.235-.32-.125.145-.235.165l-.325-.085.085.07c.165.145.5.125.555-.145.055-.27.055-.41.085-.615.06-.42-.58-.6-.64-.175-.03.205-.055.41-.085.615l.555-.15c-.39-.335-1 0-.74.535.05.1.2.145.235.23-.1-.22-.06.17-.055.2.055.3.68.935.36 1.16-.32.225 0 .82.335.57z"/>
                <path fill="#FB5373" fill-rule="nonzero" d="M55.065 34.09c.346.06.7.06 1.045 0 .25-.106.45-.303.56-.55l-.62-.165v.45c.008.18.154.325.335.33.217.03.438.01.645-.06.385-.18.05-.75-.335-.575.115 0 .095-.035-.055 0h-.255l.33.335v-.45a.335.335 0 0 0-.62-.17c-.105.185-.17.26-.39.25l-.64-.045c-.425-.03-.425.635 0 .665v-.015zM53.155 39.265c-.075.815-.26 1.54.15 2.295l.05-.4a1.45 1.45 0 0 0-.39.895c-.075.415.565.595.64.175.035-.195.055-.465.22-.6a.34.34 0 0 0 .055-.405c-.335-.615-.125-1.3-.065-1.96.04-.425-.62-.42-.66 0zM58.79 42.26c.585-.785.905-1.87.1-2.655-.305-.295-.775.175-.47.47.59.57.195 1.315-.2 1.85-.255.34.32.675.57.335z"/>
                <path fill="#FB5373" fill-rule="nonzero" d="M52.885 44.645a13.77 13.77 0 0 0 .25 7.45c.049.175.229.28.405.235l1.15-.06a.34.34 0 0 0 .335-.33c0-2.295 0-4.425 1.18-6.5l-.605-.255c-.615 2.335-.455 4.435-.035 6.795a.34.34 0 0 0 .41.23l1.2-.09a.35.35 0 0 0 .32-.245c.355-1 .27-2.28.385-3.33.18-1.695.655-2.5 1.54-3.875.475-.747.68-1.635.58-2.515 0-.425-.685-.43-.665 0 .075 1.875-1.275 2.77-1.785 4.41a15.945 15.945 0 0 0-.43 3.12c-.065.65.055 2.59-.845 1.615-.62-.665-.5-2.4-.5-3.3.054-.89.207-1.77.455-2.625a.335.335 0 0 0-.605-.255 8.86 8.86 0 0 0-1.11 3.025c-.135.84.145 2.97-.45 3.42-.595.45-.565-.565-.685-1.215a13.39 13.39 0 0 1 .145-5.53c.09-.415-.55-.595-.64-.175zM40.255 43.195l-.15 11a.34.34 0 0 0 .33.335c1.82 0 1.5-1.5 1.5-2.935l.11-6.92a.335.335 0 0 0-.665 0l-.085 5.53c0 .91.18 2.1-.05 3a3.555 3.555 0 0 1-.145.54c-.15.38-.565-.035-.35.38-.215-.42 0-1.5.03-1.97l.07-3.655.07-5.285a.335.335 0 0 0-.665 0v-.02zM60.455 44.405v8.94c.001.15.101.28.245.32l.4.115a.335.335 0 0 0 .18-.64c-.425-.12-.05.4-.16-.07a4.68 4.68 0 0 1 0-1v-7.665a.335.335 0 0 0-.665 0z"/>
                <path fill="#FB5373" fill-rule="nonzero" d="M40.59 44.695l13.875 1.645c.4.045 1.38-.03 1.73.205-.585-.39-.215-.155-.315.41a10.43 10.43 0 0 0 0 1.63l-.045 7.045c0 .182.148.33.33.33 1.905.035 1.545-1.59 1.55-3v-4.5a8 8 0 0 1 0-1.625c.125-.535-.32.235.285-.35.935-.905 2.27-1.385 3.22-2.275-.24.225-.075-.655-.365.25a5.97 5.97 0 0 0 0 1.58v7.45a.335.335 0 0 0 .565.235c1.21-1.11.6-3.435.595-4.96L62 41.595a.335.335 0 0 0-.665 0l.035 6.18c0 1.5.56 4.575-.395 5.45l.565.235V43.8a.335.335 0 0 0-.5-.29c-1.075.76-3.45 1.795-3.965 3-.28.655 0 2.135 0 2.825v4.43c0 .47.115 1.86-.565 1.69.06 0 0-.17 0-.565v-1.84l.045-6.83a.35.35 0 0 0-.335-.335l-15.625-1.85c-.425-.05-.42.615 0 .665l-.005-.005z"/>
                <path fill="#FB5373" fill-rule="nonzero" d="M46.795 40.29L40.5 42.875a.335.335 0 0 0 .09.655l12.665 1.34c1.035.11 2.57.585 3.58.3 1.645-.47 3.535-2.335 5-3.29a.335.335 0 0 0-.165-.62l-14.765-1c-.425-.03-.425.635 0 .66l14.765 1-.17-.615c-1.465.97-3.235 2.72-4.895 3.235-.62.19-2.96-.295-3.96-.4L40.59 42.865l.085.65L47 40.93c.365-.16.19-.805-.205-.64z"/>
                <path fill="#FB5373" fill-rule="nonzero" d="M56.375 45.22v10a.33.33 0 0 0 .66 0v-10a.33.33 0 0 0-.66 0zM40.85 44.9c-.075 2.935 0 5.875-.08 8.815a.335.335 0 0 0 .665 0c.075-2.94 0-5.88.08-8.815a.335.335 0 0 0-.665 0zM51.5 53.93c.24.177.494.332.76.465.282.105.553.238.81.395l-.1-.235v.07l.095-.235a2.5 2.5 0 0 1-.565-.175l-.5-.2c-.15-.06-.63-.17-.695-.33l.03.255.035-.105c.125-.41-.5-.585-.64-.175-.185.6.5.76.93.93.463.252.974.404 1.5.445.385-.035.695-.415.37-.74a2.935 2.935 0 0 0-.775-.405 5.575 5.575 0 0 1-.895-.535c-.34-.26-.67.32-.335.575H51.5z"/>
                <path fill="#FB5373" fill-rule="nonzero" d="M48.96 53.895c.255.17.5.33.775.5.275.17.67.28.795.47l-.035-.255c.035-.195-.405-.27-.565-.36-.16-.09-.445-.285-.685-.4-.145-.07-.3-.115-.45-.175-.15-.06-.11 0-.065-.24.065-.415-.575-.595-.64-.175-.065.42-.07.81.385 1 .269.1.53.217.785.35.295.217.622.386.97.5.375.09 1.14.035.87-.56-.11-.245-.46-.38-.675-.5-.38-.225-.76-.45-1.13-.695-.37-.245-.69.34-.335.575v-.035z"/>
                <path fill="#FB5373" fill-rule="nonzero" d="M52.085 46.025c.454 1.927.505 3.927.15 5.875-.13.67-.125 1.73-.755 1.31-.63-.42-.355-2.765-.5-3.655a9.5 9.5 0 0 0-1.175-3.195.33.33 0 0 0-.605.255c.226.788.383 1.595.47 2.41.075.925.22 2.94-.305 3.685-1.06 1.5-1.045-.72-1.125-1.5a20.555 20.555 0 0 0-.375-3c-.5-1.87-2.06-2.945-1.975-5 0-.425-.645-.425-.665 0a4.31 4.31 0 0 0 .44 2.455c.26.47.69.835.965 1.29A6.67 6.67 0 0 1 47.465 50c.12 1.115.03 2.465.41 3.5a.34.34 0 0 0 .32.245l1.275.1a.34.34 0 0 0 .41-.235c.445-2.5.615-4.725-.035-7.195l-.61.255c1.235 2.195 1.25 4.45 1.26 6.89 0 .182.148.33.33.33l1.225.065a.35.35 0 0 0 .41-.235c.81-2.558.901-5.289.265-7.895-.09-.42-.73-.24-.64.175v.025z"/>
                <path fill="#FB5373" fill-rule="nonzero" d="M52.4 46.59c.5 2.6.895 5.22 1.315 7.835l.32-.42a1.395 1.395 0 0 0-.875.29l.555.15c-.41-2.5-.77-5-1.18-7.535-.07-.42-.71-.24-.64.175.41 2.5.77 5 1.18 7.535.045.265.385.29.555.145a.425.425 0 0 1 .405-.1.335.335 0 0 0 .32-.42c-.42-2.615-.805-5.235-1.315-7.83-.08-.42-.72-.245-.64.175z"/>
                <path fill="#FB5373" fill-rule="nonzero" d="M52.9 46.76c.42-.35 1.37-1.125.33-1.39a5.855 5.855 0 0 0-1.915-.065c-.425.045-1.095.055-1.43.355-.555.5-.195 1.755.46 2 1.055.375 1.79-.275 2.555-.885.335-.265-.14-.735-.47-.47-.42.335-.91.845-1.5.755-.335-.05-.6-.165-.615-.565-.015-.4.14-.365.455-.425a6.66 6.66 0 0 1 1.81-.1 4.5 4.5 0 0 1 .5.065v-.28c-.231.167-.45.351-.655.55-.325.255.15.725.475.455z"/>
                <path stroke="#FB5373" stroke-width=".27" d="M44.69 40.93a6.685 6.685 0 0 0 .445 3.67c.105.252.25.485.43.69.39.372.897.595 1.435.63.895.09 1.75-.145 2.625.105l.815.23.755.215c.099.032.201.048.305.05a.71.71 0 0 0 .265-.065c1.38-.535 2-2 2.295-3.345.39-1.905-.07-4.22-2.03-5.14a8.12 8.12 0 0 0-1.19-.5.875.875 0 0 1-.65-.5c-.033-.25.007-.503.115-.73a.615.615 0 0 0-.13-.685.65.65 0 0 0-.305-.085 2.385 2.385 0 0 0-1.32.295c-.065.325.305.625.235.955a.71.71 0 0 1-.405.42c-.5.26-1 .42-1.5.665a3.915 3.915 0 0 0-2.04 2.38 5.645 5.645 0 0 0-.15.745z"/>
                <path fill="#FB5373" fill-rule="nonzero" d="M50.91 37.455c-.245.425-1 .53-1.435.5a2.03 2.03 0 0 1-1.615-.77c-.27-.335-.735.135-.47.465.855 1.065 3.295 1.5 4.095.115a.335.335 0 0 0-.575-.335v.025z"/>
                <path fill="#FB5373" fill-rule="nonzero" d="M47.905 37c-1.745.77-3.305 1.5-3.54 3.61a3.5 3.5 0 0 0 1.88 3.5c.38.19.715-.38.335-.575a2.855 2.855 0 0 1-1.43-3.435c.5-1.5 1.77-1.93 3.09-2.5.39-.17.05-.745-.335-.575V37z"/>
                <path fill="#FB5373" fill-rule="nonzero" d="M46.5 43.335c.315.34.855.345 1.275.47v-.64h-.095a.335.335 0 0 0-.17.62c.215.105.408.25.57.425v-.335.035l.285-.165c-.1 0-.25-.15-.325-.205-.31-.21-.685.275-.405.5.126.106.24.225.34.355l.2-.5c.13-.05-.265-.255-.315-.29-.265-.17-.66.19-.455.455a1.5 1.5 0 0 1 .29.5l.32-.42c.1 0-.245-.245-.3-.29-.27-.215-.745.06-.5.405.05.07.17.23.16.33l.42-.32s-.205-.23-.245-.27a2.395 2.395 0 0 0-.355-.285 3.325 3.325 0 0 0-.71-.31c-.405-.135-.575.5-.175.64.259.105.494.261.69.46.175.155.335.445.585.5a.34.34 0 0 0 .42-.32 1.195 1.195 0 0 0-.25-.665l-.5.4c.2.16.5.5.765.5a.33.33 0 0 0 .32-.42 2 2 0 0 0-.34-.715l-.455.455c.225.15.53.465.825.355.18-.07.34-.3.2-.5a3.18 3.18 0 0 0-.445-.5l-.4.5c.29.2.705.475.97.095a.325.325 0 0 0 0-.335c-.22-.274-.494-.5-.805-.665l-.165.62a1.26 1.26 0 0 0 .27-.04.335.335 0 0 0 0-.64c-.275-.08-.77-.07-1-.3-.295-.31-.76.16-.47.47l-.025.04zM50.305 37.53c1.835.875 3.395 1.5 3.55 3.89.115 1.835-.405 4.125-2.395 4.72a.332.332 0 0 0 .175.64C53.71 46.16 54.5 44 54.5 42c.055-2.865-1.5-3.93-3.88-5.06-.385-.185-.72.385-.335.57l.02.02zM48.325 34.39c-.025.195-.045.395-.065.59l.5-.285c-.5-.275-.865.085-.73.6 0-.065.125.245.1.155.045.17 0 .36.055.535.115.38.5.665-.03.895-.39.175-.05.75.335.575.45-.14.717-.6.615-1.06a5.81 5.81 0 0 1-.31-.945v-.215a.945.945 0 0 0-.045-.105c-.075-.145-.18-.1-.31.135a.335.335 0 0 0 .5-.285c0-.195.04-.395.065-.59.055-.42-.61-.415-.665 0h-.015z"/>
                <path fill="#FB5373" fill-rule="nonzero" d="M50.645 36.96c-.375-.265.275-.845.36-1.16 0 0 .06-.54-.035-.32.035-.08.195-.135.245-.235.265-.53-.355-.885-.755-.545l.555.15-.09-.655c-.06-.42-.7-.24-.64.18l.09.65c.04.27.39.29.555.145l.09-.075-.325.085c-.135 0 0-.415-.215-.175a.5.5 0 0 0-.105.235c-.03.125 0 .255 0 .38-.055.235-.275.405-.38.615a1 1 0 0 0 .325 1.295c.35.245.68-.33.335-.57h-.01z"/>
                <path fill="#FB5373" fill-rule="nonzero" d="M51.12 35.07a1.715 1.715 0 0 1-1.965.83 1.375 1.375 0 0 1-1.11-1.93c.29-.795 1.22-1.065 2-.95 1.105.165 1.385 1.175 1.05 2.13-.14.4.5.575.64.175.42-1.195.05-2.5-1.25-2.89-1.095-.325-2.5.065-3 1.16a2 2 0 0 0 1.1 2.845c1.145.375 2.535.12 3.105-1.035.19-.405-.38-.72-.57-.335zM47.065 42.97c-.425-.575-.84-1.375-.215-2 .31-.295-.16-.765-.465-.465-.845.82-.5 1.96.11 2.79.25.335.825 0 .57-.335v.01zM44.915 47.03c-.5 2.835-1.075 5.66-1.5 8.5a.335.335 0 0 0 .32.42h.63a.34.34 0 0 0 .32-.245c.65-2.77 1.14-5.575 1.5-8.395.055-.42-.58-.6-.64-.175-.135 1-.78 8.145-1.83 8.165l.32.42c.4-2.855.955-5.68 1.5-8.5.08-.415-.56-.595-.64-.175l.02-.015zM50.285 47.405c0 2.035-.065 4.075-.035 6.115 0 .825.305 2.095-.13 2.82-.315.5-.135-.23-.13-.5.055-2.775.135-5.55.185-8.32a.338.338 0 0 0-.675-.02c-.055 3.04-.23 6.09-.2 9.13.005.183.152.33.335.335.316.038.634.038.95 0a.34.34 0 0 0 .335-.33c.085-3.075 0-6.17 0-9.245a.335.335 0 0 0-.665 0l.03.015zM47.67 47.425c-.11 1.165-.24 2.33-.36 3.5-.06.585-.12 1.175-.175 1.765-.05.5.14 1-.36 1l.33.33c.225-2.2.5-4.4.715-6.605.04-.42-.625-.42-.665 0-.225 2.205-.5 4.405-.71 6.605 0 .183.147.332.33.335 1.25 0 .925-.665 1.04-1.85.165-1.69.355-3.38.5-5.075.04-.425-.625-.42-.665 0l.02-.005z"/>
                <path fill="#FB5373" fill-rule="nonzero" d="M51.145 40.125a11.4 11.4 0 0 1 .28 3.95c-.023.66-.087 1.318-.19 1.97-.125.735 0 .835-.605 1.055-.88.325-2.5.03-3.43-.08-1.285-.145-2.415-.195-2.775-1.61a17.81 17.81 0 0 1-.285-3.76c-.03-1.085-.06-1.3.765-2.195.825-.895.75-.87 1.715-.8 1.15.08 3.97.145 4.525 1.47.165.385.805.215.64-.18-.5-1.185-1.325-1.395-2.54-1.595-1.375-.22-3.315-.805-4.645-.15-1.215.595-1.145 1.94-1.13 3.11 0 1.255.145 2.5.26 3.76.045.5-.095 1.32.24 1.73.95 1.17 5.47 1.285 6.925.94 1.04-.245.93-1.06 1.065-2.105.24-1.84.38-3.895-.175-5.69-.125-.405-.785-.23-.64.18z"/>
                <path fill="#FB5373" fill-rule="nonzero" d="M40.435 51.375s-.29 2.82.155 2.82a1.19 1.19 0 0 0 1.145-1.41c-.115-1.045-.14-7.915-.14-7.915s.32-.35 1.38-.225c1.06.125 1.07.255 1.07.255s.085 1.5.79 1.945c.705.445.59.245.25 1.09-.34.845-1.5 7.365-1.085 7.5.415.135.46-.1.62-.835.16-.735 1.575-7.415 1.575-7.415l1.605.39s-.355 4.135.2 5.23a2.78 2.78 0 0 0 1.695 1.365l-.05 2.445.55.03.41-.345.215-3.93s.25 1.62.66 1.78c.41.16 1.335-2.135 1.335-2.135a1.61 1.61 0 0 0 1.875-.1c.875-.76 1.5.5 2.185-.565s.71-4.295.71-4.295l.875-.555.96 4.88.54-.235-1.07-5.745 1.895-1 .38 1.555s.69-.73.5-.74c-.19-.01 0-3.625 0-3.625l-1.47-.165s1.215-2.44-.555-3.555c-1.77-1.115-3.66-1.46-2.83-2.345.83-.885 1.185-1.345.935-2.14-.25-.795-1.625-1.725-2.665-1.165s-1.405 1.455-.725 2.395 1.225 1.37.685 1.92c-.54.55-1.945.46-2.81 1.5-1-.44-2.735-.565-1.69-2 1.135-.97 1.765-3.115-.655-3.375 0 0-2.08.04-2.27 1.805-.19 1.765 2.175 1.765.96 2.665a5.97 5.97 0 0 0-2.365 1.15s-1.63-.035-2 1a9.145 9.145 0 0 0-.37 2.585l-3.225 1.345-.18 8.165z"/>
                <path stroke="#FB5373" stroke-width=".3" d="M66.845 46.715a.5.5 0 0 0-.2.16.5.5 0 0 0-.035.225c.007.286.038.57.095.85a.175.175 0 0 0 .22.175 24.5 24.5 0 0 1 3.425.18.89.89 0 0 0 .625-.08c.23-.165.235-.5.21-.795a.635.635 0 0 0-.6-.73c-1.19-.265-2.585-.545-3.74.015zM89.265 51c-.03.94-.175 1.875-.175 2.82 0 1.43.33 2.875.11 4.29a.245.245 0 0 0 .37-.035.695.695 0 0 0 .11-.405l.115-1.97.115-2c.04-.715.08-1.43.09-2.145.005-.758-.03-1.516-.105-2.27-.035-.4.035-1.5-.46-1.68-.6-.19-.295.92-.27 1.23.076.72.11 1.442.1 2.165z"/>
                <path fill="#FB5373" fill-rule="nonzero" d="M86.535 48.765c.46 2.5.945 4.955 1.295 7.455l.355-.47c-.83 0-1.415-6.1-1.525-6.915-.065-.47-.78-.27-.715.195.333 2.417.778 4.81 1.335 7.18.043.16.189.271.355.27h.55a.375.375 0 0 0 .36-.465c-.35-2.5-.84-5-1.295-7.46-.085-.465-.8-.265-.715.2v.01zM81.81 48.915c.03 2.695-.06 5.405 0 8.1.005.2.166.36.365.365.277.038.558.038.835 0a.37.37 0 0 0 .37-.365c.03-2.665-.125-5.34-.17-8A.37.37 0 0 0 82.5 49c.045 2.665.2 5.34.175 8l.365-.37a3.585 3.585 0 0 1-.835 0l.37.37c-.075-2.695 0-5.405 0-8.1a.37.37 0 1 0-.74 0l-.025.015zM84.1 48.935c.145 1.5.31 2.96.455 4.445.1 1.05-.155 1.7 1 1.695a.37.37 0 0 0 .37-.365c-.195-1.93-.43-3.86-.625-5.785-.045-.47-.785-.475-.735 0 .19 1.925.425 3.855.62 5.785l.37-.37c-.37 0-.085.155-.165-.035a2.185 2.185 0 0 1-.055-.6c-.055-.57-.115-1.14-.17-1.705-.105-1-.215-2.045-.315-3.065-.045-.47-.785-.5-.74 0h-.01zM80 48.145c-.44 2.235-.79 4.5-1.155 6.745a.375.375 0 0 0 .36.465.285.285 0 0 1 .3.065.37.37 0 0 0 .615-.165c.36-2.195.675-4.4 1.035-6.595.08-.465-.635-.665-.71-.2-.36 2.2-.675 4.405-1.035 6.6l.615-.165a1.365 1.365 0 0 0-.82-.28l.355.47c.365-2.25.715-4.5 1.15-6.745.095-.465-.62-.665-.71-.195z"/>
                <path fill="#FB5373" fill-rule="nonzero" d="M80.645 47.885c-.07-.06-.5-.5-.57-.5l-.055.38a4.31 4.31 0 0 1 .435-.055 5.87 5.87 0 0 1 1.565.085c.29.055.32 0 .34.3.02.3-.21.375-.46.415-.5.07-.9-.355-1.255-.64-.355-.285-.895.225-.5.5.695.555 1.335 1.11 2.29.81.655-.205 1-1.41.45-1.89a2.245 2.245 0 0 0-1.185-.31 5.53 5.53 0 0 0-1.77.035c-.255.055-.5.17-.5.46-.045.4.475.68.735.895.335.335.835-.185.48-.485z"/>
                <path fill="#FB5373" fill-rule="nonzero" d="M81.08 42.36c-.5 1.585-.365 3.405-.155 5 .13.965.03 1.72 1 1.905.905.108 1.82.108 2.725 0 .85-.055 2.865-.11 3.405-.86.27-.38.19-1.15.225-1.565.09-1 .2-2 .225-3 .03-1.135.155-2.5-1.025-3.09-1.18-.59-2.895-.075-4.13.125-1.1.18-1.83.38-2.28 1.45-.185.44.53.63.71.2.455-1.08 2.72-1.11 3.615-1.2a3.46 3.46 0 0 1 1.11-.055c1.455.36 1.285 1.59 1.26 2.57a18.74 18.74 0 0 1-.22 3c-.275 1.385-1.075 1.5-2.39 1.635-.79.085-2.28.38-3 .065-.41-.185-.255-.12-.405-.615a7.665 7.665 0 0 1-.2-1.695 10.45 10.45 0 0 1 .23-3.7c.15-.425-.56-.62-.7-.17zM81.27 56.275a5.76 5.76 0 0 1-.94.56 3.59 3.59 0 0 0-.78.4c-.395.34-.08.8.365.84a3.62 3.62 0 0 0 1.5-.435c.47-.18 1.285-.36 1.075-1.035a.37.37 0 0 0-.71.2l.035.11.035-.285c-.065.16-.565.275-.715.335l-.545.21c-.096.04-.195.075-.295.105-.08 0-.325.045-.275.085l.105.26v-.075l-.11.265a4.71 4.71 0 0 1 .845-.41 5.39 5.39 0 0 0 .795-.5c.375-.285 0-.93-.37-.64l-.015.01z"/>
                <path fill="#FB5373" fill-rule="nonzero" d="M83.92 56.24c-.39.255-.785.5-1.185.725-.24.135-.595.265-.72.535-.295.64.53.72.94.62a3.61 3.61 0 0 0 1.025-.5 6 6 0 0 1 .82-.365c.5-.21.5-.605.415-1.085-.085-.48-.785-.265-.71.2 0 .04 0 .285.045.21.045-.075 0 0-.06 0-.16.085-.355.12-.5.2-.145.08-.43.255-.645.38-.215.125-.625.39-.79.285l.17.22v-.08l-.035.285c.125-.195.62-.365.825-.5.205-.135.545-.33.81-.5.395-.265 0-.905-.37-.64l-.035.01z"/>
                <path stroke="#FB5373" stroke-width=".3" d="M88.615 42.445a3.265 3.265 0 0 0-.465-1.075c0-.285-.89-1-1.12-1.175a10.895 10.895 0 0 0-1.875-.83c-.305-.13-.645-.315-.69-.64-.045-.325.31-.65.5-1a.215.215 0 0 0 .04-.17c-.03-.085-.14-.105-.23-.11a8.05 8.05 0 0 0-2.035.28.34.34 0 0 0-.125.045c-.155.115-.035.35.08.5.205.265.35.66.14.92a.915.915 0 0 1-.385.23c-.47.18-.945.345-1.405.56-.348.161-.682.35-1 .565A3.65 3.65 0 0 0 78.365 43c-.127.87.183 1.748.83 2.345.274.366.626.667 1.03.88.198.15.367.335.5.545.17.26.325.445.26.17l-.065-.275c.092.1.19.194.295.28.13.105.175.115.105-.085a3.355 3.355 0 0 0-.13-.34c.1.064.194.134.285.21.13.11.165.055.08-.09l-.09-.14s.42.24.36.14c-.06-.1-.225-.31-.225-.31l1.65-.025c.545 0 1.865-.37 2.085.325.04.11.065.26.18.285a.26.26 0 0 0 .15 0c1.065-.385 2.215-1.03 2.78-2.055a3.265 3.265 0 0 0 .17-2.415z"/>
                <path fill="#FB5373" fill-rule="nonzero" d="M81.615 39.97c.845 1.5 3.42 1 4.33-.11.295-.37-.225-.895-.5-.5a2.085 2.085 0 0 1-1.685.805c-.465 0-1.23-.09-1.5-.54a.37.37 0 0 0-.64.37l-.005-.025z"/>
                <path fill="#FB5373" fill-rule="nonzero" d="M85.025 39.735c1.38.605 2.735 1.035 3.235 2.615a3 3 0 0 1-1.5 3.585c-.425.215-.05.85.375.64a3.68 3.68 0 0 0 2-3.68c-.25-2.235-1.89-3-3.725-3.8-.43-.19-.81.445-.375.64h-.01z"/>
                <path fill="#FB5373" fill-rule="nonzero" d="M81 46.73a87.73 87.73 0 0 1 5.5-.08.37.37 0 1 0 0-.74c-1.835-.03-3.665 0-5.5.08-.475 0-.475.76 0 .74z"/>
                <path fill="#FB5373" fill-rule="nonzero" d="M86.335 45.275c-.22.235-.735.22-1 .305a.37.37 0 0 0 0 .71c.094.027.192.042.29.045l-.185-.685a2.7 2.7 0 0 0-.855.7.375.375 0 0 0 0 .375c.285.415.735.125 1.05-.095l-.445-.58a3.125 3.125 0 0 0-.47.525c-.155.205 0 .465.22.54.31.115.645-.215.885-.37l-.5-.5a2.1 2.1 0 0 0-.38.695.375.375 0 0 0 .355.47c.3 0 .61-.345.825-.5l-.625-.47a1.23 1.23 0 0 0-.265.71.375.375 0 0 0 .465.355c.265-.04.435-.35.625-.5.22-.18.476-.313.75-.39.445-.155.255-.865-.2-.715-.26.081-.51.19-.745.325-.135.09-.263.192-.38.305a3 3 0 0 0-.245.275l.47.36c0-.1.115-.265.16-.34.25-.38-.275-.69-.58-.445-.065.055-.435.28-.3.295l.355.465a1.73 1.73 0 0 1 .305-.5c.23-.295-.21-.7-.5-.5-.065.045-.5.235-.315.3l.22.54a2.5 2.5 0 0 1 .355-.37c.315-.275-.1-.82-.445-.58-.1.086-.213.157-.335.21l.32.18-.025-.035v.375c.167-.18.365-.33.585-.44a.37.37 0 0 0-.185-.685h-.095v.71c.445-.13 1-.135 1.345-.5s-.195-.87-.5-.5l-.005-.07zM80.365 45.835c.15.09.3.2.46.28.16.08.27.085.4.15l.185-.69a.5.5 0 0 1-.195 0c-.325-.04-.5.425-.26.63.145.14.425.345.5.535l.095-.36-.03.03.36-.095c-.105 0-.225-.185-.295-.26-.345-.35-.805.16-.5.525.102.137.19.285.26.44l.22-.545-.065.025.285.035c-.145-.12-.28-.25-.405-.39a.37.37 0 0 0-.58.445c.091.153.15.323.17.5l.37-.37h-.035l.26.11a5.195 5.195 0 0 1-.435-.5c-.235-.27-.76 0-.62.36.025.06.135.285.11.355l.455-.255h-.045l.225.17a3.58 3.58 0 0 0-1.125-1.165c-.42-.23-.79.405-.375.635.261.135.483.335.645.58.14.21.23.415.5.5a.375.375 0 0 0 .455-.255 1.22 1.22 0 0 0-.11-.75l-.62.355c.21.245.395.58.735.615a.37.37 0 0 0 .37-.37 2.295 2.295 0 0 0-.27-.845l-.58.445c.255.25.5.605.885.54a.375.375 0 0 0 .22-.545 3.465 3.465 0 0 0-.375-.59l-.5.525c.255.26.66.67 1 .32a.35.35 0 0 0 .095-.355 2.64 2.64 0 0 0-.705-.92l-.26.63a.5.5 0 0 0 .195 0c.34 0 .535-.5.185-.69-.35-.19-.575-.26-.86-.43a.37.37 0 0 0-.37.64l-.025.005z"/>
                <path fill="#FB5373" fill-rule="nonzero" d="M82.5 39.07c-1.675.785-3.5 1.205-4.275 3.12-.685 1.71.185 3 1.44 4.12.355.315.88-.205.5-.525-1.45-1.29-2-2.975-.455-4.5.875-.85 2.075-1.08 3.14-1.58.43-.205.055-.84-.37-.64l.02.005zM84.855 38.58A2.24 2.24 0 0 0 86 36.025a2.395 2.395 0 0 0-2.365-1.805 2.235 2.235 0 0 0-2.42 1.58 2.42 2.42 0 0 0 1.205 2.7c.43.21.805-.43.375-.635a1.685 1.685 0 0 1-.86-1.865c.175-.79 1-1.085 1.71-1.04a1.675 1.675 0 0 1 1.63 1.165 1.5 1.5 0 0 1-.775 1.815c-.425.215-.05.855.375.64h-.02z"/>
                <path fill="#FB5373" fill-rule="nonzero" d="M84.23 36.395c0 .205.05.41.065.62a.375.375 0 0 0 .56.315c-.3.16-.235-.455-.395-.08a.755.755 0 0 0 0 .26 5.5 5.5 0 0 1-.33 1 .97.97 0 0 0 .66 1.135c.43.195.805-.44.37-.635-.5-.24-.135-.53 0-.915.031-.165.05-.332.055-.5 0-.11.035-.065.105-.235.225-.565-.29-.935-.795-.66l.555.32c0-.21-.04-.415-.065-.62-.06-.465-.8-.47-.74 0l-.045-.005zM82.875 39.71a1.06 1.06 0 0 0 .35-1.385c-.09-.185-.25-.325-.33-.5a1.77 1.77 0 0 1-.07-.5.605.605 0 0 0-.095-.265c-.26-.36-.14.155-.265.18l-.36-.095.095.08c.185.16.57.135.615-.165.035-.225.065-.455.095-.685.065-.465-.645-.665-.71-.195-.035.23-.065.455-.095.685l.615-.165c-.43-.37-1.11 0-.82.595.05.11.22.165.26.255-.11-.245-.07.19-.06.225.06.335.755 1.04.405 1.29s0 .91.37.64v.005z"/>
                <path fill="#FB5373" fill-rule="nonzero" d="M82.74 36.66c.384.07.776.07 1.16 0 .28-.115.504-.333.625-.61l-.69-.185v.5a.38.38 0 0 0 .37.37c.242.034.488.012.72-.065.43-.2.055-.84-.375-.64.13-.03.11-.04-.06-.03h-.285l.37.37v-.5a.375.375 0 0 0-.69-.19c-.115.21-.185.295-.435.28l-.71-.05c-.475-.035-.475.705 0 .74v.01zM80.61 42.425c-.08.905-.29 1.71.17 2.555l.06-.45a1.61 1.61 0 0 0-.44 1c-.085.465.63.665.71.2.007-.245.095-.48.25-.67a.38.38 0 0 0 .06-.45c-.375-.685-.14-1.45-.07-2.18.045-.475-.695-.47-.74 0v-.005zM86.89 45.755c.65-.875 1-2.08.11-2.95-.34-.335-.865.19-.5.5.65.635.215 1.465-.23 2.06-.285.38.36.75.64.37l-.02.02z"/>
                <path fill="#FB5373" fill-rule="nonzero" d="M80.31 48.41c-.666 2.74-.57 5.61.28 8.3.06.192.259.306.455.26l1.28-.065a.375.375 0 0 0 .365-.37c0-2.555.03-4.925 1.32-7.22l-.675-.285c-.685 2.6-.5 4.935-.035 7.565a.38.38 0 0 0 .45.26l1.335-.105a.395.395 0 0 0 .36-.27c.395-1.115.3-2.54.425-3.705.205-1.895.735-2.775 1.72-4.32a4.315 4.315 0 0 0 .625-2.815c0-.5-.76-.5-.74 0 .085 2.09-1.415 3.085-2 4.91a18 18 0 0 0-.5 3.5c-.07.72.06 2.88-.94 1.8-.69-.745-.57-2.675-.53-3.675.06-.989.229-1.968.5-2.92a.37.37 0 0 0-.675-.285 10.12 10.12 0 0 0-1.235 3.36c-.15.94.165 3.31-.5 3.815-.665.505-.635-.655-.77-1.36a14.915 14.915 0 0 1 .16-6.15c.1-.465-.61-.665-.715-.2l.04-.025zM66.25 46.8l-.165 12.245c0 .204.166.37.37.37 2 0 1.66-1.645 1.685-3.265l.125-7.705a.37.37 0 1 0-.74 0l-.095 6.16c0 1 .2 2.34-.055 3.32a3.5 3.5 0 0 1-.16.6c-.17.43-.63-.035-.39.425-.24-.465 0-1.675.03-2.195l.055-4.075.09-5.88a.37.37 0 0 0-.74 0h-.01zM88.74 48.145V58.1c0 .165.11.31.27.355l.45.125a.37.37 0 0 0 .195-.71c-.47-.13-.05.445-.175-.075a5.44 5.44 0 0 1 0-1.105v-8.545a.37.37 0 1 0-.74 0z"/>
                <path fill="#FB5373" fill-rule="nonzero" d="M66.62 48.465L82.085 50.3c.5.06 1.455 0 1.92.225-.68-.36-.225-.23-.36.46-.05.606-.05 1.214 0 1.82l-.05 7.84a.38.38 0 0 0 .37.37c2.865.05 1.725-4.665 1.73-6.5v-3a4.46 4.46 0 0 1 0-.775c.145-.615-.29.305 0-.1.815-1.13 2.89-2.04 4.05-2.86l-.555-.32v10.755a.375.375 0 0 0 .63.26c1.365-1.25.67-3.96.66-5.68L90.44 45a.37.37 0 1 0-.74 0l.04 6.825v4.305c0 1.07.145 1.26-.465 1.82l.635.26V47.47a.375.375 0 0 0-.56-.32c-1.18.84-3.895 2-4.415 3.345-.325.825 0 2.43 0 3.3v4.865c0 .9.25 1.59-.81 1.62.375 0 .08.47.2-.465.035-.606.035-1.214 0-1.82l.05-7.835a.38.38 0 0 0-.37-.37l-17.4-2.06c-.47-.06-.465.68 0 .735h.015z"/>
                <path fill="#FB5373" fill-rule="nonzero" d="M73.535 43.565l-7 2.88a.37.37 0 0 0 .095.725l14.305 1.5c1.115.115 2.77.625 3.85.265 1.87-.615 3.825-2.525 5.5-3.615a.375.375 0 0 0-.185-.69l-16.47-1.08c-.475-.03-.47.705 0 .74l16.44 1.095-.185-.69c-1.655 1.095-3.5 2.84-5.35 3.53-.65.24-3.075-.225-4.235-.345l-13.68-1.45.1.725 7-2.88c.445-.18.28-.895-.185-.71z"/>
                <path fill="#FB5373" fill-rule="nonzero" d="M84.195 49.055V60.18a.37.37 0 0 0 .74 0V49.055a.37.37 0 0 0-.74 0zM66.91 48.695c-.085 3.27 0 6.545-.085 9.815a.37.37 0 0 0 .735 0c.09-3.27 0-6.545.09-9.815 0-.5-.725-.5-.74 0zM78.755 58.75c.267.19.55.358.845.5.314.117.615.265.9.44l-.11-.265v.08l.11-.265a2.5 2.5 0 0 1-.63-.19l-.575-.225c-.17-.07-.7-.19-.775-.365l.035.285.035-.12c.14-.455-.57-.65-.71-.195-.21.67.56.85 1.035 1.035.51.28 1.074.45 1.655.5.425-.04.77-.46.41-.825a3.305 3.305 0 0 0-.865-.45 5.84 5.84 0 0 1-1-.595c-.38-.285-.75.355-.375.64l.015.015z"/>
                <path fill="#FB5373" fill-rule="nonzero" d="M75.945 58.71c.28.19.57.37.86.54.29.17.75.315.885.5l-.04-.285c.04-.22-.45-.3-.63-.4-.18-.1-.5-.32-.76-.445-.16-.08-.335-.125-.5-.195-.165-.07-.12 0-.075-.265.075-.465-.64-.665-.715-.195-.075.47-.075.9.43 1.115.3.111.593.243.875.395.333.222.7.391 1.085.5.41.105 1.27.04.965-.625-.12-.275-.5-.42-.75-.555-.425-.25-.85-.5-1.26-.77-.41-.27-.765.375-.37.635v.05z"/>
                <path fill="#FB5373" fill-rule="nonzero" d="M79.42 49.95c.508 2.145.566 4.372.17 6.54-.145.745-.14 1.925-.84 1.455-.775-.5-.395-3.075-.555-4.065a10.64 10.64 0 0 0-1.305-3.56.37.37 0 0 0-.675.285c.244.879.411 1.777.5 2.685.08 1.03.245 3.275-.34 4.105-1.18 1.685-1.165-.805-1.255-1.69a23.16 23.16 0 0 0-.42-3.325c-.53-2.08-2.29-3.275-2.195-5.575 0-.5-.72-.5-.74 0a4.8 4.8 0 0 0 .5 2.735c.285.5.765.93 1.075 1.435.675 1.095.79 2.15.92 3.4s.035 2.745.455 3.925c.046.158.19.268.355.27l1.425.115a.38.38 0 0 0 .455-.26c.5-2.785.685-5.265-.04-8l-.675.285c1.375 2.445 1.39 4.95 1.4 7.67 0 .204.166.37.37.37l1.365.07a.385.385 0 0 0 .455-.26c.9-2.848 1.001-5.888.295-8.79-.105-.465-.815-.27-.715.195l.015-.015z"/>
                <path fill="#FB5373" fill-rule="nonzero" d="M79.775 50.575c.565 2.895 1 5.815 1.465 8.725l.355-.47c-.353 0-.695.115-.975.33l.62.16c-.46-2.79-.86-5.595-1.32-8.385-.075-.47-.79-.27-.71.195.455 2.795.855 5.595 1.315 8.39.05.295.43.325.62.16a.465.465 0 0 1 .45-.11.375.375 0 0 0 .355-.465c-.47-2.915-.9-5.83-1.465-8.725-.09-.465-.8-.27-.71.195z"/>
                <path fill="#FB5373" fill-rule="nonzero" d="M80.33 50.765c.465-.385 1.525-1.25.37-1.545a6.375 6.375 0 0 0-2.135-.07c-.475.045-1.215.055-1.59.395-.62.555-.22 1.95.5 2.21 1.17.415 2-.31 2.845-1 .37-.295-.155-.815-.5-.5-.465.37-1 .94-1.66.84-.375-.055-.67-.185-.69-.625-.02-.44.155-.41.5-.5a7.35 7.35 0 0 1 2-.11 5.5 5.5 0 0 1 .575.075v-.315a6.725 6.725 0 0 0-.73.615c-.375.31.15.83.515.53z"/>
                <path stroke="#FB5373" stroke-width=".3" d="M71.19 44.275a7.465 7.465 0 0 0 .5 4.085c.124.282.293.542.5.77a2.5 2.5 0 0 0 1.605.7c1 .1 1.95-.16 2.925.12l.91.255.84.24c.108.036.221.054.335.055a.935.935 0 0 0 .3-.07c1.535-.595 2.24-2.225 2.55-3.73.435-2.12-.075-4.695-2.255-5.72a8.87 8.87 0 0 0-1.325-.565 1 1 0 0 1-.73-.575 1.5 1.5 0 0 1 .13-.81c.075-.27.085-.61-.145-.765a.67.67 0 0 0-.34-.095 2.68 2.68 0 0 0-1.49.33c-.07.365.34.7.265 1.065a.785.785 0 0 1-.455.465c-.545.29-1.14.47-1.69.745a4.38 4.38 0 0 0-2.275 2.645c-.069.282-.12.567-.155.855z"/>
                <path fill="#FB5373" fill-rule="nonzero" d="M78.115 40.405C77.845 40.88 77 41 76.5 41a2.26 2.26 0 0 1-1.805-.86c-.3-.37-.82.155-.525.5.96 1.18 3.67 1.685 4.56.125a.37.37 0 0 0-.635-.375l.02.015z"/>
                <path fill="#FB5373" fill-rule="nonzero" d="M74.765 39.88c-1.94.855-3.68 1.65-3.94 4a3.88 3.88 0 0 0 2.09 3.875c.425.215.8-.42.375-.635a3.19 3.19 0 0 1-1.59-3.83c.53-1.685 1.97-2.145 3.44-2.79.435-.195.06-.83-.375-.64v.02z"/>
                <path fill="#FB5373" fill-rule="nonzero" d="M73.225 46.955c.35.375.955.385 1.42.5v-.69h-.11a.37.37 0 0 0-.185.685c.24.125.454.295.63.5v-.375l-.025.04.32-.185c-.11 0-.28-.165-.365-.225-.345-.235-.765.305-.45.58.14.12.268.254.38.4l.22-.545c.15-.055-.29-.28-.35-.315-.295-.195-.735.205-.5.5.142.161.252.348.325.55l.355-.465c.11 0-.275-.275-.33-.32-.305-.24-.83.065-.585.445.055.08.19.265.18.37l.465-.355s-.225-.255-.27-.3a2.74 2.74 0 0 0-.4-.32 3.655 3.655 0 0 0-.785-.34c-.45-.155-.645.56-.195.71.295.085.569.23.805.425.195.17.375.5.65.535a.375.375 0 0 0 .47-.355 1.315 1.315 0 0 0-.28-.74l-.58.445c.225.18.535.57.855.54a.38.38 0 0 0 .36-.47 2.265 2.265 0 0 0-.4-.73l-.5.5c.25.165.59.5.92.395.195-.075.375-.335.22-.545a3.41 3.41 0 0 0-.5-.545l-.45.58c.325.225.79.53 1.085.105a.36.36 0 0 0 0-.375 2.835 2.835 0 0 0-.895-.735l-.195.67a1.25 1.25 0 0 0 .305-.045.37.37 0 0 0 0-.71c-.305-.09-.855-.08-1.095-.335-.325-.345-.845.175-.5.5l-.02.045zM77.44 40.5c2.045 1 3.78 1.7 3.95 4.33.13 2.045-.45 4.595-2.665 5.255-.455.135-.26.85.195.71 2.315-.685 3.175-3.075 3.215-5.295.055-3.19-1.675-4.375-4.325-5.635-.425-.205-.8.43-.37.635zM75.235 37a9.7 9.7 0 0 0-.07.655l.555-.32c-.565-.305-.965.1-.815.675 0-.075.14.27.115.17.05.19 0 .4.06.595.125.42.535.74-.035 1-.435.2-.055.835.375.64a1 1 0 0 0 .685-1.18c-.145-.34-.26-.69-.345-1.05v-.24l-.045-.115c-.09-.165-.205-.115-.35.15a.375.375 0 0 0 .56-.32c0-.22.04-.435.07-.655.06-.47-.68-.465-.74 0l-.02-.005z"/>
                <path fill="#FB5373" fill-rule="nonzero" d="M77.82 39.855c-.42-.295.305-.945.4-1.295 0 0 .065-.6-.04-.355.04-.085.215-.15.27-.26.295-.59-.395-1-.835-.605l.615.165c-.035-.24-.065-.5-.1-.725-.065-.47-.78-.27-.71.195.035.24.065.5.1.725.035.225.43.325.615.165l.1-.085-.36.095c-.15-.03.025-.465-.24-.195a.565.565 0 0 0-.12.26c-.03.14.025.285 0 .425-.065.265-.31.45-.425.685-.273.5-.117 1.127.36 1.44.39.275.76-.365.375-.635h-.005z"/>
                <path fill="#FB5373" fill-rule="nonzero" d="M78.345 37.75a1.905 1.905 0 0 1-2.185.925 1.535 1.535 0 0 1-1.24-2.15c.325-.885 1.36-1.18 2.22-1.055 1.23.185 1.545 1.31 1.17 2.37-.16.445.555.64.715.195.465-1.33.05-2.79-1.395-3.22-1.22-.36-2.775.075-3.325 1.29-.55 1.215-.12 2.725 1.225 3.17 1.345.445 2.82.135 3.455-1.155.21-.425-.425-.8-.64-.37zM73.835 46.545c-.5-.64-.94-1.53-.24-2.21.34-.335-.18-.855-.5-.5-.945.92-.565 2.19.12 3.11.28.375.92 0 .64-.375l-.02-.025zM71.44 51.07c-.58 3.15-1.2 6.3-1.645 9.5a.375.375 0 0 0 .355.47h.705a.38.38 0 0 0 .355-.27c.725-3.09 1.27-6.21 1.695-9.35.06-.465-.65-.67-.715-.2-.15 1.105-.87 9.07-2.04 9.095l.355.465c.445-3.175 1.065-6.32 1.65-9.5.085-.465-.63-.665-.715-.195v-.015zM77.42 51.5c-.025 2.27-.08 4.54-.04 6.805 0 .925.335 2.335-.145 3.145-.35.585-.155-.255-.145-.57.06-3.09.15-6.175.205-9.265a.37.37 0 1 0-.74 0c-.06 3.385-.255 6.785-.22 10.17a.375.375 0 0 0 .37.37 4.42 4.42 0 0 0 1.06 0 .38.38 0 0 0 .37-.37c.095-3.42 0-6.865 0-10.29a.37.37 0 0 0-.735 0l.02.005zM74.5 51.5c-.125 1.3-.265 2.6-.4 3.9-.065.655-.135 1.31-.195 1.965-.055.54.155 1.11-.4 1.105l.37.37c.245-2.45.545-4.9.79-7.35.05-.475-.69-.47-.74 0-.245 2.45-.545 4.9-.79 7.35 0 .204.166.37.37.37 1.39 0 1.03-.735 1.16-2.055.18-1.885.395-3.77.575-5.655.045-.47-.695-.47-.74 0z"/>
                <path fill="#FB5373" fill-rule="nonzero" d="M78.375 43.38c.36 1.437.465 2.927.31 4.4a19 19 0 0 1-.21 2.19c-.14.82 0 .935-.675 1.175-1 .365-2.77.035-3.82-.085-1.43-.165-2.685-.22-3.09-1.795-.325-1.28-.28-2.865-.315-4.185-.035-1.21-.065-1.45.85-2.445.915-.995.835-.97 1.91-.895 1.285.09 4.42.165 5.04 1.64.185.43.9.24.715-.2-.56-1.32-1.5-1.555-2.83-1.775-1.53-.25-3.69-.895-5.175-.17-1.35.665-1.275 2.16-1.255 3.46 0 1.405.16 2.8.29 4.19.05.55-.105 1.47.265 1.925 1.06 1.305 6.09 1.435 7.715 1.05 1.155-.275 1.03-1.185 1.18-2.345.27-2.045.425-4.34-.19-6.335-.14-.45-.855-.26-.715.2z"/>
                <path fill="#FB5373" fill-rule="nonzero" d="M66.455 55.905s-.325 3.14.165 3.14a1.325 1.325 0 0 0 1.275-1.57c-.125-1.16-.155-8.81-.155-8.81s.36-.39 1.535-.255c1.175.135 1.195.285 1.195.285s.095 1.69.88 2.17.655.27.28 1.21-1.645 8.205-1.21 8.38c.435.175.5-.115.69-.93l1.755-8.255 1.785.43s-.395 4.605.225 5.83a3.09 3.09 0 0 0 1.885 1.5l-.055 2.725.615.03.455-.385.235-4.375s.28 1.805.74 2c.46.195 1.5-2.37 1.5-2.37a1.79 1.79 0 0 0 2.09-.115c.97-.845 1.645.57 2.435-.63s.785-4.78.785-4.78l.97-.655 1.07 5.435.6-.26-1.2-6.4 2.11-1.105.42 1.73s.77-.81.56-.82c-.21-.01 0-4.04 0-4.04l-1.635-.18s1.35-2.715-.62-3.96c-1.97-1.245-4.075-1.625-3.145-2.615.93-.99 1.315-1.5 1.035-2.38-.28-.88-1.805-1.92-2.965-1.3-1.16.62-1.565 1.625-.805 2.67.76 1.045 1.36 1.53.76 2.14-.6.61-2.17.5-3.13 1.69-1.135-.5-3.04-.625-1.885-2.25 1.265-1.075 1.97-3.465-.725-3.755 0 0-2.32.045-2.5 2-.18 1.955 2.375 1.975 1.025 2.975a6.665 6.665 0 0 0-2.63 1.28s-1.815-.04-2.24 1.095a10.115 10.115 0 0 0-.415 2.875l-3.59 1.5-.17 9.105zM4.955 2S5.5 1.655 8.6 3.855s3.215 11.645 2.765 20.26c-.905 17.415-6.075 26-6.075 49.69l10.115 2V.28S7.385 1.63 4.955 2z"/>
                <path fill="#FB5373" fill-rule="nonzero" d="M5.095 2.25c.5-.22 2.285 1.1 2.645 1.345 1.5 1.03 2.16 2.28 2.63 4.045.895 3.35.925 6.96.905 10.405a112.28 112.28 0 0 1-1.74 19.105c-.945 5.32-2.14 10.59-2.97 15.925A137 137 0 0 0 5 73.805c0 .123.082.231.2.265l10.115 2a.28.28 0 0 0 .35-.27V.28a.28.28 0 0 0-.35-.27c-3.5.585-6.96 1.185-10.45 1.73-.35.055-.2.595.15.54 3.065-.5 6.665-.585 9.595-1.59.645-.22.765.17.5-.41v.105a3.87 3.87 0 0 1 0 .9V65c0 3.22-.335 6.64 0 9.845a3.5 3.5 0 0 1 0 .79v.15c.28-.58.21-.155-.5-.43-2.58-1-5.665-.71-8.275-1.64-.12-.045-.865-.065-.96-.195.09-.547.151-1.097.185-1.65.065-.91.03-1.84.06-2.75.085-2.755.245-5.5.5-8.24.43-4.575 1.14-9.115 2-13.625 1.775-9.31 3.5-18.42 3.675-27.935.075-4.395.45-10.17-1.785-14.17-.7-1.26-3.615-4.115-5.215-3.4-.295.165-.025.645.3.5z"/>
                <path fill="#FFF" fill-rule="nonzero" d="M73 72.5L69 74c-.419.335-.68.83-.72 1.365-.745-.255-1.17-.135-.94-1.455.23-1.32 1.865-11.6 4.22-18.31.455-1.11.255-1.28 1.7-1.61 1.445-.33 8.82-1.585 8.82-1.585s2.465-.33 2.665 1.32c.2 1.65 1.895 14.325 2.47 17 .575 2.675.92 4.115.92 4.115l-1.22.355-.865-1.955-9.685 2.58.235 2.26-1.74.685-.5-6.03s.27-1.3-1.36-.235z"/>
                <path fill="#FB5373" fill-rule="nonzero" d="M72.575 55.425l2 23.34c0 .16.17.345.35.27.26-.11 1.59-.67 1.665-.675.075-.005.295-.12.28-.28-.16-1.3-.24-1.935 1-2.56a17.08 17.08 0 0 1 3.5-1.06c1.055-.27 2.12-.5 3.19-.69 1.54-.28 1.755 0 2.095 1.5a.275.275 0 0 0 .34.19 9.36 9.36 0 0 1 1.215-.35.275.275 0 0 0 .195-.34c-1.71-7.165-2.675-14.445-3.43-21.765 0-.135-.115-.3-.275-.28-3.95.53-7.89 1.075-11.79 1.89-.35.075-.205.61.145.535 2.9-.605 6.035-1.405 9-1.5 1.055-.035 2-.31 2.5.765.25.5.19 1.775.25 2.31.173 1.527.36 3.048.56 4.565.345 2.59.745 5.175 1.23 7.745.28 1.5.765 3 .945 4.53.26 2.195-.575.665-.89-.435a.285.285 0 0 0-.34-.195 42 42 0 0 0-10 2.635.28.28 0 0 0-.205.265c.12.661.204 1.33.25 2l-.5.205c-.82.025-1.115-.38-.88-1.215-.6-2.055-.4-4.68-.58-6.805-.41-4.863-.823-9.727-1.24-14.59-.03-.35-.585-.355-.555 0l-.025-.005z"/>
                <path fill="#FB5373" fill-rule="nonzero" d="M71.85 54.745c.287.142.553.324.79.54.265.24.66-.155.395-.395a4.355 4.355 0 0 0-.905-.625c-.315-.16-.6.32-.28.5v-.02z"/>
                <path fill="#FB5373" fill-rule="nonzero" d="M72.15 54.56c1.79-.45 3.59-.85 5.41-1.165 1.405-.24 5.395-1.355 6.76-.32.285.22.56-.265.28-.5-1.34-1-3.775-.24-5.29-.03a68.74 68.74 0 0 0-7.31 1.48.28.28 0 0 0 .15.535z"/>
                <path fill="#FB5373" fill-rule="nonzero" d="M71.69 54.34c-2.36 6.65-3.615 13.58-4.815 20.5a.295.295 0 0 0 .13.315c.384.18.745.405 1.075.67a.28.28 0 0 0 .41-.165c.2-1.38.77-1.455 2.05-2 1.175-.5 2.405-.905 3.615-1.32.335-.115.19-.655-.145-.535-1.5.5-4.605 1.09-5.75 2.265-.27.275 0 .885-.42.91-.59.03.255-3.88.285-4.065 1-5.575 2.205-11.1 4.105-16.45.12-.335-.42-.5-.54-.145v.02zM74.68 56.725c.625 5.595.62 11.065 1.5 16.685 2.5-.81 8.82-2.81 9.5-2.59.16-2.66-.765-5.205-1.25-7.825l-1.5-7.97-7.825 1.71"/>
                <path fill="#FB5373" fill-rule="nonzero" d="M74.4 56.725c.59 5.58.69 11.2 1.5 16.76a.285.285 0 0 0 .345.195c1.7-.555 3.41-1.095 5.13-1.595 1.26-.365 3-1.14 4.315-1a.285.285 0 0 0 .28-.28c.045-2.575-.66-4.96-1.175-7.465-.575-2.79-1.05-5.6-1.57-8.4a.285.285 0 0 0-.345-.195l-7.82 1.705c-.35.075-.205.61.145.535l3.5-.755c.69-.155 2.845-1 3.475-.76 1.4.56 1.425 4.425 1.68 5.815.5 2.59 1.185 5.15 1.535 7.765.235 1.735.07 1.395-1.42 1.74s-2.84.77-4.24 1.195c-.742.286-1.502.523-2.275.71L76.5 73a10.785 10.785 0 0 1-.365-1.94c-.68-4.745-.685-9.585-1.185-14.35-.04-.355-.595-.36-.56 0l.01.015z"/>
                <path fill="#FFF" fill-rule="nonzero" d="M76.305 58.62c1.605-.31 3.22-.565 4.845-.755.35-.045.355-.6 0-.56-1.675.2-3.335.46-5 .78-.35.065-.205.605.145.535h.01zM76.565 60.395a84.635 84.635 0 0 0 5.225-1.115.28.28 0 0 0-.145-.54 81.94 81.94 0 0 1-5.23 1.12c-.35.065-.2.6.15.535zM76.805 62.265c1.65-.493 3.317-.95 5-1.37.345-.085.2-.62-.15-.535-1.667.42-3.333.877-5 1.37a.28.28 0 0 0 .15.535zM77.62 64.295c1.54-.385 3.09-.7 4.66-.945.35-.055.2-.59-.15-.535-1.57.24-3.12.555-4.66.945-.345.085-.2.62.15.535zM77.87 66.6a41.415 41.415 0 0 1 4.81-1.5c.35-.08.2-.62-.145-.535a41.5 41.5 0 0 0-4.815 1.5c-.33.125-.185.66.15.535zM77.775 68.435a92.328 92.328 0 0 1 6-1.805.28.28 0 0 0-.15-.535c-2 .533-4 1.135-6 1.805-.335.11-.19.65.15.535zM78.18 70.575a44.905 44.905 0 0 1 5.32-2.03c.34-.11.195-.645-.15-.54a47.19 47.19 0 0 0-5.445 2.09c-.325.145-.04.625.28.5l-.005-.02zM98.555 58.44c-.615.41-.67 1.275-.65 2 .076 2.551.344 5.094.8 7.605.23 1.28.5 2.615.12 3.855-.38 1.24-1.73 2.285-2.955 1.85.235-.74 0-1.535-.26-2.27l-3.365-10.035a25.29 25.29 0 0 0 .54 7c.28 1.275.655 2.62.22 3.845-.435 1.225-2.125 2.07-3.075 1.18.815-.725.775-2 .67-3.07l-1.045-11.075a1.785 1.785 0 0 0-.275-.94 3.205 3.205 0 0 0-.875-.59c-1.205-.765-1.23-2.5-1.115-3.905L88 45c.01-.63.146-1.253.4-1.83.269-.582.86-.946 1.5-.925"/>
                <path fill="#FB5373" fill-rule="nonzero" d="M98.36 58.245c-.955 1-.745 2.335-.665 3.645.135 2.375.54 4.67.88 7 .13.88.38 2.74-.26 3.465-.676.251-1.374.44-2.085.565-.345-.235-.8-2.845-.965-3.34L92.5 61.385a.28.28 0 0 0-.545.075 28.045 28.045 0 0 0 .23 5.34c.125.845.335 1.665.5 2.5a3.795 3.795 0 0 1-.92 4c-1.113.237-1.515.172-1.205-.195-.035-.06.335-2.35.315-2.715-.125-2.155-.41-4.315-.61-6.46-.15-1.555 0-3.47-.5-4.94-.395-1.22-1.625-1.415-2.095-2.69-.65-1.765.05-4.585.195-6.38.145-1.795-.315-7.09 2.135-7.42.35-.05.2-.585-.15-.54-1.855.255-2 1.925-2.15 3.5-.275 3.215-1.165 7.105-.665 10.31a4.41 4.41 0 0 0 .72 1.795c.115.205.395.275.5.455 1.075 1.5 1.125 2.455 1.275 4.055l.525 5.54c.165 1.71.84 4.175-.325 5.64a.29.29 0 0 0 .055.44c1.33.83 2.925.095 3.5-1.345.5-1.28 0-2.72-.22-4a29.04 29.04 0 0 1-.53-6.925l-.545.07 2 5.935c.635 1.89 1.875 4.27 1.625 6.3 0 .125.085.233.205.265 7.03 1.145.66-13 2.96-15.395.245-.255-.145-.65-.395-.39l-.025.035z"/>
                <path fill="#FFF" fill-rule="nonzero" d="M90.595 41.37a4.31 4.31 0 0 1-.67-3.205 2.715 2.715 0 0 1 2.305-2.125c1.26-.085 2.38.955 2.765 2.15a6.665 6.665 0 0 1-.14 3.725c1.44.255 3 .57 4 1.63a5.96 5.96 0 0 1 1.285 2.815"/>
                <path fill="#FB5373" fill-rule="nonzero" d="M90.835 41.23a4.315 4.315 0 0 1-.715-2.4c.253-2.22 1.528-2.83 3.825-1.83 1.4 1.185 1 3.315.64 4.83a.28.28 0 0 0 .195.34c2.665.5 4.36 1.44 5.07 4.255a.28.28 0 1 0 .54-.15c-.535-2.105-1.47-3.53-3.605-4.225-1.25-.405-1.395-.18-1.36-1.565.05-.524.05-1.051 0-1.575a3.945 3.945 0 0 0-.925-2.085c-1-1.125-2.5-1.43-3.74-.47-1.68 1.32-1.33 3.5-.425 5.16.17.31.65.03.5-.285zM102.07 68.72c.032.792.112 1.582.24 2.365.08.47.105 1.39.45 1.775.61.685 1.97-.46 2.45-.835a.305.305 0 0 0 0-.42.78.78 0 0 0-.47-.32l-.5-.075a1.28 1.28 0 0 1-.385-1 24.5 24.5 0 0 1 .03-2.905.3.3 0 0 0-.595 0c0 1.14-.23 2.5 0 3.62.037.3.199.57.445.745.32.205.795.065 1.045.375v-.42c-.1.08-1.28 1-1.5.855-.22-.145-.235-.725-.285-.965a18.44 18.44 0 0 1-.33-2.775c0-.38-.61-.38-.59 0l-.005-.02z"/>
                <path fill="#FFF" fill-rule="nonzero" d="M115.11 37.95a2.43 2.43 0 0 1 3.045-3.785c.835.575 1.07 2 2.205 2.055.395 0 .78-.125 1.175-.1"/>
                <path fill="#FB5373" fill-rule="nonzero" d="M115.305 37.755a2.32 2.32 0 0 1-.135-3.24c1.14-1.15 2.715-.43 3.5.645.89 1.235 1.355 1.31 2.875 1.24.355 0 .355-.575 0-.555-.355.02-1.305.085-1.39.055-.5-.175-.725-.625-1-1a3.835 3.835 0 0 0-.815-.935 2.9 2.9 0 0 0-2.89-.29c-1.725.84-1.805 3.245-.525 4.5.26.25.65-.14.395-.39l-.015-.03z"/>
                <path fill="#FFF" fill-rule="nonzero" d="M119.775 52.83c1 4.287 1.99 8.577 2.97 12.87.164.452.139.952-.07 1.385-.325.5-1.145.88-.815 1.355l2.16-1.32.435 1c.085-.965.055-1.93.08-2.9.125-5.85 2-11.615 1.6-17.455"/>
                <path fill="#FB5373" fill-rule="nonzero" d="M119.5 52.9c.72 3.067 1.432 6.132 2.135 9.195.325 1.435 1 3.035.625 4.465-.235.88-.695 1.04-.68 1.88a.28.28 0 0 0 .415.24c.735-.45 1.73-1.525 2.215-.415.12.275.5.11.5-.14.2-3.75.435-7.375 1-11.1.534-3.055.761-6.155.68-9.255 0-.355-.57-.355-.555 0 .18 3.695-.405 7.3-.94 10.945-.465 3.145-.57 6.24-.735 9.41l.5-.14-.435-1a.28.28 0 0 0-.38-.1c-.055.035-1.42.88-1.435.86-.445-.605.5-.27.5-.58a21.195 21.195 0 0 0-.35-3.37c-.84-3.687-1.69-7.365-2.55-11.035-.085-.35-.62-.2-.54.145l.03-.005z"/>
                <path fill="#FFF" fill-rule="nonzero" d="M116.755 52.42c.67 4.365 1.32 8.93-.12 13.105a2.785 2.785 0 0 1-.5 1c-.655.73-1.935.8-2.33 1.695.675 0 1.345-.07 2-.135a.755.755 0 0 0 .44-.14.93.93 0 0 0 .22-.59c.14-.835.685-1.53 1.145-2.24 1.45-2.23 2.145-4.85 2.815-7.425"/>
                <path fill="#FB5373" fill-rule="nonzero" d="M116.5 52.5c.46 3 .95 6.12.655 9.18-.195 2.025-.5 3.9-2.155 5.25-.57.46-1 .535-1.44 1.14a.28.28 0 0 0 .24.42c2.205-.105 2.46.07 3.265-1.805.575-1.335 1.5-2.5 2.05-3.85a37.39 37.39 0 0 0 1.59-5.08.28.28 0 0 0-.54-.145c-.825 3.15-1.855 6.065-3.675 8.8-.6.9 0 .61-.815 1.155-.325.21-1.345.74-.935.11.28-.425 1.24-.56 1.63-1 1.205-1.4 1.32-4.085 1.395-5.845.125-2.84-.3-5.665-.725-8.46-.055-.35-.59-.2-.54.15v-.02z"/>
                <path fill="#FFF" fill-rule="nonzero" d="M115.225 39.075a16.41 16.41 0 0 0-.675 2.385c-.255 1.24-.35 2.59.24 3.71s2.07 1.835 3.17 1.215"/>
                <path fill="#FB5373" fill-rule="nonzero" d="M114.955 39c-.65 1.87-1.45 4.425-.405 6.31a2.77 2.77 0 0 0 3.55 1.315c.33-.14.045-.62-.28-.5-2.185.945-3.245-1.6-3.185-3.26a13.3 13.3 0 0 1 .865-3.715c.12-.34-.415-.5-.535-.15h-.01z"/>
                <path fill="#FFF" fill-rule="nonzero" d="M121.735 36.23c1.69 0 2.975 1.67 3.235 3.34a6.115 6.115 0 0 1-4.075 6.555"/>
                <path fill="#FB5373" fill-rule="nonzero" d="M121.735 36.5c2.585.235 3.395 3.175 2.82 5.315a5.915 5.915 0 0 1-3.735 4.035c-.33.12-.19.66.15.535a6.5 6.5 0 0 0 4.315-5.5c.175-2.29-1.1-4.695-3.55-4.92-.355-.03-.355.5 0 .555v-.02z"/>
                <path fill="#FFF" fill-rule="nonzero" d="M121.375 39.69A5.31 5.31 0 0 1 120 45"/>
                <path fill="#FB5373" fill-rule="nonzero" d="M121.105 39.765a5.085 5.085 0 0 1-1.285 5.03c-.25.255.145.65.395.395a5.68 5.68 0 0 0 1.425-5.575.28.28 0 0 0-.535.15z"/>
                <path fill="#FFF" fill-rule="nonzero" d="M116.285 42.42c-.4.295-.1.92.22 1.295.685.81 1.45 1.67 2.5 1.885"/>
                <path fill="#FB5373" fill-rule="nonzero" d="M116.09 42.225c-.605.615-.035 1.4.415 1.915a4.84 4.84 0 0 0 2.415 1.73c.35.085.5-.45.15-.535a3.5 3.5 0 0 1-1.625-1c-.28-.28-1.395-1.29-.965-1.725.25-.255-.14-.65-.39-.395v.01z"/>
                <path fill="#FFF" fill-rule="nonzero" d="M118.325 43.63a.595.595 0 0 1 .135.5.54.54 0 0 0 .15.5c.14.105.405-.075.295-.21"/>
                <path fill="#FB5373" fill-rule="nonzero" d="M118.125 43.825c.12.12.05.415.075.57.016.218.15.41.35.5a.465.465 0 0 0 .595-.63c-.17-.315-.65-.035-.5.28.095-.065.125-.135.085-.215a.38.38 0 0 1 0-.13v-.27a.76.76 0 0 0-.215-.5c-.255-.255-.65.14-.395.39l.005.005z"/>
                <path fill="#FFF" fill-rule="nonzero" d="M118.32 43.315a1.5 1.5 0 0 1 1.225-.465l.62 1.33"/>
                <path fill="#FB5373" fill-rule="nonzero" d="M118.5 43.5c.267-.279.646-.42 1.03-.385l-.24-.14.62 1.33c.15.325.63.045.5-.28l-.62-1.33a.27.27 0 0 0-.24-.135 1.815 1.815 0 0 0-1.425.545.28.28 0 0 0 .375.395z"/>
                <path fill="#FFF" fill-rule="nonzero" d="M119 46.7a5 5 0 0 0 2.135-.195"/>
                <path fill="#FB5373" fill-rule="nonzero" d="M119 47a5.415 5.415 0 0 0 2.21-.205c.34-.105.195-.64-.145-.535a5.06 5.06 0 0 1-2.065.185c-.355-.04-.35.5 0 .555z"/>
                <path fill="#FFF" fill-rule="nonzero" d="M115.355 47.5a10.36 10.36 0 0 0 .605 3.355"/>
                <path fill="#FB5373" fill-rule="nonzero" d="M115.075 47.5a11.31 11.31 0 0 0 .615 3.43c.115.335.655.195.535-.145a11 11 0 0 1-.595-3.285c0-.355-.565-.36-.555 0z"/>
                <path fill="#FFF" fill-rule="nonzero" d="M116.865 50.415c3.306.057 6.578-.68 9.54-2.15"/>
                <path fill="#FB5373" fill-rule="nonzero" d="M116.865 50.695a22.2 22.2 0 0 0 9.68-2.195c.325-.155.04-.635-.28-.5a21.6 21.6 0 0 1-9.4 2.115.28.28 0 0 0 0 .555v.025z"/>
                <path fill="#FFF" fill-rule="nonzero" d="M124.825 42.5a20.86 20.86 0 0 1 1.57 5.695"/>
                <path fill="#FB5373" fill-rule="nonzero" d="M124.585 42.625a21.785 21.785 0 0 1 1.54 5.625c.05.355.585.205.535-.145a22.16 22.16 0 0 0-1.595-5.76c-.14-.33-.62-.045-.5.28h.02z"/>
                <path fill="#FFF" fill-rule="nonzero" d="M116.155 40.085a2.3 2.3 0 0 1 2.62 1.305c.885 1.77-1.67 2.055 0 2.74.715 1 1.37-.58 2.5.295s-.265.795.4 2.375c.175 2.055.37 2.835.34 3.63-.03.795-.195 2.825-.92 1.5-.725-1.325-.705-.45-.64.575.065 1.025.075 4.89-.37 6.55a37.335 37.335 0 0 1-1.73 4.47l-2.58 7.5-1.84-2.055-1.61-24.3s1.865-.415 1.315-1.94-.14-3.265 2.515-2.645z"/>
                <path fill="#FFF" fill-rule="nonzero" d="M114.11 43.58a2.27 2.27 0 0 1 .295-3.185 3 3 0 0 1 3.365-.155 2.1 2.1 0 0 1 1 1.15c.275.89-.325 1.795-.89 2.535a2.905 2.905 0 0 1 2.065 2.81"/>
                <path fill="#FB5373" fill-rule="nonzero" d="M114.32 43.37c-1.255-1.565.325-3.37 2.045-3.245a2.46 2.46 0 0 1 2 1.06c.5.97-.225 1.895-.735 2.59a.305.305 0 0 0 .175.44 2.665 2.665 0 0 1 1.85 2.5c0 .38.605.385.59 0a3.29 3.29 0 0 0-2.28-3.095l.175.435c.67-.91 1.385-2.07.735-3.19-.58-1-1.915-1.455-3-1.365a2.64 2.64 0 0 0-1.965 4.27c.24.295.66-.125.42-.42l-.01.02z"/>
                <path fill="#FFF" fill-rule="nonzero" d="M112.88 44.365a4.5 4.5 0 0 0-2.235 2.055"/>
                <path fill="#FB5373" fill-rule="nonzero" d="M112.73 44.11a4.84 4.84 0 0 0-2.34 2.16c-.18.34.33.64.5.3a4.37 4.37 0 0 1 2.13-1.95c.35-.15.05-.66-.3-.5l.01-.01z"/>
                <path fill="#FFF" fill-rule="nonzero" d="M107.17 37.355c1.335-.63 2.97.08 3.96 1.18a2.5 2.5 0 0 1 .755 1.62 2.27 2.27 0 0 1-.47 1.24A3.945 3.945 0 0 1 108.56 43a3.855 3.855 0 0 1 1.825 3.585"/>
                <path fill="#FB5373" fill-rule="nonzero" d="M107.245 37.64a3.38 3.38 0 0 1 3.675 1.105c1.4 2.055-.43 3.66-2.44 3.965-.28.045-.255.415-.07.545 1.11.734 1.75 2 1.68 3.33a.3.3 0 0 0 .595 0 4.39 4.39 0 0 0-2-3.845l-.075.545c1.72-.265 4.105-1.765 3.42-3.835-.645-1.94-3.11-3.04-4.965-2.38-.355.125-.205.7.155.57h.025z"/>
                <path fill="#FFF" fill-rule="nonzero" d="M101.18 57.5a31.11 31.11 0 0 1-1.41 11c-.655 2.075-1.65 4.22-3.54 5.295 1.142.43 2.327.735 3.535.91-.795-.405-.965-1.5-.625-2.35a6.68 6.68 0 0 1 1.69-2.045c3.255-3.14 7.28-10.435 7.78-15.5"/>
                <path fill="#FB5373" fill-rule="nonzero" d="M100.885 57.5c.18 4.95-.18 13-4.805 16.05a.3.3 0 0 0 .07.54c1.153.4 2.337.705 3.54.91.255.045.545-.29.285-.5-2.05-1.625 1.855-4.75 2.715-5.835a32.41 32.41 0 0 0 2.955-4.555c1.575-2.895 2.85-6 3.26-9.3.045-.375-.545-.375-.595 0-.6 4.855-3.1 9.7-6.11 13.5-1.25 1.58-5.335 4.47-2.645 6.6l.29-.5a22.83 22.83 0 0 1-3.54-.905l.075.54c4.855-3.215 5.29-11.335 5.1-16.56 0-.38-.61-.385-.595 0v.015z"/>
                <path fill="#FFF" fill-rule="nonzero" d="M99.035 52.455c-1.215 4.245.14 8.75 1.5 12.96"/>
                <path fill="#FB5373" fill-rule="nonzero" d="M98.75 52.375c-1.105 4.5.12 8.83 1.5 13.115.115.365.685.21.57-.155-1.325-4.18-2.56-8.42-1.5-12.805a.295.295 0 0 0-.57-.155z"/>
                <path fill="#FFF" fill-rule="nonzero" d="M111.64 60.095c1.34 3.33 1.91 6.615 2.285 10.185"/>
                <path fill="#FB5373" fill-rule="nonzero" d="M111.355 60.175a39.5 39.5 0 0 1 2.275 10.105c.04.375.635.38.59 0A39.835 39.835 0 0 0 111.925 60c-.135-.355-.71-.2-.57.155v.02z"/>
                <path fill="#FFF" fill-rule="nonzero" d="M114.57 61.885a43.96 43.96 0 0 1-.625 12.54c.4-.44 1.225.19 1.705-.165a1 1 0 0 0 .23-.29l.75-1.22c-.454.15-.882.37-1.27.65a2.335 2.335 0 0 1 .15-1.615c1.305-3.78 2.84-7.295 4.145-11.075"/>
                <path fill="#FB5373" fill-rule="nonzero" d="M114.275 61.885c.35 4.164.14 8.356-.62 12.465a.305.305 0 0 0 .44.335c.55-.245 1.15.13 1.705-.17.46-.245.85-1.235 1.085-1.615.125-.205-.09-.54-.335-.435-1.395.58-.7-.5-.45-1.47a33.675 33.675 0 0 1 1.28-3.405c.87-2.26 1.755-4.5 2.56-6.8.125-.365-.445-.5-.575-.16-.8 2.285-1.69 4.54-2.56 6.8-.71 1.85-1.92 3.955-1.74 5.97a.3.3 0 0 0 .445.255l1.2-.62-.335-.435c-.705 1.15-1.54 1.115-2.58 1.57l.435.335c.775-4.16.99-8.404.64-12.62-.03-.38-.625-.38-.595 0z"/>
                <path fill="#FFF" fill-rule="nonzero" d="M102.115 42.5A25.965 25.965 0 0 0 99 49.785a1.685 1.685 0 0 0-.06.86c.052.16.127.31.225.445a8.22 8.22 0 0 0 8.1 3.405"/>
                <path fill="#FB5373" fill-rule="nonzero" d="M101.86 42.36c-1.355 2.23-4.5 6.965-2.555 9.445 1.945 2.48 5.04 3.385 8 3 .375-.055.215-.625-.155-.575-2.415.335-6.73-.58-7.765-3.265-.885-2.31 1.88-6.465 2.985-8.305.2-.325-.315-.625-.5-.3h-.01z"/>
                <path fill="#FFF" fill-rule="nonzero" d="M106.955 47.305c.359.867.622 1.77.785 2.695a3.85 3.85 0 0 0 1.42 2.35c.785.5 2.03.38 2.44-.465"/>
                <path fill="#FB5373" fill-rule="nonzero" d="M106.7 47.455c.74 1.605.585 3.79 2.085 5a2.07 2.07 0 0 0 3.07-.405.3.3 0 0 0-.5-.3c-1 1.68-2.755-.14-3.15-1.27s-.5-2.245-1-3.31c-.16-.345-.67-.045-.5.3l-.005-.015z"/>
                <path fill="#FFF" fill-rule="nonzero" d="M110.225 46.455c.18 1.25.59 2.76 1.815 3.04"/>
                <path fill="#FB5373" fill-rule="nonzero" d="M109.94 46.535c.19 1.285.6 2.855 2 3.245a.296.296 0 0 0 .16-.57c-1.185-.325-1.45-1.785-1.61-2.83-.055-.38-.625-.22-.57.155h.02z"/>
                <path fill="#FFF" fill-rule="nonzero" d="M110.235 53.21a33.33 33.33 0 0 0 1.405 6.885"/>
                <path fill="#FB5373" fill-rule="nonzero" d="M109.94 53.21a36 36 0 0 0 1.415 6.965c.11.365.685.21.57-.155a35.95 35.95 0 0 1-1.395-6.81c-.035-.375-.63-.38-.59 0z"/>
                <path fill="#FFF" fill-rule="nonzero" d="M108.61 51.67a8.26 8.26 0 0 0 1.875 4.615"/>
                <path fill="#FB5373" fill-rule="nonzero" d="M108.31 51.67a8.965 8.965 0 0 0 1.965 4.825c.235.295.655-.125.42-.42a8.195 8.195 0 0 1-1.79-4.405c-.035-.375-.63-.38-.595 0z"/>
                <path fill="#FFF" fill-rule="nonzero" d="M119.795 44.325a1.065 1.065 0 0 1 1.415 1.59"/>
                <path fill="#FB5373" fill-rule="nonzero" d="M120 44.535a.77.77 0 0 1 1 1.17.297.297 0 1 0 .42.42 1.36 1.36 0 0 0-1.835-2c-.3.235.125.655.42.42l-.005-.01z"/>
                <path fill="#FFF" fill-rule="nonzero" d="M119.735 46a1.21 1.21 0 1 1 1.425 1.95"/>
                <path fill="#FB5373" fill-rule="nonzero" d="M119.885 46.24a1 1 0 0 1 1.315.11.96.96 0 0 1-.19 1.33c-.305.225 0 .74.3.5a1.504 1.504 0 1 0-1.725-2.465c-.305.225 0 .74.3.5v.025z"/>
                <path fill="#FFF" fill-rule="nonzero" d="M119.905 49.365a11.69 11.69 0 0 0 1.2 2.555c.12.185.295.39.5.345.205-.045.295-.305.325-.5a8.77 8.77 0 0 0-.225-3.55"/>
                <path fill="#FB5373" fill-rule="nonzero" d="M119.62 49.445c.235.695 1.1 3.605 2.21 3.04.5-.24.45-1.045.5-1.5a9.38 9.38 0 0 0-.31-2.89.296.296 0 0 0-.57.16 9.57 9.57 0 0 1 .285 1.685c.025.405.155 1.325-.065 1.68.035.185 0 .24-.155.16-.155 0-.245-.095-.275-.27a3.55 3.55 0 0 1-.34-.62 11.89 11.89 0 0 1-.685-1.625c-.12-.36-.695-.205-.57.16l-.025.02z"/>
                <path fill="#FFF" fill-rule="nonzero" d="M120.35 51.28a23.92 23.92 0 0 1-.695 9.43"/>
                <path fill="#FB5373" fill-rule="nonzero" d="M120.05 51.28a25 25 0 0 1-.685 9.35.3.3 0 0 0 .575.16 25.5 25.5 0 0 0 .705-9.5c-.045-.375-.635-.38-.595 0v-.01z"/>
                <path fill="#FFF" fill-rule="nonzero" d="M111.845 54.905c2.877.083 5.75.06 8.62-.07"/>
                <path fill="#FB5373" fill-rule="nonzero" d="M111.845 55.2c2.877.08 5.75.058 8.62-.065.38 0 .38-.61 0-.595-2.873.127-5.747.15-8.62.07a.295.295 0 0 0 0 .59z"/>
                <path fill="#FFF" fill-rule="nonzero" d="M103.57 41c.67.07 1.055-.725 1.235-1.375.285-1.03 1.345-2.215 2.5-2.265"/>
                <path fill="#FB5373" fill-rule="nonzero" d="M103.57 41.31c.745 0 1.155-.59 1.4-1.235.42-1.095 1-2.275 2.34-2.405.375-.04.38-.63 0-.595a3.095 3.095 0 0 0-2.155 1.26 3.855 3.855 0 0 0-.58 1.04c-.185.5-.32 1.33-1 1.34a.3.3 0 0 0 0 .595h-.005zM132 60.73c-1.233 1.847-1.697 2.412-1.39 1.695.04-.098.07-.2.09-.305-.025-.275.115-.63.105-.925-.05-1-.62-1.865-.935-2.785-.895-2.63-.5-5.47-1.5-8.09a.285.285 0 0 0-.54 0 31.765 31.765 0 0 0-.89 4.835c-.09.88-.135 1.76-.14 2.64v1.325a3.36 3.36 0 0 1-1.13 3.165c.03-.36-.5-.355-.56 0v.27c-.001.098.05.19.135.24 1.29.87 2.05-.775 2.21-1.815.215-1.395-.135-3.07-.06-4.5a30.21 30.21 0 0 1 1-6h-.545c.695 1.855.705 3.75.96 5.68.255 1.93 2.105 4.8 1 6.5a.28.28 0 0 0 .315.41 2.895 2.895 0 0 0 2.41-2.18.28.28 0 0 0-.535-.15v-.01z"/>
                <path fill="#FB5373" fill-rule="nonzero" d="M127.95 36.525c2.885 1 5 4.84 4 7.78-.5 1.43-1.305 2.445-1.415 4-.295 4.19 1.5 8.35 1.465 12.5a.28.28 0 0 0 .555 0c0-2.445-.64-5.04-1-7.5a24.815 24.815 0 0 1-.465-4.67c.07-1.64.825-2.65 1.39-4.085 1.285-3.245-1.23-7.5-4.37-8.58-.34-.115-.5.42-.15.535l-.01.02z"/>
                <path fill="#FB5373" fill-rule="nonzero" d="M123.615 37a.965.965 0 0 1 1.025-.235.28.28 0 0 0 .31-.405c-.46-1-.125-2.615.88-3.19a1.5 1.5 0 0 1 1.93.55c.447.736.447 1.66 0 2.395-.17.315.31.595.5.28.845-1.565.04-4.415-2.185-3.92-1.695.385-2.25 2.765-1.61 4.165l.315-.41a1.625 1.625 0 0 0-1.56.375c-.27.235.125.625.39.395h.005z"/>
                <path fill="#FB5373" fill-rule="nonzero" d="M128.06 33.315c2.223.3 3.167 1.212 2.83 2.735a.285.285 0 0 0 .28.28c.86.03 1.79 1.82 2.055 2.54.275.953.421 1.938.435 2.93a20.225 20.225 0 0 1-.315 4.725 45.92 45.92 0 0 1-2.21 7.715c-.125.34.415.5.535.15 1.74-4.825 4.46-12.565 1.41-17.455-.345-.555-.9-.69-1.265-1.135-.465-.57-.28-1.41-.63-2.1-.695-1.345-2.18-1.81-3.405-.865-.28.215 0 .7.28.5v-.02zM129.35 58.205c-.135 1-.26 2-.37 2.96l.28-.275c-.57-.035-1.115.095-1.43-.4-.425-.67.2-1 .56-1.5.5-.725.64-1.86.875-2.705a.277.277 0 1 0-.535-.145l-.38 1.36a3.55 3.55 0 0 1-.72 1.395 2.54 2.54 0 0 0-.585 1.42c-.08 1.27 1.285 1.065 2.215 1.115a.28.28 0 0 0 .275-.28c.105-.94.22-1.875.35-2.815.05-.35-.5-.5-.535-.145v.015zM118.345 34.415c.735-.665 1.5-1.295 2.295-1.89a.28.28 0 0 0 .055-.435c-.965-.9-.065-2.21 1.035-2.455 1.1-.245 1.5.845 1.125 1.755a4.25 4.25 0 0 0-.27.595c-.026.097.003.2.075.27.72.625 1.36.93 1.705 1.935.115.34.655.195.535-.145a4.675 4.675 0 0 0-1.045-1.63c-.29-.34-.5-.14-.5-.745.118-.248.223-.501.315-.76a1.445 1.445 0 0 0-1.38-1.865c-1.825-.15-3.5 2-1.965 3.435l.055-.435c-.835.625-1.64 1.28-2.41 2-.265.24.13.63.395.39l-.02-.02zM124 78.805a167.105 167.105 0 0 0-18 3.645.305.305 0 0 0 .16.585 167.195 167.195 0 0 1 18-3.645c.385-.055.22-.64-.165-.585H124zM116.61 86.155l10.065-2.605a.305.305 0 0 0-.16-.585l-10.07 2.605a.305.305 0 0 0 .165.585zM175.16 162.19c-35.665 2.845-72.82 5.5-106.045-7.785C63.04 152 56.385 148 55.715 141.5c-.61-5.9 4-10.85 7.69-15.5 3.69-4.65 6.715-11.455 3.125-16.18-1.63-2.14-4.255-3.245-6.79-4.145a99.68 99.68 0 0 0-44.87-5.095s45.18.66 41 13.87c-4.18 13.21-14.88 19.465-22.5 28.16-7.62 8.695 1.555 31.585 26.335 33.11 0 0-1.545-12.77 27.5-8.775 41.61 5.71 87.955-4.755 87.955-4.755z"/>
                <path fill="#FB5373" fill-rule="nonzero" d="M175.16 161.885c-29.79 2.375-60.455 4.76-89.77-2.57-10.555-2.64-36.165-8.915-27.75-24.89 2.815-5.345 7.79-9.21 9.89-15 1.84-5.04.69-10-4.225-12.61-3.26-1.735-7.035-2.725-10.58-3.695A99.71 99.71 0 0 0 40 100.54a101.5 101.5 0 0 0-25.115-.275.305.305 0 1 0 0 .61c5.327.105 10.646.48 15.935 1.125 4.49.48 8.938 1.285 13.31 2.41 3.395.9 7.265 2.09 9.87 4.59 3.715 3.57.59 8.705-1.55 12.35-3.55 6.005-8.79 10.65-13.81 15.415-3.19 3.03-6.96 6.07-7.91 10.58-.76 3.615-.045 7.445 1.36 10.815 4.615 11.08 16.055 17.04 27.585 17.85a.305.305 0 0 0 .305-.3c-.265-2.34 1.365-4.63 3.13-5.96 6.79-5.115 17.685-3.325 25.385-2.34 23.555 3 47.69 1.47 71.095-2.1 5.235-.8 10.5-1.665 15.65-2.83.38-.085.22-.67-.16-.58-18.11 4.075-37 6-55.5 6.385a223.455 223.455 0 0 1-22.71-.61c-7.16-.575-14.275-2.025-21.5-1.79-5.25.175-12.66 1.14-15.28 6.5a7.195 7.195 0 0 0-.62 1.84c-.045.235 0 1.05-.11 1.225-.03.04.045.21 0 .24.195-.175-1.405-.435-1.5-.445a44.33 44.33 0 0 1-3.335-.5 33.5 33.5 0 0 1-8.295-2.78c-8-3.935-15.075-12.045-15.215-21.335-.07-4.4 1.86-7.26 4.84-10.31 4.305-4.4 9.1-8.31 13.06-13.04 3.12-3.725 6.875-8.905 7.455-13.89.255-2.22-.965-4.075-2.635-5.42-5.235-4.225-13.235-5.255-19.68-6.17a162.855 162.855 0 0 0-18.12-1.5l-1.065-.025v.61c15.36-1.725 31.755-.21 46.175 5.6 3.82 1.535 6.875 4.16 6.785 8.595-.08 3.94-2.29 7.68-4.64 10.705-3.25 4.19-7.59 8.555-7.82 14.19-.22 5.28 3.55 9.255 7.775 11.845 5.615 3.45 12.325 5.42 18.63 7.175 13.86 3.86 28.26 5.42 42.61 5.75 16.955.39 33.89-.895 50.775-2.24.39-.045.39-.65 0-.62zM196 114.44c1.425 1.855-4.61-.815-6.88-1.435-2.67-.73-5.83-2.47-5.5-5.22.2-1.7 1.73-2.915 2.39-4.5 1.05-2.5-.32-5.5-2.465-7.135-2.145-1.635-4.875-2.295-7.5-2.89 0 0 12.585.89 12.965 6.385.38 5.495.76 9.5 10.3 10-.04-.015-5.85 1.505-3.31 4.795z"/>
                <path fill="#FB5373" fill-rule="nonzero" d="M195.72 114.59c.185.285-2.25-.405-2.725-.57-1.15-.395-2.285-.835-3.445-1.2-1.69-.53-3.62-1.095-4.795-2.5-2.22-2.695.585-4.57 1.5-6.89 2.525-6.365-5.61-9.39-10.18-10.43l-.08.595c4.65.345 12.18 1.425 12.73 7.03.215 2.19.395 4.53 1.86 6.29 2.065 2.5 5.67 2.86 8.675 3.045l-.08-.595c-2.475.67-5.3 2.5-3.47 5.25.215.325.74 0 .525-.305-1.62-2.425 1.13-3.825 3.105-4.36a.305.305 0 0 0-.08-.595c-3.945-.245-8.25-1.03-9.44-5.35-.64-2.325 0-5.025-1.74-6.925-2.775-3.05-8.18-3.805-12.085-4.095-.34 0-.41.5-.08.6 2.72.615 5.81 1.255 7.9 3.25 2.35 2.235 2.76 5.23.955 7.915-1.805 2.685-2.11 5.1.82 7.07 2.41 1.62 5.925 2.5 8.715 3.29.725.205 2.88.67 1.93-.8-.205-.35-.735-.045-.515.28z"/>
            </g>
        </g>
    </g>
</svg>
