<svg xmlns="http://www.w3.org/2000/svg" xmlns:xlink="http://www.w3.org/1999/xlink" width="200" height="200" viewBox="0 0 200 200">
    <defs>
        <path id="a" d="M0 0h200v200H0z"/>
    </defs>
    <g fill="none" fill-rule="evenodd">
        <mask id="b" fill="#fff">
            <use xlink:href="#a"/>
        </mask>
        <g fill-rule="nonzero" mask="url(#b)">
            <path fill="#FB5373" d="M6.314 179.14c21.868-10.996 42.254-24.954 61.737-36.576.805-.48 2.335-1.87 1.034-2.2-3.11-.78-9.123-2.084-10.411-2.394-4.161-1-8.35-1.878-12.568-2.635-2.665-.48-16.326-3.271-19.068-2.882-2.462.348-6.55 19.916-9.246 20.84a23.55 23.55 0 0 0-5.932 2.893c-1.394.975-2.682 2.204-3.3 3.789-.62 1.584-.412 3.584.83 4.737.877.847 4.322 2.28.521 8.237-1.249 1.95-2.499 3.904-3.75 5.865"/>
            <path fill="#FB5373" d="M6.394 179.28c15.284-7.72 29.822-16.805 44.335-25.89 3.56-2.22 7.118-4.445 10.695-6.64a502.087 502.087 0 0 1 5.118-3.106c.877-.53 2.441-1.17 2.966-2.17.848-1.622-1.762-1.618-2.847-1.872-2.606-.606-5.225-1.166-7.83-1.776-5.933-1.381-11.903-2.542-17.886-3.648-2.542-.479-5.085-.94-7.665-1.33-1.822-.28-3.877-.767-5.725-.602-2.288.203-3.106 4.275-3.72 6.017-1.509 4.28-2.585 8.851-4.619 12.923-.343.687-.708 1.467-1.364 1.907-.572.386-1.547.568-2.183.848a22.305 22.305 0 0 0-3.25 1.695c-2.288 1.457-4.593 3.686-4.3 6.627.212 2.309 2.118 2.665 3.042 4.457.975 1.903-.19 4.178-1.17 5.814-1.27 2.093-2.627 4.123-3.944 6.178-.11.174.165.335.275.16 1.78-2.779 4.237-5.664 5.216-8.847.424-1.351.424-2.796-.424-3.97a8.33 8.33 0 0 0-1.156-1.097 4.398 4.398 0 0 1-.992-5.48c.962-1.847 2.776-3.135 4.542-4.13 1.42-.801 3.217-1.128 4.543-2 2.068-1.365 2.898-5.547 3.627-7.687 1.305-3.835 2.275-8.017 4.19-11.606.785-1.458 1.48-1.542 3.073-1.424 2.305.178 4.601.577 6.881.962 4.475.763 8.936 1.619 13.394 2.488 5.987 1.165 11.945 2.567 17.886 3.97.847.195 1.432.093 1.695.97.28 1.013-.649 1.293-1.45 1.788-1.694 1.047-3.41 2.051-5.105 3.09a766.453 766.453 0 0 0-9.7 6.008c-15.186 9.47-30.326 19.03-46.309 27.097-.182.093-.021.365.161.276zM171.822 134.322c-13.004-3.356-39.733-9.254-39.733-9.254-11.555 7.5-23.55 16.525-35.17 24.267a3.64 3.64 0 0 1-3.012.517c-.687-.271-1.428.152-2.043.559a210.837 210.837 0 0 0-11.203 8.004c.847-.635 7.58 2.077 8.763 2.416 3.028.864 6.048 1.755 9.06 2.673 6.092 1.856 12.156 3.814 18.22 5.767 13.059 4.237 26.084 8.593 39.211 12.623 2.81.848 4.394 1.394 7.004-.25 2.12-1.347 3.662-3.56 4.98-5.665 1.571-2.513 3.084-5.195 3.317-8.148.25-3.195-1.042-6.356-2.797-9.013-1.754-2.657-3.97-5.026-5.877-7.602-.623-.847-1.233-1.746-1.339-2.784a5.462 5.462 0 0 1 .708-2.877c2.208-4.525 6.119-7.945 9.928-11.233"/>
            <path fill="#FB5373" d="M171.864 134.148c-11.461-2.966-23.025-5.508-34.572-8.101-1.474-.33-3-.822-4.504-1.005-1.771-.207-3.19 1.45-4.66 2.424-7.721 5.17-15.255 10.623-22.882 15.937a736.736 736.736 0 0 1-6.509 4.474c-1.212.818-2.479 1.932-4.02 1.937-.721 0-1.23-.31-1.942-.106-1.872.538-3.813 2.41-5.377 3.525a274.47 274.47 0 0 0-6.822 5.03.157.157 0 0 0 .157.27c1.004-.482 3.17.543 4.131.848 1.31.424 2.594.928 3.899 1.369 4.491 1.513 9.114 2.695 13.644 4.097 10.377 3.225 20.69 6.661 31.025 10.03a1989.35 1989.35 0 0 0 16.004 5.144c2.47.776 4.933 1.58 7.42 2.301 1.657.479 3.216.75 4.864.097 3.577-1.423 5.886-5.427 7.627-8.635 2.077-3.814 2.653-7.678.967-11.767a25.203 25.203 0 0 0-3.526-5.737c-1.67-2.157-4.64-4.619-5.326-7.314-.797-3.102 2.758-7.085 4.66-9.157a71.432 71.432 0 0 1 5.802-5.406c.152-.132-.072-.356-.23-.225-3.113 2.695-6.291 5.445-8.588 8.898-.869 1.31-1.95 2.94-2.08 4.555-.132 1.615.847 2.966 1.792 4.238 2.89 3.788 6.466 7.267 7.784 11.991 1.462 5.25-1.352 10.204-4.407 14.31-1.585 2.118-3.886 4.415-6.733 4.36-2.246-.043-4.627-1.14-6.75-1.801a1221.192 1221.192 0 0 1-15.216-4.852c-9.695-3.144-19.369-6.356-29.08-9.453-7.742-2.466-15.552-4.7-23.26-7.267a18.881 18.881 0 0 0-3.419-.954 6.072 6.072 0 0 1-.847-.05.818.818 0 0 0-.212.046c.106.369 1.966-1.123 1.979-1.131a202.084 202.084 0 0 1 5.932-4.263c1.898-1.318 3.36-2.682 5.695-2.712 1.695-.025 2.597-.563 4-1.508a441.028 441.028 0 0 0 6.504-4.458c3.94-2.741 7.856-5.508 11.784-8.288 3.992-2.81 7.996-5.606 12.055-8.318.848-.555 2.627-2.216 3.59-2.284.47.046.934.148 1.38.305 12.755 2.835 25.526 5.653 38.183 8.899a.161.161 0 0 0 .084-.31v.017z"/>
            <path fill="#040000" d="M122.903 111.538c.033.822-.064 1.631-.06 2.45.005.019.005.04 0 .059a.144.144 0 0 1-.038.05c-.547.496-6.682 5.767-6.754 5.691.424.454 1.195.165 1.746-.148l6.597-3.729c.05.165.25 1.792.335 2.225a1.08 1.08 0 0 1 .491.038c.153-2.255.394-4.238.322-6.377l-2.64-.259z"/>
            <path fill="#040000" d="M122.619 111.538c0 1.14.203 2.026-.39 2.682a22.75 22.75 0 0 1-2.14 1.84c-.83.711-1.662 1.417-2.496 2.118-.445.369-1.08 1.148-1.627 1.33a.284.284 0 0 0-.068.517c1.513.848 3.416-.923 4.661-1.635.263-.148 3.636-2.212 3.572-2.254.216.144.259 1.813.305 2.072a.28.28 0 0 0 .272.207l.491.038a.288.288 0 0 0 .284-.284c.153-2.118.36-4.237.322-6.377a.292.292 0 0 0-.284-.284l-2.631-.258c-.36-.034-.36.534 0 .568l1.496.148c.182 0 .741-.03.906.09.166.118-.046 1.063-.063 1.5-.03 1.003.157 3.156-.276 4.063-.165.347-.114-.5-.152-.776-.038-.275-.09-.678-.153-1.012a.288.288 0 0 0-.423-.17l-3.628 2.05c-.928.526-3.39 2.416-4.432 1.827l-.068.517c.496-.165.98-.729 1.37-1.05a709.028 709.028 0 0 0 3.008-2.543c.72-.615 1.775-1.271 2.339-2.017.563-.746.364-1.937.355-2.907a.284.284 0 0 0-.55 0z"/>
            <path fill="#040000" d="M122.602 110.05l.089 1.577c0 .314.512.314.491 0l-.089-1.576c0-.318-.508-.318-.491 0zM125.3 109.983c-.074.762-.09 1.528-.046 2.292 0 .314.509.314.492 0a15.33 15.33 0 0 1 .046-2.292c.03-.318-.461-.314-.491 0zM116.496 81.78a43.305 43.305 0 0 1 11.44 0c.12 0 .17-.166.051-.183a43.508 43.508 0 0 0-11.495-.025c-.12 0-.12.208 0 .19l.004.018zM117.678 87.611a102.32 102.32 0 0 1 9.958-.225c.051 0 .093-.05.093-.11s-.042-.11-.093-.11c-3.322-.083-6.642-.01-9.958.22-.123 0-.123.235 0 .225zM118.352 93.515l9.284-.26c.118 0 .118-.23 0-.225l-9.284.265c-.052 0-.094.049-.094.11 0 .06.042.11.094.11zM119.534 98.508a57.89 57.89 0 0 0 7.106-.601c.118 0 .068-.2-.051-.182a57.898 57.898 0 0 1-7.055.58.093.093 0 0 0 0 .187v.016zM120.564 105.203a19.161 19.161 0 0 1 5.38-.47c.124 0 .124-.182 0-.19a19.352 19.352 0 0 0-5.431.478.095.095 0 0 0 .05.182z"/>
            <path fill="#FB5373" d="M73.479 89.623a5.869 5.869 0 0 0-3.92 3.597 7.75 7.75 0 0 0 .047 5.411c.729 1.992 2.119 3.666 3.479 5.288l2.517 3c.165.2.576.645.576.645l.47-.56a43.767 43.767 0 0 0 2.801-3.72c.767-1.093 1.394-1.746 1.983-2.754 1.411-2.437 2.326-5.352.899-7.776-1.428-2.423-5.009-3.949-7.759-3.347M97.076 116.95s1.53-.75 1.48 0c-.052.75-.268 2.635-.268 2.635s.293 1.27-.987 1.012-2.119-.355-2.966.039c-.848.394-1.797 1.135-4.284.987-2.487-.148-5.153-1.144-7.055-.161-1.903.983-6.44 1.42-9.852.996-3.41-.424-5.453-.136-6.572.373-1.119.508-5.932.669-8.233.283a7.25 7.25 0 0 0-4.407.873s-2.267.56-2.64-.347c-.373-.907-.148-4.288-.148-4.288s1.784 1.148 2.903 1.373c1.118.224 1.695.356 4.894-.911s3.606.22 5.03.398a9.45 9.45 0 0 0 4.817-.848c1.759-.758 4.161.246 4.89.424.729.178 2.75.424 4.958-1.296 0 0 1.91-.53 5.182.266 3.606-.322 2.966.157 5.118-.796 2.153-.954 2.318.754 5.03 0s1.631-1.013 3.11-1.013zM62.805 109.97c-3.813 1.522-7.763 2.683-11.576 4.204a.267.267 0 0 0 .068.52A310.835 310.835 0 0 0 92.975 112c.33-.047.334-.576 0-.53a310.835 310.835 0 0 1-41.678 2.695l.072.517c3.813-1.517 7.762-2.682 11.576-4.199.313-.123.178-.636-.14-.513zM98.61 110.381l-4.843.687c-.335.046-.195.555.14.508l4.843-.686c.339-.047.195-.56-.14-.509z"/>
            <path fill="#FB5373" d="M50.97 115.369c-.317 2.453-.14 4.762 0 7.203.153 2.356-.055 4.759-.127 7.114a.267.267 0 0 0 .53 0c.072-2.36.28-4.758.127-7.114-.157-2.458-.339-4.763 0-7.203.042-.34-.487-.335-.53 0zM98.517 111.826c-.114 4.3-.445 8.593-.992 12.86-.042.335.488.335.53 0 .545-4.267.875-8.56.987-12.86a.267.267 0 0 0-.53 0h.005z"/>
            <path fill="#FB5373" d="M52.492 130.008c.042-.05 3.25.03 3.618 0l3.246-.194 6.563-.399c4.297-.262 8.585-.538 12.873-.89 4.289-.351 8.564-.77 12.827-1.326 1.695-.216 4.017-.114 5.534-.847.678-.33.974-.577.932-1.31 0-.339-.551-.343-.53 0 .123 2.144-22.39 3.246-25 3.428-3.864.263-7.729.492-11.589.725l-5.678.343c-.847.051-2.41-.25-3.046.454a.271.271 0 0 0 0 .377l.148.123a.263.263 0 0 0 .373 0l.093-.106c.22-.259-.153-.636-.377-.373l.013-.005zM80.826 104.072c.627-.275 1.551-.364 1.924.356.258.491-.06 1.021.318 1.491.212.267.585-.11.373-.372-.212-.263 0-.801-.123-1.136a1.492 1.492 0 0 0-.534-.733c-.67-.509-1.504-.381-2.225-.064-.309.14-.042.598.267.458z"/>
            <path fill="#FB5373" d="M83.271 104.593c.37-.053.745-.04 1.11.038.598.17.661.653.788 1.17.145.58.454 1.085 1.098 1.118.343 0 .339-.512 0-.53-.623-.029-.593-.99-.754-1.397a1.36 1.36 0 0 0-.462-.628 2.589 2.589 0 0 0-1.78-.3c-.335.025-.339.555 0 .53z"/>
            <path fill="#FB5373" d="M85.589 105.394c.424-.144 1.153-.377 1.538 0 .246.242.284.78.487 1.072.362.509.944.814 1.568.822.34 0 .34-.513 0-.53a1.432 1.432 0 0 1-1.347-1.08 1.398 1.398 0 0 0-.492-.788c-.55-.382-1.313-.2-1.894 0-.322.102-.186.614.14.513v-.009z"/>
            <path fill="#FB5373" d="M88.021 105.932a6.174 6.174 0 0 1 1.271-.042c.81.076 1.208.504 1.606 1.165.399.661.818 1.093 1.568 1.017.335-.034.34-.564 0-.53-.996.102-1.381-1.55-2.22-1.949a4.19 4.19 0 0 0-2.204-.19c-.334.03-.339.563 0 .53h-.02z"/>
            <path fill="#FB5373" d="M91.318 106.95a2.733 2.733 0 0 1 1.648-.187c.771.254.805 1.004 1.2 1.563.39.53.99.866 1.648.92.334.046.334-.483 0-.53-1.467-.195-1.272-1.67-2.31-2.292-.712-.424-1.593-.233-2.326 0-.322.11-.186.623.14.512v.013z"/>
            <path fill="#FB5373" d="M94.585 107.877a2.542 2.542 0 0 1 2.356.326c.28.195.546-.262.267-.457a3.068 3.068 0 0 0-2.763-.382c-.322.11-.182.623.14.513zM80.746 105.165a1.547 1.547 0 0 0 .737 1.754c.818.513 1.835.267 2.7.039a.267.267 0 0 0-.14-.513 3.771 3.771 0 0 1-1.874.195 1.119 1.119 0 0 1-.915-1.335.264.264 0 0 0-.508-.14z"/>
            <path fill="#FB5373" d="M83.877 107.44c1.072 1.323 2.814.848 4.161.297.314-.123.178-.635-.14-.508-1.17.466-2.699 1.008-3.644-.161-.216-.267-.589.11-.377.373z"/>
            <path fill="#FB5373" d="M86.839 108.208c.712 1.741 2.758.152 3.94.305.34.042.335-.488 0-.53a3.424 3.424 0 0 0-1.66.318c-.513.186-1.48.474-1.767-.233-.127-.31-.64-.174-.513.14z"/>
            <path fill="#FB5373" d="M89.411 108.792c.518.43 1.162.678 1.835.708.847-.034 1.618-.686 2.445-.364.317.127.457-.386.144-.509a2.271 2.271 0 0 0-1.666.11c-.845.321-1.799.159-2.491-.423-.28-.195-.547.267-.267.457v.021z"/>
            <path fill="#FB5373" d="M92.398 109.453a3.246 3.246 0 0 0 2.369 1.034.267.267 0 0 0 0-.53 2.725 2.725 0 0 1-1.996-.876c-.233-.25-.606.127-.373.372zM96.56 110.415c.122-.417.365-.788.698-1.068.18-.121.39-.186.606-.186.167.003.33.047.475.127.263.115.288.314.08.593-.334.055-.19.568.145.513a.725.725 0 0 0 .597-.8 1.165 1.165 0 0 0-.911-.908c-1.14-.305-1.835.657-2.2 1.585-.126.318.386.458.51.144z"/>
            <path fill="#FB5373" d="M96.987 108.31c.18.194.406.34.657.423.208.06.695 0 .78.254.114.318.627.182.512-.144a.847.847 0 0 0-.572-.521c-.156-.047-.322-.042-.478-.076a.992.992 0 0 1-.522-.322c-.245-.238-.618.135-.377.377v.008zM52.479 120.11a4.78 4.78 0 0 0 4.716.754c.991-.347 1.915-1.025 2.936-1.27 2.026-.463 2.67.694 4.314.99 1.644.297 3.102-.63 4.602-1.067 1.5-.436 2.487-.254 3.86.225a5.085 5.085 0 0 0 2.415.423c.715-.14 1.402-.4 2.03-.77 1.542-.785 2.809-1.247 4.567-.929 2.09.373 3.594.928 5.645.153.423-.166.847-.394 1.27-.526 1.081-.322 1.988-.118 3.039.08a4.097 4.097 0 0 0 1.869.09c.919-.204 1.694-.797 2.597-1.077.589-.186 1.415-.03 1.915-.377a.271.271 0 0 0 .055-.423l-.076-.094a.275.275 0 0 0-.377 0l-.06.055c-.254.234.123.606.373.378.424-.386-2-.072-2.004-.072-.716.245-1.351.707-2.08.91-1.92.534-3.513-.652-5.488.026-1.694.576-2.783 1.136-4.584.814-.996-.178-1.954-.543-2.966-.623-1.653-.127-2.797.606-4.238 1.292-1.44.686-2.567.585-4.046.05a5.89 5.89 0 0 0-2.08-.461c-1.806.03-3.34 1.225-5.086 1.381-1.974.178-3.28-1.517-5.3-1.055-2.746.636-4.716 2.78-7.534.653-.271-.208-.538.254-.267.457l-.017.013zM51.835 124.229c1.61.614 2.894-.475 4.466-.784 1.983-.394 4.038.19 6.042.165a21.826 21.826 0 0 0 5.576-.89c2.424-.656 4.513-.245 6.95-.034 1.8.184 3.617.127 5.402-.17a21.81 21.81 0 0 0 2.793-.779c1.461-.462 2.686-.292 4.165-.038s3.055.53 4.58.216c.911-.186 1.657-.66 2.543-.957 1.14-.386 2.199-.098 3.322.072a.271.271 0 0 0 .296-.123l.119-.174a.271.271 0 0 0-.042-.318l-.11-.131c-.217-.263-.59.114-.373.373-.763-.911-2.013-.72-3.09-.33-.821.296-1.576.762-2.427.982-1.416.365-2.865.183-4.284-.055-1.59-.262-2.92-.585-4.5-.131-2.305.652-4.407 1.195-6.84 1.127-1.982-.06-3.957-.606-5.931-.55-2.12.058-4.149 1.037-6.272 1.27-1.978.22-3.864-.05-5.834-.165a8.05 8.05 0 0 0-2.509.165c-1.292.335-2.449 1.293-3.877.75-.318-.123-.458.39-.14.509h-.025z"/>
            <path fill="#FFF" d="M59.013 120.436l-.894.827a.339.339 0 0 0-.14.25c0 .127.157.195.275.241.504.215.914.605 1.153 1.098.038.08.089.173.178.182a.233.233 0 0 0 .17-.09l1.99-1.838a25.136 25.136 0 0 0-2.635-.848"/>
            <path fill="#FB5373" d="M58.826 120.246c-.305.292-1.19.818-1.084 1.339.046.224.224.296.394.398.42.254.78.595 1.059 1 .195.25.343.39.66.233a4.58 4.58 0 0 0 .878-.797l1.22-1.122a.271.271 0 0 0-.118-.445 31.757 31.757 0 0 0-2.636-.848.264.264 0 0 0-.144.509 42.56 42.56 0 0 1 2.64.847l-.119-.445-1.339 1.23c-.21.216-.432.422-.665.613.178.064-.203-.47-.178-.423a2.966 2.966 0 0 0-.792-.695c-.238-.157-.259-.047-.183-.28.077-.233.594-.56.772-.724.245-.233-.127-.61-.377-.378l.012-.012z"/>
            <path fill="#FFF" d="M67.665 120.119l-.923.745a.453.453 0 0 0-.166.204c-.046.17.127.318.293.381a.924.924 0 0 1 .462.233c.084.106.101.263.216.343.132.07.29.07.423 0l1.58-.55a3.983 3.983 0 0 0-1.525-1.661"/>
            <path fill="#FB5373" d="M67.479 119.915c-.572.462-1.801 1.182-.682 1.771.137.053.263.131.372.23.094.1.077.186.187.279a.602.602 0 0 0 .386.114c.584 0 1.313-.423 1.864-.61a.267.267 0 0 0 .157-.39 4.508 4.508 0 0 0-1.619-1.754c-.288-.182-.555.276-.267.458a3.966 3.966 0 0 1 1.428 1.597l.157-.39-1.187.424c-.178.064-.334.17-.52.093-.187-.076-.17-.152-.285-.262-.114-.11-.538-.204-.542-.394-.004-.191.805-.649.924-.746.267-.216-.11-.59-.373-.377v-.043z"/>
            <path fill="#FFF" d="M75.013 121.737c.423-.559.847-1.097 1.27-1.623a.907.907 0 0 1 .492-.356c.33-.059.61.238.814.509l.737.966c.07.07.11.164.11.263-.02.152-.207.212-.355.241l-1.645.305c-.423.077-1.02.039-1.08-.385"/>
            <path fill="#FB5373" d="M75.242 121.869c.347-.466.699-.928 1.08-1.369.097-.123.2-.237.31-.352l.656.144c.238.232.442.496.606.784.195.255.288.271 0 .424a2.72 2.72 0 0 1-.703.131c-.318.06-1.424.424-1.572-.046-.106-.327-.619-.187-.513.14.263.817 1.22.601 1.873.483.466-.09 1.94-.094 1.695-.924a4.538 4.538 0 0 0-.89-1.212 1.356 1.356 0 0 0-.81-.58c-.47-.06-.758.305-1.038.63-.423.475-.788.971-1.16 1.475-.2.276.258.539.457.267l.009.005z"/>
            <path fill="#FFF" d="M71.814 119.653c-.322.194-.683.444-.708.822-.034.546.627.847 1.157.957.082.03.172.03.254 0a.33.33 0 0 0 .11-.118c.246-.346.319-.785.2-1.191a.758.758 0 0 0-1.005-.45"/>
            <path fill="#FB5373" d="M71.678 119.424c-.509.31-1.085.847-.742 1.495.338.495.897.793 1.496.797.636-.042.81-1.144.665-1.614a1.034 1.034 0 0 0-1.41-.661c-.31.144-.043.597.266.457.31-.14.657.238.67.551.004.221-.055.439-.17.627-.101.144-.17.093-.339.043a1.178 1.178 0 0 1-.699-.424c-.19-.369.267-.644.53-.805.263-.161.021-.636-.267-.458v-.008z"/>
            <path fill="#FFF" d="M63.275 121.648c-.17.216-.3.462-.38.725a.746.746 0 0 0 .198.754c.318.259.793.098 1.195.178.2-.464.178-.994-.06-1.44a.966.966 0 0 0-1.27-.37"/>
            <path fill="#FB5373" d="M63.047 121.513c-.318.457-.632 1.05-.314 1.593.318.542.953.377 1.483.458a.275.275 0 0 0 .326-.187 1.835 1.835 0 0 0-.237-1.847 1.229 1.229 0 0 0-1.496-.263.267.267 0 0 0 .272.458A.708.708 0 0 1 64 122c.198.386.209.842.03 1.237l.326-.186c-.305-.047-.775.068-1.047-.093-.445-.267 0-.903.195-1.174.195-.271-.262-.547-.457-.271z"/>
            <path fill="#FFF" d="M52.805 122.178l.924-1.097c.387.382.678.85.847 1.368a.229.229 0 0 1-.157.343 2.144 2.144 0 0 1-1.38.272c-.467-.123-.806-.742-.484-1.102"/>
            <path fill="#FB5373" d="M52.996 122.364l.92-1.097h-.374c.221.225.41.48.56.758.05.094.25.399.212.492-.039.093-.267.148-.378.186a1.19 1.19 0 0 1-.953.06.462.462 0 0 1-.208-.666c.2-.275-.258-.538-.457-.266a.915.915 0 0 0 .123 1.16c.359.35.883.472 1.36.314.424-.102 1.102-.284 1.046-.813a3.123 3.123 0 0 0-.932-1.598.263.263 0 0 0-.373 0l-.932 1.098c-.216.258.157.635.377.372h.009z"/>
            <path fill="#FFF" d="M81.148 118.343a.254.254 0 0 0-.16-.212l-.51.95a1.008 1.008 0 0 0-.152.423c.02.281.18.534.424.674.345.274.782.403 1.22.36.444-.055.813-.368.941-.796.089-.348-.025-.73.123-1.056"/>
            <path fill="#FB5373" d="M81.424 118.271a.661.661 0 0 0-.284-.368.271.271 0 0 0-.36.097c-.255.475-.788 1.114-.678 1.695a1.61 1.61 0 0 0 1.156 1.038 1.58 1.58 0 0 0 1.437-.229c.623-.479.386-1.093.593-1.746.102-.326-.424-.466-.513-.14-.089.327-.025.708-.118 1.051a.928.928 0 0 1-1.102.594c-.474-.085-1.102-.488-.826-1.043.157-.317.339-.631.508-.945l-.364.094.042.055c.123.313.636.173.509-.144v-.009z"/>
            <path fill="#FFF" d="M85.83 120.381a2 2 0 0 1 .958-.809c.41-.152.871-.024 1.144.318a.69.69 0 0 1-.335 1.03 2.398 2.398 0 0 1-.55 0c-.284 0-.602.088-.848-.085a.424.424 0 0 1-.114-.496"/>
            <path fill="#FB5373" d="M86.06 120.517c.296-.424 1.232-1.208 1.656-.458.2.356-.055.594-.394.61-.17 0-1.055.073-.975-.25a.264.264 0 1 0-.508-.14.703.703 0 0 0 .195.738c.262.173.583.232.89.165.33 0 .682.085.979-.11a.936.936 0 0 0 .394-.682 1.055 1.055 0 0 0-1.013-1.132c-.729-.072-1.271.424-1.695.988-.195.28.263.546.458.27h.012z"/>
            <path fill="#FFF" d="M91.136 117.924c-.223.193-.466.36-.725.5a.682.682 0 0 0-.326.745c.071.131.163.25.27.352.353.424.361 1.174.887 1.369.29.088.605-.001.805-.229.194-.225.325-.497.381-.788.136-.572.047-1.335-.513-1.526"/>
            <path fill="#FB5373" d="M90.95 117.737c-.488.454-1.581.869-1 1.72.222.33.417.677.584 1.039.114.295.343.53.635.652 1.509.521 2.191-2.432.878-3.03-.31-.14-.577.318-.267.458.474.216.491.78.394 1.23-.077.334-.39 1.164-.97.758a1.271 1.271 0 0 1-.297-.539c-.115-.27-.288-.491-.424-.745-.322-.644.462-.822.848-1.17.25-.233-.123-.606-.373-.373h-.009z"/>
            <path fill="#FFF" d="M95.343 117.958c-.424.216-.784.539-1.046.936a.3.3 0 0 0-.064.212.292.292 0 0 0 .119.148l1.097.894 1.492-.877c.072-.042.148-.097.16-.178a.275.275 0 0 0-.11-.207 3.11 3.11 0 0 0-1.652-.822"/>
            <path fill="#FB5373" d="M95.208 117.729c-.424.237-1.157.724-1.23 1.271-.018.17.052.339.187.445.346.322.712.62 1.098.894.086.083.217.1.322.042.487-.288 1.034-.542 1.491-.877.19-.144.322-.284.267-.534-.152-.665-1.368-1.05-1.936-1.156-.33-.064-.475.444-.14.508.293.047.579.135.847.263.123.06.733.423.712.479a4.017 4.017 0 0 1-.648.364l-.847.496.317.042-.627-.513c-.093-.076-.457-.288-.47-.381-.038-.322.707-.754.94-.881.297-.166.03-.623-.27-.458l-.013-.004zM64.555 106.203c-1.148.687-.72 2.022-.068 2.966 1.047 1.496 2.89 2.162 4.661 2.17.466 0 1.22.047 1.59-.33.495-.505.376-1.967.304-2.543-.186-1.508-1.093-3.03-2.572-3.585-1.856-.695-2.415 1.043-4.063 1.233-1.445.17-1.907 1.272-2.026 2.73-.33 4.075 5.996 3.39 8.284 2.292.31-.144.043-.602-.267-.458-1.741.847-5.364 1.386-6.877-.136-1.424-1.436-.424-3.199 1.064-3.78.43-.132.844-.31 1.237-.529.424-.254.589-.424 1.055-.67.932-.491 1.716-.207 2.458.496.81.772 1.517 2.369 1.203 3.488-.513 1.822-2.394 1.36-3.695.809-.78-.33-3.864-2.568-2.021-3.674a.267.267 0 0 0-.267-.457v-.022z"/>
            <path fill="#FB5373" d="M64.229 106.017c-.475-.136-1.22-.212-1.585-.568l-.258.424a3.39 3.39 0 0 0 2.377.068c.322-.106.182-.619-.14-.509a2.936 2.936 0 0 1-2.098-.072c-.25-.102-.423.271-.254.445.454.445 1.229.534 1.818.7a.264.264 0 1 0 .14-.51v.022z"/>
            <path fill="#FB5373" d="M65.013 105.771a4.322 4.322 0 0 0-.284-1.695c-.123-.31-.602-.195-.513.14.148.55.487 1.653 1.237 1.564.75-.09.64-1.318.674-1.83h-.53c.026.364.056 1.143.53 1.224.475.08.987-.793 1.165-1.166l-.483-.203a3.492 3.492 0 0 1-1.92 1.992l.323.423c.174-.175.387-.306.623-.381l-.204-.483-.741.381c-.301.157-.034.61.267.458l.741-.381a.267.267 0 0 0-.203-.488 2.25 2.25 0 0 0-.848.521c-.228.225.064.526.322.424a4 4 0 0 0 2.162-2.31c.105-.279-.356-.474-.484-.203-.093.2-.262.62-.457.712-.195.094-.072.115-.17 0a1.504 1.504 0 0 1-.08-.504.267.267 0 0 0-.53 0c0 .174-.025.348-.046.526-.009.21-.038.418-.09.622l-.364-.106a4.423 4.423 0 0 1-.165-.313 3.725 3.725 0 0 1-.203-.602l-.513.14c.194.492.285 1.018.267 1.547a.267.267 0 0 0 .53 0l-.013-.009zM66.822 107.28c.657.61.703 1.733 1.653 2.042.106.034.17-.102.101-.178-.178-.195-.847-.775-.737-1.063l-.178.046c.2.227.436.418.7.568a.106.106 0 0 0 .105-.182 2.576 2.576 0 0 1-.657-.538.106.106 0 0 0-.173.046c-.178.47.53.983.792 1.271l.102-.178c-.848-.283-.945-1.42-1.56-1.987-.101-.093-.25.055-.148.148v.005zM65.56 108.381l.423.04c.136 0 .136-.235 0-.25l-.424-.04c-.135 0-.135.24 0 .25zM66.807 109.318a.125.125 0 1 0 0-.25.125.125 0 0 0 0 .25zM68.75 110.102v-.185c0-.16-.235-.16-.25 0v.185c0 .16.235.16.25 0zM68.608 106.275l-.095.356c-.035.136.205.191.24.06l.095-.36c.035-.132-.205-.191-.24-.056zM69.332 107.633a.41.41 0 0 1-.205.135c-.15.05-.085.29.07.24a.755.755 0 0 0 .31-.2c.11-.115-.065-.295-.175-.175zM69.731 108.576h-.065c-.16 0-.155.235 0 .25h.065c.16 0 .16-.235 0-.25zM63.483 108.355l.035.165c.03.155.27.09.24-.07l-.035-.165c-.03-.155-.27-.09-.24.07zM63.229 108.751v.09c0 .16.24.16.25 0v-.09c0-.16-.24-.16-.25 0zM63.316 109.588l.1.195c.075.14.29 0 .215-.13l-.1-.19c-.07-.145-.285 0-.215.125zM63.63 109.455l.105.145c.095.135.31 0 .215-.125l-.1-.145c-.095-.13-.31 0-.22.125zM63.944 109.184l.125.175c.09.125.31 0 .215-.13l-.125-.17c-.095-.13-.31 0-.215.125zM63.756 110.274l.195.18c.12.11.295-.07.175-.175l-.195-.18c-.115-.11-.295.065-.175.175zM64.29 110.153a.125.125 0 1 0 0-.25.125.125 0 0 0 0 .25zM64.906 110.404l.256.16a.12.12 0 0 0 .167-.042.128.128 0 0 0-.04-.173l-.257-.16a.12.12 0 0 0-.168.043.128.128 0 0 0 .042.172zM64.432 110.723l.175.13c.13.095.255-.12.125-.215l-.175-.13c-.125-.1-.25.12-.125.215zM65.29 111.119h.164c.16 0 .155-.24 0-.25h-.165c-.16 0-.16.235 0 .25zM65.765 111a.125.125 0 1 0 0-.25.125.125 0 0 0 0 .25zM66.425 111.428h.185c.16 0 .16-.24 0-.25h-.185c-.16 0-.16.235 0 .25zM71.254 107.3a19.068 19.068 0 0 0 3.619-1.372c.305-.153.038-.61-.267-.458a18.42 18.42 0 0 1-3.496 1.322.264.264 0 1 0 .144.509zM78.458 105.508c.504.632 1.75.492 2.423.284.322-.101.187-.614-.144-.512-.491.152-1.525.33-1.906-.144-.212-.267-.585.11-.373.372zM80.453 103.597a1.369 1.369 0 0 1-.038.242c-.034.097-.08.19-.114.288a.818.818 0 0 0 0 .585c.127.313.64.178.513-.14-.09-.212.05-.394.118-.593a.784.784 0 0 0 0-.572.534.534 0 0 0-.754-.267.267.267 0 0 0 .267.457h.008zM84.653 92.797a7.39 7.39 0 0 1-.687 5.555c-.165.296.292.563.458.267a7.953 7.953 0 0 0 .754-5.962.267.267 0 0 0-.513.14h-.012zM87.428 96.119l-.95 1.906c-.152.301.302.572.454.267l.954-1.906c.152-.305-.305-.572-.458-.267zM65.746 95.36a5.508 5.508 0 0 0 2.618 3.7.267.267 0 0 0 .267-.458 4.975 4.975 0 0 1-2.373-3.39c-.067-.335-.576-.19-.512.14v.008zM63.814 98.305a7.657 7.657 0 0 0 3.67 2.966c.317.123.457-.39.143-.513a7.034 7.034 0 0 1-3.356-2.711c-.186-.284-.644 0-.457.267v-.009zM193.55 124.924a62.514 62.514 0 0 1-4.47-2.61c-.47-.231-.84-.624-1.042-1.106-.152-.56.153-1.14.127-1.72-.038-.848-.77-1.51-1.466-2.018a30.992 30.992 0 0 0-10.835-5.059c-2.207-.547-4.555-.877-6.428-2.17a1.597 1.597 0 0 1-.63-.69 1.373 1.373 0 0 1 .452-1.369c.734-.733 1.793-1.004 2.734-1.449.94-.445 1.877-1.246 1.851-2.284-.021-.945-.847-1.695-1.648-2.16-1.826-1.09-4.78-1.997-6.877-1.272-2.543.902-5.153 3.39-7.386 4.907-2.542 1.741-5.042 3.504-7.572 5.241a386.588 386.588 0 0 1-3.945 2.682c-.563.378-2.856 2.403-3.462 2.284 10.83 2.119 18.907 2.784 29.322 5.005a314.829 314.829 0 0 0 21.39 3.788"/>
            <path fill="#FB5373" d="M193.631 124.784c-2.118-1.148-4.788-2.076-5.368-4.661-.238-1.055-.055-1.483-.932-2.343-2.12-2.06-5.318-3.45-8.051-4.466a38.886 38.886 0 0 0-4.716-1.356c-.89-.208-1.789-.399-2.657-.691-1.555-.53-4.013-2.271-1.568-3.631 1.428-.797 4.297-1.5 3.53-3.814-.644-1.932-3.882-2.873-5.636-3.123-3.042-.424-5.369 1.314-7.674 3.064-3.127 2.368-6.356 4.58-9.597 6.809-1.602 1.102-3.259 2.148-4.83 3.297-.899.656-2.013 2.017-3.187 2.118-.165 0-.233.276-.042.31 7.978 1.534 16.05 2.512 24.042 3.961 8.898 1.62 17.708 3.551 26.67 4.831.199.03.283-.28.084-.305-9.572-1.369-18.966-3.509-28.483-5.153-4.11-.707-8.246-1.296-12.369-1.94-2.104-.325-4.206-.671-6.305-1.038-.373-.068-3.228-.814-3.39-.37 0-.02.848-.423.848-.423 1.11-.657 2.08-1.576 3.14-2.305 2.008-1.386 4.034-2.754 6.038-4.144 2.004-1.39 3.966-2.674 5.873-4.102 1.674-1.27 3.275-2.67 5.148-3.623 2.25-1.148 4.661-.822 6.898.208 1.695.784 3.738 2.42 1.072 4.538-.72.576-1.792.665-2.542 1.229-2.178 1.614-.229 2.966 1.555 3.661 2.149.847 4.483 1.11 6.674 1.814a30.729 30.729 0 0 1 7 3.27c.398.25.797.51 1.178.785 1.542 1.084 1.038.966 1.81 3.445.177.58-.073.542.296 1.106.368.563 1.271.957 1.792 1.27a70.91 70.91 0 0 0 3.53 2.022c.178.097.339-.178.16-.276l.01.026zM119.983 109.661c-6.534 3.729-12.402 7.165-12.491 7.161-.62-.06-5.085-1.004-8.687-1.67l.233-4.538c.047-.847.131-1.813.746-2.423.371-.31.792-.553 1.246-.72a10.754 10.754 0 0 0 3.936-3.107c.203-.215.336-.487.381-.78a1.436 1.436 0 0 0-.39-.906 7.733 7.733 0 0 0-1.982-1.784 12.94 12.94 0 0 1-1.865-1.2 3.542 3.542 0 0 1-.877-3.813c5.555.725 11.907 2.297 18.017 3.204l1.733 10.593"/>
            <path fill="#FB5373" d="M119.881 109.525a1962.605 1962.605 0 0 0-9.398 5.403c-.798.524-1.627 1-2.483 1.424-.775.33-1.297.182-2.144.02l-4.415-.872c-.526-.102-1.856-.114-2.238-.386-.381-.27-.173-.114-.22-.75-.097-1.27-.131-4.563.606-5.69.737-1.127 2.843-1.695 3.928-2.615.648-.546 1.886-1.478 1.962-2.436.186-2.381-4.513-3.454-5.178-5.466-.47-1.424.313-2.09 1.631-1.886.848.132 1.695.276 2.543.424 1.885.339 3.767.712 5.644 1.08 1.792.352 3.589.7 5.385 1.009.33.06 2.33.097 2.577.343.088.09.05.454.093.56.644 1.694.644 3.949.936 5.732l.704 4.284c.033.204.339.119.305-.084l-1.733-10.594a.157.157 0 0 0-.11-.114c-6.034-.915-11.97-2.377-18.018-3.2a.165.165 0 0 0-.194.111c-.59 1.992.16 3.56 1.851 4.661 1.788 1.148 3.835 2.267 2.085 4.729-.979 1.369-2.661 1.66-3.936 2.542-1.882 1.33-1.33 5.369-1.437 7.39 0 .073.049.136.119.157 2.423.449 4.839.949 7.258 1.415.771.144 1.195.297 1.873.068 1.47-.5 2.966-1.695 4.301-2.47 2.619-1.512 5.241-3.019 7.869-4.522a.161.161 0 0 0-.161-.275l-.005.008z"/>
            <path fill="#040000" d="M123.19 10.369v-.2l.297-.038v.187c.204-.242-.144-.593-.347-.348a.369.369 0 0 0 .085.585c.097.055.22.04.3-.038a.322.322 0 0 0 0-.475c-.224-.22-.572.127-.347.348l.013-.021zM127.33 9.771v.047l-.11.148h.034l-.19.021-.102-.101.025-.191.043-.03h.25l.055.093c.038-.313-.454-.309-.492 0a.326.326 0 0 0 .343.36.31.31 0 1 0-.182-.58.33.33 0 0 0-.093.496c.19.246.619 0 .424-.25l-.004-.013zM125.826 14.047a2.39 2.39 0 0 0 1.42-.424c.254-.182 0-.61-.246-.424-.34.25-.753.379-1.174.369a.25.25 0 0 0 0 .496v-.017zM139.44 104.153l.505.614c.203.241.547-.106.347-.348l-.5-.605c-.203-.246-.55.101-.351.347v-.008zM142.44 102.627l.331 1.009c.098.296.572.17.475-.132l-.33-1.008c-.102-.301-.577-.174-.475.131z"/>
            <path fill="#040000" d="M140.165 104.996c1.093.038 2.03-.5 2.924-1.064.267-.17.021-.593-.246-.424-.822.517-1.67 1.03-2.678.996-.318 0-.313.483 0 .492z"/>
            <path fill="#040000" d="M140.013 104.869l.979 1.695a.246.246 0 0 0 .423-.25l-.979-1.695a.246.246 0 0 0-.423.25z"/>
            <path fill="#040000" d="M140.767 106.034c-.093 1.983-.928 5.017-2.119 6.64-.36.483-1.695 1.31-.491 1.78.53.207 2.055-.704 2.483-1.051.299-.28.543-.614.72-.984.966-1.622 2.072-3.334 2.572-5.169h-.474c.31.629.652 1.241 1.025 1.835a.242.242 0 0 0 .275.114c2.14-.402-1.059-4.92-1.542-5.754a.246.246 0 0 0-.424.246c.492.847.95 1.728 1.39 2.614.245.379.44.788.58 1.216.208 1.44-.55.301-.847-.402a.25.25 0 0 0-.474 0c-.424 1.55-1.344 3.017-2.14 4.402a6.695 6.695 0 0 1-.848 1.42c-.339.322-2.042 1.034-1.868.462.076-.263.58-.539.75-.814a9.835 9.835 0 0 0 .652-1.758c.555-1.539 1.195-3.149 1.271-4.797 0-.314-.478-.314-.495 0h.004z"/>
            <path fill="#040000" d="M143.39 104.284s-.08-.742-.733-.369c-.542.288-1.101.543-1.674.763 0 0-.741-.068-.424.521.318.59.555.737.399 1.5-.157.763-.661 3.945-1.483 5.297-.327.398-2.34 2.33-.661 2.034 1.678-.297 1.936-1.068 2.394-1.856.457-.788 2.186-4.149 2.186-4.149s.047-1.038.424-.423c.377.614.81 1.152.953 1.034.144-.12.526-.53.034-1.539a218.238 218.238 0 0 0-1.415-2.813zM129.572 81.356c3.354.182 6.717.051 10.047-.39.118 0 .118-.208 0-.19-3.33.44-6.693.571-10.047.39-.119 0-.119.186 0 .19zM130.839 86.678a33.72 33.72 0 0 0 8.339-.377c.123 0 .072-.204-.05-.182-2.738.465-5.521.59-8.289.373-.123 0-.119.177 0 .186zM132.174 92.72c2.531.58 5.131.805 7.724.666.119 0 .119-.2 0-.191-2.57.14-5.148-.08-7.656-.657a.095.095 0 1 0-.051.182h-.017zM133.881 96.373c1.959.438 3.994.396 5.933-.123a.095.095 0 0 0-.051-.182 12.174 12.174 0 0 1-5.83.123c-.12-.026-.17.156-.052.182zM136.534 100.144a8.42 8.42 0 0 0 5.14-1.822c.097-.076-.038-.208-.132-.136a8.186 8.186 0 0 1-5.008 1.767.097.097 0 0 0 0 .191zM130.627 25.275c-1.453.394-4.038.61-5.343-.368a4.292 4.292 0 0 1-1.195-1.814c-2.898 1.526-5.2 1.848-7.966 3.674-5.212 3.44-6.526 7.763-6.932 14.131-.094 1.454-.661 6.827 1.94 9.322 1.187 1.14 3.335 1.483 4.488.61.199.78.27 2.628.156 6.42 0 0 3.043-.055 3.272-.072 1.27-.089 2.542-.271 3.788-.462a35.047 35.047 0 0 1 5.152-.487c1.09 0 2.178.076 3.263.127 3.128.181 6.266.124 9.386-.17.423-.046 5.173-.678 5.216-.292 1.229-4.852.127-10.08-.424-14.958.038.33 1.208.178 1.39.166.424-.03.847-.08 1.271-.136.365.02.73.008 1.093-.034a2.661 2.661 0 0 1 2.25.259c.055.042.119.07.187.084.203 0 .309-.228.351-.423.53-2.733.708-5.547-.313-8.191a10.763 10.763 0 0 0-4.61-5.542c-3.416-1.894-7.678-3.458-11.297-4.928-1.708 1.58-2.869 2.47-5.123 3.084z"/>
            <path fill="#040000" d="M124.017 23.373c1.695 5.36 9.869 1.271 12.182-1.407.208-.237-.14-.589-.347-.347a11.352 11.352 0 0 1-5.2 3.39c-2.063.593-5.36.78-6.16-1.772-.094-.3-.568-.173-.475.132v.004z"/>
            <path fill="#040000" d="M133.852 20.712c2.118 2.25 5.05 2.716 7.78 3.86 3.652 1.534 7 3.479 9.016 7.013a.246.246 0 0 0 .424-.246c-1.695-3-4.288-4.886-7.36-6.356-3.072-1.47-7.072-2.017-9.513-4.619-.216-.228-.563.12-.347.348zM116.05 57.36a493.527 493.527 0 0 1 29.552-1.445.246.246 0 1 0 0-.491c-9.865.189-19.715.67-29.551 1.445-.314.025-.318.517 0 .491zM124.017 22.932c-1.962 1.195-4.271 1.619-6.263 2.805a19.525 19.525 0 0 0-4.77 3.814c-.209.237.135.585.347.347a19.284 19.284 0 0 1 5.27-4.063c1.823-.996 3.89-1.382 5.666-2.462a.246.246 0 1 0-.25-.424v-.017zM128.805.424a7.284 7.284 0 0 0-3.97 1.241l-4.34 2.899a3.39 3.39 0 0 0-.876.745 1.131 1.131 0 0 0-.187 1.09c.146.243.32.469.517.673.687.945.021 1.92-.373 2.805a9.225 9.225 0 0 1-1.818 2.898 3.008 3.008 0 0 0-.91 1.149c-.117.489.018 1.004.36 1.373.339.366.764.643 1.237.805 1.19.449 4.602.309 3.436-1.81-.483-.877-.542-1.915-.593-2.915a19.402 19.402 0 0 1 .03-3.508c.13-.593.157-1.204.08-1.805.708-.14 1.496-.08 2.17-.301a16.7 16.7 0 0 0 2.089-.822c.817-.423 1.61-.89 2.377-1.399.252.765 1 1.254 1.8 1.178-.059 0 .454 2.543.513 2.742.285.986.692 1.933 1.212 2.818a1.034 1.034 0 0 1 1.085-.492c.424.119.619.725.292.996-.14.114-.334.148-.461.275a.847.847 0 0 0-.191.538l-.131 1.204c-.04.214-.04.434 0 .648.21.475.66.799 1.178.848 2.805.584 5.084-2.119 4.66-4.84a1.725 1.725 0 0 0-.343-.885 2.78 2.78 0 0 0-1.195-.619c-.754-.284-1.695-.847-2.059-1.593-.364-.746-.398-1.737-.636-2.542a5.631 5.631 0 0 0-.58-1.466 3.945 3.945 0 0 0-1.746-1.39 6.356 6.356 0 0 0-2.627-.538z"/>
            <path fill="#040000" d="M132.174 11.195c-.704.936-.271 2.843-.132 3.92.241 1.684.704 3.33 1.377 4.893.123.289.598.161.475-.13a18.983 18.983 0 0 1-1.212-3.9c-.178-.944-.767-3.626-.085-4.533.191-.254-.237-.5-.423-.25z"/>
            <path fill="#040000" d="M131.636 10.343c.14-.178.326-.479.559-.546a.453.453 0 0 1 .53.339c.178.495-.166.728-.513 1.012-.246.2.106.543.347.348.312-.188.55-.476.674-.818.07-.319.016-.653-.152-.932a.94.94 0 0 0-.81-.458 1.445 1.445 0 0 0-.974.708c-.191.25.152.601.347.347h-.008z"/>
            <path fill="#040000" d="M120.94 6.462a15.572 15.572 0 0 0 4.208-1.08c.551-.238 1.945-1.365 2.47-1.352 1.073.02-.122-.166.577.182a3.894 3.894 0 0 1 1.47 1.237c.403.661.386 2.034.661 2.814.261.698.57 1.378.924 2.034.144.28.568.03.424-.25a13.95 13.95 0 0 1-1.59-5.386.254.254 0 0 0-.25-.246l-1.533-1.084a.246.246 0 0 0-.36-.145 14.86 14.86 0 0 1-7 2.78c-.314.038-.314.53 0 .492v.004z"/>
            <path fill="#040000" d="M121.148 6.78c-.267 2.584-.445 5.36.577 7.813a6.856 6.856 0 0 0 1.72 2.488c.602.546 1.271.788 1.619 1.622a3.839 3.839 0 0 1-1.094 4.276c-.25.199.102.542.348.347 1.733-1.385 2.178-4.483.335-5.953-3.39-2.695-3.428-6.58-3.013-10.593.03-.314-.462-.31-.492 0zM124.347 8.648l-.317 3.259a.25.25 0 0 0 .245.246 1 1 0 0 0 .967-.712l-.458-.127c0 .372.06.974.538 1.038.424.055.589-.424.712-.742l-.36.144c.347.238.94.475 1.22 0a1.05 1.05 0 0 0-.246-1.152c-.212-.242-.559.11-.351.347.147.14.214.346.178.547a.627.627 0 0 1-.551-.161.254.254 0 0 0-.365.148c-.173.424-.284.093-.284-.165 0-.259-.356-.356-.457-.123a.682.682 0 0 1-.543.491l.25.246.314-3.258c.03-.318-.462-.314-.492 0v-.026z"/>
            <path fill="#040000" d="M122.453 8.788a5.33 5.33 0 0 1 1.09-.246c.309-.034.313-.53 0-.491a5.966 5.966 0 0 0-1.221.263c-.297.101-.17.576.131.474zM126.508 8.297a3.907 3.907 0 0 1 1.314 0c.31.05.445-.424.131-.475a4.686 4.686 0 0 0-1.576 0c-.31.05-.178.525.131.475zM126.95 12.335a2.564 2.564 0 0 0 2.584 2.64.246.246 0 0 0 0-.492 2.072 2.072 0 0 1-2.093-2.148.246.246 0 0 0-.492 0zM118.246 58.898a293.265 293.265 0 0 0-1.153 25.208.093.093 0 0 0 .187 0c.025-8.421.41-16.824 1.152-25.208 0-.118-.178-.118-.186 0zM120.407 59.102c-.47 16.856-.903 33.758.873 50.559 0 .123.203.123.19 0-1.78-16.8-1.343-33.703-.877-50.56a.093.093 0 1 0-.186 0zM124.674 58.898c-.94 8.03-1.382 16.127-1.627 24.204-.259 8.41-.378 16.915.534 25.292 0 .119.199.119.186 0-.911-8.377-.792-16.881-.534-25.292.25-8.077.69-16.174 1.631-24.204 0-.118-.178-.118-.19 0zM126.737 69.275c-.631 11.149-1.233 22.314-.644 33.475 0 .119.2.123.19 0-.588-11.165 0-22.33.645-33.475 0-.122-.182-.122-.19 0z"/>
            <path fill="#040000" d="M116.83 63.093c2.25-.153 4.5-.124 6.75-.277.123 0 .123-.228 0-.223-2.25.154-4.5.124-6.75.277-.122 0-.122.228 0 .223zM116.525 69.3a25.085 25.085 0 0 1 9.924.221c.119.026.17-.157.051-.182a25.424 25.424 0 0 0-10.025-.22c-.12 0-.068.203.05.182zM116.17 75.975a33.56 33.56 0 0 1 10.275.11c.119.02.17-.161.047-.182a33.924 33.924 0 0 0-10.373-.11c-.119 0-.068.199.05.182z"/>
            <path fill="#FFF" d="M142.492 26.119a3.754 3.754 0 0 0-1.161 2.695.131.131 0 0 0 .262 0c.01-.942.402-1.84 1.085-2.488.123-.118-.068-.305-.186-.186v-.021zM142.042 25.31c-.652.299-1.124.89-1.27 1.593-.03.169.228.241.253.072a2.021 2.021 0 0 1 1.161-1.437.133.133 0 1 0-.135-.229h-.009z"/>
            <path fill="#040000" d="M127.28 66.064c.3 7.834.517 15.877 2.66 23.47a36.593 36.593 0 0 0 3.742 8.771 39.09 39.09 0 0 0 2.632 3.852c.457.597.906 1.449 1.584 1.796 1.356.7 3.683-.254 4.619-1.22 1.436-1.487.33-3.483 0-5.229-1.123-6.017-1.733-12.449-1.055-18.555.449-4.068 2.424-7.542 3.572-11.41 1.148-3.87 1.547-7.971.602-11.895a.246.246 0 1 0-.475.131c.898 3.73.525 7.628-.5 11.289-.8 2.868-2.237 5.508-3.038 8.377-1.271 4.58-1.004 9.631-.619 14.317.195 2.36.483 4.712.89 7.047.19 1.114.547 2.246.682 3.364.263 2.12-1.195 3.267-3.25 3.445-1.42.123-1.78-.66-2.61-1.728a39.123 39.123 0 0 1-2.619-3.814 35.911 35.911 0 0 1-3.597-8.326c-2.229-7.627-2.432-15.767-2.737-23.665 0-.318-.505-.318-.492 0l.009-.017z"/>
            <path fill="#040000" d="M130.775 62.326c-2.885 13.055-.156 26.742 6.878 38.038.063.102.228 0 .165-.097-7.009-11.25-9.746-24.886-6.86-37.89.025-.119-.157-.17-.183-.05z"/>
            <path fill="#040000" d="M135.915 59.597c-3.157 7.174-3.847 15.064-2.966 22.797.81 6.937 2.708 13.983 7.428 19.31.08.093.212-.043.131-.132-4.843-5.475-6.716-12.797-7.449-19.915-.77-7.462-.038-15.055 3-21.966.051-.11-.114-.204-.16-.094h.016z"/>
            <path fill="#040000" d="M139.36 60.055a42.686 42.686 0 0 0 2.004 40.437c.064.105.23 0 .166-.094a42.483 42.483 0 0 1-2.005-40.254c.051-.11-.114-.208-.165-.097v.008z"/>
            <path fill="#040000" d="M140.975 66.017a30.797 30.797 0 0 0-2.373 17.877c0 .119.199.068.182-.05a30.56 30.56 0 0 1 2.356-17.742c.05-.11-.115-.208-.165-.094v.009zM131.042 62.068a18.746 18.746 0 0 1 9.263-.34c.119.026.17-.156.05-.181-3.1-.671-6.32-.555-9.363.339a.095.095 0 1 0 .05.182z"/>
            <path fill="#040000" d="M128.7 69.513c4.215-1.178 8.474-2.263 12.804-.97a.095.095 0 0 0 .051-.183c-4.352-1.296-8.66-.216-12.907.97a.095.095 0 1 0 .051.183zM128.835 76.203c3.847-1.572 7.974-1.27 12.038-1.402a.093.093 0 1 0 0-.187c-4.09.132-8.225-.173-12.09 1.407-.11.047-.063.229.052.182z"/>
            <path fill="#FFF" d="M76.161 93.996c-.631-1.996-3.195-1.356-4.06.157-1.309 2.305 2.433 4.11 3.835 5.084a.25.25 0 0 0 .25 0c1.166-.678 2.517-1.27 3.12-2.542.368-.784.791-2.403.283-3.229-1.021-1.665-3.3-.203-3.814 1.098-.11.267.314.423.454.194.335-.559 1.212-1.656 1.996-1.44l1.406 2.178c-.133.413-.34.8-.61 1.14a3.814 3.814 0 0 1-3.013 1.716l.217.377c.368-.805.957-2.034.589-2.932a.928.928 0 0 0-.424-.551c-.348-.216-2.119-.072-1.174-1.271l-.394-.301c-.38.52-.876.946-1.45 1.241l.37.284c.066-.46.245-.896.52-1.271a.25.25 0 0 0-.148-.364c-1.559-.297-2.267 2.173-1.52 3.254.152.22.546.093.457-.19a2.403 2.403 0 0 1 .174-1.988c.614-1.072 2.118-.297 1.983.847l.423-.173c-.563-.513-2.03-1.899-2.589-.67-.53 1.157.937 2.335 1.84 2.598a.25.25 0 0 0 .283-.365 3.03 3.03 0 0 0-1.923-1.66c-.195-.064-.424.186-.284.364.75 1.025 1.762 2.512 3.131 2.63.225 0 .318-.279.178-.423a13.216 13.216 0 0 1-2.348-3.271l-.216.377c.738.05 1.886 2.619 2.238 3.19.14.23.559.081.453-.194a72.582 72.582 0 0 0-1.356-3.318l-.424.254c.47.72.97 1.416 1.505 2.093.165.208.474-.02.423-.241l-.453-1.737-.479.131a16.8 16.8 0 0 0 .632 1.725c.105.241.457.097.466-.128.034-.97.267-2.826 1.58-2.966l-.178-.423a10.517 10.517 0 0 0-2.182 3.525l.479.131.868-3.055a.254.254 0 0 0-.364-.284c-.511.283-.93.707-1.208 1.22a.25.25 0 0 0 .39.302l1.072-.894-.394-.306-.618.996c-.145.238.199.513.39.301.453-.496 1.584-1.91 2.232-1.585.886.445-.47 2.335-.94 2.822l.423.246c.189-.922.452-1.828.789-2.707.114-.301-.369-.424-.483-.132a34.075 34.075 0 0 1-1.039 2.432l.454.191c.08-.659.265-1.301.546-1.902l-.457-.191a8.953 8.953 0 0 1-1.407 2.678l.466.127a5.267 5.267 0 0 1 1.068-2.83l-.462-.123c.053.852-.3 1.678-.953 2.228l.423.242c.348-1.08.712-2.064 1.602-2.822l-.39-.051c.39.89-.813 2.339-1.343 2.966l.39.305.22-.31c.165-.232-.203-.508-.39-.3-.368.403-.711.828-1.03 1.271-.148.208.14.475.344.343a4.237 4.237 0 0 1 1.119-.58l-.242-.424-.936.848c-.208.186.076.563.305.39a6.78 6.78 0 0 0 1.313-1.318c.132-.17-.084-.424-.28-.365-.382.129-.745.311-1.076.543-.258.182-.025.601.255.423l.377-.233a.25.25 0 0 0-.25-.423l-2.017-.424a2.708 2.708 0 0 1-.39-1.2 3.911 3.911 0 0 1 .131-1.694l-.457.06-.034-.039c-.318.047-.182.525.131.483.424-.06.479-.36.335-.695-.09-.208-.424-.131-.458.06-.576 2.033.424 5.38 3.009 3.877l-.25-.424-.382.229.255.423a2.7 2.7 0 0 1 .953-.495l-.28-.365c-.313.441-.699.826-1.14 1.14l.306.39.932-.848c.182-.16 0-.508-.242-.423a6.564 6.564 0 0 0-1.241.627l.343.343c.28-.413.599-.8.95-1.157l-.395-.305-.216.31c-.165.228.208.52.39.3.737-.881 1.953-2.356 1.42-3.572a.25.25 0 0 0-.39-.05c-.95.805-1.357 1.88-1.734 3.042-.08.246.242.402.424.241a3.19 3.19 0 0 0 1.093-2.58.25.25 0 0 0-.462-.127 5.686 5.686 0 0 0-1.14 3.08c0 .271.335.301.467.123a9.229 9.229 0 0 0 1.457-2.797c.085-.266-.339-.453-.457-.194a7.008 7.008 0 0 0-.594 2.025c-.038.25.323.47.454.19.424-.847.763-1.694 1.093-2.542l-.483-.131c-.332.88-.596 1.783-.788 2.703a.254.254 0 0 0 .424.246c.606-.631 2.118-2.822 1.165-3.741-.954-.92-2.674 1.27-3.161 1.796l.39.301.623-1.025c.156-.259-.183-.48-.39-.305l-1.072.898.394.3c.202-.46.567-.83 1.025-1.037l-.364-.284-.903 3.08c-.089.314.369.424.48.131a9.856 9.856 0 0 1 2.054-3.305c.132-.144.055-.453-.174-.423-1.61.186-2.03 2.118-2.08 3.478l.466-.127a15.758 15.758 0 0 1-.585-1.601.25.25 0 0 0-.479.131l.45 1.737.423-.241a25.172 25.172 0 0 1-1.428-1.996.25.25 0 0 0-.423.254 65.726 65.726 0 0 1 1.309 3.2l.453-.195c-.58-.954-1.114-2.14-1.843-2.967a.953.953 0 0 0-.822-.457.25.25 0 0 0-.216.373 13.716 13.716 0 0 0 2.428 3.39l.174-.424c-1.08-.093-2.119-1.59-2.7-2.382l-.283.365c.719.228 1.309.748 1.627 1.432l.28-.364a1.898 1.898 0 0 1-1.47-1.403c.702-.534 1.27-.424 1.732.305a.254.254 0 0 0 .424-.178c.119-1.186-.25-2.898-1.754-2.216-1.31.593-1.78 2.203-1.386 3.487l.458-.19c-.276-.399-.284-2.759.957-2.543l-.152-.364a4.398 4.398 0 0 0-.572 1.39.254.254 0 0 0 .368.284 4.746 4.746 0 0 0 1.615-1.411c.17-.225-.216-.526-.39-.301-.356.453-.848 1.14-.352 1.695.212.241.462.17.716.28.34.14 1.043.279 1.178.8.136.521-.423 1.695-.618 2.076a.254.254 0 0 0 .216.378c2.063-.094 4.83-2.297 4.17-4.632-.662-2.335-3.48-1.233-4.378.284l.454.195c.364-.902 2.542-2.542 3.055-.424.02.43-.037.861-.17 1.272a4.106 4.106 0 0 1-2.5 2.834c-.936.34-1.635-.423-2.385-.957-.378-.267-.98-.543-1.23-.958l-.487-2.093c.661-1.06 1.71-1.151 3.144-.276a.25.25 0 0 0 .484-.135h.008z"/>
            <path fill="#FFF" d="M79.085 95.428c-.262.437-.498.888-.708 1.352-.3.55-1.038.949-1.546 1.27-.267.179 0 .611.25.425a7.318 7.318 0 0 0 1.567-1.22c.382-.463.509-1.102.848-1.598.19-.263-.246-.513-.424-.254l.013.025zM105.627 152.903s.665-2.78 2.84-4.411c2.173-1.632 3.253-2.399 4.838-3.204 1.585-.805 4.263-1.843 5.84-1.5 1.575.343 20.118 4.403 21.952 5.148 1.835.746 2.284 1.314 2.628 2.678.343 1.365.593 1.25 1.008 1.467.415.216-.483 1.944-.763 2.593-.38.856-.69 1.742-.928 2.648-.368 1.347-.597 2.81-1.572 4.292-.974 1.483-4.39 5.606-4.39 5.606s-.961 1.89-3.813 1.407c-2.852-.483-10.068-2.195-21.186-6-2.068-.589-3.289-.72-4.047-2.424a33.326 33.326 0 0 1-1.386-4.059s.297-.733-.902-1.16c-1.2-.429-2.085-.971-1.14-1.637a2.254 2.254 0 0 0 1.021-1.444z"/>
            <path fill="#FB5373" d="M108.653 148.678a26.314 26.314 0 0 1 6.41-3.992c2.09-.978 3.924-.665 6.123-.186 5.704 1.246 11.441 2.36 17.08 3.886.76.203 2.14.33 2.76.809 1.809 1.386 1.055 2.28.199 3.284-.856 1.004-1.87 1.877-2.763 2.856-.894.979-1.67 2.233-3.208 2.267-1.758.042-3.813-.72-5.508-1.11a198.138 198.138 0 0 1-10.81-2.784 280.085 280.085 0 0 1-5.567-1.661l-2.373-.75c-.886-.284-4.051-.7-2.356-2.619.229-.254-.148-.631-.373-.377-.848.949-1.195 1.945.068 2.67 1.5.847 3.64 1.194 5.292 1.694a222.98 222.98 0 0 0 5.966 1.767 192.654 192.654 0 0 0 12.424 3.09c1.907.423 4 1.13 5.631-.331.916-.818 1.695-2.043 2.59-2.941.8-.805 1.766-1.657 2.262-2.703 1.021-2.149-.8-2.73-2.542-3.238-6.293-1.868-12.784-3.034-19.191-4.445-1.975-.423-3.606-.635-5.509.132a24.657 24.657 0 0 0-6.978 4.31c-.255.224.123.597.373.372zM144.513 152.742c-.212-.12-.318-.53-.386-.738-.123-.36-.228-.726-.313-1.097-.08-.33-.59-.19-.509.14.105.481.247.955.424 1.415.086.295.266.554.513.737.3.165.567-.292.266-.457h.005z"/>
            <path fill="#FB5373" d="M106.847 149.576c-.473.73-.865 1.51-1.169 2.327-.373 1.042-1.004 1.512-1.631 2.41-.424.594-.598.7.038 1.272.97.89 2.89 1.012 4.097 1.428 1.695.576 6.513 1.665 6.115 3.813a.271.271 0 0 0 .186.327c1.453.368 2.818 1.008 4.237 1.516.97.352.805.242 1.572-.076.34-.492.94-.736 1.526-.618.472-.157.984-.14 1.445.046.394.072.788.208 1.173.314 1.051.292 2.098.597 3.145.902 2.118.615 4.237 1.31 6.41 1.75 3.72.767 6.12-2.542 7.996-5.368 1.072-1.61 2.657-3.784 3.127-5.678.178-.72.132-.975-.635-1.212-.326-.102-.466.424-.144.508.758.233-1.992 4.83-2.271 5.284a21.653 21.653 0 0 1-3.746 4.615c-1.932 1.775-3.95 1.44-6.233.826-1.695-.45-3.356-.95-5.03-1.437-2.292-.66-4.64-1.974-6.78-.64-1.042.645-1.563.208-2.694-.228-.598-.233-1.272-.424-1.852-.695-.848-.445-.869-.233-.661-1.365a.271.271 0 0 0-.119-.3c-1.373-.661-2.754-1.305-4.165-1.882-1.5-.614-3.576-.902-4.958-1.695-1.61-.915-.979-.894-.318-1.822.848-1.186 1.005-2.809 1.806-4.076.182-.292-.276-.56-.458-.271l-.009.025z"/>
            <path fill="#FB5373" d="M106.182 156.576c.538 1.695 1.271 4.843 2.627 6.106.487.379 1.054.64 1.657.763 1.428.45 2.865.847 4.288 1.335 4.661 1.559 9.466 3.059 14.23 4.292 1.821.47 3.978 1.08 5.885.869 1.538-.17 2.267-1.373 3.19-2.496 1.585-1.92 3.441-3.814 4.394-6.148.61-1.5.907-3.17 1.36-4.72a.264.264 0 1 0-.508-.145c-.424 1.44-.712 2.966-1.233 4.365-.763 2.063-2.267 3.72-3.648 5.385-1.44 1.742-2.428 3.415-4.962 3.2a31.216 31.216 0 0 1-5.97-1.272c-3.551-1.03-7.132-2.072-10.653-3.19-2.05-.653-4.237-1.208-6.229-1.98-2.457-.948-3.178-4.148-3.915-6.504-.102-.322-.614-.182-.513.145v-.005z"/>
            <path fill="#FB5373" d="M116.123 159.631c-.682.704.682 1.06 1.11 1.208l.966.339c.273.142.568.235.873.275.339 0 .542-.313.775-.542a.267.267 0 0 0-.118-.424l-3.174-.847a.267.267 0 0 0-.203.487 8.826 8.826 0 0 0 2.686 1c.33.064.475-.449.14-.513a8.246 8.246 0 0 1-2.542-.945l-.204.484 3.174.847-.119-.424-.27.267c-.098.157-.221.165-.378.034a4.089 4.089 0 0 1-.725-.254c-.211-.076-1.53-.648-1.597-.58.237-.242-.136-.62-.377-.374l-.017-.038z"/>
            <path fill="#FFF" d="M120.466 121.61c-5.479 1.585-7.966 7.263-6.864 12.623.627 3.047 2.364 5.657 4.27 8.05 1.992 2.51 4.052 5.026 6.217 7.39a.847.847 0 0 0 1.2 0 61.089 61.089 0 0 0 4.703-6.711c1.694-2.708 3.559-5.466 4.423-8.58 2.119-7.628-4.66-14.51-12.334-13.11-1.073.194-.62 1.83.449 1.635a9.504 9.504 0 0 1 9.402 4.08c2.399 3.555.915 7.822-1.017 11.204-2.025 3.555-4.212 7.135-6.826 10.284h1.2c-3.145-3.428-6.827-7.259-8.9-11.441-2.49-5.013-1.49-12.034 4.526-13.788 1.047-.301.602-1.937-.449-1.632v-.004z"/>
            <path fill="#FB5373" d="M120.69 122.428c-2.66.657-4.843 2.788-5.838 5.339a11.513 11.513 0 0 0 .072 8.05c1.08 2.967 3.148 5.441 5.17 7.861l3.737 4.458c.25.296.847.957.847.957s.534-.644.7-.847c1.406-1.59 5.393-8.123 6.262-9.623 2.118-3.619 3.457-7.95 1.335-11.555-2.123-3.606-6.59-5.873-10.678-4.975"/>
            <path fill="#FFF" d="M121.352 133.157c.423.521.712 1.271 1.207 1.695a.263.263 0 0 0 .305.038c1.153-.543 2.183-2.034 2.967-3.004 1.055-1.318 2.016-2.712 3.063-4.043.2-.25-.152-.601-.352-.351-1.148 1.453-2.19 2.987-3.368 4.415-.517.627-1.11 1.479-1.797 1.928-.589.39-.513.326-1.038-.2a9.14 9.14 0 0 1-.623-.847c-.2-.254-.547.102-.356.352l-.008.017z"/>
            <path fill="#FFF" d="M120.466 132.021c.259.301.424.678.665.996.242.318.522.657.784.987.2.25.551-.106.352-.351-.284-.36-.58-.712-.848-1.085-.211-.293-.364-.623-.597-.899-.233-.275-.56.106-.356.352z"/>
            <path fill="#FFF" d="M120.742 132.076c1.326.454 1.961 1.034 3.046.102 1.623-1.39 3.237-2.788 4.86-4.182.242-.208-.114-.56-.356-.352l-3.53 3.042c-.487.424-1.343 1.454-1.99 1.556-.45.067-1.458-.5-1.9-.649-.304-.101-.423.377-.13.483z"/>
            <path fill="#FFF" d="M120.975 132.695l1.059 1.67c.186.292.424.94.763 1.097.504.22.631-.072.961-.466 1.695-2.017 2.911-4.301 4.5-6.356.2-.254-.237-.504-.423-.25-1.077 1.39-1.882 2.966-2.932 4.377-.145.19-1.572 2.305-1.806 2.263-.449-.08-1.444-2.191-1.694-2.577-.17-.27-.602-.02-.424.25l-.004-.008z"/>
            <path fill="#FFF" d="M126.487 129.614a22.564 22.564 0 0 0-3.572 4.56.25.25 0 0 0 .424.25 21.818 21.818 0 0 1 3.496-4.458c.229-.224-.127-.576-.356-.352h.008z"/>
            <path fill="#FFF" d="M125.665 130.343a11.996 11.996 0 0 0-1.741 1.665c-.547.645-.958 1.395-1.513 2.026l.394.305.11-.17c.178-.266-.254-.516-.423-.25l-.11.166c-.157.233.203.517.39.305.559-.636.965-1.382 1.512-2.026a12.013 12.013 0 0 1 1.741-1.67c.25-.198-.101-.55-.351-.35h-.009z"/>
            <path fill="#FFF" d="M123.097 132.627l-1.055.631.301.395c.192-.222.368-.457.526-.704a.25.25 0 0 0-.34-.339l-.533.34c-.271.169-.021.6.25.423l.534-.34-.34-.338a5.69 5.69 0 0 1-.448.602c-.178.203.046.542.3.39l1.055-.632a.25.25 0 0 0-.25-.424v-.004z"/>
            <path fill="#FFF" d="M121.369 132.763c.417.286.865.526 1.334.716.301.123.424-.36.136-.479a6.64 6.64 0 0 1-1.216-.665c-.267-.182-.517.25-.254.423v.005z"/>
            <path fill="#FFF" d="M121.5 132.771c.447.13.901.234 1.36.314.314.055.45-.424.136-.48-.46-.08-.916-.185-1.365-.317a.25.25 0 1 0-.131.483z"/>
            <path fill="#FFF" d="M120.114 131.127l2.814 2.144c.254.195.504-.237.25-.424l-2.81-2.144c-.258-.195-.504.238-.254.424z"/>
            <path fill="#FFF" d="M120.072 131.403c.373.495.725 1 1.06 1.52.173.272.605.022.423-.25a26.164 26.164 0 0 0-1.06-1.525c-.19-.254-.626 0-.423.255zM123.157 133.11l.186-.152c.246-.204-.11-.555-.356-.352l-.25.208.352.351c.203-.178.403-.356.593-.542.19-.187.352-.31.276-.547-.094-.305-.577-.173-.48.132.047-.123.039-.14-.033-.051l-.114.11c-.056.06-.115.114-.174.17-.136.127-.28.254-.424.377-.246.211.11.55.352.351l.254-.207-.356-.352-.182.152c-.25.208.106.56.352.352h.004zM122.314 133.94c.191.05.374.13.542.234.174.11.445-.072.364-.28l-.025-.072c-.114-.297-.598-.17-.483.131l.03.072.364-.28a2.458 2.458 0 0 0-.657-.287.25.25 0 0 0-.135.483z"/>
            <path fill="#FFF" d="M122.576 133.436l-.05.085a.258.258 0 0 0 .088.343c.072.036.15.054.23.055.321 0 .321-.512 0-.5h.025l.089.34.046-.085c.157-.28-.27-.534-.423-.25l-.005.012zM123.5 150.686c-.327.318-.6.685-.81 1.09-.13.254.208.563.424.321l.683-.826c.22-.258-.149-.635-.373-.377l-.475.55c-.224.26.148.637.373.378l.475-.55-.373-.378-.704.818.424.318c.187-.365.432-.697.725-.983.245-.238-.127-.61-.373-.373l.004.012zM120.729 148.78c.526.021 1.047.11 1.55.262l.068-.52a5.14 5.14 0 0 1-.953-.153l-.14.508 1.021.22c.33.072.475-.423.14-.508l-1.02-.22c-.331-.072-.476.423-.14.508.357.094.723.152 1.092.174.306.021.348-.424.072-.521a6.72 6.72 0 0 0-1.694-.28c-.34 0-.34.513 0 .53h.004zM127.233 150.212l1.492.296.156-.508a7.924 7.924 0 0 1-1.559-.39l-.14.509c.328.104.642.246.937.423a.267.267 0 0 0 .267-.457 4.898 4.898 0 0 0-1.064-.48c-.33-.105-.458.395-.14.51a7.86 7.86 0 0 0 1.56.393c.326.047.478-.444.14-.512l-1.492-.297c-.33-.063-.475.424-.14.513h-.017zM126.958 146.86c-.36.24-.661.557-.882.928a.267.267 0 0 0 .458.267 2.36 2.36 0 0 1 .69-.741c.284-.187 0-.649-.266-.454z"/>
            <path fill="#FB5373" d="M103.843 67.797a3.894 3.894 0 0 0-2.652 4.199c.228 2.483 2.478 4.66 4.059 6.39.104.1.27.1.373 0 1.606-1.928 4.237-4.598 3.949-7.335-.233-2.411-2.856-3.678-5.042-3.39-.33.047-.34.576 0 .53 3.144-.424 5.406 2.241 3.97 5.288a13.356 13.356 0 0 1-1.44 2.165c-.314.424-1.221 2.068-1.624 2.144a5.606 5.606 0 0 1-.61-.707c-.572-.674-1.152-1.34-1.695-2.047-1.584-2.119-2.373-5.615.848-6.729.318-.11.182-.623-.144-.508h.008z"/>
            <path fill="#FB5373" d="M105.153 71.45c-.217-.268.216-.594.5-.463.283.132.27.216.114.458a.873.873 0 0 1-.95.275.682.682 0 0 1-.537-.703c.025-.398.356-.509.712-.5a1.67 1.67 0 0 1 1.339.661c.423.716-.568 1.31-1.149.847a1.017 1.017 0 0 1-.385-.767c0-.423.339-.555.707-.55.11 0 .22.013.327.042a.45.45 0 0 1 .28.619c-.077.25-.518.53-.725.627-.691.33-1.539-.225-1.005-.983.32-.44.909-.587 1.399-.352.305.148.576-.31.27-.458-.923-.457-2.22.047-2.355 1.144-.078.572.287 1.11.847 1.25a1.742 1.742 0 0 0 1.602-.478c.403-.348.822-.937.479-1.466a1.45 1.45 0 0 0-1.36-.462c-1.271.156-1.216 1.78-.259 2.36.958.58 2.31-.365 1.873-1.47-.352-.899-2.025-1.534-2.796-.848a1.161 1.161 0 0 0-.2 1.377c.287.489.844.751 1.403.661.52-.009.976-.35 1.131-.847a.89.89 0 0 0-.72-1.021.873.873 0 0 0-.992.906.55.55 0 0 0 1.005.255c.33-.458-.161-.992-.661-.882-.564.127-.56.788-.259 1.161.212.263.585-.114.373-.377l-.008-.017zM127.034 105.674c2.407-1.34 5.085-2.793 6.873-3.712-1.72-.301-4.979-.928-6.7-1.225l-.173 4.937z"/>
            <path fill="#FB5373" d="M127.114 105.81a249.554 249.554 0 0 1 6.873-3.713.161.161 0 0 0-.038-.288c-2.237-.394-4.462-.847-6.699-1.228a.165.165 0 0 0-.2.156l-.177 4.937a.161.161 0 0 0 .318 0l.106-2.882c0-.423-.136-1.364.059-1.762.195-.399-.208-.03.093-.09.394.01.784.08 1.157.208l2.886.534 1.453.267.636.115c-.068-.106-.153-.102-.25 0-.848.622-1.98 1.046-2.92 1.555a338.03 338.03 0 0 0-3.458 1.898.167.167 0 1 0 .161.292z"/>
            <path fill="#FFF" d="M114.992 39.08a1.089 1.089 0 0 0-.45 1.272c.327.796.424 2.089.848 2.589s.818 1.034 2.152.957c1.335-.076 1.911-.326 2.289-1.093-.242-.3-.37-.593.194-.898-.089-.424-.847-.424.094-1.026-.712-.16-1.272-.123-.759-.53-1.017 0-2.648-.283-3.233-.847-.585-.563-.78-.97-1.135-.423z"/>
            <path fill="#FB5373" d="M115.153 38.064s.355 1.148.906 1.41c.551.263 1.78.895 2.67.848.89-.047.593.14.593.14s-.119.28.39.28c.508 0-.208.974.119.919.326-.055-.293.729-.022.847.272.12-.131.72-.707 1-.259.123-.882.225-1.551.547 0 0 .479 1.123 1.178 1.123l3.127.114s.813.344.66-.648c-.152-.991-1.944-6.241-3.169-8.445-.3-.347-.326-.424-.8-.483l-3.488-.347s-1.106-.098-.847.58c.258.678.94 2.115.94 2.115z"/>
            <path fill="#040000" d="M115.924 39.22c-.327-.8-.712-1.572-1.068-2.356-.233-.525-.746-1.046.06-1.237.445-.033.893 0 1.33.098l1.445.16c.873.098 1.241.12 1.695.95.483.915.762 1.953 1.195 2.894.135.288.559.038.423-.246-.381-.847-.682-1.695-1.038-2.517-.178-.424-.352-1.021-.763-1.297-.41-.275-1.08-.233-1.504-.28-.788-.084-1.585-.203-2.377-.24-.653-.03-1.356-.17-1.403.584.055.38.186.745.386 1.072.373.848.8 1.695 1.153 2.542.118.289.593.161.474-.13l-.008.003z"/>
            <path fill="#040000" d="M115.589 39.508c1.271.657 2.576 1.212 4.025 1.056l-.211-.37c-.594.848-2.39.425-3.149.098-.292-.123-.423.356-.131.475 1.017.424 2.966.758 3.703-.326a.246.246 0 0 0-.212-.369c-1.364.148-2.589-.369-3.775-.987-.28-.144-.53.28-.25.423z"/>
            <path fill="#040000" d="M118.627 41.136c.551-.098 1.11-.055 1.665-.136l-.28-.364c-.792 1.063-2.063 1.356-3.321 1.203l.123.458.08-.055c.259-.183 0-.606-.246-.424l-.084.06a.25.25 0 0 0 .127.457 3.898 3.898 0 0 0 3.745-1.445c.145-.195-.093-.39-.275-.36-.555.08-1.11.038-1.665.135-.31.055-.178.53.131.475v-.004z"/>
            <path fill="#040000" d="M119.195 41.95c.286-.104.594-.13.894-.077l-.144-.36a3.479 3.479 0 0 1-1.05 1.03c-.387.262-1.069.512-1.53.321l.173.305v-.033l-.3.173h.025c.309.064.423-.423.131-.474h-.03a.254.254 0 0 0-.3.173v.03c-.056.131.059.259.17.301.6.143 1.233.044 1.762-.275a3.924 3.924 0 0 0 1.373-1.301.254.254 0 0 0-.149-.365 2.2 2.2 0 0 0-1.156.077c-.31.063-.178.538.13.474z"/>
            <path fill="#040000" d="M119.22 42.92c.225-.128.485-.18.742-.149l-.216-.368c-.869 2.059-3.97 1.542-4.483-.424-.102-.394-.132-.695-.263-1.068-.097-.28-.36-.542-.288-.894.194-.423.457-.81.78-1.144.203-.242-.145-.593-.348-.348-.458.539-1.216 1.33-.928 2.12.076.202.28.338.36.529.149.364 0 .487.085.796.118.477.331.926.627 1.318 1.174 1.555 4.136 1.17 4.886-.606a.254.254 0 0 0-.212-.373 1.775 1.775 0 0 0-.987.212c-.284.144-.034.568.245.424v-.026z"/>
            <path fill="#040000" d="M117.335 44.178c.186.339.377.915.733 1.127.39.14.806.197 1.22.17.805.05 2.225.372 2.945-.064.72-.436.339-1.407.14-2.072a37.117 37.117 0 0 0-1.157-3.322c-.119-.288-.597-.161-.474.131.258.64.491 1.271.716 1.945.195.58.733 1.602.673 2.216-.101 1.072-1.673.742-2.423.7a7.06 7.06 0 0 1-.996-.064c-.564-.119-.69-.547-.954-1.017a.246.246 0 0 0-.423.25z"/>
            <path fill="#FFF" d="M112.161 43.712a24.089 24.089 0 0 1 1.784-3.242c.097-.144-.136-.275-.229-.135a24.089 24.089 0 0 0-1.784 3.241c-.068.153.157.288.229.136zM116.784 49.903c.459-1.636.571-3.349.33-5.03-.025-.17-.28-.098-.258.072a11.822 11.822 0 0 1-.326 4.886.132.132 0 1 0 .254.072z"/>
            <path fill="#040000" d="M115.686 36.275c.424.068.848.115 1.272.153.258.025.525.025.784.072.5.089.88.157 1.067.644.26.75.559 1.488.894 2.208.06.118.242 0 .183-.11-.266-.542-.498-1.1-.695-1.67a2.89 2.89 0 0 0-.45-1.034 1.123 1.123 0 0 0-.686-.216c-.767-.102-1.542-.127-2.31-.25-.13 0-.19.182-.054.203h-.005zM120.627 41.525l.627 1.793c.216.618.521 1.271.45 1.924 0 .135.194.135.211 0a3.89 3.89 0 0 0-.368-1.725l-.716-2.064c-.043-.131-.246-.076-.204.055v.017z"/>
            <path fill="#FFF" d="M145.407 44.992c-2.153.292-4.28.76-6.356 1.398.296 7.881.452 15.765.466 23.652 4.31-.313 8.42-2.055 12.733-2.322.254-4.61.42-9.224.496-13.843.042-2.733.05-5.508-.716-8.135 0 0 .228-1.602-1.204-1.246"/>
            <path fill="#040000" d="M145.356 44.754c-2.15.315-4.273.782-6.356 1.399a.25.25 0 0 0-.178.237c.283 7.881.438 15.765.466 23.652 0 .136.11.246.246.246 4.313-.398 8.41-1.97 12.733-2.322a.254.254 0 0 0 .246-.246c.3-5.584.665-11.241.491-16.834-.055-1.776-.16-3.941-.716-5.636-.263-.81-.53-1.097-1.445-1-.313.03-.318.521 0 .492 2.543-.267 1.606 12.432 1.56 14.02-.043 1.36-.09 2.717-.145 4.073-.042 1.038.289 3.157-.194 4.072s-1.967.8-2.878.97c-1.377.259-2.733.606-4.097.928-1.271.3-2.771.848-4.076.818-1.2-.026-1.077-.055-1.238-1.271a16.695 16.695 0 0 1 0-2.119 697.307 697.307 0 0 0-.118-8.45 656.736 656.736 0 0 0-.225-8.448c-.063-1.793-.305-2.763 1.67-3.263a43.936 43.936 0 0 1 4.381-.847c.314-.047.182-.522-.131-.475l.004.004z"/>
            <path fill="#040000" d="M144.758 55.873a.602.602 0 0 1-.47-.352c-.042-.106.424-2.25.424-2.36.063-1.356.038-2.602.102-3.958.105-2.288 1.368-5.784-.178-7.67-.555-.677-.882-.847-1.272-1.639a3.258 3.258 0 0 1 2.208-4.631 8.174 8.174 0 0 1 1.763 0c.508 0 .974-.212 1.496-.208 1.483 0 2.593.7 2.987 2.157 1.148 4.275-.907 8.822-2.636 12.635a18.521 18.521 0 0 0-1.199 3.128c-.14.546-.53 2.94-.648 3.491a.076.076 0 0 1-.043.064h-.038a18.534 18.534 0 0 0-2.496-.657z"/>
            <path fill="#040000" d="M144.466 55.508c.348-3.77.992-7.58 1.19-11.347 0-.233-.342-.229-.355 0-.2 3.771-.848 7.58-1.19 11.347-.022.23.334.23.355 0zM148.733 35.352c1.047.343 2.271.517 2.856 1.627.347.66.288 1.737.297 2.491a15.72 15.72 0 0 1-1.225 6.013c-1.44 3.602-2.835 6.97-3.432 10.814-.034.224.313.322.347.093a33.318 33.318 0 0 1 2.013-7.314c.915-2.31 2.072-4.572 2.436-7.046.238-1.602.458-3.568-.093-5.144-.474-1.36-1.843-1.467-3.101-1.882-.22-.072-.314.276-.098.348z"/>
            <path fill="#040000" d="M144.165 54.958a5.962 5.962 0 0 1-.576 2.228c-.292.522-.712.916-.992 1.445a.182.182 0 0 0 .246.246c.254-.129.485-.3.682-.504l-.3-.174c-.25 1.178-.653 2.64-.386 3.843.017.06.063.108.123.127.928.157 1.034-1.834 1.119-2.368l-.37-.055c-.043.85.005 1.702.145 2.542 0 .123.17.153.263.106.716-.335.678-2.152.809-2.83h-.347c.092.97.37 1.913.817 2.78a.186.186 0 0 0 .284.037c.598-.512.399-2.224.47-2.932l-.351.047c.152.716.39 1.762 1.013 2.233.084.046.19.018.241-.064.445-.627.072-1.78.09-2.512a22.5 22.5 0 0 1 .554-3.551c.043-.23-.305-.322-.347-.098a31.305 31.305 0 0 0-.543 3.178c-.046.602.17 1.377.03 1.95-.233.974-.606-.848-.69-1.234-.047-.207-.335-.14-.352.051-.039.373-.123 2.017-.344 1.962-.423-.102-.478-1.597-.525-1.94-.025-.179-.314-.17-.347 0-.128.669-.157 1.563-.424 2.186-.22.517-.09-.424-.098-.657v-1.246c0-.199-.317-.25-.351-.05-.032.432-.117.859-.255 1.27-.148.323-.148.534-.309.14-.28-.69.25-2.118.394-2.809a.178.178 0 0 0-.296-.174l-.606.45.241.245c.352-.66.907-1.173 1.2-1.864a7.381 7.381 0 0 0 .423-1.992c.025-.228-.335-.224-.36 0l.025-.012z"/>
            <path fill="#FFF" d="M144.377 25.33c-1.271.704-2.119 2.886-2.453 4.37a26.072 26.072 0 0 0-.424 4.525c-.08 2.144-.589 5.932-.424 9.127.066 1.677.384 3.336.94 4.92.425.046.556-.15 1.387 0-.064-.882-.467-3.319-.53-4.196a25.398 25.398 0 0 1-.11-3.16c.076-1.539.423-3.052.563-4.59.102-1.076.098-2.16.2-3.237a26.97 26.97 0 0 1 1.27-5.576c.098-.386.275-.747.522-1.06a.614.614 0 0 1 .847-.173 3.258 3.258 0 0 0-1.788-.958"/>
            <path fill="#040000" d="M144.25 25.119c-3.318 2.326-2.852 7.457-3.127 10.987-.292 3.7-1.195 8.835.686 12.288a.246.246 0 0 0 .212.123 10.08 10.08 0 0 1 1.386 0c.136 0 .246-.11.246-.246-.327-3.415-.818-6.517-.335-9.966.195-1.364.576-12.2 2.78-11.788.216.038.449-.242.241-.424a4.729 4.729 0 0 0-1.898-1.021.246.246 0 1 0-.132.475 2.992 2.992 0 0 1 1.695.894l.238-.424c-.916-.17-1.212.3-1.568 1.123a20.763 20.763 0 0 0-1.377 5.932c-.424 4.428-.996 8.716-.382 13.136.09.644.623 1.86-.343 1.741-.631-.076-.61-.674-.758-1.271-.501-2.39-.644-4.843-.424-7.275.114-1.992.305-3.98.424-5.975.13-2.614.339-6.246 2.733-7.924.258-.178 0-.606-.25-.423l-.047.038z"/>
            <path fill="#FFF" d="M15.22 127.335a10.347 10.347 0 0 1 10.314 2.06 10.339 10.339 0 0 1 2.924 10.097c-1.623 6.025-7.742 9.745-10.246 15.394a35.665 35.665 0 0 1-4.509-4.983"/>
            <path fill="#FB5373" d="M15.292 127.589c3.844-1.271 8.246-.28 10.903 2.877 2.877 3.432 2.894 8.093.792 11.907-1.648 2.966-4.152 5.373-6.25 8.05-.385.492-.762.992-1.118 1.505-.356.513-.759 1.657-1.242 2.038-.678.534-1.271-.491-1.839-1.089a38.627 38.627 0 0 1-2.602-3.093c-.203-.267-.665 0-.457.267a40.089 40.089 0 0 0 4.55 5.034.267.267 0 0 0 .424-.055c2.966-6.327 10.954-10.865 10.594-18.56-.322-7.034-7.327-11.525-13.894-9.381-.322.106-.187.619.14.513v-.013z"/>
            <path fill="#FB5373" d="M17.3 134.237c1.975-.991 3.772.92 3.67 2.852-.089 1.729-1.237 3.67-3.16 3.627a.267.267 0 0 0 0 .53c2.415.05 3.927-2.593 3.669-4.797-.259-2.203-2.398-3.699-4.445-2.67-.305.153-.038.61.267.458z"/>
            <path fill="#FB5373" d="M16.593 134.021a7.67 7.67 0 0 1 1.437 1.882c.224.423 1.046 2.033.788 2.542l-1.72.453a3.326 3.326 0 0 1-.484-.61 4.953 4.953 0 0 1-.63-1.216l-.14-.75c-.069-.771.27-1.127 1.008-1.064.902-.211 1.334.039 1.741.87l.271.94c.031.876-.316 1.212-1.042 1.008-.636.216-.915-.02-.847-.716a1.161 1.161 0 0 1 .135-1.39c.462-.77.826-.94 1.716-.78.89.162 1.005.318 1.038 1.272.034.405-.007.813-.122 1.203-.327.966-1.212 2.161-2.602.678a3.903 3.903 0 0 1-.784-2.351 1.877 1.877 0 0 1 2.805-1.517c.903.461 1.343 1.53 1.386 2.5.03.673-.327 3.317-1.636 2.822a1.814 1.814 0 0 1-.958-1.06c-.296-.695-.043-1.001.759-.92.597-.448.885-.423.847.047.394.903-.788 1.937-1.508 2.153-1.08.322-2.14-.343-2.678-1.271-.47-.822-.56-2.013.127-2.763.686-.75 1.729-.542 2.347.114l.424.594c-1.305 1.05-1.493 1.077-.563.08.288-.182.02-.64-.267-.457-.776.491-1.39 1.91-.33 2.478 1.232.661 2.118-.961 1.783-1.974-.424-1.301-2.034-2.483-3.33-1.64-1.297.843-1.352 2.631-.657 3.835.737 1.27 2.385 2.118 3.784 1.356 1.084-.598 1.826-2.077 1.195-3.25-.564-1.047-1.86-.937-2.365.101-.538 1.102-.055 3.077 1.373 3.115 1.665.038 2.225-2.03 2.165-3.352-.072-1.568-1.02-3.106-2.69-3.258a2.267 2.267 0 0 0-2.543 2.461c.047 1.272.869 3.411 2.403 3.39 3.017 0 2.843-6.292-.17-5.131-1.305.504-2.415 2.394-1.563 3.695a1.513 1.513 0 0 0 2.716-.263c.589-1.381-.69-3.483-2.22-3.504-2-.034-1.835 2.466-1.178 3.678.538.991 2.364 2.894 3.343 1.178.445-.771-.043-2.043-.33-2.771a8.106 8.106 0 0 0-1.895-2.789c-.241-.241-.618.136-.373.373l.034-.02zM64.347 196.186c.234-2.644.628-5.894 3.335-7.118 2.348-1.064 5.34-1.204 7.835-.653 4.852 1.068 8.644 5.907 6.78 10.894-.119.318.394.458.512.14 2.077-5.563-2.432-10.771-7.822-11.674-2.627-.444-6.44-.3-8.64 1.42-2.025 1.58-2.322 4.619-2.542 6.991-.03.34.5.34.53 0h.012z"/>
            <path fill="#FB5373" d="M34.466 192.102c3.7 2.41 8.53 2.165 12.83 1.165a43.22 43.22 0 0 0 11.865-4.682c1.95-1.123 3.814-2.407 5.903-3.271 5.817-2.424 12.542-1.272 18.415 1.012 5.873 2.284 11.296 5.649 17.229 7.776 5.932 2.127 12.512 2.216 18.123-.661-16.412-7.695-36.208-13.458-53.467-22.106-6.258 4.216-11.41 8.195-17.14 11.44-5.059 2.886-8.64 6.22-13.699 9.106l-.059.22z"/>
            <path fill="#FB5373" d="M34.39 192.237c5.864 3.564 13.491 1.534 19.407-.847 3.542-1.428 6.601-3.593 9.991-5.297 4.051-2.034 8.547-2.322 12.958-1.53 7.835 1.407 14.546 5.933 21.81 8.899 6.63 2.712 13.775 3.36 20.36.14a.161.161 0 0 0 0-.276c-17.5-8.157-36.17-13.512-53.471-22.14a.157.157 0 0 0-.161 0c-5.695 3.852-11.2 7.98-17.14 11.462-2.792 1.636-5.398 3.521-8.03 5.399-1.415 1.008-2.843 2-4.326 2.91-.457.28-1.31.518-1.474 1.09a.158.158 0 0 0 .305.084c.195-.665 2.618-1.695 3.241-2.118a98.525 98.525 0 0 0 3.593-2.543c2.441-1.75 4.899-3.39 7.488-4.92 2.589-1.529 5-3.118 7.428-4.792 2.517-1.741 4.991-3.961 7.703-5.368 1.86-.97 2.847-.115 4.606.716 1.144.537 2.292 1.065 3.445 1.585 2.8 1.27 5.631 2.445 8.474 3.597 5.433 2.204 10.924 4.267 16.403 6.356 5.767 2.22 11.542 4.415 17.195 6.881.593.259 3.729 1.2 3.915 1.755.237.716-3.03 1.462-3.686 1.623a22.979 22.979 0 0 1-10.17.042c-11.207-2.398-20.25-11.216-32.157-11.14a18.826 18.826 0 0 0-8.47 2.004c-2.91 1.48-5.572 3.356-8.563 4.691-6.11 2.72-14.356 5.208-20.517 1.45-.157-.094-.335.181-.157.287zM28.737 179.864l6.962-4.796c.28-.19 0-.653-.267-.458l-6.974 4.797c-.28.195 0 .652.267.457h.012zM43.602 170.614a67.657 67.657 0 0 0 6.017-4c.27-.199 0-.66-.267-.457a67.657 67.657 0 0 1-6.017 4 .267.267 0 0 0 .267.457zM58.271 161.364a60.78 60.78 0 0 0 5.801-3.839c.271-.203 0-.66-.267-.457a61.318 61.318 0 0 1-5.8 3.839.267.267 0 0 0 .266.457zM71.83 153.025a48.186 48.186 0 0 1 6.115-4.978c.28-.195 0-.653-.267-.458a48.517 48.517 0 0 0-6.22 5.064c-.246.237.127.61.373.372zM84.114 143.983l3.47-2.318c.28-.186 0-.648-.266-.457l-3.47 2.317c-.284.191 0 .649.266.458zM94.589 137.585a31.555 31.555 0 0 1 3.623-2.644c.288-.183.025-.64-.267-.458a31.729 31.729 0 0 0-3.729 2.729c-.263.22.115.593.373.373zM103.415 131.263a20.305 20.305 0 0 0 4.492-2.937c.258-.22-.115-.593-.373-.373a19.915 19.915 0 0 1-4.386 2.852c-.305.148-.038.606.267.458zM112.292 125.475l2.314-1.543c.284-.186 0-.648-.267-.457L112.025 125c-.283.19 0 .648.267.458v.017zM130.034 114.657l4.45-3.064c.279-.195 0-.652-.268-.457l-4.45 3.067c-.279.191 0 .649.268.454zM146.254 104.076l3.865-2.3a.267.267 0 0 0-.267-.458l-3.865 2.3a.267.267 0 0 0 .267.458zM154.924 98.258l4.66-3.046c.285-.187 0-.644-.266-.458l-4.661 3.047c-.284.186-.021.644.267.457zM133.314 119.11l4.635.945c.335.068.475-.424.14-.508l-4.631-.95c-.335-.067-.475.445-.144.513zM144.958 121.45a18.75 18.75 0 0 1 5.339.94c.326.106.466-.424.144-.513a19.492 19.492 0 0 0-5.483-.958.267.267 0 0 0 0 .53zM157.237 124.339l6.166 1.2c.33.067.474-.425.14-.51l-6.166-1.203c-.335-.063-.474.424-.14.513zM69.644 163.881a39.53 39.53 0 0 1 6.17 1.755c.322.118.457-.394.14-.513a39.407 39.407 0 0 0-6.17-1.75c-.33-.068-.475.445-.14.508zM84.428 169.089a34.004 34.004 0 0 0 5.3 2.068.267.267 0 0 0 .14-.513 32.78 32.78 0 0 1-5.173-2c-.305-.148-.572.305-.267.458v-.013zM100.318 174.7a51.271 51.271 0 0 1 7.92 2.49c.313.132.448-.38.14-.508a51.271 51.271 0 0 0-7.92-2.496c-.33-.072-.47.424-.14.513zM116.33 181.076a67.119 67.119 0 0 1 7.488 3c.305.149.576-.31.267-.457a67.449 67.449 0 0 0-7.627-3.051c-.327-.106-.466.402-.14.508h.013zM133.305 187.45a26.271 26.271 0 0 1 5.746 2.067c.305.152.572-.305.267-.458a26.911 26.911 0 0 0-5.86-2.118c-.335-.08-.475.423-.144.508h-.009zM102.42 81.576c.888.162 1.794.21 2.694.144a11.89 11.89 0 0 0 2.543-.847 15.089 15.089 0 0 1 6.877-.894l-.216.089c-.788.525-6.657 3.174-6.915 3.258-.534.178-1.106-.034-1.67-.084-3.225-.293-6.508-.848-9.593-1.191-.009.021 4.203-.695 6.28-.475z"/>
            <path fill="#FB5373" d="M102.42 81.737a9.352 9.352 0 0 0 4.961-.568c.547-.207 6.98-1.533 6.992-1.27.025.5-4.826 2.326-5.381 2.58-1.23.555-1.827.805-3.267.631-2.411-.288-4.818-.572-7.204-.89a8.928 8.928 0 0 0-2.207 0c.576-.08 1.148-.178 1.724-.254a20.992 20.992 0 0 1 4.403-.212c.203 0 .203-.3 0-.318-2.119-.178-4.259.145-6.33.5-.192.03-.12.293.042.31 2.66.322 5.313.72 7.978 1.025 1.33.157 2.585.5 3.844.03 2.28-.848 4.36-2.233 6.614-3.132a.157.157 0 0 0-.042-.309 15.987 15.987 0 0 0-5.81.53c-2.254.657-3.881 1.347-6.296 1.046-.22-.042-.22.276-.022.301zM97.843 87.733l3.725.636c.335.055.479-.454.144-.513l-3.729-.631c-.33-.06-.475.453-.14.508zM106 89.237c1.25.131 2.48.416 3.661.848.322.118.458-.394.14-.513-1.23-.45-2.511-.746-3.814-.881-.339-.038-.334.491 0 .53l.013.016zM113.318 90.733c1.111.008 2.215.183 3.275.517.326.102.466-.424.144-.513a11.733 11.733 0 0 0-3.42-.534.267.267 0 0 0 0 .53zM128.847 93.475a7.492 7.492 0 0 1 1.916.491c.318.127.453-.381.14-.508a7.818 7.818 0 0 0-2.056-.513c-.339-.038-.334.491 0 .53zM145.178 96.068l4.237.987c.33.076.475-.424.14-.513l-4.237-.987c-.33-.076-.47.424-.14.513z"/>
            <path fill="#040000" d="M115.8 57.114c-.986 17.649.62 35.67 4.026 53.009.031.106.127.18.238.182l6.78-.178a.25.25 0 0 0 .245-.246c0-8.563 1.025-17.11 2.165-25.584.043-.31-.423-.424-.474-.132-.911 6.78-1.73 13.56-2.055 20.373a36.017 36.017 0 0 0-.128 4.381c.072.941.183.717-.898.746-1.606.043-3.335.28-4.932.127-.826-.076-.39.178-.61-.508a22.22 22.22 0 0 1-.521-2.852 221.558 221.558 0 0 1-1.102-6.92 258.467 258.467 0 0 1-1.996-18.703c-.575-7.885-.657-15.799-.246-23.695 0-.317-.474-.313-.495 0h.004z"/>
            <path fill="#FB5373" d="M143.288 79.771a16.924 16.924 0 0 0 1.373 5.822c.136.314.593.043.458-.267a16.072 16.072 0 0 1-1.314-5.534c0-.339-.547-.339-.53 0l.013-.02z"/>
            <path fill="#040000" d="M129.762 95.695a16.638 16.638 0 0 0-.19 3.627c0 .119.22.119.215 0a16.158 16.158 0 0 1 .18-3.576c0-.115-.185-.165-.205-.051z"/>
            <path fill="#FB5373" d="M145.347 79.5a21.216 21.216 0 0 0 2.068 6.242c.153.305.61.033.458-.267a20.81 20.81 0 0 1-2.013-6.12c-.055-.334-.568-.19-.513.145z"/>
            <path fill="#040000" d="M151.174 27.165a37.966 37.966 0 0 1 3.08 6.84c.038.11.212.063.174-.047a37.869 37.869 0 0 0-3.089-6.882c-.055-.101-.212 0-.157.09h-.008zM153.911 26.826a18.555 18.555 0 0 1 1.907 5.632c0 .114.195.067.174-.047a18.682 18.682 0 0 0-1.924-5.674c-.055-.101-.212 0-.157.09z"/>
        </g>
    </g>
</svg>
