<?xml version="1.0" encoding="utf-8"?>
<!-- Generator: Adobe Illustrator 22.0.1, SVG Export Plug-In . SVG Version: 6.00 Build 0)  -->
<svg version="1.1" id="图层_1" xmlns="http://www.w3.org/2000/svg" xmlns:xlink="http://www.w3.org/1999/xlink" x="0px" y="0px"
	 viewBox="0 0 686 320" style="enable-background:new 0 0 686 320;" xml:space="preserve">
<style type="text/css">
	.st0{fill:#FFFFFF;stroke:#8C8C8C;stroke-width:1.0036;}
	.st1{fill:none;stroke:#8C8C8C;stroke-width:1.0036;stroke-dasharray:12.0434,8.0289,12.0434,8.0289;}
</style>
<title>img_activity_coupons@2x</title>
<desc>Created with Sketch.</desc>
<g id="首頁_x2B_搜索">
	<g id="優惠活動頁面" transform="translate(-16.000000, -278.000000)">
		<g id="Group-10" transform="translate(16.000000, 278.000000)">
			<g id="img_activity_coupons">
				<path id="Combined-Shape" class="st0" d="M563.8,319.8c0.2-7.3,6.2-13.2,13.5-13.2c7.4,0,13.3,5.9,13.5,13.2h83.6
					c6.4,0,11.5-5.2,11.5-11.6V11.4c0-6.4-5.2-11.6-11.5-11.6h-83.6c0,0.2,0,0.3,0,0.5c0,7.5-6.1,13.6-13.5,13.6
					s-13.5-6.1-13.5-13.6c0-0.2,0-0.3,0-0.5H11.5C5.2-0.2,0,5,0,11.4v296.9c0,6.4,5.2,11.6,11.5,11.6H563.8z"/>
				<path id="Line-2" class="st1" d="M578.3,16.4v289.7"/>
			</g>
		</g>
	</g>
</g>
</svg>
