<svg xmlns="http://www.w3.org/2000/svg" xmlns:xlink="http://www.w3.org/1999/xlink" width="33" height="33" viewBox="0 0 33 33">
    <defs>
        <linearGradient id="a" x1="40.51%" x2="90.953%" y1="39.48%" y2="92.128%">
            <stop offset="0%" stop-color="#FA5575"/>
            <stop offset="100%" stop-color="#FF0162"/>
        </linearGradient>
        <path id="b" d="M0 0h20.038v18H0z"/>
    </defs>
    <g fill="none" fill-rule="evenodd">
        <rect width="33" height="33" fill="url(#a)" rx="8"/>
        <g transform="translate(7 7)">
            <mask id="c" fill="#fff">
                <use xlink:href="#b"/>
            </mask>
            <path fill="#FFF" d="M17.753 8.248c-.472 1.267-1.666 3.419-5.087 3.937-4.219.64-9.967-.003-10.274-4.465-.365-5.285 7.581-6.47 10.666-5.116 4.67 2.051 1.36 5.166-1.114 5.166-2.417 0-2.956-1.342-3.196-1.719-.24-.377-.996-1.272-2.211-.589-.992.558-.765 1.777-.304 2.467.581.872 2.642 2.269 5.73 2.269 2.977 0 5.372-2.064 5.876-4.562.366-1.815-1.213-3.974-3.72-4.849C12.179.11 10.326-.24 7.329.186 3.006.8 0 4.326 0 7.723c0 4.085 3.363 8.2 7.306 9.162l.047.01v.743c.86.236 1.767.362 2.704.362.918 0 1.807-.121 2.651-.347v-.772c.38-.092 6.554-1.673 7.322-8.586 0 0 .004-.017.008-.047h-2.285z" mask="url(#c)"/>
        </g>
    </g>
</svg>
