<svg xmlns="http://www.w3.org/2000/svg" xmlns:xlink="http://www.w3.org/1999/xlink" width="160" height="160" viewBox="0 0 160 160">
    <defs>
        <path id="a" d="M.056.587h3.215v1.841H.056z"/>
        <path id="c" d="M.14.087h2.927v7.212H.139z"/>
    </defs>
    <g fill="none" fill-rule="evenodd">
        <path fill="#FF5D7F" d="M28.093 130.604l2.98.884c.579.173.826-.732.249-.903l-2.98-.885c-.58-.172-.828.732-.25.904M35.492 133.477c1.143.343 2.286.685 3.428 1.029.58.173.827-.73.25-.905l-3.429-1.028c-.579-.174-.826.73-.249.904M45.709 138.375c.975.507 1.95 1.014 2.927 1.52.534.278 1.009-.53.473-.809l-2.927-1.52c-.534-.278-1.009.531-.473.81M41.286 135.418l.98.5c.536.273 1.011-.535.473-.81l-.98-.5c-.536-.272-1.01.536-.473.81M51.557 141.911c.82.492 1.639.985 2.459 1.476.518.312.99-.499.473-.809l-2.459-1.476c-.518-.311-.99.499-.473.81M59.235 145.52c.201.627.903 1.038 1.543.778.236-.095.397-.31.328-.576-.06-.223-.343-.423-.577-.327-.15.06-.332.058-.39-.125-.184-.572-1.09-.327-.904.25M63.504 146.103a3.978 3.978 0 0 1 2.22-1.702c.575-.176.33-1.081-.25-.903a4.977 4.977 0 0 0-2.779 2.132c-.323.512.488.982.809.473M69.634 141.865a14.127 14.127 0 0 0 3.653-1.851c.488-.346.021-1.16-.473-.81a13.243 13.243 0 0 1-3.429 1.758c-.569.192-.325 1.098.249.903M78.216 137.366l2.459-1.967c.47-.377-.197-1.036-.664-.663l-2.458 1.967c-.471.377.196 1.036.663.663M86.496 133.044l2.955-1.465c.54-.268.067-1.077-.473-.81l-2.955 1.465c-.541.268-.066 1.077.473.81M95.347 129.11l2.956-1.465c.54-.268.066-1.076-.473-.81l-2.956 1.466c-.54.267-.066 1.076.473.809M105.423 124.226c.602 0 .603-.937 0-.937s-.605.937 0 .937M112.638 119.171l.492-.492c.427-.427-.236-1.09-.663-.663l-.492.492c-.427.427.235 1.09.663.663M118.7 116.85h.983c.603 0 .604-.938 0-.938h-.984c-.602 0-.604.938 0 .938M126.34 114.873l.98-.5c.537-.273.063-1.082-.474-.808l-.979.498c-.538.275-.064 1.083.473.81M27.668 125.978a7.413 7.413 0 0 1 2.25-2.324c.503-.33.034-1.142-.471-.81a8.496 8.496 0 0 0-2.589 2.661c-.317.515.494.986.81.473M36.21 119.783l3.934-1.475c.56-.21.318-1.116-.25-.903l-3.933 1.475c-.56.21-.317 1.116.25.903M46.178 114.361l3.96-2.416c.515-.313.044-1.124-.473-.808l-3.96 2.415c-.514.314-.043 1.125.473.81M55.009 109.901l2.459-1.475c.516-.31.046-1.121-.474-.81-.819.493-1.639.984-2.458 1.476-.517.31-.046 1.12.473.81M63.3 106.615l2.46-.98c.553-.22.312-1.127-.25-.904l-2.459.98c-.554.22-.312 1.128.249.904M72.967 101.114h.492c.603 0 .603-.938 0-.938h-.492c-.603 0-.604.938 0 .938M78.376 99.147h.983c.603 0 .604-.938 0-.938h-.983c-.603 0-.604.938 0 .938M86.536 97.734c1.14-.51 2.28-1.018 3.42-1.526.55-.245.074-1.053-.472-.81-1.14.51-2.28 1.017-3.42 1.526-.55.245-.074 1.053.472.81M94.604 94.72h2.95c.603 0 .604-.936 0-.936h-2.95c-.603 0-.604.937 0 .937M102.793 95.328l2.499.87c.57.198.816-.706.248-.904l-2.498-.87c-.57-.198-.816.707-.249.904M109.714 97.688l1.96.523c.582.156.831-.748.248-.904l-1.958-.522c-.584-.157-.833.748-.25.903M114.51 100.111l2.422 1.065c.547.24 1.025-.568.473-.81-.808-.355-1.615-.71-2.424-1.064-.546-.24-1.024.567-.472.81M120.922 103.017l1.967.983c.538.27 1.013-.539.473-.809-.657-.327-1.311-.656-1.967-.984-.538-.268-1.014.54-.473.81M125.942 106.048l1.959.523c.583.156.832-.749.249-.903-.653-.176-1.306-.35-1.959-.524-.583-.156-.832.748-.249.904M131.815 108.29l1.922 1.065c.528.293 1.001-.516.473-.81l-1.922-1.064c-.528-.293-1.001.517-.473.81M131.363 112.89c.665.183 1.297-.184 1.527-.819.206-.567-.699-.812-.903-.249-.058.157-.23.205-.375.165-.582-.16-.83.744-.249.904M57.167 121.767c.404-1.142-.497-1.651-1.497-1.964-2.067-.645-4.583.011-6.237 1.343-3.142 2.532-3.395 7.113-.948 10.188 2.68 3.37 8.178 5.26 12.324 3.856 3.258-1.104 5.09-5.136 2.378-7.777-.432-.42-1.096.241-.663.663 3.736 3.638-1.771 6.636-4.816 6.6-2.244-.027-4.575-.8-6.429-2.046-2.443-1.643-4.132-4.438-3.359-7.453.335-1.304 1.086-2.406 2.12-3.245a4.6 4.6 0 0 1 2.306-1.216c1.428-.478 2.734-.21 3.917.802-.201.57.704.815.904.249M67.04 120.872c-1.931.556-2.593 2.918-1.518 4.552 1.374 2.087 4.58 2.437 6.717 1.494 2.027-.895 3.34-3.398 2.126-5.464-1.407-2.391-4.576-1.567-6.657-.756-.556.217-.314 1.123.249.904 1.244-.486 2.717-1.04 4.07-.735 2.397.54 2.242 3.565.53 4.78-1.356.962-3.251 1.07-4.76.414-1.64-.713-2.933-3.587-.509-4.285.579-.167.333-1.071-.249-.904M74.16 117.442c2.22 2.51 6.859 5.785 10.183 3.322 3.594-2.664-.47-6.472-3.108-7.72-.542-.257-1.018.55-.473.809 1.149.545 2.31 1.195 3.1 2.218.721.937 1.05 1.764.58 2.865-.484 1.134-1.35 1.678-2.64 1.715-2.696.078-5.3-1.975-6.98-3.872-.4-.452-1.06.213-.662.663M85.05 112.183a47.913 47.913 0 0 0 11.276 5.7c.57.2.816-.706.25-.904a46.888 46.888 0 0 1-11.052-5.606c-.499-.341-.968.47-.473.81"/>
        <path fill="#FF5D7F" d="M86.254 111.649c1.028-2.47 4.159-4.305 6.717-2.841 1.588.909 1.77 2.738.463 3.976-.224.21-3.07 2.003-3.192 1.532-.15-.583-1.054-.336-.903.25.438 1.701 3.1.083 3.9-.452 1.488-.995 2.626-2.692 1.79-4.497-.84-1.815-3.139-2.487-4.975-2.158-2.192.393-3.866 1.928-4.704 3.94-.232.556.676.8.904.25M98.29 105.59c-1.715.06-2.538 2.046-1.67 3.454 1.093 1.776 4.102 2.28 5.891 1.459 1.63-.748 2.439-2.76 1.21-4.227-1.677-2-4.366-1.085-6.371-.213-.552.24-.076 1.047.472.808 1.044-.453 2.233-.987 3.404-.878 1.594.146 2.982 1.957 1.513 3.262-.994.883-2.61.796-3.789.381-.474-.166-.877-.386-1.218-.758-.604-.66-.912-2.3.558-2.35.601-.022.604-.959 0-.938M102.547 103.331l4.817 2.505.36-.857c-.844-.26-2.112-1.114-2.181-2.133-.157-2.285 1.903-1.381 2.682-1.095 1.502.55 2.9 1.312 4.244 2.173.51.325.98-.486.473-.81-1.532-.98-6.268-4.224-8.016-2.11-1.55 1.874.855 4.355 2.55 4.88.5.154.834-.61.36-.857l-4.816-2.505c-.534-.278-1.009.53-.473.81M110.812 86.897a47.595 47.595 0 0 1 4.787-8.22c.354-.489-.459-.957-.81-.473a47.592 47.592 0 0 0-4.786 8.22c-.248.545.559 1.021.809.473M123.135 90.495l3.8-4.433c.39-.455-.27-1.121-.663-.662l-3.8 4.433c-.39.455.27 1.122.663.662M140.157 96.925l4.12-3.162c.473-.362.005-1.176-.473-.81l-4.12 3.162c-.472.362-.006 1.177.473.81M23.502 108.693l-7.926-2.499c-.577-.181-.824.722-.25.903l7.928 2.5c.576.182.823-.723.248-.904M26.277 95.359l10.805 6.905c.51.327.98-.484.473-.808L26.75 94.549c-.51-.325-.98.486-.473.81M45.196 88.288l4.046 4.809c.39.462 1.05-.204.664-.663l-4.048-4.808c-.389-.462-1.048.204-.662.662M27.474 146.198l-3.166 2.534c-.47.376.196 1.036.662.662 1.056-.844 2.11-1.689 3.167-2.533.47-.377-.196-1.037-.663-.663M36.974 152.215l-2.85 3.483c-.38.463.28 1.13.662.663l2.85-3.483c.38-.464-.28-1.13-.662-.663M99.99 146.861c.632.528 1.266 1.056 1.9 1.583.46.383 1.126-.276.662-.663l-1.9-1.583c-.46-.384-1.127.276-.662.663M127.435 133.345l4.117 1.265c.578.177.825-.727.249-.904l-4.117-1.265c-.577-.177-.825.727-.249.904"/>
        <g transform="translate(141.273 119.755)">
            <mask id="b" fill="#fff">
                <use xlink:href="#a"/>
            </mask>
            <path fill="#060100" d="M.374 1.522l2.33.874c.566.212.81-.693.25-.904C2.176 1.202 1.398.91.622.618c-.566-.211-.81.694-.25.904" mask="url(#b)"/>
        </g>
        <g transform="translate(82.88 151.14)">
            <mask id="d" fill="#fff">
                <use xlink:href="#c"/>
            </mask>
            <path fill="#FF5D7F" d="M.163.662L2.14 6.973c.18.573 1.084.329.903-.25C2.385 4.62 1.726 2.516 1.066.413.886-.16-.017.084.163.663" mask="url(#d)"/>
        </g>
    </g>
</svg>
