<?xml version="1.0" encoding="UTF-8"?>
<svg width="32px" height="35px" viewBox="0 0 32 35" version="1.1" xmlns="http://www.w3.org/2000/svg" xmlns:xlink="http://www.w3.org/1999/xlink">
    <!-- Generator: Sketch 50.2 (55047) - http://www.bohemiancoding.com/sketch -->
    <title>step3</title>
    <desc>Created with Sketch.</desc>
    <defs></defs>
    <g id="首頁+搜索" stroke="none" stroke-width="1" fill="none" fill-rule="evenodd">
        <g id="新用戶優惠劵-未領取" transform="translate(-17.000000, -1121.000000)">
            <g id="Group" transform="translate(16.000000, 519.000000)">
                <g id="1" transform="translate(1.000000, 573.000000)">
                    <g id="step3" transform="translate(0.000000, 28.000000)">
                        <path d="M31.5,2.5 L4.5,35.5" id="Line-2" stroke="#FF0162" fill="#FA5575" stroke-linecap="square"></path>
                        <path d="M12.901139,26.02259 L9.84245904,29.7615677 C9.81754285,29.7616684 9.79258254,29.7617188 9.76757812,29.7617188 C6.46026992,29.7617188 4.06120537,28.8535247 2.5703125,27.0371094 C1.07941963,25.220694 0.333984375,23.0104297 0.333984375,20.40625 L4.00585938,20.40625 C4.16211016,22.2161549 4.50064844,23.5312459 5.02148438,24.3515625 C5.93294727,25.822924 7.58006621,26.5585938 9.96289062,26.5585938 C11.0739628,26.5585938 12.0533757,26.3799269 12.901139,26.02259 Z M16.0184311,22.2119639 C16.0699458,21.9031862 16.0957031,21.5812296 16.0957031,21.2460938 C16.0957031,19.3190008 15.5065163,17.971358 14.328125,17.203125 C13.1497337,16.434892 11.5123803,16.0507812 9.41601562,16.0507812 C9.18163945,16.0507812 8.94401162,16.0540364 8.703125,16.0605469 C8.46223838,16.0670573 8.2181002,16.0768229 7.97070312,16.0898438 L7.97070312,12.984375 C8.33528828,13.0234377 8.6412748,13.0494791 8.88867188,13.0625 C9.13606895,13.0755209 9.40299336,13.0820312 9.68945312,13.0820312 C11.0045639,13.0820312 12.0852822,12.8737 12.9316406,12.4570312 C14.416023,11.7278609 15.1582031,10.4257906 15.1582031,8.55078125 C15.1582031,7.15754512 14.6634164,6.08333711 13.6738281,5.328125 C12.6842398,4.57291289 11.5319076,4.1953125 10.2167969,4.1953125 C7.87303516,4.1953125 6.25195762,4.97655469 5.35351562,6.5390625 C4.85872148,7.3984418 4.57877637,8.62238789 4.51367188,10.2109375 L1.03710938,10.2109375 C1.03710938,8.12759375 1.45377188,6.35677812 2.28710938,4.8984375 C3.7194082,2.29425781 6.23891426,0.9921875 9.84570312,0.9921875 C12.6972799,0.9921875 14.9042891,1.62694678 16.4667969,2.89648438 C18.0293047,4.16602197 18.8105469,6.00519629 18.8105469,8.4140625 C18.8105469,10.1328211 18.3483119,11.5260363 17.4238281,12.59375 C16.8509086,13.2578158 16.1087285,13.7786439 15.1972656,14.15625 C16.6686271,14.5598979 17.8177042,15.3378849 18.6445312,16.4902344 C18.980176,16.9580227 19.2476934,17.4681854 19.4470843,18.0207252 L16.0184311,22.2119639 Z" id="Combined-Shape" fill="#FF0062"></path>
                    </g>
                </g>
            </g>
        </g>
    </g>
</svg>