<?xml version="1.0" encoding="UTF-8"?>
<svg width="32px" height="36px" viewBox="0 0 32 36" version="1.1" xmlns="http://www.w3.org/2000/svg" xmlns:xlink="http://www.w3.org/1999/xlink">
    <!-- Generator: Sketch 50.2 (55047) - http://www.bohemiancoding.com/sketch -->
    <title>step2</title>
    <desc>Created with Sketch.</desc>
    <defs></defs>
    <g id="首頁+搜索" stroke="none" stroke-width="1" fill="none" fill-rule="evenodd">
        <g id="新用戶優惠劵-未領取" transform="translate(-223.000000, -856.000000)">
            <g id="Group" transform="translate(16.000000, 519.000000)">
                <g id="2" transform="translate(0.000000, 309.000000)">
                    <g id="step2" transform="translate(207.000000, 28.000000)">
                        <path d="M31.5,2.5 L4.5,35.5" id="Line-2" stroke="#FF0162" fill="#FA5575" stroke-linecap="square"></path>
                        <path d="M13.1816512,25.6796875 L10.4654614,29 L0.626953125,29 C0.757162109,26.5911338 1.255204,24.4948006 2.12109375,22.7109375 C2.9869835,20.9270744 4.67641973,19.3059969 7.18945312,17.8476562 L10.9394531,15.6796875 C12.619149,14.7031201 13.7975227,13.8697951 14.4746094,13.1796875 C15.542323,12.0989529 16.0761719,10.8619861 16.0761719,9.46875 C16.0761719,7.8411377 15.5878955,6.54883291 14.6113281,5.59179688 C13.6347607,4.63476084 12.3326904,4.15625 10.7050781,4.15625 C8.29621191,4.15625 6.62956191,5.06769922 5.70507813,6.890625 C5.21028398,7.86719238 4.93684922,9.22134551 4.88476562,10.953125 L1.31054688,10.953125 C1.34960957,8.51821699 1.79882383,6.53255977 2.65820312,4.99609375 C4.18164824,2.28774688 6.87042344,0.93359375 10.7246094,0.93359375 C13.9277504,0.93359375 16.2682218,1.79947051 17.7460938,3.53125 C19.2239657,5.26302949 19.9628906,7.19009355 19.9628906,9.3125 C19.9628906,11.5520945 19.1751381,13.4661379 17.5996094,15.0546875 C16.6881465,15.9791713 15.0540482,17.0989518 12.6972656,18.4140625 L10.0214844,19.8984375 C8.74543633,20.601566 7.74284219,21.2721322 7.01367188,21.9101562 C5.71158203,23.0429744 4.89127773,24.2994723 4.55273438,25.6796875 L13.1816512,25.6796875 Z M19.8261719,28.4202882 L19.8261719,29 L19.7326919,29 L19.8261719,28.4202882 Z" id="Combined-Shape" fill="#FF0062"></path>
                    </g>
                </g>
            </g>
        </g>
    </g>
</svg>